<?xml version="1.0" standalone="no"?>
<!DOCTYPE svg PUBLIC "-//W3C//DTD SVG 1.1//EN"
  "http://www.w3.org/Graphics/SVG/1.1/DTD/svg11.dtd">
<svg width="531.49px" height="531.49px" version="1.1"
    xmlns="http://www.w3.org/2000/svg"
    xmlns:xlink="http://www.w3.org/1999/xlink">
<desc>Veusz output document</desc>
<defs>
<clipPath id="c0">
<path d="m0,0l531.49,0l0,531.49l-531.49,0l0,-531.49"/>
</clipPath>
<clipPath id="c1">
<path d="m60.23,7.08l464.17,0l0,464.17l-464.17,0l0,-464.17"/>
</clipPath>
<clipPath id="c2">
<path d="m243.95,169.29l280.45,0l0,215.71l-280.45,0l0,-215.71"/>
</clipPath>
</defs>
<g stroke-linejoin="bevel" stroke-linecap="square" stroke="#000000" fill-rule="evenodd">
<g clip-path="url(#c0)">
<g fill="#ffffff" stroke-width="0.62">
<path d="m60.23,7.08l464.17,0l0,464.17l-464.17,0l0,-464.17"/>
</g>
<g fill="none" stroke-width="0.1">
<g stroke="none" fill="#000000" fill-opacity="1" font-family="Serif" font-size="25.0">
<text x="109.43" y="40.5" textLength="210.15">Filename search</text>
</g>
</g>
</g>
<g clip-path="url(#c1)">
<g fill="#377eb8" stroke-linejoin="miter" stroke-width="0.62">
<g transform="translate(120.42,470.33)">
<path d="m3.75,0c0,2.07,-1.67,3.75,-3.75,3.75c-2.07,0,-3.75,-1.67,-3.75,-3.75c0,-2.07,1.67,-3.75,3.75,-3.75c2.07,0,3.75,1.67,3.75,3.75" id="p0"/>
</g>
<use xlink:href="#p0" x="120.36" y="469.4"/>
<use xlink:href="#p0" x="120.37" y="468.47"/>
<use xlink:href="#p0" x="120.38" y="467.54"/>
<use xlink:href="#p0" x="120.67" y="466.61"/>
<use xlink:href="#p0" x="120.39" y="465.68"/>
<use xlink:href="#p0" x="120.37" y="464.76"/>
<use xlink:href="#p0" x="120.36" y="463.83"/>
<use xlink:href="#p0" x="120.36" y="462.9"/>
<use xlink:href="#p0" x="120.37" y="461.97"/>
<use xlink:href="#p0" x="120.37" y="461.04"/>
<use xlink:href="#p0" x="120.36" y="460.11"/>
<use xlink:href="#p0" x="120.36" y="459.19"/>
<use xlink:href="#p0" x="120.36" y="458.26"/>
<use xlink:href="#p0" x="120.36" y="457.33"/>
<use xlink:href="#p0" x="120.36" y="456.4"/>
<use xlink:href="#p0" x="120.36" y="455.47"/>
<use xlink:href="#p0" x="120.44" y="454.54"/>
<use xlink:href="#p0" x="120.59" y="453.62"/>
<use xlink:href="#p0" x="120.36" y="452.69"/>
<use xlink:href="#p0" x="120.36" y="451.76"/>
<use xlink:href="#p0" x="120.53" y="450.83"/>
<use xlink:href="#p0" x="120.4" y="449.9"/>
<use xlink:href="#p0" x="120.37" y="448.97"/>
<use xlink:href="#p0" x="120.36" y="448.05"/>
<use xlink:href="#p0" x="120.85" y="447.12"/>
<use xlink:href="#p0" x="120.49" y="446.19"/>
<use xlink:href="#p0" x="120.37" y="445.26"/>
<use xlink:href="#p0" x="120.36" y="444.33"/>
<use xlink:href="#p0" x="120.36" y="443.4"/>
<use xlink:href="#p0" x="120.38" y="442.48"/>
<use xlink:href="#p0" x="120.36" y="441.55"/>
<use xlink:href="#p0" x="120.36" y="440.62"/>
<use xlink:href="#p0" x="120.36" y="439.69"/>
<use xlink:href="#p0" x="120.36" y="438.76"/>
<use xlink:href="#p0" x="120.36" y="437.83"/>
<use xlink:href="#p0" x="120.36" y="436.91"/>
<use xlink:href="#p0" x="120.36" y="435.98"/>
<use xlink:href="#p0" x="120.38" y="435.05"/>
<use xlink:href="#p0" x="120.36" y="434.12"/>
<use xlink:href="#p0" x="120.38" y="433.19"/>
<use xlink:href="#p0" x="120.4" y="432.26"/>
<use xlink:href="#p0" x="120.36" y="431.34"/>
<use xlink:href="#p0" x="120.36" y="430.41"/>
<use xlink:href="#p0" x="120.37" y="429.48"/>
<use xlink:href="#p0" x="120.36" y="428.55"/>
<use xlink:href="#p0" x="120.37" y="427.62"/>
<use xlink:href="#p0" x="120.36" y="426.69"/>
<use xlink:href="#p0" x="120.37" y="425.77"/>
<use xlink:href="#p0" x="120.48" y="424.84"/>
<use xlink:href="#p0" x="156.47" y="423.91"/>
<use xlink:href="#p0" x="120.41" y="422.98"/>
<use xlink:href="#p0" x="120.36" y="422.05"/>
<use xlink:href="#p0" x="120.37" y="421.12"/>
<use xlink:href="#p0" x="156.58" y="420.2"/>
<use xlink:href="#p0" x="120.36" y="419.27"/>
<use xlink:href="#p0" x="120.36" y="418.34"/>
<use xlink:href="#p0" x="120.36" y="417.41"/>
<use xlink:href="#p0" x="120.36" y="416.48"/>
<use xlink:href="#p0" x="120.36" y="415.55"/>
<use xlink:href="#p0" x="120.61" y="414.63"/>
<use xlink:href="#p0" x="120.36" y="413.7"/>
<use xlink:href="#p0" x="120.38" y="412.77"/>
<use xlink:href="#p0" x="120.36" y="411.84"/>
<use xlink:href="#p0" x="120.37" y="410.91"/>
<use xlink:href="#p0" x="120.36" y="409.98"/>
<use xlink:href="#p0" x="120.36" y="409.06"/>
<use xlink:href="#p0" x="120.37" y="408.13"/>
<use xlink:href="#p0" x="120.41" y="407.2"/>
<use xlink:href="#p0" x="120.36" y="406.27"/>
<use xlink:href="#p0" x="120.36" y="405.34"/>
<use xlink:href="#p0" x="120.36" y="404.41"/>
<use xlink:href="#p0" x="120.36" y="403.49"/>
<use xlink:href="#p0" x="120.36" y="402.56"/>
<use xlink:href="#p0" x="120.37" y="401.63"/>
<use xlink:href="#p0" x="120.36" y="400.7"/>
<use xlink:href="#p0" x="120.36" y="399.77"/>
<use xlink:href="#p0" x="120.36" y="398.84"/>
<use xlink:href="#p0" x="120.36" y="397.92"/>
<use xlink:href="#p0" x="120.36" y="396.99"/>
<use xlink:href="#p0" x="120.79" y="396.06"/>
<use xlink:href="#p0" x="120.37" y="395.13"/>
<use xlink:href="#p0" x="120.36" y="394.2"/>
<use xlink:href="#p0" x="120.55" y="393.27"/>
<use xlink:href="#p0" x="120.36" y="392.35"/>
<use xlink:href="#p0" x="120.37" y="391.42"/>
<use xlink:href="#p0" x="120.36" y="390.49"/>
<use xlink:href="#p0" x="120.39" y="389.56"/>
<use xlink:href="#p0" x="120.36" y="388.63"/>
<use xlink:href="#p0" x="120.36" y="387.7"/>
<use xlink:href="#p0" x="120.36" y="386.78"/>
<use xlink:href="#p0" x="120.42" y="385.85"/>
<use xlink:href="#p0" x="120.36" y="384.92"/>
<use xlink:href="#p0" x="120.4" y="383.99"/>
<use xlink:href="#p0" x="120.36" y="383.06"/>
<use xlink:href="#p0" x="120.38" y="382.13"/>
<use xlink:href="#p0" x="120.36" y="381.21"/>
<use xlink:href="#p0" x="120.37" y="380.28"/>
<use xlink:href="#p0" x="120.36" y="379.35"/>
<use xlink:href="#p0" x="120.36" y="378.42"/>
<use xlink:href="#p0" x="120.51" y="377.49"/>
<use xlink:href="#p0" x="125.18" y="376.56"/>
<use xlink:href="#p0" x="120.39" y="375.64"/>
<use xlink:href="#p0" x="120.4" y="374.71"/>
<use xlink:href="#p0" x="120.43" y="373.78"/>
<use xlink:href="#p0" x="120.37" y="372.85"/>
<use xlink:href="#p0" x="121.74" y="371.92"/>
<use xlink:href="#p0" x="120.36" y="370.99"/>
<use xlink:href="#p0" x="120.36" y="370.07"/>
<use xlink:href="#p0" x="120.43" y="369.14"/>
<use xlink:href="#p0" x="120.36" y="368.21"/>
<use xlink:href="#p0" x="120.38" y="367.28"/>
<use xlink:href="#p0" x="120.83" y="366.35"/>
<use xlink:href="#p0" x="120.38" y="365.42"/>
<use xlink:href="#p0" x="120.52" y="364.5"/>
<use xlink:href="#p0" x="120.48" y="363.57"/>
<use xlink:href="#p0" x="120.5" y="362.64"/>
<use xlink:href="#p0" x="120.36" y="361.71"/>
<use xlink:href="#p0" x="120.36" y="360.78"/>
<use xlink:href="#p0" x="120.39" y="359.85"/>
<use xlink:href="#p0" x="120.37" y="358.92"/>
<use xlink:href="#p0" x="120.37" y="358"/>
<use xlink:href="#p0" x="120.36" y="357.07"/>
<use xlink:href="#p0" x="120.36" y="356.14"/>
<use xlink:href="#p0" x="120.36" y="355.21"/>
<use xlink:href="#p0" x="120.37" y="354.28"/>
<use xlink:href="#p0" x="120.36" y="353.35"/>
<use xlink:href="#p0" x="120.38" y="352.43"/>
<use xlink:href="#p0" x="120.36" y="351.5"/>
<use xlink:href="#p0" x="120.37" y="350.57"/>
<use xlink:href="#p0" x="120.36" y="349.64"/>
<use xlink:href="#p0" x="120.36" y="348.71"/>
<use xlink:href="#p0" x="120.36" y="347.78"/>
<use xlink:href="#p0" x="120.42" y="346.86"/>
<use xlink:href="#p0" x="120.36" y="345.93"/>
<use xlink:href="#p0" x="120.36" y="345"/>
<use xlink:href="#p0" x="120.47" y="344.07"/>
<use xlink:href="#p0" x="120.39" y="343.14"/>
<use xlink:href="#p0" x="120.37" y="342.21"/>
<use xlink:href="#p0" x="120.36" y="341.29"/>
<use xlink:href="#p0" x="120.67" y="340.36"/>
<use xlink:href="#p0" x="120.36" y="339.43"/>
<use xlink:href="#p0" x="120.36" y="338.5"/>
<use xlink:href="#p0" x="120.37" y="337.57"/>
<use xlink:href="#p0" x="120.36" y="336.64"/>
<use xlink:href="#p0" x="120.36" y="335.72"/>
<use xlink:href="#p0" x="120.37" y="334.79"/>
<use xlink:href="#p0" x="120.36" y="333.86"/>
<use xlink:href="#p0" x="120.36" y="332.93"/>
<use xlink:href="#p0" x="120.79" y="332"/>
<use xlink:href="#p0" x="120.5" y="331.07"/>
<use xlink:href="#p0" x="120.36" y="330.15"/>
<use xlink:href="#p0" x="120.37" y="329.22"/>
<use xlink:href="#p0" x="120.38" y="328.29"/>
<use xlink:href="#p0" x="120.37" y="327.36"/>
<use xlink:href="#p0" x="120.36" y="326.43"/>
<use xlink:href="#p0" x="157.96" y="325.5"/>
<use xlink:href="#p0" x="121.04" y="324.58"/>
<use xlink:href="#p0" x="120.36" y="323.65"/>
<use xlink:href="#p0" x="120.36" y="322.72"/>
<use xlink:href="#p0" x="120.36" y="321.79"/>
<use xlink:href="#p0" x="120.37" y="320.86"/>
<use xlink:href="#p0" x="120.36" y="319.93"/>
<use xlink:href="#p0" x="120.39" y="319.01"/>
<use xlink:href="#p0" x="120.37" y="318.08"/>
<use xlink:href="#p0" x="120.36" y="317.15"/>
<use xlink:href="#p0" x="120.36" y="316.22"/>
<use xlink:href="#p0" x="120.36" y="315.29"/>
<use xlink:href="#p0" x="120.36" y="314.36"/>
<use xlink:href="#p0" x="120.4" y="313.44"/>
<use xlink:href="#p0" x="120.36" y="312.51"/>
<use xlink:href="#p0" x="120.36" y="311.58"/>
<use xlink:href="#p0" x="120.37" y="310.65"/>
<use xlink:href="#p0" x="120.37" y="309.72"/>
<use xlink:href="#p0" x="120.36" y="308.79"/>
<use xlink:href="#p0" x="120.36" y="307.87"/>
<use xlink:href="#p0" x="120.55" y="306.94"/>
<use xlink:href="#p0" x="120.37" y="306.01"/>
<use xlink:href="#p0" x="120.39" y="305.08"/>
<use xlink:href="#p0" x="120.41" y="304.15"/>
<use xlink:href="#p0" x="120.46" y="303.22"/>
<use xlink:href="#p0" x="120.36" y="302.3"/>
<use xlink:href="#p0" x="120.36" y="301.37"/>
<use xlink:href="#p0" x="120.39" y="300.44"/>
<use xlink:href="#p0" x="120.36" y="299.51"/>
<use xlink:href="#p0" x="120.36" y="298.58"/>
<use xlink:href="#p0" x="120.36" y="297.65"/>
<use xlink:href="#p0" x="120.4" y="296.73"/>
<use xlink:href="#p0" x="120.37" y="295.8"/>
<use xlink:href="#p0" x="120.36" y="294.87"/>
<use xlink:href="#p0" x="120.36" y="293.94"/>
<use xlink:href="#p0" x="120.37" y="293.01"/>
<use xlink:href="#p0" x="120.37" y="292.08"/>
<use xlink:href="#p0" x="120.39" y="291.16"/>
<use xlink:href="#p0" x="120.38" y="290.23"/>
<use xlink:href="#p0" x="120.36" y="289.3"/>
<use xlink:href="#p0" x="120.38" y="288.37"/>
<use xlink:href="#p0" x="120.36" y="287.44"/>
<use xlink:href="#p0" x="120.37" y="286.51"/>
<use xlink:href="#p0" x="120.5" y="285.59"/>
<use xlink:href="#p0" x="120.36" y="284.66"/>
<use xlink:href="#p0" x="120.36" y="283.73"/>
<use xlink:href="#p0" x="120.36" y="282.8"/>
<use xlink:href="#p0" x="120.38" y="281.87"/>
<use xlink:href="#p0" x="120.45" y="280.94"/>
<use xlink:href="#p0" x="120.37" y="280.02"/>
<use xlink:href="#p0" x="120.46" y="279.09"/>
<use xlink:href="#p0" x="120.6" y="278.16"/>
<use xlink:href="#p0" x="121.32" y="277.23"/>
<use xlink:href="#p0" x="120.41" y="276.3"/>
<use xlink:href="#p0" x="120.64" y="275.37"/>
<use xlink:href="#p0" x="120.81" y="274.45"/>
<use xlink:href="#p0" x="120.38" y="273.52"/>
<use xlink:href="#p0" x="120.39" y="272.59"/>
<use xlink:href="#p0" x="120.39" y="271.66"/>
<use xlink:href="#p0" x="120.44" y="270.73"/>
<use xlink:href="#p0" x="120.44" y="269.8"/>
<use xlink:href="#p0" x="120.48" y="268.88"/>
<use xlink:href="#p0" x="120.55" y="267.95"/>
<use xlink:href="#p0" x="120.55" y="267.02"/>
<use xlink:href="#p0" x="120.72" y="266.09"/>
<use xlink:href="#p0" x="121.08" y="265.16"/>
<use xlink:href="#p0" x="209" y="264.23"/>
<use xlink:href="#p0" x="121.39" y="263.31"/>
<use xlink:href="#p0" x="121.34" y="262.38"/>
<use xlink:href="#p0" x="121.35" y="261.45"/>
<use xlink:href="#p0" x="121.44" y="260.52"/>
<use xlink:href="#p0" x="121.46" y="259.59"/>
<use xlink:href="#p0" x="121.54" y="258.66"/>
<use xlink:href="#p0" x="121.46" y="257.74"/>
<use xlink:href="#p0" x="121.9" y="256.81"/>
<use xlink:href="#p0" x="121.92" y="255.88"/>
<use xlink:href="#p0" x="121.97" y="254.95"/>
<use xlink:href="#p0" x="121.98" y="254.02"/>
<use xlink:href="#p0" x="122.04" y="253.09"/>
<use xlink:href="#p0" x="122.08" y="252.17"/>
<use xlink:href="#p0" x="122.21" y="251.24"/>
<use xlink:href="#p0" x="122.23" y="250.31"/>
<use xlink:href="#p0" x="122.23" y="249.38"/>
<use xlink:href="#p0" x="122.24" y="248.45"/>
<use xlink:href="#p0" x="122.26" y="247.52"/>
<use xlink:href="#p0" x="122.3" y="246.6"/>
<use xlink:href="#p0" x="122.32" y="245.67"/>
<use xlink:href="#p0" x="122.39" y="244.74"/>
<use xlink:href="#p0" x="122.4" y="243.81"/>
<use xlink:href="#p0" x="122.41" y="242.88"/>
<use xlink:href="#p0" x="122.43" y="241.95"/>
<use xlink:href="#p0" x="122.48" y="241.02"/>
<use xlink:href="#p0" x="122.5" y="240.1"/>
<use xlink:href="#p0" x="122.52" y="239.17"/>
<use xlink:href="#p0" x="122.56" y="238.24"/>
<use xlink:href="#p0" x="122.56" y="237.31"/>
<use xlink:href="#p0" x="122.56" y="236.38"/>
<use xlink:href="#p0" x="122.59" y="235.45"/>
<use xlink:href="#p0" x="122.6" y="234.53"/>
<use xlink:href="#p0" x="122.63" y="233.6"/>
<use xlink:href="#p0" x="122.63" y="232.67"/>
<use xlink:href="#p0" x="122.65" y="231.74"/>
<use xlink:href="#p0" x="122.7" y="230.81"/>
<use xlink:href="#p0" x="122.8" y="229.88"/>
<use xlink:href="#p0" x="122.82" y="228.96"/>
<use xlink:href="#p0" x="122.85" y="228.03"/>
<use xlink:href="#p0" x="122.86" y="227.1"/>
<use xlink:href="#p0" x="122.92" y="226.17"/>
<use xlink:href="#p0" x="123.01" y="225.24"/>
<use xlink:href="#p0" x="123.03" y="224.31"/>
<use xlink:href="#p0" x="123.12" y="223.39"/>
<use xlink:href="#p0" x="123.26" y="222.46"/>
<use xlink:href="#p0" x="123.57" y="221.53"/>
<use xlink:href="#p0" x="123.6" y="220.6"/>
<use xlink:href="#p0" x="123.63" y="219.67"/>
<use xlink:href="#p0" x="123.65" y="218.74"/>
<use xlink:href="#p0" x="123.76" y="217.82"/>
<use xlink:href="#p0" x="123.78" y="216.89"/>
<use xlink:href="#p0" x="123.87" y="215.96"/>
<use xlink:href="#p0" x="123.98" y="215.03"/>
<use xlink:href="#p0" x="124.33" y="214.1"/>
<use xlink:href="#p0" x="160.54" y="213.17"/>
<use xlink:href="#p0" x="124.36" y="212.25"/>
<use xlink:href="#p0" x="124.67" y="211.32"/>
<use xlink:href="#p0" x="124.73" y="210.39"/>
<use xlink:href="#p0" x="126.03" y="209.46"/>
<use xlink:href="#p0" x="126.22" y="208.53"/>
<use xlink:href="#p0" x="126.63" y="207.6"/>
<use xlink:href="#p0" x="127" y="206.68"/>
<use xlink:href="#p0" x="166.45" y="205.75"/>
<use xlink:href="#p0" x="127.88" y="204.82"/>
<use xlink:href="#p0" x="164.84" y="203.89"/>
<use xlink:href="#p0" x="128.9" y="202.96"/>
<use xlink:href="#p0" x="128.99" y="202.03"/>
<use xlink:href="#p0" x="129.7" y="201.11"/>
<use xlink:href="#p0" x="129.75" y="200.18"/>
<use xlink:href="#p0" x="131.32" y="199.25"/>
<use xlink:href="#p0" x="131.35" y="198.32"/>
<use xlink:href="#p0" x="132.61" y="197.39"/>
<use xlink:href="#p0" x="136.54" y="196.46"/>
<use xlink:href="#p0" x="137.41" y="195.54"/>
<use xlink:href="#p0" x="145.42" y="194.61"/>
<use xlink:href="#p0" x="146.88" y="193.68"/>
<use xlink:href="#p0" x="149.17" y="192.75"/>
<use xlink:href="#p0" x="153.15" y="191.82"/>
<use xlink:href="#p0" x="154.23" y="190.89"/>
<use xlink:href="#p0" x="155.11" y="189.97"/>
<use xlink:href="#p0" x="155.15" y="189.04"/>
<use xlink:href="#p0" x="155.84" y="188.11"/>
<use xlink:href="#p0" x="156.05" y="187.18"/>
<use xlink:href="#p0" x="156.08" y="186.25"/>
<use xlink:href="#p0" x="156.76" y="185.32"/>
<use xlink:href="#p0" x="157.04" y="184.4"/>
<use xlink:href="#p0" x="157.02" y="183.47"/>
<use xlink:href="#p0" x="157.33" y="182.54"/>
<use xlink:href="#p0" x="157.33" y="181.61"/>
<use xlink:href="#p0" x="157.83" y="180.68"/>
<use xlink:href="#p0" x="157.84" y="179.75"/>
<use xlink:href="#p0" x="158.13" y="178.83"/>
<use xlink:href="#p0" x="158.15" y="177.9"/>
<use xlink:href="#p0" x="158.72" y="176.97"/>
<use xlink:href="#p0" x="158.78" y="176.04"/>
<use xlink:href="#p0" x="158.79" y="175.11"/>
<use xlink:href="#p0" x="158.8" y="174.18"/>
<use xlink:href="#p0" x="159.07" y="173.26"/>
<use xlink:href="#p0" x="159.32" y="172.33"/>
<use xlink:href="#p0" x="160.05" y="171.4"/>
<use xlink:href="#p0" x="161.33" y="170.47"/>
<use xlink:href="#p0" x="161.38" y="169.54"/>
<use xlink:href="#p0" x="162.02" y="168.61"/>
<use xlink:href="#p0" x="162.15" y="167.69"/>
<use xlink:href="#p0" x="163.08" y="166.76"/>
<use xlink:href="#p0" x="163.26" y="165.83"/>
<use xlink:href="#p0" x="163.43" y="164.9"/>
<use xlink:href="#p0" x="163.74" y="163.97"/>
<use xlink:href="#p0" x="164.07" y="163.04"/>
<use xlink:href="#p0" x="164.35" y="162.12"/>
<use xlink:href="#p0" x="165.21" y="161.19"/>
<use xlink:href="#p0" x="165.3" y="160.26"/>
<use xlink:href="#p0" x="165.57" y="159.33"/>
<use xlink:href="#p0" x="166.42" y="158.4"/>
<use xlink:href="#p0" x="166.85" y="157.47"/>
<use xlink:href="#p0" x="167.63" y="156.55"/>
<use xlink:href="#p0" x="167.79" y="155.62"/>
<use xlink:href="#p0" x="167.93" y="154.69"/>
<use xlink:href="#p0" x="167.92" y="153.76"/>
<use xlink:href="#p0" x="168.55" y="152.83"/>
<use xlink:href="#p0" x="168.74" y="151.9"/>
<use xlink:href="#p0" x="168.86" y="150.98"/>
<use xlink:href="#p0" x="169.86" y="150.05"/>
<use xlink:href="#p0" x="170.25" y="149.12"/>
<use xlink:href="#p0" x="171.86" y="148.19"/>
<use xlink:href="#p0" x="172.69" y="147.26"/>
<use xlink:href="#p0" x="173.02" y="146.33"/>
<use xlink:href="#p0" x="178.11" y="145.41"/>
<use xlink:href="#p0" x="192.18" y="144.48"/>
<use xlink:href="#p0" x="205.8" y="143.55"/>
<use xlink:href="#p0" x="206.68" y="142.62"/>
<use xlink:href="#p0" x="207.93" y="141.69"/>
<use xlink:href="#p0" x="209.33" y="140.76"/>
<use xlink:href="#p0" x="210.24" y="139.84"/>
<use xlink:href="#p0" x="210.46" y="138.91"/>
<use xlink:href="#p0" x="210.7" y="137.98"/>
<use xlink:href="#p0" x="210.8" y="137.05"/>
<use xlink:href="#p0" x="211.33" y="136.12"/>
<use xlink:href="#p0" x="211.97" y="135.19"/>
<use xlink:href="#p0" x="211.85" y="134.27"/>
<use xlink:href="#p0" x="212.34" y="133.34"/>
<use xlink:href="#p0" x="212.75" y="132.41"/>
<use xlink:href="#p0" x="213.03" y="131.48"/>
<use xlink:href="#p0" x="213.62" y="130.55"/>
<use xlink:href="#p0" x="213.96" y="129.62"/>
<use xlink:href="#p0" x="213.96" y="128.7"/>
<use xlink:href="#p0" x="214.19" y="127.77"/>
<use xlink:href="#p0" x="214.75" y="126.84"/>
<use xlink:href="#p0" x="216.16" y="125.91"/>
<use xlink:href="#p0" x="216.18" y="124.98"/>
<use xlink:href="#p0" x="218.64" y="124.05"/>
<use xlink:href="#p0" x="218.71" y="123.12"/>
<use xlink:href="#p0" x="222.58" y="122.2"/>
<use xlink:href="#p0" x="223.01" y="121.27"/>
<use xlink:href="#p0" x="226.95" y="120.34"/>
<use xlink:href="#p0" x="256.63" y="119.41"/>
<use xlink:href="#p0" x="259.12" y="118.48"/>
<use xlink:href="#p0" x="260.61" y="117.55"/>
<use xlink:href="#p0" x="261.26" y="116.63"/>
<use xlink:href="#p0" x="262.04" y="115.7"/>
<use xlink:href="#p0" x="263" y="114.77"/>
<use xlink:href="#p0" x="266.21" y="113.84"/>
<use xlink:href="#p0" x="269.05" y="112.91"/>
<use xlink:href="#p0" x="269.12" y="111.98"/>
<use xlink:href="#p0" x="270.93" y="111.06"/>
<use xlink:href="#p0" x="271.31" y="110.13"/>
<use xlink:href="#p0" x="272.34" y="109.2"/>
<use xlink:href="#p0" x="272.36" y="108.27"/>
<use xlink:href="#p0" x="272.75" y="107.34"/>
<use xlink:href="#p0" x="273.12" y="106.41"/>
<use xlink:href="#p0" x="274.08" y="105.49"/>
<use xlink:href="#p0" x="274.84" y="104.56"/>
<use xlink:href="#p0" x="275.43" y="103.63"/>
<use xlink:href="#p0" x="275.95" y="102.7"/>
<use xlink:href="#p0" x="276.55" y="101.77"/>
<use xlink:href="#p0" x="277.62" y="100.84"/>
<use xlink:href="#p0" x="278.61" y="99.92"/>
<use xlink:href="#p0" x="306.86" y="98.99"/>
<use xlink:href="#p0" x="312.06" y="98.06"/>
<use xlink:href="#p0" x="313.68" y="97.13"/>
<use xlink:href="#p0" x="315.04" y="96.2"/>
<use xlink:href="#p0" x="317.09" y="95.27"/>
<use xlink:href="#p0" x="318.03" y="94.35"/>
<use xlink:href="#p0" x="319.78" y="93.42"/>
<use xlink:href="#p0" x="321.08" y="92.49"/>
<use xlink:href="#p0" x="321.09" y="91.56"/>
<use xlink:href="#p0" x="321.12" y="90.63"/>
<use xlink:href="#p0" x="322.78" y="89.7"/>
<use xlink:href="#p0" x="325.76" y="88.78"/>
<use xlink:href="#p0" x="326.19" y="87.85"/>
<use xlink:href="#p0" x="327.78" y="86.92"/>
<use xlink:href="#p0" x="331.44" y="85.99"/>
<use xlink:href="#p0" x="331.69" y="85.06"/>
<use xlink:href="#p0" x="341.05" y="84.13"/>
<use xlink:href="#p0" x="346.31" y="83.21"/>
<use xlink:href="#p0" x="369.97" y="82.28"/>
<use xlink:href="#p0" x="375" y="81.35"/>
<use xlink:href="#p0" x="383.38" y="80.42"/>
<use xlink:href="#p0" x="421.2" y="79.49"/>
<use xlink:href="#p0" x="425.93" y="78.56"/>
<use xlink:href="#p0" x="433.3" y="77.64"/>
<use xlink:href="#p0" x="450.81" y="76.71"/>
<use xlink:href="#p0" x="464.91" y="75.78"/>
<use xlink:href="#p0" x="465.82" y="74.85"/>
<use xlink:href="#p0" x="467.72" y="73.92"/>
<use xlink:href="#p0" x="467.93" y="72.99"/>
<use xlink:href="#p0" x="469.24" y="72.07"/>
<use xlink:href="#p0" x="469.9" y="71.14"/>
<use xlink:href="#p0" x="470.08" y="70.21"/>
<use xlink:href="#p0" x="470.7" y="69.28"/>
<use xlink:href="#p0" x="470.98" y="68.35"/>
<use xlink:href="#p0" x="471.88" y="67.42"/>
<use xlink:href="#p0" x="474.47" y="66.5"/>
<use xlink:href="#p0" x="476.95" y="65.57"/>
<use xlink:href="#p0" x="482.21" y="64.64"/>
</g>
<g fill="none" stroke="#e41a1c" stroke-width="0.62">
<polyline fill="none" points="120.35,470.33 120.35,469.4 120.35,468.47 120.35,467.54 120.35,466.61 120.35,465.68 120.35,464.76 120.35,463.83 120.35,462.9 120.35,461.97 120.35,461.04 120.35,460.11 120.35,459.19 120.35,458.26 120.35,457.33 120.35,456.4 120.35,455.47 120.35,454.54 120.35,453.62 120.35,452.69 120.35,451.76 120.35,450.83 120.35,449.9 120.35,448.97 120.35,448.05 120.35,447.12 120.35,446.19 120.35,445.26 120.35,444.33 120.35,443.4 120.35,442.48 120.35,441.55 120.35,440.62 120.35,439.69 120.35,438.76 120.35,437.83 120.35,436.91 120.35,435.98 120.35,435.05 120.35,434.12 120.35,433.19 120.35,432.26 120.35,431.34 120.35,430.41 120.35,429.48 120.35,428.55 120.35,427.62 120.35,426.69 120.35,425.77 120.35,424.84 120.35,423.91 120.35,422.98 120.35,422.05 120.35,421.12 120.35,420.2 120.35,419.27 120.35,418.34 120.35,417.41 120.35,416.48 120.35,415.55 120.35,414.63 120.35,413.7 120.35,412.77 120.35,411.84 120.35,410.91 120.35,409.98 120.35,409.06 120.35,408.13 120.35,407.2 120.35,406.27 120.35,405.34 120.35,404.41 120.35,403.49 120.35,402.56 120.35,401.63 120.35,400.7 120.35,399.77 120.35,398.84 120.35,397.92 120.35,396.99 120.35,396.06 120.35,395.13 120.35,394.2 120.35,393.27 120.35,392.35 120.35,391.42 120.35,390.49 120.35,389.56 120.35,388.63 120.35,387.7 120.35,386.78 120.35,385.85 120.35,384.92 120.35,383.99 120.35,383.06 120.35,382.13 120.35,381.21 120.35,380.28 120.35,379.35 120.35,378.42 120.35,377.49 120.35,376.56 120.35,375.64 120.35,374.71 120.35,373.78 120.35,372.85 120.35,371.92 120.35,370.99 120.35,370.07 120.35,369.14 120.35,368.21 120.35,367.28 120.35,366.35 120.35,365.42 120.35,364.5 120.35,363.57 120.35,362.64 120.35,361.71 120.35,360.78 120.35,359.85 120.35,358.92 120.35,358 120.35,357.07 120.35,356.14 120.35,355.21 120.35,354.28 120.35,353.35 120.35,352.43 120.35,351.5 120.35,350.57 120.35,349.64 120.35,348.71 120.35,347.78 120.35,346.86 120.35,345.93 120.35,345 120.35,344.07 120.35,343.14 120.35,342.21 120.35,341.29 120.35,340.36 120.35,339.43 120.35,338.5 120.35,337.57 120.35,336.64 120.35,335.72 120.35,334.79 120.35,333.86 120.35,332.93 120.35,332 120.35,331.07 120.35,330.15 120.35,329.22 120.35,328.29 120.35,327.36 120.35,326.43 120.35,325.5 120.35,324.58 120.35,323.65 120.35,322.72 120.35,321.79 120.35,320.86 120.35,319.93 120.35,319.01 120.35,318.08 120.35,317.15 120.35,316.22 120.35,315.29 120.35,314.36 120.35,313.44 120.35,312.51 120.35,311.58 120.35,310.65 120.35,309.72 120.35,308.79 120.35,307.87 120.35,306.94 120.35,306.01 120.35,305.08 120.35,304.15 120.35,303.22 120.35,302.3 120.35,301.37 120.35,300.44 120.35,299.51 120.35,298.58 120.35,297.65 120.35,296.73 120.35,295.8 120.35,294.87 120.35,293.94 120.35,293.01 120.35,292.08 120.35,291.16 120.35,290.23 120.35,289.3 120.35,288.37 120.35,287.44 120.35,286.51 120.35,285.59 120.35,284.66 120.35,283.73 120.35,282.8 120.35,281.87 120.35,280.94 120.35,280.02 120.35,279.09 120.35,278.16 120.35,277.23 120.35,276.3 120.35,275.37 120.35,274.45 120.35,273.52 120.35,272.59 120.35,271.66 120.42,270.73 120.43,269.8 120.46,268.88 120.55,267.95 120.55,267.02 120.72,266.09 121.03,265.16 121.18,264.23 121.32,263.31 121.34,262.38 121.35,261.45 121.44,260.52 121.45,259.59 121.45,258.66 121.46,257.74 121.9,256.81 121.92,255.88 121.97,254.95 121.98,254.02 122.04,253.09 122.06,252.17 122.21,251.24 122.22,250.31 122.23,249.38 122.24,248.45 122.26,247.52 122.3,246.6 122.32,245.67 122.39,244.74 122.4,243.81 122.41,242.88 122.43,241.95 122.46,241.02 122.5,240.1 122.52,239.17 122.56,238.24 122.56,237.31 122.56,236.38 122.57,235.45 122.6,234.53 122.61,233.6 122.63,232.67 122.64,231.74 122.7,230.81 122.8,229.88 122.82,228.96 122.85,228.03 122.86,227.1 122.89,226.17 123.01,225.24 123.01,224.31 123.12,223.39 123.13,222.46 123.57,221.53 123.6,220.6 123.63,219.67 123.64,218.74 123.76,217.82 123.78,216.89 123.87,215.96 123.98,215.03 124.33,214.1 124.34,213.17 124.36,212.25 124.67,211.32 124.73,210.39 126.03,209.46 126.22,208.53 126.63,207.6 127,206.68 127.43,205.75 127.88,204.82 128.67,203.89 128.9,202.96 128.99,202.03 129.7,201.11 129.75,200.18 131.32,199.25 131.35,198.32 132.61,197.39 136.52,196.46 137.4,195.54 145.42,194.61 146.88,193.68 149.17,192.75 153.15,191.82 154.23,190.89 155.11,189.97 155.15,189.04 155.84,188.11 156.05,187.18 156.08,186.25 156.75,185.32 157.02,184.4 157.02,183.47 157.33,182.54 157.33,181.61 157.83,180.68 157.84,179.75 158.12,178.83 158.15,177.9 158.72,176.97 158.78,176.04 158.79,175.11 158.79,174.18 159.07,173.26 159.32,172.33 160.05,171.4 161.33,170.47 161.34,169.54 162.02,168.61 162.15,167.69 163.08,166.76 163.24,165.83 163.43,164.9 163.73,163.97 164.06,163.04 164.35,162.12 165.21,161.19 165.29,160.26 165.57,159.33 166.3,158.4 166.85,157.47 167.63,156.55 167.79,155.62 167.92,154.69 167.92,153.76 168.55,152.83 168.74,151.9 168.86,150.98 169.84,150.05 170.25,149.12 171.86,148.19 172.69,147.26 173.02,146.33 178.11,145.41 192.18,144.48 205.8,143.55 206.68,142.62 207.93,141.69 209.33,140.76 210.24,139.84 210.46,138.91 210.7,137.98 210.8,137.05 211.33,136.12 211.71,135.19 211.85,134.27 212.33,133.34 212.73,132.41 212.75,131.48 213.58,130.55 213.96,129.62 213.96,128.7 214.19,127.77 214.75,126.84 216.16,125.91 216.17,124.98 218.62,124.05 218.64,123.12 222.57,122.2 223.01,121.27 226.95,120.34 256.63,119.41 259.12,118.48 260.61,117.55 261.26,116.63 262.04,115.7 263,114.77 266.21,113.84 269.05,112.91 269.12,111.98 270.93,111.06 271.29,110.13 272.34,109.2 272.36,108.27 272.75,107.34 273.12,106.41 274.08,105.49 274.84,104.56 275.43,103.63 275.95,102.7 276.55,101.77 277.6,100.84 278.61,99.92 306.86,98.99 312.06,98.06 313.68,97.13 315.04,96.2 317.09,95.27 318.01,94.35 319.78,93.42 321.08,92.49 321.09,91.56 321.09,90.63 322.76,89.7 325.76,88.78 326.19,87.85 327.78,86.92 331.44,85.99 331.69,85.06 341.05,84.13 346.31,83.21 369.97,82.28 375,81.35 383.38,80.42 421.2,79.49 425.93,78.56 433.3,77.64 450.76,76.71 464.89,75.78 465.78,74.85 467.71,73.92 467.93,72.99 469.22,72.07 469.7,71.14 470.06,70.21 470.58,69.28 470.93,68.35 471.86,67.42 474.44,66.5 476.93,65.57 482.19,64.64"/>
</g>
<g fill="#e41a1c" stroke-linejoin="miter" stroke-width="0.62">
<use xlink:href="#p0" x="120.35" y="470.33"/>
<use xlink:href="#p0" x="120.35" y="469.4"/>
<use xlink:href="#p0" x="120.35" y="468.47"/>
<use xlink:href="#p0" x="120.35" y="467.54"/>
<use xlink:href="#p0" x="120.35" y="466.61"/>
<use xlink:href="#p0" x="120.35" y="465.68"/>
<use xlink:href="#p0" x="120.35" y="464.76"/>
<use xlink:href="#p0" x="120.35" y="463.83"/>
<use xlink:href="#p0" x="120.35" y="462.9"/>
<use xlink:href="#p0" x="120.35" y="461.97"/>
<use xlink:href="#p0" x="120.35" y="461.04"/>
<use xlink:href="#p0" x="120.35" y="460.11"/>
<use xlink:href="#p0" x="120.35" y="459.19"/>
<use xlink:href="#p0" x="120.35" y="458.26"/>
<use xlink:href="#p0" x="120.35" y="457.33"/>
<use xlink:href="#p0" x="120.35" y="456.4"/>
<use xlink:href="#p0" x="120.35" y="455.47"/>
<use xlink:href="#p0" x="120.35" y="454.54"/>
<use xlink:href="#p0" x="120.35" y="453.62"/>
<use xlink:href="#p0" x="120.35" y="452.69"/>
<use xlink:href="#p0" x="120.35" y="451.76"/>
<use xlink:href="#p0" x="120.35" y="450.83"/>
<use xlink:href="#p0" x="120.35" y="449.9"/>
<use xlink:href="#p0" x="120.35" y="448.97"/>
<use xlink:href="#p0" x="120.35" y="448.05"/>
<use xlink:href="#p0" x="120.35" y="447.12"/>
<use xlink:href="#p0" x="120.35" y="446.19"/>
<use xlink:href="#p0" x="120.35" y="445.26"/>
<use xlink:href="#p0" x="120.35" y="444.33"/>
<use xlink:href="#p0" x="120.35" y="443.4"/>
<use xlink:href="#p0" x="120.35" y="442.48"/>
<use xlink:href="#p0" x="120.35" y="441.55"/>
<use xlink:href="#p0" x="120.35" y="440.62"/>
<use xlink:href="#p0" x="120.35" y="439.69"/>
<use xlink:href="#p0" x="120.35" y="438.76"/>
<use xlink:href="#p0" x="120.35" y="437.83"/>
<use xlink:href="#p0" x="120.35" y="436.91"/>
<use xlink:href="#p0" x="120.35" y="435.98"/>
<use xlink:href="#p0" x="120.35" y="435.05"/>
<use xlink:href="#p0" x="120.35" y="434.12"/>
<use xlink:href="#p0" x="120.35" y="433.19"/>
<use xlink:href="#p0" x="120.35" y="432.26"/>
<use xlink:href="#p0" x="120.35" y="431.34"/>
<use xlink:href="#p0" x="120.35" y="430.41"/>
<use xlink:href="#p0" x="120.35" y="429.48"/>
<use xlink:href="#p0" x="120.35" y="428.55"/>
<use xlink:href="#p0" x="120.35" y="427.62"/>
<use xlink:href="#p0" x="120.35" y="426.69"/>
<use xlink:href="#p0" x="120.35" y="425.77"/>
<use xlink:href="#p0" x="120.35" y="424.84"/>
<use xlink:href="#p0" x="120.35" y="423.91"/>
<use xlink:href="#p0" x="120.35" y="422.98"/>
<use xlink:href="#p0" x="120.35" y="422.05"/>
<use xlink:href="#p0" x="120.35" y="421.12"/>
<use xlink:href="#p0" x="120.35" y="420.2"/>
<use xlink:href="#p0" x="120.35" y="419.27"/>
<use xlink:href="#p0" x="120.35" y="418.34"/>
<use xlink:href="#p0" x="120.35" y="417.41"/>
<use xlink:href="#p0" x="120.35" y="416.48"/>
<use xlink:href="#p0" x="120.35" y="415.55"/>
<use xlink:href="#p0" x="120.35" y="414.63"/>
<use xlink:href="#p0" x="120.35" y="413.7"/>
<use xlink:href="#p0" x="120.35" y="412.77"/>
<use xlink:href="#p0" x="120.35" y="411.84"/>
<use xlink:href="#p0" x="120.35" y="410.91"/>
<use xlink:href="#p0" x="120.35" y="409.98"/>
<use xlink:href="#p0" x="120.35" y="409.06"/>
<use xlink:href="#p0" x="120.35" y="408.13"/>
<use xlink:href="#p0" x="120.35" y="407.2"/>
<use xlink:href="#p0" x="120.35" y="406.27"/>
<use xlink:href="#p0" x="120.35" y="405.34"/>
<use xlink:href="#p0" x="120.35" y="404.41"/>
<use xlink:href="#p0" x="120.35" y="403.49"/>
<use xlink:href="#p0" x="120.35" y="402.56"/>
<use xlink:href="#p0" x="120.35" y="401.63"/>
<use xlink:href="#p0" x="120.35" y="400.7"/>
<use xlink:href="#p0" x="120.35" y="399.77"/>
<use xlink:href="#p0" x="120.35" y="398.84"/>
<use xlink:href="#p0" x="120.35" y="397.92"/>
<use xlink:href="#p0" x="120.35" y="396.99"/>
<use xlink:href="#p0" x="120.35" y="396.06"/>
<use xlink:href="#p0" x="120.35" y="395.13"/>
<use xlink:href="#p0" x="120.35" y="394.2"/>
<use xlink:href="#p0" x="120.35" y="393.27"/>
<use xlink:href="#p0" x="120.35" y="392.35"/>
<use xlink:href="#p0" x="120.35" y="391.42"/>
<use xlink:href="#p0" x="120.35" y="390.49"/>
<use xlink:href="#p0" x="120.35" y="389.56"/>
<use xlink:href="#p0" x="120.35" y="388.63"/>
<use xlink:href="#p0" x="120.35" y="387.7"/>
<use xlink:href="#p0" x="120.35" y="386.78"/>
<use xlink:href="#p0" x="120.35" y="385.85"/>
<use xlink:href="#p0" x="120.35" y="384.92"/>
<use xlink:href="#p0" x="120.35" y="383.99"/>
<use xlink:href="#p0" x="120.35" y="383.06"/>
<use xlink:href="#p0" x="120.35" y="382.13"/>
<use xlink:href="#p0" x="120.35" y="381.21"/>
<use xlink:href="#p0" x="120.35" y="380.28"/>
<use xlink:href="#p0" x="120.35" y="379.35"/>
<use xlink:href="#p0" x="120.35" y="378.42"/>
<use xlink:href="#p0" x="120.35" y="377.49"/>
<use xlink:href="#p0" x="120.35" y="376.56"/>
<use xlink:href="#p0" x="120.35" y="375.64"/>
<use xlink:href="#p0" x="120.35" y="374.71"/>
<use xlink:href="#p0" x="120.35" y="373.78"/>
<use xlink:href="#p0" x="120.35" y="372.85"/>
<use xlink:href="#p0" x="120.35" y="371.92"/>
<use xlink:href="#p0" x="120.35" y="370.99"/>
<use xlink:href="#p0" x="120.35" y="370.07"/>
<use xlink:href="#p0" x="120.35" y="369.14"/>
<use xlink:href="#p0" x="120.35" y="368.21"/>
<use xlink:href="#p0" x="120.35" y="367.28"/>
<use xlink:href="#p0" x="120.35" y="366.35"/>
<use xlink:href="#p0" x="120.35" y="365.42"/>
<use xlink:href="#p0" x="120.35" y="364.5"/>
<use xlink:href="#p0" x="120.35" y="363.57"/>
<use xlink:href="#p0" x="120.35" y="362.64"/>
<use xlink:href="#p0" x="120.35" y="361.71"/>
<use xlink:href="#p0" x="120.35" y="360.78"/>
<use xlink:href="#p0" x="120.35" y="359.85"/>
<use xlink:href="#p0" x="120.35" y="358.92"/>
<use xlink:href="#p0" x="120.35" y="358"/>
<use xlink:href="#p0" x="120.35" y="357.07"/>
<use xlink:href="#p0" x="120.35" y="356.14"/>
<use xlink:href="#p0" x="120.35" y="355.21"/>
<use xlink:href="#p0" x="120.35" y="354.28"/>
<use xlink:href="#p0" x="120.35" y="353.35"/>
<use xlink:href="#p0" x="120.35" y="352.43"/>
<use xlink:href="#p0" x="120.35" y="351.5"/>
<use xlink:href="#p0" x="120.35" y="350.57"/>
<use xlink:href="#p0" x="120.35" y="349.64"/>
<use xlink:href="#p0" x="120.35" y="348.71"/>
<use xlink:href="#p0" x="120.35" y="347.78"/>
<use xlink:href="#p0" x="120.35" y="346.86"/>
<use xlink:href="#p0" x="120.35" y="345.93"/>
<use xlink:href="#p0" x="120.35" y="345"/>
<use xlink:href="#p0" x="120.35" y="344.07"/>
<use xlink:href="#p0" x="120.35" y="343.14"/>
<use xlink:href="#p0" x="120.35" y="342.21"/>
<use xlink:href="#p0" x="120.35" y="341.29"/>
<use xlink:href="#p0" x="120.35" y="340.36"/>
<use xlink:href="#p0" x="120.35" y="339.43"/>
<use xlink:href="#p0" x="120.35" y="338.5"/>
<use xlink:href="#p0" x="120.35" y="337.57"/>
<use xlink:href="#p0" x="120.35" y="336.64"/>
<use xlink:href="#p0" x="120.35" y="335.72"/>
<use xlink:href="#p0" x="120.35" y="334.79"/>
<use xlink:href="#p0" x="120.35" y="333.86"/>
<use xlink:href="#p0" x="120.35" y="332.93"/>
<use xlink:href="#p0" x="120.35" y="332"/>
<use xlink:href="#p0" x="120.35" y="331.07"/>
<use xlink:href="#p0" x="120.35" y="330.15"/>
<use xlink:href="#p0" x="120.35" y="329.22"/>
<use xlink:href="#p0" x="120.35" y="328.29"/>
<use xlink:href="#p0" x="120.35" y="327.36"/>
<use xlink:href="#p0" x="120.35" y="326.43"/>
<use xlink:href="#p0" x="120.35" y="325.5"/>
<use xlink:href="#p0" x="120.35" y="324.58"/>
<use xlink:href="#p0" x="120.35" y="323.65"/>
<use xlink:href="#p0" x="120.35" y="322.72"/>
<use xlink:href="#p0" x="120.35" y="321.79"/>
<use xlink:href="#p0" x="120.35" y="320.86"/>
<use xlink:href="#p0" x="120.35" y="319.93"/>
<use xlink:href="#p0" x="120.35" y="319.01"/>
<use xlink:href="#p0" x="120.35" y="318.08"/>
<use xlink:href="#p0" x="120.35" y="317.15"/>
<use xlink:href="#p0" x="120.35" y="316.22"/>
<use xlink:href="#p0" x="120.35" y="315.29"/>
<use xlink:href="#p0" x="120.35" y="314.36"/>
<use xlink:href="#p0" x="120.35" y="313.44"/>
<use xlink:href="#p0" x="120.35" y="312.51"/>
<use xlink:href="#p0" x="120.35" y="311.58"/>
<use xlink:href="#p0" x="120.35" y="310.65"/>
<use xlink:href="#p0" x="120.35" y="309.72"/>
<use xlink:href="#p0" x="120.35" y="308.79"/>
<use xlink:href="#p0" x="120.35" y="307.87"/>
<use xlink:href="#p0" x="120.35" y="306.94"/>
<use xlink:href="#p0" x="120.35" y="306.01"/>
<use xlink:href="#p0" x="120.35" y="305.08"/>
<use xlink:href="#p0" x="120.35" y="304.15"/>
<use xlink:href="#p0" x="120.35" y="303.22"/>
<use xlink:href="#p0" x="120.35" y="302.3"/>
<use xlink:href="#p0" x="120.35" y="301.37"/>
<use xlink:href="#p0" x="120.35" y="300.44"/>
<use xlink:href="#p0" x="120.35" y="299.51"/>
<use xlink:href="#p0" x="120.35" y="298.58"/>
<use xlink:href="#p0" x="120.35" y="297.65"/>
<use xlink:href="#p0" x="120.35" y="296.73"/>
<use xlink:href="#p0" x="120.35" y="295.8"/>
<use xlink:href="#p0" x="120.35" y="294.87"/>
<use xlink:href="#p0" x="120.35" y="293.94"/>
<use xlink:href="#p0" x="120.35" y="293.01"/>
<use xlink:href="#p0" x="120.35" y="292.08"/>
<use xlink:href="#p0" x="120.35" y="291.16"/>
<use xlink:href="#p0" x="120.35" y="290.23"/>
<use xlink:href="#p0" x="120.35" y="289.3"/>
<use xlink:href="#p0" x="120.35" y="288.37"/>
<use xlink:href="#p0" x="120.35" y="287.44"/>
<use xlink:href="#p0" x="120.35" y="286.51"/>
<use xlink:href="#p0" x="120.35" y="285.59"/>
<use xlink:href="#p0" x="120.35" y="284.66"/>
<use xlink:href="#p0" x="120.35" y="283.73"/>
<use xlink:href="#p0" x="120.35" y="282.8"/>
<use xlink:href="#p0" x="120.35" y="281.87"/>
<use xlink:href="#p0" x="120.35" y="280.94"/>
<use xlink:href="#p0" x="120.35" y="280.02"/>
<use xlink:href="#p0" x="120.35" y="279.09"/>
<use xlink:href="#p0" x="120.35" y="278.16"/>
<use xlink:href="#p0" x="120.35" y="277.23"/>
<use xlink:href="#p0" x="120.35" y="276.3"/>
<use xlink:href="#p0" x="120.35" y="275.37"/>
<use xlink:href="#p0" x="120.35" y="274.45"/>
<use xlink:href="#p0" x="120.35" y="273.52"/>
<use xlink:href="#p0" x="120.35" y="272.59"/>
<use xlink:href="#p0" x="120.35" y="271.66"/>
<use xlink:href="#p0" x="120.42" y="270.73"/>
<use xlink:href="#p0" x="120.43" y="269.8"/>
<use xlink:href="#p0" x="120.46" y="268.88"/>
<use xlink:href="#p0" x="120.55" y="267.95"/>
<use xlink:href="#p0" x="120.55" y="267.02"/>
<use xlink:href="#p0" x="120.72" y="266.09"/>
<use xlink:href="#p0" x="121.03" y="265.16"/>
<use xlink:href="#p0" x="121.18" y="264.23"/>
<use xlink:href="#p0" x="121.32" y="263.31"/>
<use xlink:href="#p0" x="121.34" y="262.38"/>
<use xlink:href="#p0" x="121.35" y="261.45"/>
<use xlink:href="#p0" x="121.44" y="260.52"/>
<use xlink:href="#p0" x="121.45" y="259.59"/>
<use xlink:href="#p0" x="121.45" y="258.66"/>
<use xlink:href="#p0" x="121.46" y="257.74"/>
<use xlink:href="#p0" x="121.9" y="256.81"/>
<use xlink:href="#p0" x="121.92" y="255.88"/>
<use xlink:href="#p0" x="121.97" y="254.95"/>
<use xlink:href="#p0" x="121.98" y="254.02"/>
<use xlink:href="#p0" x="122.04" y="253.09"/>
<use xlink:href="#p0" x="122.06" y="252.17"/>
<use xlink:href="#p0" x="122.21" y="251.24"/>
<use xlink:href="#p0" x="122.22" y="250.31"/>
<use xlink:href="#p0" x="122.23" y="249.38"/>
<use xlink:href="#p0" x="122.24" y="248.45"/>
<use xlink:href="#p0" x="122.26" y="247.52"/>
<use xlink:href="#p0" x="122.3" y="246.6"/>
<use xlink:href="#p0" x="122.32" y="245.67"/>
<use xlink:href="#p0" x="122.39" y="244.74"/>
<use xlink:href="#p0" x="122.4" y="243.81"/>
<use xlink:href="#p0" x="122.41" y="242.88"/>
<use xlink:href="#p0" x="122.43" y="241.95"/>
<use xlink:href="#p0" x="122.46" y="241.02"/>
<use xlink:href="#p0" x="122.5" y="240.1"/>
<use xlink:href="#p0" x="122.52" y="239.17"/>
<use xlink:href="#p0" x="122.56" y="238.24"/>
<use xlink:href="#p0" x="122.56" y="237.31"/>
<use xlink:href="#p0" x="122.56" y="236.38"/>
<use xlink:href="#p0" x="122.57" y="235.45"/>
<use xlink:href="#p0" x="122.6" y="234.53"/>
<use xlink:href="#p0" x="122.61" y="233.6"/>
<use xlink:href="#p0" x="122.63" y="232.67"/>
<use xlink:href="#p0" x="122.64" y="231.74"/>
<use xlink:href="#p0" x="122.7" y="230.81"/>
<use xlink:href="#p0" x="122.8" y="229.88"/>
<use xlink:href="#p0" x="122.82" y="228.96"/>
<use xlink:href="#p0" x="122.85" y="228.03"/>
<use xlink:href="#p0" x="122.86" y="227.1"/>
<use xlink:href="#p0" x="122.89" y="226.17"/>
<use xlink:href="#p0" x="123.01" y="225.24"/>
<use xlink:href="#p0" x="123.01" y="224.31"/>
<use xlink:href="#p0" x="123.12" y="223.39"/>
<use xlink:href="#p0" x="123.13" y="222.46"/>
<use xlink:href="#p0" x="123.57" y="221.53"/>
<use xlink:href="#p0" x="123.6" y="220.6"/>
<use xlink:href="#p0" x="123.63" y="219.67"/>
<use xlink:href="#p0" x="123.64" y="218.74"/>
<use xlink:href="#p0" x="123.76" y="217.82"/>
<use xlink:href="#p0" x="123.78" y="216.89"/>
<use xlink:href="#p0" x="123.87" y="215.96"/>
<use xlink:href="#p0" x="123.98" y="215.03"/>
<use xlink:href="#p0" x="124.33" y="214.1"/>
<use xlink:href="#p0" x="124.34" y="213.17"/>
<use xlink:href="#p0" x="124.36" y="212.25"/>
<use xlink:href="#p0" x="124.67" y="211.32"/>
<use xlink:href="#p0" x="124.73" y="210.39"/>
<use xlink:href="#p0" x="126.03" y="209.46"/>
<use xlink:href="#p0" x="126.22" y="208.53"/>
<use xlink:href="#p0" x="126.63" y="207.6"/>
<use xlink:href="#p0" x="127" y="206.68"/>
<use xlink:href="#p0" x="127.43" y="205.75"/>
<use xlink:href="#p0" x="127.88" y="204.82"/>
<use xlink:href="#p0" x="128.67" y="203.89"/>
<use xlink:href="#p0" x="128.9" y="202.96"/>
<use xlink:href="#p0" x="128.99" y="202.03"/>
<use xlink:href="#p0" x="129.7" y="201.11"/>
<use xlink:href="#p0" x="129.75" y="200.18"/>
<use xlink:href="#p0" x="131.32" y="199.25"/>
<use xlink:href="#p0" x="131.35" y="198.32"/>
<use xlink:href="#p0" x="132.61" y="197.39"/>
<use xlink:href="#p0" x="136.52" y="196.46"/>
<use xlink:href="#p0" x="137.4" y="195.54"/>
<use xlink:href="#p0" x="145.42" y="194.61"/>
<use xlink:href="#p0" x="146.88" y="193.68"/>
<use xlink:href="#p0" x="149.17" y="192.75"/>
<use xlink:href="#p0" x="153.15" y="191.82"/>
<use xlink:href="#p0" x="154.23" y="190.89"/>
<use xlink:href="#p0" x="155.11" y="189.97"/>
<use xlink:href="#p0" x="155.15" y="189.04"/>
<use xlink:href="#p0" x="155.84" y="188.11"/>
<use xlink:href="#p0" x="156.05" y="187.18"/>
<use xlink:href="#p0" x="156.08" y="186.25"/>
<use xlink:href="#p0" x="156.75" y="185.32"/>
<use xlink:href="#p0" x="157.02" y="184.4"/>
<use xlink:href="#p0" x="157.02" y="183.47"/>
<use xlink:href="#p0" x="157.33" y="182.54"/>
<use xlink:href="#p0" x="157.33" y="181.61"/>
<use xlink:href="#p0" x="157.83" y="180.68"/>
<use xlink:href="#p0" x="157.84" y="179.75"/>
<use xlink:href="#p0" x="158.12" y="178.83"/>
<use xlink:href="#p0" x="158.15" y="177.9"/>
<use xlink:href="#p0" x="158.72" y="176.97"/>
<use xlink:href="#p0" x="158.78" y="176.04"/>
<use xlink:href="#p0" x="158.79" y="175.11"/>
<use xlink:href="#p0" x="158.79" y="174.18"/>
<use xlink:href="#p0" x="159.07" y="173.26"/>
<use xlink:href="#p0" x="159.32" y="172.33"/>
<use xlink:href="#p0" x="160.05" y="171.4"/>
<use xlink:href="#p0" x="161.33" y="170.47"/>
<use xlink:href="#p0" x="161.34" y="169.54"/>
<use xlink:href="#p0" x="162.02" y="168.61"/>
<use xlink:href="#p0" x="162.15" y="167.69"/>
<use xlink:href="#p0" x="163.08" y="166.76"/>
<use xlink:href="#p0" x="163.24" y="165.83"/>
<use xlink:href="#p0" x="163.43" y="164.9"/>
<use xlink:href="#p0" x="163.73" y="163.97"/>
<use xlink:href="#p0" x="164.06" y="163.04"/>
<use xlink:href="#p0" x="164.35" y="162.12"/>
<use xlink:href="#p0" x="165.21" y="161.19"/>
<use xlink:href="#p0" x="165.29" y="160.26"/>
<use xlink:href="#p0" x="165.57" y="159.33"/>
<use xlink:href="#p0" x="166.3" y="158.4"/>
<use xlink:href="#p0" x="166.85" y="157.47"/>
<use xlink:href="#p0" x="167.63" y="156.55"/>
<use xlink:href="#p0" x="167.79" y="155.62"/>
<use xlink:href="#p0" x="167.92" y="154.69"/>
<use xlink:href="#p0" x="167.92" y="153.76"/>
<use xlink:href="#p0" x="168.55" y="152.83"/>
<use xlink:href="#p0" x="168.74" y="151.9"/>
<use xlink:href="#p0" x="168.86" y="150.98"/>
<use xlink:href="#p0" x="169.84" y="150.05"/>
<use xlink:href="#p0" x="170.25" y="149.12"/>
<use xlink:href="#p0" x="171.86" y="148.19"/>
<use xlink:href="#p0" x="172.69" y="147.26"/>
<use xlink:href="#p0" x="173.02" y="146.33"/>
<use xlink:href="#p0" x="178.11" y="145.41"/>
<use xlink:href="#p0" x="192.18" y="144.48"/>
<use xlink:href="#p0" x="205.8" y="143.55"/>
<use xlink:href="#p0" x="206.68" y="142.62"/>
<use xlink:href="#p0" x="207.93" y="141.69"/>
<use xlink:href="#p0" x="209.33" y="140.76"/>
<use xlink:href="#p0" x="210.24" y="139.84"/>
<use xlink:href="#p0" x="210.46" y="138.91"/>
<use xlink:href="#p0" x="210.7" y="137.98"/>
<use xlink:href="#p0" x="210.8" y="137.05"/>
<use xlink:href="#p0" x="211.33" y="136.12"/>
<use xlink:href="#p0" x="211.71" y="135.19"/>
<use xlink:href="#p0" x="211.85" y="134.27"/>
<use xlink:href="#p0" x="212.33" y="133.34"/>
<use xlink:href="#p0" x="212.73" y="132.41"/>
<use xlink:href="#p0" x="212.75" y="131.48"/>
<use xlink:href="#p0" x="213.58" y="130.55"/>
<use xlink:href="#p0" x="213.96" y="129.62"/>
<use xlink:href="#p0" x="213.96" y="128.7"/>
<use xlink:href="#p0" x="214.19" y="127.77"/>
<use xlink:href="#p0" x="214.75" y="126.84"/>
<use xlink:href="#p0" x="216.16" y="125.91"/>
<use xlink:href="#p0" x="216.17" y="124.98"/>
<use xlink:href="#p0" x="218.62" y="124.05"/>
<use xlink:href="#p0" x="218.64" y="123.12"/>
<use xlink:href="#p0" x="222.57" y="122.2"/>
<use xlink:href="#p0" x="223.01" y="121.27"/>
<use xlink:href="#p0" x="226.95" y="120.34"/>
<use xlink:href="#p0" x="256.63" y="119.41"/>
<use xlink:href="#p0" x="259.12" y="118.48"/>
<use xlink:href="#p0" x="260.61" y="117.55"/>
<use xlink:href="#p0" x="261.26" y="116.63"/>
<use xlink:href="#p0" x="262.04" y="115.7"/>
<use xlink:href="#p0" x="263" y="114.77"/>
<use xlink:href="#p0" x="266.21" y="113.84"/>
<use xlink:href="#p0" x="269.05" y="112.91"/>
<use xlink:href="#p0" x="269.12" y="111.98"/>
<use xlink:href="#p0" x="270.93" y="111.06"/>
<use xlink:href="#p0" x="271.29" y="110.13"/>
<use xlink:href="#p0" x="272.34" y="109.2"/>
<use xlink:href="#p0" x="272.36" y="108.27"/>
<use xlink:href="#p0" x="272.75" y="107.34"/>
<use xlink:href="#p0" x="273.12" y="106.41"/>
<use xlink:href="#p0" x="274.08" y="105.49"/>
<use xlink:href="#p0" x="274.84" y="104.56"/>
<use xlink:href="#p0" x="275.43" y="103.63"/>
<use xlink:href="#p0" x="275.95" y="102.7"/>
<use xlink:href="#p0" x="276.55" y="101.77"/>
<use xlink:href="#p0" x="277.6" y="100.84"/>
<use xlink:href="#p0" x="278.61" y="99.92"/>
<use xlink:href="#p0" x="306.86" y="98.99"/>
<use xlink:href="#p0" x="312.06" y="98.06"/>
<use xlink:href="#p0" x="313.68" y="97.13"/>
<use xlink:href="#p0" x="315.04" y="96.2"/>
<use xlink:href="#p0" x="317.09" y="95.27"/>
<use xlink:href="#p0" x="318.01" y="94.35"/>
<use xlink:href="#p0" x="319.78" y="93.42"/>
<use xlink:href="#p0" x="321.08" y="92.49"/>
<use xlink:href="#p0" x="321.09" y="91.56"/>
<use xlink:href="#p0" x="321.09" y="90.63"/>
<use xlink:href="#p0" x="322.76" y="89.7"/>
<use xlink:href="#p0" x="325.76" y="88.78"/>
<use xlink:href="#p0" x="326.19" y="87.85"/>
<use xlink:href="#p0" x="327.78" y="86.92"/>
<use xlink:href="#p0" x="331.44" y="85.99"/>
<use xlink:href="#p0" x="331.69" y="85.06"/>
<use xlink:href="#p0" x="341.05" y="84.13"/>
<use xlink:href="#p0" x="346.31" y="83.21"/>
<use xlink:href="#p0" x="369.97" y="82.28"/>
<use xlink:href="#p0" x="375" y="81.35"/>
<use xlink:href="#p0" x="383.38" y="80.42"/>
<use xlink:href="#p0" x="421.2" y="79.49"/>
<use xlink:href="#p0" x="425.93" y="78.56"/>
<use xlink:href="#p0" x="433.3" y="77.64"/>
<use xlink:href="#p0" x="450.76" y="76.71"/>
<use xlink:href="#p0" x="464.89" y="75.78"/>
<use xlink:href="#p0" x="465.78" y="74.85"/>
<use xlink:href="#p0" x="467.71" y="73.92"/>
<use xlink:href="#p0" x="467.93" y="72.99"/>
<use xlink:href="#p0" x="469.22" y="72.07"/>
<use xlink:href="#p0" x="469.7" y="71.14"/>
<use xlink:href="#p0" x="470.06" y="70.21"/>
<use xlink:href="#p0" x="470.58" y="69.28"/>
<use xlink:href="#p0" x="470.93" y="68.35"/>
<use xlink:href="#p0" x="471.86" y="67.42"/>
<use xlink:href="#p0" x="474.44" y="66.5"/>
<use xlink:href="#p0" x="476.93" y="65.57"/>
<use xlink:href="#p0" x="482.19" y="64.64"/>
</g>
</g>
<g clip-path="url(#c0)">
<g fill="none" stroke-linecap="butt" stroke-width="0.62">
<path d="M60.23,471.25l0,-464.17"/>
<path d="M60.23,471.25l3.75,0M60.23,452.69l3.75,0M60.23,434.12l3.75,0M60.23,415.55l3.75,0M60.23,396.99l3.75,0M60.23,378.42l3.75,0M60.23,359.85l3.75,0M60.23,341.29l3.75,0M60.23,322.72l3.75,0M60.23,304.15l3.75,0M60.23,285.59l3.75,0M60.23,267.02l3.75,0M60.23,248.45l3.75,0M60.23,229.88l3.75,0M60.23,211.32l3.75,0M60.23,192.75l3.75,0M60.23,174.18l3.75,0M60.23,155.62l3.75,0M60.23,137.05l3.75,0M60.23,118.48l3.75,0M60.23,99.92l3.75,0M60.23,81.35l3.75,0M60.23,62.78l3.75,0M60.23,44.22l3.75,0M60.23,25.65l3.75,0M60.23,7.08l3.75,0"/>
<path d="M60.23,471.25l7.5,0M60.23,378.42l7.5,0M60.23,285.59l7.5,0M60.23,192.75l7.5,0M60.23,99.92l7.5,0M60.23,7.08l7.5,0"/>
</g>
<g fill="none" stroke-width="0.1">
<g transform="matrix(0 -1 1 0 16.3 313.18)">
<g stroke="none" fill="#000000" fill-opacity="1" font-family="Serif" font-size="17.500000000000004">
<text x="0" y="0" textLength="148.02">Number of hosts</text>
</g>
</g>
<g stroke="none" fill="#000000" fill-opacity="1" font-family="Serif" font-size="17.500000000000004">
<text x="45" y="477.9" textLength="11.13">0</text>
<text x="22.73" y="385.07" textLength="33.39">100</text>
<text x="22.73" y="292.24" textLength="33.39">200</text>
<text x="22.73" y="199.4" textLength="33.39">300</text>
<text x="22.73" y="106.57" textLength="33.39">400</text>
<text x="22.73" y="17.4" textLength="33.39">500</text>
</g>
</g>
<g fill="none" stroke-linecap="butt" stroke-width="0.62">
<path d="M60.23,471.25l464.17,0"/>
<path d="M60.23,471.25l0,3.75M90.29,471.25l0,3.75M120.35,471.25l0,3.75M150.41,471.25l0,3.75M180.47,471.25l0,3.75M210.53,471.25l0,3.75M240.58,471.25l0,3.75M270.64,471.25l0,3.75M300.7,471.25l0,3.75M330.76,471.25l0,3.75M360.82,471.25l0,3.75M390.88,471.25l0,3.75M420.94,471.25l0,3.75M451,471.25l0,3.75M481.06,471.25l0,3.75M511.12,471.25l0,3.75"/>
<path d="M60.23,471.25l0,7.5M120.35,471.25l0,7.5M180.47,471.25l0,7.5M240.58,471.25l0,7.5M300.7,471.25l0,7.5M360.82,471.25l0,7.5M420.94,471.25l0,7.5M481.06,471.25l0,7.5"/>
</g>
<g fill="none" stroke-width="0.1">
<g stroke="none" fill="#000000" fill-opacity="1" font-family="Serif" font-size="17.500000000000004">
<text x="255.25" y="523.65" textLength="74.12">Seconds</text>
<text x="19.5" y="499.15" textLength="81.45">−100000</text>
<text x="114.78" y="499.15" textLength="11.13">0</text>
<text x="147.07" y="499.15" textLength="66.79">100000</text>
<text x="267.3" y="499.15" textLength="66.79">300000</text>
<text x="387.54" y="499.15" textLength="66.79">500000</text>
</g>
</g>
<g fill="none" stroke-linecap="butt" stroke-width="0.62">
<path d="M524.4,471.25l0,-464.17"/>
<path d="M524.4,471.25l-3.75,0M524.4,452.69l-3.75,0M524.4,434.12l-3.75,0M524.4,415.55l-3.75,0M524.4,396.99l-3.75,0M524.4,378.42l-3.75,0M524.4,359.85l-3.75,0M524.4,341.29l-3.75,0M524.4,322.72l-3.75,0M524.4,304.15l-3.75,0M524.4,285.59l-3.75,0M524.4,267.02l-3.75,0M524.4,248.45l-3.75,0M524.4,229.88l-3.75,0M524.4,211.32l-3.75,0M524.4,192.75l-3.75,0M524.4,174.18l-3.75,0M524.4,155.62l-3.75,0M524.4,137.05l-3.75,0M524.4,118.48l-3.75,0M524.4,99.92l-3.75,0M524.4,81.35l-3.75,0M524.4,62.78l-3.75,0M524.4,44.22l-3.75,0M524.4,25.65l-3.75,0M524.4,7.08l-3.75,0"/>
<path d="M524.4,471.25l-7.5,0M524.4,378.42l-7.5,0M524.4,285.59l-7.5,0M524.4,192.75l-7.5,0M524.4,99.92l-7.5,0M524.4,7.08l-7.5,0"/>
<path d="M60.23,7.08l464.17,0"/>
<path d="M60.23,7.08l0,-3.75M90.29,7.08l0,-3.75M120.35,7.08l0,-3.75M150.41,7.08l0,-3.75M180.47,7.08l0,-3.75M210.53,7.08l0,-3.75M240.58,7.08l0,-3.75M270.64,7.08l0,-3.75M300.7,7.08l0,-3.75M330.76,7.08l0,-3.75M360.82,7.08l0,-3.75M390.88,7.08l0,-3.75M420.94,7.08l0,-3.75M451,7.08l0,-3.75M481.06,7.08l0,-3.75M511.12,7.08l0,-3.75"/>
<path d="M60.23,7.08l0,-7.5M120.35,7.08l0,-7.5M180.47,7.08l0,-7.5M240.58,7.08l0,-7.5M300.7,7.08l0,-7.5M360.82,7.08l0,-7.5M420.94,7.08l0,-7.5M481.06,7.08l0,-7.5"/>
</g>
<g fill="none" stroke-width="0.62">
<path d="m243.95,169.29l280.45,0l0,215.71l-280.45,0l0,-215.71"/>
</g>
</g>
<g clip-path="url(#c2)">
<g fill="#377eb8" stroke-linejoin="miter" stroke-width="0.62">
<use xlink:href="#p0" x="433.28" y="383.29"/>
<use xlink:href="#p0" x="474.03" y="378.11"/>
<use xlink:href="#p0" x="482.07" y="377.25"/>
<use xlink:href="#p0" x="507.3" y="376.38"/>
<use xlink:href="#p0" x="514.29" y="375.52"/>
<use xlink:href="#p0" x="419.59" y="374.66"/>
<use xlink:href="#p0" x="442.25" y="373.79"/>
<use xlink:href="#p0" x="443.35" y="372.93"/>
<use xlink:href="#p0" x="491.05" y="372.07"/>
<use xlink:href="#p0" x="410.85" y="371.2"/>
<use xlink:href="#p0" x="458.66" y="370.34"/>
<use xlink:href="#p0" x="427.33" y="367.75"/>
<use xlink:href="#p0" x="427.51" y="366.89"/>
<use xlink:href="#p0" x="395.27" y="363.44"/>
<use xlink:href="#p0" x="499.64" y="360.85"/>
<use xlink:href="#p0" x="460.12" y="359.99"/>
<use xlink:href="#p0" x="443.34" y="359.12"/>
<use xlink:href="#p0" x="419.35" y="357.4"/>
<use xlink:href="#p0" x="459.46" y="356.54"/>
<use xlink:href="#p0" x="387.32" y="355.67"/>
<use xlink:href="#p0" x="475.38" y="354.81"/>
<use xlink:href="#p0" x="451.34" y="353.95"/>
<use xlink:href="#p0" x="475.48" y="353.08"/>
<use xlink:href="#p0" x="363.34" y="352.22"/>
<use xlink:href="#p0" x="411.38" y="350.5"/>
<use xlink:href="#p0" x="475.76" y="347.91"/>
<use xlink:href="#p0" x="387.51" y="347.04"/>
<use xlink:href="#p0" x="435.83" y="345.32"/>
<use xlink:href="#p0" x="395.63" y="343.59"/>
<use xlink:href="#p0" x="460.35" y="339.28"/>
<use xlink:href="#p0" x="524.31" y="338.42"/>
<use xlink:href="#p0" x="436.48" y="336.69"/>
<use xlink:href="#p0" x="436.22" y="335.83"/>
<use xlink:href="#p0" x="444.51" y="334.96"/>
<use xlink:href="#p0" x="444.58" y="334.1"/>
<use xlink:href="#p0" x="469.04" y="333.24"/>
<use xlink:href="#p0" x="436.73" y="331.51"/>
<use xlink:href="#p0" x="461.32" y="329.79"/>
<use xlink:href="#p0" x="453.47" y="328.06"/>
<use xlink:href="#p0" x="381.24" y="327.2"/>
<use xlink:href="#p0" x="516.84" y="326.34"/>
<use xlink:href="#p0" x="412.76" y="324.61"/>
<use xlink:href="#p0" x="492.9" y="323.75"/>
<use xlink:href="#p0" x="405.5" y="322.88"/>
<use xlink:href="#p0" x="452.94" y="322.02"/>
<use xlink:href="#p0" x="372.76" y="321.16"/>
<use xlink:href="#p0" x="509.12" y="320.3"/>
<use xlink:href="#p0" x="380.86" y="319.43"/>
<use xlink:href="#p0" x="429.14" y="318.57"/>
<use xlink:href="#p0" x="437.75" y="317.71"/>
<use xlink:href="#p0" x="421.08" y="316.84"/>
<use xlink:href="#p0" x="461.12" y="315.98"/>
<use xlink:href="#p0" x="461.19" y="313.39"/>
<use xlink:href="#p0" x="421.94" y="311.67"/>
<use xlink:href="#p0" x="461.35" y="309.94"/>
<use xlink:href="#p0" x="445.52" y="308.22"/>
<use xlink:href="#p0" x="461.65" y="307.35"/>
<use xlink:href="#p0" x="429.32" y="306.49"/>
<use xlink:href="#p0" x="437.52" y="304.76"/>
<use xlink:href="#p0" x="430.28" y="303.04"/>
<use xlink:href="#p0" x="437.54" y="301.31"/>
<use xlink:href="#p0" x="477.95" y="299.59"/>
<use xlink:href="#p0" x="469.7" y="298.72"/>
<use xlink:href="#p0" x="438.09" y="291.82"/>
<use xlink:href="#p0" x="445.98" y="290.96"/>
<use xlink:href="#p0" x="478.28" y="289.23"/>
<use xlink:href="#p0" x="382.43" y="283.19"/>
<use xlink:href="#p0" x="390.8" y="282.33"/>
<use xlink:href="#p0" x="519.02" y="280.6"/>
<use xlink:href="#p0" x="438.77" y="278.88"/>
<use xlink:href="#p0" x="415.12" y="278.02"/>
<use xlink:href="#p0" x="455.63" y="277.15"/>
<use xlink:href="#p0" x="520.12" y="276.29"/>
<use xlink:href="#p0" x="447.63" y="275.43"/>
<use xlink:href="#p0" x="415.05" y="273.7"/>
<use xlink:href="#p0" x="485.6" y="271.98"/>
<use xlink:href="#p0" x="447.31" y="271.11"/>
<use xlink:href="#p0" x="390.93" y="270.25"/>
<use xlink:href="#p0" x="439.38" y="268.52"/>
<use xlink:href="#p0" x="471.26" y="267.66"/>
<use xlink:href="#p0" x="496.43" y="265.07"/>
<use xlink:href="#p0" x="383.14" y="264.21"/>
<use xlink:href="#p0" x="431.35" y="262.48"/>
<use xlink:href="#p0" x="439.57" y="261.62"/>
<use xlink:href="#p0" x="408.17" y="259.9"/>
<use xlink:href="#p0" x="455.62" y="259.03"/>
<use xlink:href="#p0" x="407.55" y="257.31"/>
<use xlink:href="#p0" x="463.76" y="256.44"/>
<use xlink:href="#p0" x="432.56" y="253.86"/>
<use xlink:href="#p0" x="472.08" y="250.4"/>
<use xlink:href="#p0" x="480.03" y="247.82"/>
<use xlink:href="#p0" x="448.41" y="246.95"/>
<use xlink:href="#p0" x="480.3" y="246.09"/>
<use xlink:href="#p0" x="520.23" y="245.23"/>
<use xlink:href="#p0" x="427.4" y="244.36"/>
<use xlink:href="#p0" x="464.2" y="241.78"/>
<use xlink:href="#p0" x="472.26" y="240.91"/>
<use xlink:href="#p0" x="472.44" y="240.05"/>
<use xlink:href="#p0" x="448.38" y="239.19"/>
<use xlink:href="#p0" x="448.32" y="237.46"/>
<use xlink:href="#p0" x="480.38" y="236.6"/>
<use xlink:href="#p0" x="520.7" y="235.73"/>
<use xlink:href="#p0" x="424.81" y="234.01"/>
<use xlink:href="#p0" x="464.99" y="233.15"/>
<use xlink:href="#p0" x="377.63" y="227.97"/>
<use xlink:href="#p0" x="400.95" y="227.11"/>
<use xlink:href="#p0" x="417.14" y="225.38"/>
<use xlink:href="#p0" x="417.71" y="224.52"/>
<use xlink:href="#p0" x="457.83" y="223.65"/>
<use xlink:href="#p0" x="497.37" y="221.93"/>
<use xlink:href="#p0" x="418.93" y="221.07"/>
<use xlink:href="#p0" x="458.21" y="220.2"/>
<use xlink:href="#p0" x="418.08" y="215.89"/>
<use xlink:href="#p0" x="482.68" y="214.16"/>
<use xlink:href="#p0" x="436.35" y="211.57"/>
<use xlink:href="#p0" x="490.58" y="210.71"/>
<use xlink:href="#p0" x="466.5" y="209.85"/>
</g>
<g fill="none" stroke="#e41a1c" stroke-width="0.62">
<polyline fill="none" points="288.56,384.15 288.57,383.29 288.58,382.42 288.59,381.56 288.6,380.7 288.61,379.83 288.62,378.97 288.62,378.11 288.63,377.25 288.64,376.38 288.65,375.52 288.66,374.66 288.67,373.79 288.68,372.93 288.69,372.07 288.7,371.2 288.71,370.34 288.72,369.48 288.73,368.62 288.74,367.75 288.75,366.89 288.76,366.03 288.77,365.16 288.78,364.3 288.79,363.44 288.8,362.58 288.81,361.71 288.82,360.85 288.82,359.99 288.83,359.12 288.84,358.26 288.85,357.4 288.86,356.54 288.87,355.67 288.88,354.81 288.89,353.95 288.9,353.08 288.91,352.22 288.92,351.36 288.93,350.5 288.94,349.63 288.95,348.77 288.96,347.91 288.97,347.04 288.98,346.18 288.99,345.32 289,344.46 289,343.59 289.01,342.73 289.02,341.87 289.03,341 289.04,340.14 289.05,339.28 289.06,338.42 289.07,337.55 289.08,336.69 289.09,335.83 289.1,334.96 289.11,334.1 289.12,333.24 289.13,332.38 289.14,331.51 289.15,330.65 289.16,329.79 289.17,328.92 289.18,328.06 289.19,327.2 289.2,326.34 289.21,325.47 289.22,324.61 289.22,323.75 289.24,322.88 289.24,322.02 289.25,321.16 289.26,320.3 289.27,319.43 289.3,318.57 289.32,317.71 289.33,316.84 289.34,315.98 289.37,315.12 289.38,314.26 289.39,313.39 289.4,312.53 289.41,311.67 289.42,310.8 289.43,309.94 289.44,309.08 289.44,308.22 289.45,307.35 289.46,306.49 289.47,305.63 289.48,304.76 289.49,303.9 289.5,303.04 289.51,302.18 289.52,301.31 289.53,300.45 289.54,299.59 289.55,298.72 289.56,297.86 289.57,297 289.58,296.14 289.58,295.27 289.59,294.41 289.6,293.55 289.61,292.68 289.62,291.82 289.63,290.96 289.64,290.1 289.65,289.23 289.66,288.37 289.67,287.51 289.68,286.64 289.69,285.78 289.7,284.92 289.71,284.06 289.72,283.19 289.73,282.33 289.74,281.47 289.74,280.6 289.75,279.74 289.76,278.88 289.77,278.02 289.78,277.15 289.79,276.29 289.8,275.43 289.81,274.56 289.82,273.7 289.83,272.84 289.84,271.98 289.85,271.11 289.86,270.25 289.87,269.39 289.88,268.52 289.89,267.66 289.9,266.8 289.91,265.94 289.91,265.07 289.92,264.21 289.93,263.35 289.94,262.48 289.95,261.62 289.96,260.76 289.97,259.9 289.98,259.03 289.99,258.17 290,257.31 290.01,256.44 290.02,255.58 290.03,254.72 290.04,253.86 290.05,252.99 290.06,252.13 290.07,251.27 290.08,250.4 290.09,249.54 290.1,248.68 290.11,247.82 290.11,246.95 290.12,246.09 290.13,245.23 290.14,244.36 290.15,243.5 290.16,242.64 290.17,241.78 290.18,240.91 290.19,240.05 290.2,239.19 290.21,238.32 290.22,237.46 290.23,236.6 290.24,235.73 290.25,234.87 290.26,234.01 290.27,233.15 290.28,232.28 290.29,231.42 290.3,230.56 290.31,229.69 290.31,228.83 290.32,227.97 290.33,227.11 290.34,226.24 290.35,225.38 290.36,224.52 290.37,223.65 290.38,222.79 290.39,221.93 290.4,221.07 290.41,220.2 290.42,219.34 290.43,218.48 290.44,217.61 290.45,216.75 290.46,215.89 290.47,215.03 290.48,214.16 290.49,213.3 290.5,212.44 290.51,211.57 290.51,210.71 290.54,209.85 290.56,208.99 290.57,208.12 298.53,207.26 298.54,206.4 298.55,205.53 298.57,204.67 298.58,203.81 298.59,202.95 298.6,202.08 298.61,201.22 298.62,200.36 330.66,199.49 525.03,199.3"/>
</g>
<g fill="#e41a1c" stroke-linejoin="miter" stroke-width="0.62">
<use xlink:href="#p0" x="288.56" y="384.15"/>
<use xlink:href="#p0" x="288.57" y="383.29"/>
<use xlink:href="#p0" x="288.58" y="382.42"/>
<use xlink:href="#p0" x="288.59" y="381.56"/>
<use xlink:href="#p0" x="288.6" y="380.7"/>
<use xlink:href="#p0" x="288.61" y="379.83"/>
<use xlink:href="#p0" x="288.62" y="378.97"/>
<use xlink:href="#p0" x="288.62" y="378.11"/>
<use xlink:href="#p0" x="288.63" y="377.25"/>
<use xlink:href="#p0" x="288.64" y="376.38"/>
<use xlink:href="#p0" x="288.65" y="375.52"/>
<use xlink:href="#p0" x="288.66" y="374.66"/>
<use xlink:href="#p0" x="288.67" y="373.79"/>
<use xlink:href="#p0" x="288.68" y="372.93"/>
<use xlink:href="#p0" x="288.69" y="372.07"/>
<use xlink:href="#p0" x="288.7" y="371.2"/>
<use xlink:href="#p0" x="288.71" y="370.34"/>
<use xlink:href="#p0" x="288.72" y="369.48"/>
<use xlink:href="#p0" x="288.73" y="368.62"/>
<use xlink:href="#p0" x="288.74" y="367.75"/>
<use xlink:href="#p0" x="288.75" y="366.89"/>
<use xlink:href="#p0" x="288.76" y="366.03"/>
<use xlink:href="#p0" x="288.77" y="365.16"/>
<use xlink:href="#p0" x="288.78" y="364.3"/>
<use xlink:href="#p0" x="288.79" y="363.44"/>
<use xlink:href="#p0" x="288.8" y="362.58"/>
<use xlink:href="#p0" x="288.81" y="361.71"/>
<use xlink:href="#p0" x="288.82" y="360.85"/>
<use xlink:href="#p0" x="288.82" y="359.99"/>
<use xlink:href="#p0" x="288.83" y="359.12"/>
<use xlink:href="#p0" x="288.84" y="358.26"/>
<use xlink:href="#p0" x="288.85" y="357.4"/>
<use xlink:href="#p0" x="288.86" y="356.54"/>
<use xlink:href="#p0" x="288.87" y="355.67"/>
<use xlink:href="#p0" x="288.88" y="354.81"/>
<use xlink:href="#p0" x="288.89" y="353.95"/>
<use xlink:href="#p0" x="288.9" y="353.08"/>
<use xlink:href="#p0" x="288.91" y="352.22"/>
<use xlink:href="#p0" x="288.92" y="351.36"/>
<use xlink:href="#p0" x="288.93" y="350.5"/>
<use xlink:href="#p0" x="288.94" y="349.63"/>
<use xlink:href="#p0" x="288.95" y="348.77"/>
<use xlink:href="#p0" x="288.96" y="347.91"/>
<use xlink:href="#p0" x="288.97" y="347.04"/>
<use xlink:href="#p0" x="288.98" y="346.18"/>
<use xlink:href="#p0" x="288.99" y="345.32"/>
<use xlink:href="#p0" x="289" y="344.46"/>
<use xlink:href="#p0" x="289" y="343.59"/>
<use xlink:href="#p0" x="289.01" y="342.73"/>
<use xlink:href="#p0" x="289.02" y="341.87"/>
<use xlink:href="#p0" x="289.03" y="341"/>
<use xlink:href="#p0" x="289.04" y="340.14"/>
<use xlink:href="#p0" x="289.05" y="339.28"/>
<use xlink:href="#p0" x="289.06" y="338.42"/>
<use xlink:href="#p0" x="289.07" y="337.55"/>
<use xlink:href="#p0" x="289.08" y="336.69"/>
<use xlink:href="#p0" x="289.09" y="335.83"/>
<use xlink:href="#p0" x="289.1" y="334.96"/>
<use xlink:href="#p0" x="289.11" y="334.1"/>
<use xlink:href="#p0" x="289.12" y="333.24"/>
<use xlink:href="#p0" x="289.13" y="332.38"/>
<use xlink:href="#p0" x="289.14" y="331.51"/>
<use xlink:href="#p0" x="289.15" y="330.65"/>
<use xlink:href="#p0" x="289.16" y="329.79"/>
<use xlink:href="#p0" x="289.17" y="328.92"/>
<use xlink:href="#p0" x="289.18" y="328.06"/>
<use xlink:href="#p0" x="289.19" y="327.2"/>
<use xlink:href="#p0" x="289.2" y="326.34"/>
<use xlink:href="#p0" x="289.21" y="325.47"/>
<use xlink:href="#p0" x="289.22" y="324.61"/>
<use xlink:href="#p0" x="289.22" y="323.75"/>
<use xlink:href="#p0" x="289.24" y="322.88"/>
<use xlink:href="#p0" x="289.24" y="322.02"/>
<use xlink:href="#p0" x="289.25" y="321.16"/>
<use xlink:href="#p0" x="289.26" y="320.3"/>
<use xlink:href="#p0" x="289.27" y="319.43"/>
<use xlink:href="#p0" x="289.3" y="318.57"/>
<use xlink:href="#p0" x="289.32" y="317.71"/>
<use xlink:href="#p0" x="289.33" y="316.84"/>
<use xlink:href="#p0" x="289.34" y="315.98"/>
<use xlink:href="#p0" x="289.37" y="315.12"/>
<use xlink:href="#p0" x="289.38" y="314.26"/>
<use xlink:href="#p0" x="289.39" y="313.39"/>
<use xlink:href="#p0" x="289.4" y="312.53"/>
<use xlink:href="#p0" x="289.41" y="311.67"/>
<use xlink:href="#p0" x="289.42" y="310.8"/>
<use xlink:href="#p0" x="289.43" y="309.94"/>
<use xlink:href="#p0" x="289.44" y="309.08"/>
<use xlink:href="#p0" x="289.44" y="308.22"/>
<use xlink:href="#p0" x="289.45" y="307.35"/>
<use xlink:href="#p0" x="289.46" y="306.49"/>
<use xlink:href="#p0" x="289.47" y="305.63"/>
<use xlink:href="#p0" x="289.48" y="304.76"/>
<use xlink:href="#p0" x="289.49" y="303.9"/>
<use xlink:href="#p0" x="289.5" y="303.04"/>
<use xlink:href="#p0" x="289.51" y="302.18"/>
<use xlink:href="#p0" x="289.52" y="301.31"/>
<use xlink:href="#p0" x="289.53" y="300.45"/>
<use xlink:href="#p0" x="289.54" y="299.59"/>
<use xlink:href="#p0" x="289.55" y="298.72"/>
<use xlink:href="#p0" x="289.56" y="297.86"/>
<use xlink:href="#p0" x="289.57" y="297"/>
<use xlink:href="#p0" x="289.58" y="296.14"/>
<use xlink:href="#p0" x="289.58" y="295.27"/>
<use xlink:href="#p0" x="289.59" y="294.41"/>
<use xlink:href="#p0" x="289.6" y="293.55"/>
<use xlink:href="#p0" x="289.61" y="292.68"/>
<use xlink:href="#p0" x="289.62" y="291.82"/>
<use xlink:href="#p0" x="289.63" y="290.96"/>
<use xlink:href="#p0" x="289.64" y="290.1"/>
<use xlink:href="#p0" x="289.65" y="289.23"/>
<use xlink:href="#p0" x="289.66" y="288.37"/>
<use xlink:href="#p0" x="289.67" y="287.51"/>
<use xlink:href="#p0" x="289.68" y="286.64"/>
<use xlink:href="#p0" x="289.69" y="285.78"/>
<use xlink:href="#p0" x="289.7" y="284.92"/>
<use xlink:href="#p0" x="289.71" y="284.06"/>
<use xlink:href="#p0" x="289.72" y="283.19"/>
<use xlink:href="#p0" x="289.73" y="282.33"/>
<use xlink:href="#p0" x="289.74" y="281.47"/>
<use xlink:href="#p0" x="289.74" y="280.6"/>
<use xlink:href="#p0" x="289.75" y="279.74"/>
<use xlink:href="#p0" x="289.76" y="278.88"/>
<use xlink:href="#p0" x="289.77" y="278.02"/>
<use xlink:href="#p0" x="289.78" y="277.15"/>
<use xlink:href="#p0" x="289.79" y="276.29"/>
<use xlink:href="#p0" x="289.8" y="275.43"/>
<use xlink:href="#p0" x="289.81" y="274.56"/>
<use xlink:href="#p0" x="289.82" y="273.7"/>
<use xlink:href="#p0" x="289.83" y="272.84"/>
<use xlink:href="#p0" x="289.84" y="271.98"/>
<use xlink:href="#p0" x="289.85" y="271.11"/>
<use xlink:href="#p0" x="289.86" y="270.25"/>
<use xlink:href="#p0" x="289.87" y="269.39"/>
<use xlink:href="#p0" x="289.88" y="268.52"/>
<use xlink:href="#p0" x="289.89" y="267.66"/>
<use xlink:href="#p0" x="289.9" y="266.8"/>
<use xlink:href="#p0" x="289.91" y="265.94"/>
<use xlink:href="#p0" x="289.91" y="265.07"/>
<use xlink:href="#p0" x="289.92" y="264.21"/>
<use xlink:href="#p0" x="289.93" y="263.35"/>
<use xlink:href="#p0" x="289.94" y="262.48"/>
<use xlink:href="#p0" x="289.95" y="261.62"/>
<use xlink:href="#p0" x="289.96" y="260.76"/>
<use xlink:href="#p0" x="289.97" y="259.9"/>
<use xlink:href="#p0" x="289.98" y="259.03"/>
<use xlink:href="#p0" x="289.99" y="258.17"/>
<use xlink:href="#p0" x="290" y="257.31"/>
<use xlink:href="#p0" x="290.01" y="256.44"/>
<use xlink:href="#p0" x="290.02" y="255.58"/>
<use xlink:href="#p0" x="290.03" y="254.72"/>
<use xlink:href="#p0" x="290.04" y="253.86"/>
<use xlink:href="#p0" x="290.05" y="252.99"/>
<use xlink:href="#p0" x="290.06" y="252.13"/>
<use xlink:href="#p0" x="290.07" y="251.27"/>
<use xlink:href="#p0" x="290.08" y="250.4"/>
<use xlink:href="#p0" x="290.09" y="249.54"/>
<use xlink:href="#p0" x="290.1" y="248.68"/>
<use xlink:href="#p0" x="290.11" y="247.82"/>
<use xlink:href="#p0" x="290.11" y="246.95"/>
<use xlink:href="#p0" x="290.12" y="246.09"/>
<use xlink:href="#p0" x="290.13" y="245.23"/>
<use xlink:href="#p0" x="290.14" y="244.36"/>
<use xlink:href="#p0" x="290.15" y="243.5"/>
<use xlink:href="#p0" x="290.16" y="242.64"/>
<use xlink:href="#p0" x="290.17" y="241.78"/>
<use xlink:href="#p0" x="290.18" y="240.91"/>
<use xlink:href="#p0" x="290.19" y="240.05"/>
<use xlink:href="#p0" x="290.2" y="239.19"/>
<use xlink:href="#p0" x="290.21" y="238.32"/>
<use xlink:href="#p0" x="290.22" y="237.46"/>
<use xlink:href="#p0" x="290.23" y="236.6"/>
<use xlink:href="#p0" x="290.24" y="235.73"/>
<use xlink:href="#p0" x="290.25" y="234.87"/>
<use xlink:href="#p0" x="290.26" y="234.01"/>
<use xlink:href="#p0" x="290.27" y="233.15"/>
<use xlink:href="#p0" x="290.28" y="232.28"/>
<use xlink:href="#p0" x="290.29" y="231.42"/>
<use xlink:href="#p0" x="290.3" y="230.56"/>
<use xlink:href="#p0" x="290.31" y="229.69"/>
<use xlink:href="#p0" x="290.31" y="228.83"/>
<use xlink:href="#p0" x="290.32" y="227.97"/>
<use xlink:href="#p0" x="290.33" y="227.11"/>
<use xlink:href="#p0" x="290.34" y="226.24"/>
<use xlink:href="#p0" x="290.35" y="225.38"/>
<use xlink:href="#p0" x="290.36" y="224.52"/>
<use xlink:href="#p0" x="290.37" y="223.65"/>
<use xlink:href="#p0" x="290.38" y="222.79"/>
<use xlink:href="#p0" x="290.39" y="221.93"/>
<use xlink:href="#p0" x="290.4" y="221.07"/>
<use xlink:href="#p0" x="290.41" y="220.2"/>
<use xlink:href="#p0" x="290.42" y="219.34"/>
<use xlink:href="#p0" x="290.43" y="218.48"/>
<use xlink:href="#p0" x="290.44" y="217.61"/>
<use xlink:href="#p0" x="290.45" y="216.75"/>
<use xlink:href="#p0" x="290.46" y="215.89"/>
<use xlink:href="#p0" x="290.47" y="215.03"/>
<use xlink:href="#p0" x="290.48" y="214.16"/>
<use xlink:href="#p0" x="290.49" y="213.3"/>
<use xlink:href="#p0" x="290.5" y="212.44"/>
<use xlink:href="#p0" x="290.51" y="211.57"/>
<use xlink:href="#p0" x="290.51" y="210.71"/>
<use xlink:href="#p0" x="290.54" y="209.85"/>
<use xlink:href="#p0" x="290.56" y="208.99"/>
<use xlink:href="#p0" x="290.57" y="208.12"/>
<use xlink:href="#p0" x="298.53" y="207.26"/>
<use xlink:href="#p0" x="298.54" y="206.4"/>
<use xlink:href="#p0" x="298.55" y="205.53"/>
<use xlink:href="#p0" x="298.57" y="204.67"/>
<use xlink:href="#p0" x="298.58" y="203.81"/>
<use xlink:href="#p0" x="298.59" y="202.95"/>
<use xlink:href="#p0" x="298.6" y="202.08"/>
<use xlink:href="#p0" x="298.61" y="201.22"/>
<use xlink:href="#p0" x="298.62" y="200.36"/>
<use xlink:href="#p0" x="330.66" y="199.49"/>
</g>
</g>
<g clip-path="url(#c0)">
<g fill="none" stroke-linecap="butt" stroke-width="0.62">
<path d="M243.95,385.01l0,-215.71"/>
<path d="M243.95,385.01l3.75,0M243.95,376.38l3.75,0M243.95,367.75l3.75,0M243.95,359.12l3.75,0M243.95,350.5l3.75,0M243.95,341.87l3.75,0M243.95,333.24l3.75,0M243.95,324.61l3.75,0M243.95,315.98l3.75,0M243.95,307.35l3.75,0M243.95,298.72l3.75,0M243.95,290.1l3.75,0M243.95,281.47l3.75,0M243.95,272.84l3.75,0M243.95,264.21l3.75,0M243.95,255.58l3.75,0M243.95,246.95l3.75,0M243.95,238.32l3.75,0M243.95,229.69l3.75,0M243.95,221.07l3.75,0M243.95,212.44l3.75,0M243.95,203.81l3.75,0M243.95,195.18l3.75,0M243.95,186.55l3.75,0M243.95,177.92l3.75,0M243.95,169.29l3.75,0"/>
<path d="M243.95,385.01l7.5,0M243.95,341.87l7.5,0M243.95,298.72l7.5,0M243.95,255.58l7.5,0M243.95,212.44l7.5,0M243.95,169.29l7.5,0"/>
</g>
<g fill="none" stroke-width="0.1">
<g stroke="none" fill="#000000" fill-opacity="1" font-family="Serif" font-size="17.500000000000004">
<text x="228.72" y="391.66" textLength="11.13">0</text>
<text x="217.59" y="348.52" textLength="22.26">50</text>
<text x="206.45" y="305.37" textLength="33.39">100</text>
<text x="206.45" y="262.23" textLength="33.39">150</text>
<text x="206.45" y="219.09" textLength="33.39">200</text>
<text x="206.45" y="175.94" textLength="33.39">250</text>
</g>
</g>
<g fill="none" stroke-linecap="butt" stroke-width="0.62">
<path d="M243.95,385.01l280.45,0"/>
<path d="M243.95,385.01l0,-3.75M263.98,385.01l0,-3.75M284.02,385.01l0,-3.75M304.05,385.01l0,-3.75M324.08,385.01l0,-3.75M344.11,385.01l0,-3.75M364.15,385.01l0,-3.75M384.18,385.01l0,-3.75M404.21,385.01l0,-3.75M424.24,385.01l0,-3.75M444.28,385.01l0,-3.75M464.31,385.01l0,-3.75M484.34,385.01l0,-3.75M504.37,385.01l0,-3.75M524.4,385.01l0,-3.75"/>
<path d="M243.95,385.01l0,-7.5M284.02,385.01l0,-7.5M324.08,385.01l0,-7.5M364.15,385.01l0,-7.5M404.21,385.01l0,-7.5M444.28,385.01l0,-7.5M484.34,385.01l0,-7.5M524.4,385.01l0,-7.5"/>
</g>
<g fill="none" stroke-width="0.1">
<g stroke="none" fill="#000000" fill-opacity="1" font-family="Serif" font-size="17.500000000000004">
<text x="231.05" y="405.41" textLength="25.79">−5</text>
<text x="278.45" y="405.41" textLength="11.13">0</text>
<text x="318.51" y="405.41" textLength="11.13">5</text>
<text x="353.01" y="405.41" textLength="22.26">10</text>
<text x="393.08" y="405.41" textLength="22.26">15</text>
<text x="433.14" y="405.41" textLength="22.26">20</text>
<text x="473.21" y="405.41" textLength="22.26">25</text>
<text x="509.22" y="405.41" textLength="22.26">30</text>
</g>
</g>
<g fill="none" stroke-linecap="butt" stroke-width="0.62">
<path d="M524.4,385.01l0,-215.71"/>
<path d="M524.4,385.01l-3.75,0M524.4,376.38l-3.75,0M524.4,367.75l-3.75,0M524.4,359.12l-3.75,0M524.4,350.5l-3.75,0M524.4,341.87l-3.75,0M524.4,333.24l-3.75,0M524.4,324.61l-3.75,0M524.4,315.98l-3.75,0M524.4,307.35l-3.75,0M524.4,298.72l-3.75,0M524.4,290.1l-3.75,0M524.4,281.47l-3.75,0M524.4,272.84l-3.75,0M524.4,264.21l-3.75,0M524.4,255.58l-3.75,0M524.4,246.95l-3.75,0M524.4,238.32l-3.75,0M524.4,229.69l-3.75,0M524.4,221.07l-3.75,0M524.4,212.44l-3.75,0M524.4,203.81l-3.75,0M524.4,195.18l-3.75,0M524.4,186.55l-3.75,0M524.4,177.92l-3.75,0M524.4,169.29l-3.75,0"/>
<path d="M524.4,385.01l-7.5,0M524.4,341.87l-7.5,0M524.4,298.72l-7.5,0M524.4,255.58l-7.5,0M524.4,212.44l-7.5,0M524.4,169.29l-7.5,0"/>
<path d="M243.95,169.29l280.45,0"/>
<path d="M243.95,169.29l0,3.75M263.98,169.29l0,3.75M284.02,169.29l0,3.75M304.05,169.29l0,3.75M324.08,169.29l0,3.75M344.11,169.29l0,3.75M364.15,169.29l0,3.75M384.18,169.29l0,3.75M404.21,169.29l0,3.75M424.24,169.29l0,3.75M444.28,169.29l0,3.75M464.31,169.29l0,3.75M484.34,169.29l0,3.75M504.37,169.29l0,3.75M524.4,169.29l0,3.75"/>
<path d="M243.95,169.29l0,7.5M284.02,169.29l0,7.5M324.08,169.29l0,7.5M364.15,169.29l0,7.5M404.21,169.29l0,7.5M444.28,169.29l0,7.5M484.34,169.29l0,7.5M524.4,169.29l0,7.5"/>
</g>
</g>
</g>
</svg>
