<?xml version="1.0" standalone="no"?>
<!DOCTYPE svg PUBLIC "-//W3C//DTD SVG 1.1//EN"
  "http://www.w3.org/Graphics/SVG/1.1/DTD/svg11.dtd">
<svg width="531.49px" height="531.49px" version="1.1"
    xmlns="http://www.w3.org/2000/svg"
    xmlns:xlink="http://www.w3.org/1999/xlink">
<desc>Veusz output document</desc>
<defs>
<clipPath id="c0">
<path d="m0,0l531.49,0l0,531.49l-531.49,0l0,-531.49"/>
</clipPath>
<clipPath id="c1">
<path d="m60.23,7.08l464.17,0l0,464.17l-464.17,0l0,-464.17"/>
</clipPath>
<clipPath id="c2">
<path d="m243.95,208.69l280.45,0l0,214.76l-280.45,0l0,-214.76"/>
</clipPath>
</defs>
<g stroke-linejoin="bevel" stroke-linecap="square" stroke="#000000" fill-rule="evenodd">
<g clip-path="url(#c0)">
<g fill="#ffffff" stroke-width="0.62">
<path d="m60.23,7.08l464.17,0l0,464.17l-464.17,0l0,-464.17"/>
</g>
<g fill="none" stroke-width="0.1">
<g stroke="none" fill="#000000" fill-opacity="1" font-family="Serif" font-size="25.0">
<text x="109.43" y="40.5" textLength="194.1">Download MFT</text>
</g>
</g>
</g>
<g clip-path="url(#c1)">
<g fill="#377eb8" stroke-linejoin="miter" stroke-width="0.62">
<g transform="translate(120.71,470.09)">
<path d="m3.75,0c0,2.07,-1.67,3.75,-3.75,3.75c-2.07,0,-3.75,-1.67,-3.75,-3.75c0,-2.07,1.67,-3.75,3.75,-3.75c2.07,0,3.75,1.67,3.75,3.75" id="p0"/>
</g>
<use xlink:href="#p0" x="120.74" y="468.93"/>
<use xlink:href="#p0" x="120.77" y="467.77"/>
<use xlink:href="#p0" x="120.72" y="466.61"/>
<use xlink:href="#p0" x="120.74" y="465.45"/>
<use xlink:href="#p0" x="120.76" y="464.29"/>
<use xlink:href="#p0" x="120.74" y="463.13"/>
<use xlink:href="#p0" x="120.74" y="461.97"/>
<use xlink:href="#p0" x="120.72" y="460.81"/>
<use xlink:href="#p0" x="120.69" y="459.65"/>
<use xlink:href="#p0" x="120.86" y="458.49"/>
<use xlink:href="#p0" x="120.71" y="457.33"/>
<use xlink:href="#p0" x="120.75" y="456.17"/>
<use xlink:href="#p0" x="120.86" y="455.01"/>
<use xlink:href="#p0" x="120.71" y="453.85"/>
<use xlink:href="#p0" x="120.73" y="452.69"/>
<use xlink:href="#p0" x="120.74" y="451.53"/>
<use xlink:href="#p0" x="120.74" y="450.37"/>
<use xlink:href="#p0" x="120.74" y="449.21"/>
<use xlink:href="#p0" x="120.76" y="448.05"/>
<use xlink:href="#p0" x="120.75" y="446.89"/>
<use xlink:href="#p0" x="120.74" y="445.73"/>
<use xlink:href="#p0" x="120.71" y="444.56"/>
<use xlink:href="#p0" x="120.74" y="443.4"/>
<use xlink:href="#p0" x="120.74" y="442.24"/>
<use xlink:href="#p0" x="120.72" y="441.08"/>
<use xlink:href="#p0" x="120.74" y="439.92"/>
<use xlink:href="#p0" x="120.74" y="438.76"/>
<use xlink:href="#p0" x="120.75" y="437.6"/>
<use xlink:href="#p0" x="120.75" y="436.44"/>
<use xlink:href="#p0" x="120.71" y="435.28"/>
<use xlink:href="#p0" x="120.6" y="434.12"/>
<use xlink:href="#p0" x="120.72" y="432.96"/>
<use xlink:href="#p0" x="120.74" y="431.8"/>
<use xlink:href="#p0" x="120.76" y="430.64"/>
<use xlink:href="#p0" x="120.74" y="429.48"/>
<use xlink:href="#p0" x="120.75" y="428.32"/>
<use xlink:href="#p0" x="120.67" y="427.16"/>
<use xlink:href="#p0" x="120.74" y="426"/>
<use xlink:href="#p0" x="120.74" y="424.84"/>
<use xlink:href="#p0" x="120.77" y="423.68"/>
<use xlink:href="#p0" x="120.75" y="422.52"/>
<use xlink:href="#p0" x="120.73" y="421.36"/>
<use xlink:href="#p0" x="120.75" y="420.2"/>
<use xlink:href="#p0" x="120.75" y="419.04"/>
<use xlink:href="#p0" x="120.73" y="417.87"/>
<use xlink:href="#p0" x="120.72" y="416.71"/>
<use xlink:href="#p0" x="120.74" y="415.55"/>
<use xlink:href="#p0" x="120.75" y="414.39"/>
<use xlink:href="#p0" x="120.75" y="413.23"/>
<use xlink:href="#p0" x="120.74" y="412.07"/>
<use xlink:href="#p0" x="120.72" y="410.91"/>
<use xlink:href="#p0" x="120.71" y="409.75"/>
<use xlink:href="#p0" x="120.71" y="408.59"/>
<use xlink:href="#p0" x="120.73" y="407.43"/>
<use xlink:href="#p0" x="120.74" y="406.27"/>
<use xlink:href="#p0" x="120.74" y="405.11"/>
<use xlink:href="#p0" x="120.73" y="403.95"/>
<use xlink:href="#p0" x="120.76" y="402.79"/>
<use xlink:href="#p0" x="120.74" y="401.63"/>
<use xlink:href="#p0" x="120.75" y="400.47"/>
<use xlink:href="#p0" x="120.75" y="399.31"/>
<use xlink:href="#p0" x="120.73" y="398.15"/>
<use xlink:href="#p0" x="120.74" y="396.99"/>
<use xlink:href="#p0" x="120.71" y="395.83"/>
<use xlink:href="#p0" x="120.74" y="394.67"/>
<use xlink:href="#p0" x="120.75" y="393.51"/>
<use xlink:href="#p0" x="120.75" y="392.35"/>
<use xlink:href="#p0" x="120.71" y="391.19"/>
<use xlink:href="#p0" x="120.74" y="390.02"/>
<use xlink:href="#p0" x="120.74" y="388.86"/>
<use xlink:href="#p0" x="120.75" y="387.7"/>
<use xlink:href="#p0" x="120.7" y="386.54"/>
<use xlink:href="#p0" x="120.71" y="385.38"/>
<use xlink:href="#p0" x="120.74" y="384.22"/>
<use xlink:href="#p0" x="120.73" y="383.06"/>
<use xlink:href="#p0" x="120.68" y="381.9"/>
<use xlink:href="#p0" x="120.74" y="380.74"/>
<use xlink:href="#p0" x="120.73" y="379.58"/>
<use xlink:href="#p0" x="120.72" y="378.42"/>
<use xlink:href="#p0" x="120.74" y="377.26"/>
<use xlink:href="#p0" x="120.75" y="376.1"/>
<use xlink:href="#p0" x="120.74" y="374.94"/>
<use xlink:href="#p0" x="120.74" y="373.78"/>
<use xlink:href="#p0" x="120.86" y="372.62"/>
<use xlink:href="#p0" x="120.73" y="371.46"/>
<use xlink:href="#p0" x="120.75" y="370.3"/>
<use xlink:href="#p0" x="120.72" y="369.14"/>
<use xlink:href="#p0" x="120.75" y="367.98"/>
<use xlink:href="#p0" x="120.74" y="366.82"/>
<use xlink:href="#p0" x="120.74" y="365.66"/>
<use xlink:href="#p0" x="120.83" y="364.5"/>
<use xlink:href="#p0" x="120.75" y="363.33"/>
<use xlink:href="#p0" x="120.74" y="362.17"/>
<use xlink:href="#p0" x="120.71" y="361.01"/>
<use xlink:href="#p0" x="120.75" y="359.85"/>
<use xlink:href="#p0" x="120.72" y="358.69"/>
<use xlink:href="#p0" x="120.74" y="357.53"/>
<use xlink:href="#p0" x="120.73" y="356.37"/>
<use xlink:href="#p0" x="120.72" y="355.21"/>
<use xlink:href="#p0" x="120.75" y="354.05"/>
<use xlink:href="#p0" x="120.59" y="352.89"/>
<use xlink:href="#p0" x="120.75" y="351.73"/>
<use xlink:href="#p0" x="120.59" y="350.57"/>
<use xlink:href="#p0" x="120.75" y="349.41"/>
<use xlink:href="#p0" x="120.74" y="348.25"/>
<use xlink:href="#p0" x="120.73" y="347.09"/>
<use xlink:href="#p0" x="120.74" y="345.93"/>
<use xlink:href="#p0" x="120.73" y="344.77"/>
<use xlink:href="#p0" x="120.74" y="343.61"/>
<use xlink:href="#p0" x="120.74" y="342.45"/>
<use xlink:href="#p0" x="120.59" y="341.29"/>
<use xlink:href="#p0" x="120.76" y="340.13"/>
<use xlink:href="#p0" x="120.62" y="338.97"/>
<use xlink:href="#p0" x="120.75" y="337.81"/>
<use xlink:href="#p0" x="120.73" y="336.64"/>
<use xlink:href="#p0" x="120.86" y="335.48"/>
<use xlink:href="#p0" x="120.59" y="334.32"/>
<use xlink:href="#p0" x="120.72" y="333.16"/>
<use xlink:href="#p0" x="120.59" y="332"/>
<use xlink:href="#p0" x="120.59" y="330.84"/>
<use xlink:href="#p0" x="120.69" y="329.68"/>
<use xlink:href="#p0" x="120.59" y="328.52"/>
<use xlink:href="#p0" x="121.02" y="327.36"/>
<use xlink:href="#p0" x="121.43" y="326.2"/>
<use xlink:href="#p0" x="121.58" y="325.04"/>
<use xlink:href="#p0" x="121.65" y="323.88"/>
<use xlink:href="#p0" x="122.38" y="322.72"/>
<use xlink:href="#p0" x="122.35" y="321.56"/>
<use xlink:href="#p0" x="122.28" y="320.4"/>
<use xlink:href="#p0" x="126.68" y="319.24"/>
<use xlink:href="#p0" x="123.94" y="318.08"/>
<use xlink:href="#p0" x="124.07" y="316.92"/>
<use xlink:href="#p0" x="124.41" y="315.76"/>
<use xlink:href="#p0" x="125.35" y="314.6"/>
<use xlink:href="#p0" x="125.92" y="313.44"/>
<use xlink:href="#p0" x="128.99" y="312.28"/>
<use xlink:href="#p0" x="136.94" y="311.12"/>
<use xlink:href="#p0" x="137" y="309.95"/>
<use xlink:href="#p0" x="138.02" y="308.79"/>
<use xlink:href="#p0" x="140.77" y="307.63"/>
<use xlink:href="#p0" x="142.51" y="306.47"/>
<use xlink:href="#p0" x="142.45" y="305.31"/>
<use xlink:href="#p0" x="142.41" y="304.15"/>
<use xlink:href="#p0" x="142.65" y="302.99"/>
<use xlink:href="#p0" x="143.54" y="301.83"/>
<use xlink:href="#p0" x="144.19" y="300.67"/>
<use xlink:href="#p0" x="144.64" y="299.51"/>
<use xlink:href="#p0" x="144.8" y="298.35"/>
<use xlink:href="#p0" x="144.94" y="297.19"/>
<use xlink:href="#p0" x="144.86" y="296.03"/>
<use xlink:href="#p0" x="145.6" y="294.87"/>
<use xlink:href="#p0" x="145.78" y="293.71"/>
<use xlink:href="#p0" x="145.78" y="292.55"/>
<use xlink:href="#p0" x="145.83" y="291.39"/>
<use xlink:href="#p0" x="145.88" y="290.23"/>
<use xlink:href="#p0" x="146.11" y="289.07"/>
<use xlink:href="#p0" x="146.34" y="287.91"/>
<use xlink:href="#p0" x="146.17" y="286.75"/>
<use xlink:href="#p0" x="146.2" y="285.59"/>
<use xlink:href="#p0" x="146.41" y="284.43"/>
<use xlink:href="#p0" x="146.45" y="283.26"/>
<use xlink:href="#p0" x="146.61" y="282.1"/>
<use xlink:href="#p0" x="146.6" y="280.94"/>
<use xlink:href="#p0" x="146.82" y="279.78"/>
<use xlink:href="#p0" x="146.82" y="278.62"/>
<use xlink:href="#p0" x="147.11" y="277.46"/>
<use xlink:href="#p0" x="147.15" y="276.3"/>
<use xlink:href="#p0" x="147.48" y="275.14"/>
<use xlink:href="#p0" x="147.34" y="273.98"/>
<use xlink:href="#p0" x="147.49" y="272.82"/>
<use xlink:href="#p0" x="147.56" y="271.66"/>
<use xlink:href="#p0" x="147.59" y="270.5"/>
<use xlink:href="#p0" x="147.67" y="269.34"/>
<use xlink:href="#p0" x="148.23" y="268.18"/>
<use xlink:href="#p0" x="147.96" y="267.02"/>
<use xlink:href="#p0" x="148.05" y="265.86"/>
<use xlink:href="#p0" x="148.21" y="264.7"/>
<use xlink:href="#p0" x="148.52" y="263.54"/>
<use xlink:href="#p0" x="148.92" y="262.38"/>
<use xlink:href="#p0" x="148.73" y="261.22"/>
<use xlink:href="#p0" x="149.15" y="260.06"/>
<use xlink:href="#p0" x="149.26" y="258.9"/>
<use xlink:href="#p0" x="149.36" y="257.74"/>
<use xlink:href="#p0" x="149.65" y="256.57"/>
<use xlink:href="#p0" x="149.73" y="255.41"/>
<use xlink:href="#p0" x="149.68" y="254.25"/>
<use xlink:href="#p0" x="150.04" y="253.09"/>
<use xlink:href="#p0" x="150.15" y="251.93"/>
<use xlink:href="#p0" x="150.51" y="250.77"/>
<use xlink:href="#p0" x="150.7" y="249.61"/>
<use xlink:href="#p0" x="150.85" y="248.45"/>
<use xlink:href="#p0" x="150.87" y="247.29"/>
<use xlink:href="#p0" x="151.08" y="246.13"/>
<use xlink:href="#p0" x="151.52" y="244.97"/>
<use xlink:href="#p0" x="151.65" y="243.81"/>
<use xlink:href="#p0" x="153.06" y="242.65"/>
<use xlink:href="#p0" x="153.08" y="241.49"/>
<use xlink:href="#p0" x="153.27" y="240.33"/>
<use xlink:href="#p0" x="153.35" y="239.17"/>
<use xlink:href="#p0" x="153.44" y="238.01"/>
<use xlink:href="#p0" x="154" y="236.85"/>
<use xlink:href="#p0" x="154.97" y="235.69"/>
<use xlink:href="#p0" x="155.12" y="234.53"/>
<use xlink:href="#p0" x="155.54" y="233.37"/>
<use xlink:href="#p0" x="155.7" y="232.21"/>
<use xlink:href="#p0" x="156.55" y="231.05"/>
<use xlink:href="#p0" x="158.56" y="229.88"/>
<use xlink:href="#p0" x="166.19" y="228.72"/>
<use xlink:href="#p0" x="159.5" y="227.56"/>
<use xlink:href="#p0" x="159.69" y="226.4"/>
<use xlink:href="#p0" x="159.93" y="225.24"/>
<use xlink:href="#p0" x="163.91" y="224.08"/>
<use xlink:href="#p0" x="172.28" y="222.92"/>
<use xlink:href="#p0" x="174.3" y="221.76"/>
<use xlink:href="#p0" x="193.75" y="220.6"/>
<use xlink:href="#p0" x="193.69" y="219.44"/>
<use xlink:href="#p0" x="195.78" y="218.28"/>
<use xlink:href="#p0" x="196.19" y="217.12"/>
<use xlink:href="#p0" x="197.18" y="215.96"/>
<use xlink:href="#p0" x="197.69" y="214.8"/>
<use xlink:href="#p0" x="197.96" y="213.64"/>
<use xlink:href="#p0" x="197.97" y="212.48"/>
<use xlink:href="#p0" x="198.31" y="211.32"/>
<use xlink:href="#p0" x="198.33" y="210.16"/>
<use xlink:href="#p0" x="198.34" y="209"/>
<use xlink:href="#p0" x="198.61" y="207.84"/>
<use xlink:href="#p0" x="199.12" y="206.68"/>
<use xlink:href="#p0" x="199.5" y="205.52"/>
<use xlink:href="#p0" x="199.77" y="204.36"/>
<use xlink:href="#p0" x="200.09" y="203.19"/>
<use xlink:href="#p0" x="200.85" y="202.03"/>
<use xlink:href="#p0" x="201.42" y="200.87"/>
<use xlink:href="#p0" x="201.5" y="199.71"/>
<use xlink:href="#p0" x="203.02" y="198.55"/>
<use xlink:href="#p0" x="203.32" y="197.39"/>
<use xlink:href="#p0" x="206.42" y="196.23"/>
<use xlink:href="#p0" x="205.64" y="195.07"/>
<use xlink:href="#p0" x="206.16" y="193.91"/>
<use xlink:href="#p0" x="206.23" y="192.75"/>
<use xlink:href="#p0" x="208.04" y="191.59"/>
<use xlink:href="#p0" x="208.3" y="190.43"/>
<use xlink:href="#p0" x="208.44" y="189.27"/>
<use xlink:href="#p0" x="209.47" y="188.11"/>
<use xlink:href="#p0" x="209.49" y="186.95"/>
<use xlink:href="#p0" x="209.51" y="185.79"/>
<use xlink:href="#p0" x="209.88" y="184.63"/>
<use xlink:href="#p0" x="210.03" y="183.47"/>
<use xlink:href="#p0" x="210.25" y="182.31"/>
<use xlink:href="#p0" x="211.26" y="181.15"/>
<use xlink:href="#p0" x="211.97" y="179.99"/>
<use xlink:href="#p0" x="212.57" y="178.83"/>
<use xlink:href="#p0" x="213.09" y="177.67"/>
<use xlink:href="#p0" x="213.7" y="176.5"/>
<use xlink:href="#p0" x="213.7" y="175.34"/>
<use xlink:href="#p0" x="214.77" y="174.18"/>
<use xlink:href="#p0" x="214.85" y="173.02"/>
<use xlink:href="#p0" x="215.77" y="171.86"/>
<use xlink:href="#p0" x="215.9" y="170.7"/>
<use xlink:href="#p0" x="217.42" y="169.54"/>
<use xlink:href="#p0" x="224.8" y="168.38"/>
<use xlink:href="#p0" x="229.95" y="167.22"/>
<use xlink:href="#p0" x="244.15" y="166.06"/>
<use xlink:href="#p0" x="249.18" y="164.9"/>
<use xlink:href="#p0" x="249.35" y="163.74"/>
<use xlink:href="#p0" x="250.97" y="162.58"/>
<use xlink:href="#p0" x="251.55" y="161.42"/>
<use xlink:href="#p0" x="251.66" y="160.26"/>
<use xlink:href="#p0" x="251.68" y="159.1"/>
<use xlink:href="#p0" x="252.1" y="157.94"/>
<use xlink:href="#p0" x="252.34" y="156.78"/>
<use xlink:href="#p0" x="253.22" y="155.62"/>
<use xlink:href="#p0" x="253.55" y="154.46"/>
<use xlink:href="#p0" x="253.57" y="153.3"/>
<use xlink:href="#p0" x="254.4" y="152.14"/>
<use xlink:href="#p0" x="255.33" y="150.98"/>
<use xlink:href="#p0" x="255.7" y="149.81"/>
<use xlink:href="#p0" x="256.16" y="148.65"/>
<use xlink:href="#p0" x="257.09" y="147.49"/>
<use xlink:href="#p0" x="257.1" y="146.33"/>
<use xlink:href="#p0" x="257.41" y="145.17"/>
<use xlink:href="#p0" x="258.4" y="144.01"/>
<use xlink:href="#p0" x="258.4" y="142.85"/>
<use xlink:href="#p0" x="258.41" y="141.69"/>
<use xlink:href="#p0" x="260.1" y="140.53"/>
<use xlink:href="#p0" x="261.56" y="139.37"/>
<use xlink:href="#p0" x="262.62" y="138.21"/>
<use xlink:href="#p0" x="263.12" y="137.05"/>
<use xlink:href="#p0" x="263.56" y="135.89"/>
<use xlink:href="#p0" x="265.12" y="134.73"/>
<use xlink:href="#p0" x="268.8" y="133.57"/>
<use xlink:href="#p0" x="269.05" y="132.41"/>
<use xlink:href="#p0" x="269.25" y="131.25"/>
<use xlink:href="#p0" x="275.73" y="130.09"/>
<use xlink:href="#p0" x="278.45" y="128.93"/>
<use xlink:href="#p0" x="278.47" y="127.77"/>
<use xlink:href="#p0" x="283.73" y="126.61"/>
<use xlink:href="#p0" x="307.48" y="125.45"/>
<use xlink:href="#p0" x="312.54" y="124.29"/>
<use xlink:href="#p0" x="312.77" y="123.12"/>
<use xlink:href="#p0" x="313.81" y="121.96"/>
<use xlink:href="#p0" x="320.95" y="120.8"/>
<use xlink:href="#p0" x="321.86" y="119.64"/>
<use xlink:href="#p0" x="322.19" y="118.48"/>
<use xlink:href="#p0" x="322.24" y="117.32"/>
<use xlink:href="#p0" x="358.93" y="116.16"/>
<use xlink:href="#p0" x="363.67" y="115"/>
<use xlink:href="#p0" x="371.1" y="113.84"/>
<use xlink:href="#p0" x="375.68" y="112.68"/>
<use xlink:href="#p0" x="382.62" y="111.52"/>
<use xlink:href="#p0" x="388.61" y="110.36"/>
<use xlink:href="#p0" x="399.41" y="109.2"/>
<use xlink:href="#p0" x="402.79" y="108.04"/>
<use xlink:href="#p0" x="403.72" y="106.88"/>
<use xlink:href="#p0" x="405.48" y="105.72"/>
<use xlink:href="#p0" x="405.66" y="104.56"/>
<use xlink:href="#p0" x="405.62" y="103.4"/>
<use xlink:href="#p0" x="405.91" y="102.24"/>
<use xlink:href="#p0" x="406.66" y="101.08"/>
<use xlink:href="#p0" x="407" y="99.92"/>
<use xlink:href="#p0" x="407.14" y="98.76"/>
<use xlink:href="#p0" x="407.28" y="97.6"/>
<use xlink:href="#p0" x="407.68" y="96.44"/>
<use xlink:href="#p0" x="408.07" y="95.27"/>
<use xlink:href="#p0" x="408.01" y="94.11"/>
<use xlink:href="#p0" x="408.19" y="92.95"/>
<use xlink:href="#p0" x="408.5" y="91.79"/>
<use xlink:href="#p0" x="408.86" y="90.63"/>
<use xlink:href="#p0" x="409.78" y="89.47"/>
<use xlink:href="#p0" x="410.71" y="88.31"/>
<use xlink:href="#p0" x="411.73" y="87.15"/>
<use xlink:href="#p0" x="411.67" y="85.99"/>
<use xlink:href="#p0" x="412.38" y="84.83"/>
<use xlink:href="#p0" x="414.1" y="83.67"/>
<use xlink:href="#p0" x="414.39" y="82.51"/>
<use xlink:href="#p0" x="414.87" y="81.35"/>
<use xlink:href="#p0" x="418.12" y="80.19"/>
<use xlink:href="#p0" x="420.12" y="79.03"/>
<use xlink:href="#p0" x="420.16" y="77.87"/>
<use xlink:href="#p0" x="422.88" y="76.71"/>
<use xlink:href="#p0" x="425.37" y="75.55"/>
<use xlink:href="#p0" x="436.71" y="74.39"/>
<use xlink:href="#p0" x="451.69" y="73.23"/>
<use xlink:href="#p0" x="451.85" y="72.07"/>
<use xlink:href="#p0" x="453.91" y="70.91"/>
<use xlink:href="#p0" x="459.53" y="69.75"/>
<use xlink:href="#p0" x="460.38" y="68.58"/>
<use xlink:href="#p0" x="460.38" y="67.42"/>
<use xlink:href="#p0" x="460.39" y="66.26"/>
<use xlink:href="#p0" x="466.04" y="65.1"/>
<use xlink:href="#p0" x="461.13" y="63.94"/>
<use xlink:href="#p0" x="461.75" y="62.78"/>
<use xlink:href="#p0" x="463.79" y="61.62"/>
<use xlink:href="#p0" x="465.07" y="60.46"/>
<use xlink:href="#p0" x="465.42" y="59.3"/>
<use xlink:href="#p0" x="466.02" y="58.14"/>
<use xlink:href="#p0" x="466.04" y="56.98"/>
<use xlink:href="#p0" x="466.66" y="55.82"/>
<use xlink:href="#p0" x="469.32" y="54.66"/>
<use xlink:href="#p0" x="471.1" y="53.5"/>
<use xlink:href="#p0" x="471.47" y="52.34"/>
<use xlink:href="#p0" x="471.56" y="51.18"/>
<use xlink:href="#p0" x="471.88" y="50.02"/>
<use xlink:href="#p0" x="472.77" y="48.86"/>
<use xlink:href="#p0" x="474.35" y="47.7"/>
<use xlink:href="#p0" x="477.6" y="46.54"/>
<use xlink:href="#p0" x="481.23" y="45.38"/>
<use xlink:href="#p0" x="482.21" y="44.22"/>
<use xlink:href="#p0" x="481.9" y="43.06"/>
</g>
<g fill="none" stroke="#e41a1c" stroke-width="0.62">
<polyline fill="none" points="120.59,470.09 120.59,468.93 120.59,467.77 120.59,466.61 120.59,465.45 120.59,464.29 120.59,463.13 120.59,461.97 120.59,460.81 120.59,459.65 120.59,458.49 120.59,457.33 120.59,456.17 120.59,455.01 120.59,453.85 120.59,452.69 120.59,451.53 120.59,450.37 120.59,449.21 120.59,448.05 120.59,446.89 120.59,445.73 120.59,444.56 120.59,443.4 120.59,442.24 120.59,441.08 120.59,439.92 120.59,438.76 120.59,437.6 120.59,436.44 120.59,435.28 120.59,434.12 120.59,432.96 120.59,431.8 120.59,430.64 120.59,429.48 120.59,428.32 120.59,427.16 120.59,426 120.59,424.84 120.59,423.68 120.59,422.52 120.59,421.36 120.59,420.2 120.59,419.04 120.59,417.87 120.59,416.71 120.59,415.55 120.59,414.39 120.59,413.23 120.59,412.07 120.59,410.91 120.59,409.75 120.59,408.59 120.59,407.43 120.59,406.27 120.59,405.11 120.59,403.95 120.59,402.79 120.59,401.63 120.59,400.47 120.59,399.31 120.59,398.15 120.59,396.99 120.59,395.83 120.59,394.67 120.59,393.51 120.59,392.35 120.59,391.19 120.59,390.02 120.59,388.86 120.59,387.7 120.59,386.54 120.59,385.38 120.59,384.22 120.59,383.06 120.59,381.9 120.59,380.74 120.59,379.58 120.59,378.42 120.59,377.26 120.59,376.1 120.59,374.94 120.59,373.78 120.59,372.62 120.59,371.46 120.59,370.3 120.59,369.14 120.59,367.98 120.59,366.82 120.59,365.66 120.59,364.5 120.59,363.33 120.59,362.17 120.59,361.01 120.59,359.85 120.59,358.69 120.59,357.53 120.59,356.37 120.59,355.21 120.59,354.05 120.59,352.89 120.59,351.73 120.59,350.57 120.59,349.41 120.59,348.25 120.59,347.09 120.59,345.93 120.59,344.77 120.59,343.61 120.59,342.45 120.59,341.29 120.59,340.13 120.59,338.97 120.59,337.81 120.59,336.64 120.59,335.48 120.59,334.32 120.59,333.16 120.59,332 120.59,330.84 120.59,329.68 120.59,328.52 121.01,327.36 121.39,326.2 121.44,325.04 121.65,323.88 121.86,322.72 122.01,321.56 122.28,320.4 122.34,319.24 123.94,318.08 124.07,316.92 124.41,315.76 125.3,314.6 125.91,313.44 128.98,312.28 136.57,311.12 136.89,309.95 138.02,308.79 140.77,307.63 142.14,306.47 142.15,305.31 142.21,304.15 142.65,302.99 143.54,301.83 144.18,300.67 144.64,299.51 144.8,298.35 144.82,297.19 144.85,296.03 145.6,294.87 145.71,293.71 145.78,292.55 145.82,291.39 145.84,290.23 146.09,289.07 146.1,287.91 146.13,286.75 146.2,285.59 146.25,284.43 146.44,283.26 146.58,282.1 146.6,280.94 146.8,279.78 146.82,278.62 147.11,277.46 147.14,276.3 147.33,275.14 147.34,273.98 147.48,272.82 147.51,271.66 147.58,270.5 147.67,269.34 147.92,268.18 147.94,267.02 148.01,265.86 148.2,264.7 148.52,263.54 148.59,262.38 148.72,261.22 149.13,260.06 149.21,258.9 149.32,257.74 149.61,256.57 149.63,255.41 149.65,254.25 150.02,253.09 150.15,251.93 150.46,250.77 150.65,249.61 150.85,248.45 150.85,247.29 151.07,246.13 151.51,244.97 151.64,243.81 153.06,242.65 153.06,241.49 153.27,240.33 153.32,239.17 153.4,238.01 153.98,236.85 154.92,235.69 155.12,234.53 155.53,233.37 155.54,232.21 156.53,231.05 158.56,229.88 159.29,228.72 159.49,227.56 159.68,226.4 159.93,225.24 163.89,224.08 172.25,222.92 174.3,221.76 193.68,220.6 193.68,219.44 195.75,218.28 196.19,217.12 197.15,215.96 197.69,214.8 197.89,213.64 197.96,212.48 198.31,211.32 198.33,210.16 198.33,209 198.53,207.84 199.12,206.68 199.48,205.52 199.73,204.36 200.08,203.19 200.81,202.03 201.4,200.87 201.5,199.71 203,198.55 203.3,197.39 205.43,196.23 205.62,195.07 206.15,193.91 206.22,192.75 208.04,191.59 208.28,190.43 208.41,189.27 209.46,188.11 209.48,186.95 209.49,185.79 209.87,184.63 210.03,183.47 210.25,182.31 211.21,181.15 211.97,179.99 212.56,178.83 213.09,177.67 213.69,176.5 213.7,175.34 214.74,174.18 214.79,173.02 215.75,171.86 215.77,170.7 217.42,169.54 224.78,168.38 229.94,167.22 244.12,166.06 249.15,164.9 249.34,163.74 250.96,162.58 251.48,161.42 251.65,160.26 251.66,159.1 252.09,157.94 252.34,156.78 253.2,155.62 253.53,154.46 253.56,153.3 254.39,152.14 255.31,150.98 255.66,149.81 256.16,148.65 257.09,147.49 257.1,146.33 257.38,145.17 258.4,144.01 258.4,142.85 258.41,141.69 260.08,140.53 261.54,139.37 262.59,138.21 263.09,137.05 263.52,135.89 265.12,134.73 268.8,133.57 269.05,132.41 269.19,131.25 275.7,130.09 278.44,128.93 278.45,127.77 283.73,126.61 307.48,125.45 312.53,124.29 312.77,123.12 313.78,121.96 320.94,120.8 321.85,119.64 322.19,118.48 322.2,117.32 358.92,116.16 363.67,115 371.07,113.84 375.26,112.68 382.36,111.52 388.6,110.36 399.19,109.2 402.78,108.04 403.68,106.88 405.46,105.72 405.6,104.56 405.61,103.4 405.83,102.24 406.66,101.08 406.98,99.92 407.13,98.76 407.28,97.6 407.61,96.44 407.77,95.27 407.97,94.11 408.18,92.95 408.49,91.79 408.85,90.63 409.78,89.47 410.57,88.31 411.42,87.15 411.67,85.99 412.37,84.83 414.1,83.67 414.38,82.51 414.87,81.35 418.1,80.19 420.08,79.03 420.15,77.87 422.86,76.71 425.3,75.55 436.53,74.39 451.69,73.23 451.85,72.07 453.89,70.91 459.52,69.75 460.35,68.58 460.38,67.42 460.39,66.26 460.66,65.1 461.12,63.94 461.68,62.78 463.76,61.62 465.06,60.46 465.42,59.3 465.96,58.14 466.04,56.98 466.65,55.82 469.27,54.66 471.1,53.5 471.47,52.34 471.56,51.18 471.85,50.02 472.77,48.86 474.34,47.7 477.59,46.54 481.21,45.38 481.83,44.22 481.87,43.06"/>
</g>
<g fill="#e41a1c" stroke-linejoin="miter" stroke-width="0.62">
<use xlink:href="#p0" x="120.59" y="470.09"/>
<use xlink:href="#p0" x="120.59" y="468.93"/>
<use xlink:href="#p0" x="120.59" y="467.77"/>
<use xlink:href="#p0" x="120.59" y="466.61"/>
<use xlink:href="#p0" x="120.59" y="465.45"/>
<use xlink:href="#p0" x="120.59" y="464.29"/>
<use xlink:href="#p0" x="120.59" y="463.13"/>
<use xlink:href="#p0" x="120.59" y="461.97"/>
<use xlink:href="#p0" x="120.59" y="460.81"/>
<use xlink:href="#p0" x="120.59" y="459.65"/>
<use xlink:href="#p0" x="120.59" y="458.49"/>
<use xlink:href="#p0" x="120.59" y="457.33"/>
<use xlink:href="#p0" x="120.59" y="456.17"/>
<use xlink:href="#p0" x="120.59" y="455.01"/>
<use xlink:href="#p0" x="120.59" y="453.85"/>
<use xlink:href="#p0" x="120.59" y="452.69"/>
<use xlink:href="#p0" x="120.59" y="451.53"/>
<use xlink:href="#p0" x="120.59" y="450.37"/>
<use xlink:href="#p0" x="120.59" y="449.21"/>
<use xlink:href="#p0" x="120.59" y="448.05"/>
<use xlink:href="#p0" x="120.59" y="446.89"/>
<use xlink:href="#p0" x="120.59" y="445.73"/>
<use xlink:href="#p0" x="120.59" y="444.56"/>
<use xlink:href="#p0" x="120.59" y="443.4"/>
<use xlink:href="#p0" x="120.59" y="442.24"/>
<use xlink:href="#p0" x="120.59" y="441.08"/>
<use xlink:href="#p0" x="120.59" y="439.92"/>
<use xlink:href="#p0" x="120.59" y="438.76"/>
<use xlink:href="#p0" x="120.59" y="437.6"/>
<use xlink:href="#p0" x="120.59" y="436.44"/>
<use xlink:href="#p0" x="120.59" y="435.28"/>
<use xlink:href="#p0" x="120.59" y="434.12"/>
<use xlink:href="#p0" x="120.59" y="432.96"/>
<use xlink:href="#p0" x="120.59" y="431.8"/>
<use xlink:href="#p0" x="120.59" y="430.64"/>
<use xlink:href="#p0" x="120.59" y="429.48"/>
<use xlink:href="#p0" x="120.59" y="428.32"/>
<use xlink:href="#p0" x="120.59" y="427.16"/>
<use xlink:href="#p0" x="120.59" y="426"/>
<use xlink:href="#p0" x="120.59" y="424.84"/>
<use xlink:href="#p0" x="120.59" y="423.68"/>
<use xlink:href="#p0" x="120.59" y="422.52"/>
<use xlink:href="#p0" x="120.59" y="421.36"/>
<use xlink:href="#p0" x="120.59" y="420.2"/>
<use xlink:href="#p0" x="120.59" y="419.04"/>
<use xlink:href="#p0" x="120.59" y="417.87"/>
<use xlink:href="#p0" x="120.59" y="416.71"/>
<use xlink:href="#p0" x="120.59" y="415.55"/>
<use xlink:href="#p0" x="120.59" y="414.39"/>
<use xlink:href="#p0" x="120.59" y="413.23"/>
<use xlink:href="#p0" x="120.59" y="412.07"/>
<use xlink:href="#p0" x="120.59" y="410.91"/>
<use xlink:href="#p0" x="120.59" y="409.75"/>
<use xlink:href="#p0" x="120.59" y="408.59"/>
<use xlink:href="#p0" x="120.59" y="407.43"/>
<use xlink:href="#p0" x="120.59" y="406.27"/>
<use xlink:href="#p0" x="120.59" y="405.11"/>
<use xlink:href="#p0" x="120.59" y="403.95"/>
<use xlink:href="#p0" x="120.59" y="402.79"/>
<use xlink:href="#p0" x="120.59" y="401.63"/>
<use xlink:href="#p0" x="120.59" y="400.47"/>
<use xlink:href="#p0" x="120.59" y="399.31"/>
<use xlink:href="#p0" x="120.59" y="398.15"/>
<use xlink:href="#p0" x="120.59" y="396.99"/>
<use xlink:href="#p0" x="120.59" y="395.83"/>
<use xlink:href="#p0" x="120.59" y="394.67"/>
<use xlink:href="#p0" x="120.59" y="393.51"/>
<use xlink:href="#p0" x="120.59" y="392.35"/>
<use xlink:href="#p0" x="120.59" y="391.19"/>
<use xlink:href="#p0" x="120.59" y="390.02"/>
<use xlink:href="#p0" x="120.59" y="388.86"/>
<use xlink:href="#p0" x="120.59" y="387.7"/>
<use xlink:href="#p0" x="120.59" y="386.54"/>
<use xlink:href="#p0" x="120.59" y="385.38"/>
<use xlink:href="#p0" x="120.59" y="384.22"/>
<use xlink:href="#p0" x="120.59" y="383.06"/>
<use xlink:href="#p0" x="120.59" y="381.9"/>
<use xlink:href="#p0" x="120.59" y="380.74"/>
<use xlink:href="#p0" x="120.59" y="379.58"/>
<use xlink:href="#p0" x="120.59" y="378.42"/>
<use xlink:href="#p0" x="120.59" y="377.26"/>
<use xlink:href="#p0" x="120.59" y="376.1"/>
<use xlink:href="#p0" x="120.59" y="374.94"/>
<use xlink:href="#p0" x="120.59" y="373.78"/>
<use xlink:href="#p0" x="120.59" y="372.62"/>
<use xlink:href="#p0" x="120.59" y="371.46"/>
<use xlink:href="#p0" x="120.59" y="370.3"/>
<use xlink:href="#p0" x="120.59" y="369.14"/>
<use xlink:href="#p0" x="120.59" y="367.98"/>
<use xlink:href="#p0" x="120.59" y="366.82"/>
<use xlink:href="#p0" x="120.59" y="365.66"/>
<use xlink:href="#p0" x="120.59" y="364.5"/>
<use xlink:href="#p0" x="120.59" y="363.33"/>
<use xlink:href="#p0" x="120.59" y="362.17"/>
<use xlink:href="#p0" x="120.59" y="361.01"/>
<use xlink:href="#p0" x="120.59" y="359.85"/>
<use xlink:href="#p0" x="120.59" y="358.69"/>
<use xlink:href="#p0" x="120.59" y="357.53"/>
<use xlink:href="#p0" x="120.59" y="356.37"/>
<use xlink:href="#p0" x="120.59" y="355.21"/>
<use xlink:href="#p0" x="120.59" y="354.05"/>
<use xlink:href="#p0" x="120.59" y="352.89"/>
<use xlink:href="#p0" x="120.59" y="351.73"/>
<use xlink:href="#p0" x="120.59" y="350.57"/>
<use xlink:href="#p0" x="120.59" y="349.41"/>
<use xlink:href="#p0" x="120.59" y="348.25"/>
<use xlink:href="#p0" x="120.59" y="347.09"/>
<use xlink:href="#p0" x="120.59" y="345.93"/>
<use xlink:href="#p0" x="120.59" y="344.77"/>
<use xlink:href="#p0" x="120.59" y="343.61"/>
<use xlink:href="#p0" x="120.59" y="342.45"/>
<use xlink:href="#p0" x="120.59" y="341.29"/>
<use xlink:href="#p0" x="120.59" y="340.13"/>
<use xlink:href="#p0" x="120.59" y="338.97"/>
<use xlink:href="#p0" x="120.59" y="337.81"/>
<use xlink:href="#p0" x="120.59" y="336.64"/>
<use xlink:href="#p0" x="120.59" y="335.48"/>
<use xlink:href="#p0" x="120.59" y="334.32"/>
<use xlink:href="#p0" x="120.59" y="333.16"/>
<use xlink:href="#p0" x="120.59" y="332"/>
<use xlink:href="#p0" x="120.59" y="330.84"/>
<use xlink:href="#p0" x="120.59" y="329.68"/>
<use xlink:href="#p0" x="120.59" y="328.52"/>
<use xlink:href="#p0" x="121.01" y="327.36"/>
<use xlink:href="#p0" x="121.39" y="326.2"/>
<use xlink:href="#p0" x="121.44" y="325.04"/>
<use xlink:href="#p0" x="121.65" y="323.88"/>
<use xlink:href="#p0" x="121.86" y="322.72"/>
<use xlink:href="#p0" x="122.01" y="321.56"/>
<use xlink:href="#p0" x="122.28" y="320.4"/>
<use xlink:href="#p0" x="122.34" y="319.24"/>
<use xlink:href="#p0" x="123.94" y="318.08"/>
<use xlink:href="#p0" x="124.07" y="316.92"/>
<use xlink:href="#p0" x="124.41" y="315.76"/>
<use xlink:href="#p0" x="125.3" y="314.6"/>
<use xlink:href="#p0" x="125.91" y="313.44"/>
<use xlink:href="#p0" x="128.98" y="312.28"/>
<use xlink:href="#p0" x="136.57" y="311.12"/>
<use xlink:href="#p0" x="136.89" y="309.95"/>
<use xlink:href="#p0" x="138.02" y="308.79"/>
<use xlink:href="#p0" x="140.77" y="307.63"/>
<use xlink:href="#p0" x="142.14" y="306.47"/>
<use xlink:href="#p0" x="142.15" y="305.31"/>
<use xlink:href="#p0" x="142.21" y="304.15"/>
<use xlink:href="#p0" x="142.65" y="302.99"/>
<use xlink:href="#p0" x="143.54" y="301.83"/>
<use xlink:href="#p0" x="144.18" y="300.67"/>
<use xlink:href="#p0" x="144.64" y="299.51"/>
<use xlink:href="#p0" x="144.8" y="298.35"/>
<use xlink:href="#p0" x="144.82" y="297.19"/>
<use xlink:href="#p0" x="144.85" y="296.03"/>
<use xlink:href="#p0" x="145.6" y="294.87"/>
<use xlink:href="#p0" x="145.71" y="293.71"/>
<use xlink:href="#p0" x="145.78" y="292.55"/>
<use xlink:href="#p0" x="145.82" y="291.39"/>
<use xlink:href="#p0" x="145.84" y="290.23"/>
<use xlink:href="#p0" x="146.09" y="289.07"/>
<use xlink:href="#p0" x="146.1" y="287.91"/>
<use xlink:href="#p0" x="146.13" y="286.75"/>
<use xlink:href="#p0" x="146.2" y="285.59"/>
<use xlink:href="#p0" x="146.25" y="284.43"/>
<use xlink:href="#p0" x="146.44" y="283.26"/>
<use xlink:href="#p0" x="146.58" y="282.1"/>
<use xlink:href="#p0" x="146.6" y="280.94"/>
<use xlink:href="#p0" x="146.8" y="279.78"/>
<use xlink:href="#p0" x="146.82" y="278.62"/>
<use xlink:href="#p0" x="147.11" y="277.46"/>
<use xlink:href="#p0" x="147.14" y="276.3"/>
<use xlink:href="#p0" x="147.33" y="275.14"/>
<use xlink:href="#p0" x="147.34" y="273.98"/>
<use xlink:href="#p0" x="147.48" y="272.82"/>
<use xlink:href="#p0" x="147.51" y="271.66"/>
<use xlink:href="#p0" x="147.58" y="270.5"/>
<use xlink:href="#p0" x="147.67" y="269.34"/>
<use xlink:href="#p0" x="147.92" y="268.18"/>
<use xlink:href="#p0" x="147.94" y="267.02"/>
<use xlink:href="#p0" x="148.01" y="265.86"/>
<use xlink:href="#p0" x="148.2" y="264.7"/>
<use xlink:href="#p0" x="148.52" y="263.54"/>
<use xlink:href="#p0" x="148.59" y="262.38"/>
<use xlink:href="#p0" x="148.72" y="261.22"/>
<use xlink:href="#p0" x="149.13" y="260.06"/>
<use xlink:href="#p0" x="149.21" y="258.9"/>
<use xlink:href="#p0" x="149.32" y="257.74"/>
<use xlink:href="#p0" x="149.61" y="256.57"/>
<use xlink:href="#p0" x="149.63" y="255.41"/>
<use xlink:href="#p0" x="149.65" y="254.25"/>
<use xlink:href="#p0" x="150.02" y="253.09"/>
<use xlink:href="#p0" x="150.15" y="251.93"/>
<use xlink:href="#p0" x="150.46" y="250.77"/>
<use xlink:href="#p0" x="150.65" y="249.61"/>
<use xlink:href="#p0" x="150.85" y="248.45"/>
<use xlink:href="#p0" x="150.85" y="247.29"/>
<use xlink:href="#p0" x="151.07" y="246.13"/>
<use xlink:href="#p0" x="151.51" y="244.97"/>
<use xlink:href="#p0" x="151.64" y="243.81"/>
<use xlink:href="#p0" x="153.06" y="242.65"/>
<use xlink:href="#p0" x="153.06" y="241.49"/>
<use xlink:href="#p0" x="153.27" y="240.33"/>
<use xlink:href="#p0" x="153.32" y="239.17"/>
<use xlink:href="#p0" x="153.4" y="238.01"/>
<use xlink:href="#p0" x="153.98" y="236.85"/>
<use xlink:href="#p0" x="154.92" y="235.69"/>
<use xlink:href="#p0" x="155.12" y="234.53"/>
<use xlink:href="#p0" x="155.53" y="233.37"/>
<use xlink:href="#p0" x="155.54" y="232.21"/>
<use xlink:href="#p0" x="156.53" y="231.05"/>
<use xlink:href="#p0" x="158.56" y="229.88"/>
<use xlink:href="#p0" x="159.29" y="228.72"/>
<use xlink:href="#p0" x="159.49" y="227.56"/>
<use xlink:href="#p0" x="159.68" y="226.4"/>
<use xlink:href="#p0" x="159.93" y="225.24"/>
<use xlink:href="#p0" x="163.89" y="224.08"/>
<use xlink:href="#p0" x="172.25" y="222.92"/>
<use xlink:href="#p0" x="174.3" y="221.76"/>
<use xlink:href="#p0" x="193.68" y="220.6"/>
<use xlink:href="#p0" x="193.68" y="219.44"/>
<use xlink:href="#p0" x="195.75" y="218.28"/>
<use xlink:href="#p0" x="196.19" y="217.12"/>
<use xlink:href="#p0" x="197.15" y="215.96"/>
<use xlink:href="#p0" x="197.69" y="214.8"/>
<use xlink:href="#p0" x="197.89" y="213.64"/>
<use xlink:href="#p0" x="197.96" y="212.48"/>
<use xlink:href="#p0" x="198.31" y="211.32"/>
<use xlink:href="#p0" x="198.33" y="210.16"/>
<use xlink:href="#p0" x="198.33" y="209"/>
<use xlink:href="#p0" x="198.53" y="207.84"/>
<use xlink:href="#p0" x="199.12" y="206.68"/>
<use xlink:href="#p0" x="199.48" y="205.52"/>
<use xlink:href="#p0" x="199.73" y="204.36"/>
<use xlink:href="#p0" x="200.08" y="203.19"/>
<use xlink:href="#p0" x="200.81" y="202.03"/>
<use xlink:href="#p0" x="201.4" y="200.87"/>
<use xlink:href="#p0" x="201.5" y="199.71"/>
<use xlink:href="#p0" x="203" y="198.55"/>
<use xlink:href="#p0" x="203.3" y="197.39"/>
<use xlink:href="#p0" x="205.43" y="196.23"/>
<use xlink:href="#p0" x="205.62" y="195.07"/>
<use xlink:href="#p0" x="206.15" y="193.91"/>
<use xlink:href="#p0" x="206.22" y="192.75"/>
<use xlink:href="#p0" x="208.04" y="191.59"/>
<use xlink:href="#p0" x="208.28" y="190.43"/>
<use xlink:href="#p0" x="208.41" y="189.27"/>
<use xlink:href="#p0" x="209.46" y="188.11"/>
<use xlink:href="#p0" x="209.48" y="186.95"/>
<use xlink:href="#p0" x="209.49" y="185.79"/>
<use xlink:href="#p0" x="209.87" y="184.63"/>
<use xlink:href="#p0" x="210.03" y="183.47"/>
<use xlink:href="#p0" x="210.25" y="182.31"/>
<use xlink:href="#p0" x="211.21" y="181.15"/>
<use xlink:href="#p0" x="211.97" y="179.99"/>
<use xlink:href="#p0" x="212.56" y="178.83"/>
<use xlink:href="#p0" x="213.09" y="177.67"/>
<use xlink:href="#p0" x="213.69" y="176.5"/>
<use xlink:href="#p0" x="213.7" y="175.34"/>
<use xlink:href="#p0" x="214.74" y="174.18"/>
<use xlink:href="#p0" x="214.79" y="173.02"/>
<use xlink:href="#p0" x="215.75" y="171.86"/>
<use xlink:href="#p0" x="215.77" y="170.7"/>
<use xlink:href="#p0" x="217.42" y="169.54"/>
<use xlink:href="#p0" x="224.78" y="168.38"/>
<use xlink:href="#p0" x="229.94" y="167.22"/>
<use xlink:href="#p0" x="244.12" y="166.06"/>
<use xlink:href="#p0" x="249.15" y="164.9"/>
<use xlink:href="#p0" x="249.34" y="163.74"/>
<use xlink:href="#p0" x="250.96" y="162.58"/>
<use xlink:href="#p0" x="251.48" y="161.42"/>
<use xlink:href="#p0" x="251.65" y="160.26"/>
<use xlink:href="#p0" x="251.66" y="159.1"/>
<use xlink:href="#p0" x="252.09" y="157.94"/>
<use xlink:href="#p0" x="252.34" y="156.78"/>
<use xlink:href="#p0" x="253.2" y="155.62"/>
<use xlink:href="#p0" x="253.53" y="154.46"/>
<use xlink:href="#p0" x="253.56" y="153.3"/>
<use xlink:href="#p0" x="254.39" y="152.14"/>
<use xlink:href="#p0" x="255.31" y="150.98"/>
<use xlink:href="#p0" x="255.66" y="149.81"/>
<use xlink:href="#p0" x="256.16" y="148.65"/>
<use xlink:href="#p0" x="257.09" y="147.49"/>
<use xlink:href="#p0" x="257.1" y="146.33"/>
<use xlink:href="#p0" x="257.38" y="145.17"/>
<use xlink:href="#p0" x="258.4" y="144.01"/>
<use xlink:href="#p0" x="258.4" y="142.85"/>
<use xlink:href="#p0" x="258.41" y="141.69"/>
<use xlink:href="#p0" x="260.08" y="140.53"/>
<use xlink:href="#p0" x="261.54" y="139.37"/>
<use xlink:href="#p0" x="262.59" y="138.21"/>
<use xlink:href="#p0" x="263.09" y="137.05"/>
<use xlink:href="#p0" x="263.52" y="135.89"/>
<use xlink:href="#p0" x="265.12" y="134.73"/>
<use xlink:href="#p0" x="268.8" y="133.57"/>
<use xlink:href="#p0" x="269.05" y="132.41"/>
<use xlink:href="#p0" x="269.19" y="131.25"/>
<use xlink:href="#p0" x="275.7" y="130.09"/>
<use xlink:href="#p0" x="278.44" y="128.93"/>
<use xlink:href="#p0" x="278.45" y="127.77"/>
<use xlink:href="#p0" x="283.73" y="126.61"/>
<use xlink:href="#p0" x="307.48" y="125.45"/>
<use xlink:href="#p0" x="312.53" y="124.29"/>
<use xlink:href="#p0" x="312.77" y="123.12"/>
<use xlink:href="#p0" x="313.78" y="121.96"/>
<use xlink:href="#p0" x="320.94" y="120.8"/>
<use xlink:href="#p0" x="321.85" y="119.64"/>
<use xlink:href="#p0" x="322.19" y="118.48"/>
<use xlink:href="#p0" x="322.2" y="117.32"/>
<use xlink:href="#p0" x="358.92" y="116.16"/>
<use xlink:href="#p0" x="363.67" y="115"/>
<use xlink:href="#p0" x="371.07" y="113.84"/>
<use xlink:href="#p0" x="375.26" y="112.68"/>
<use xlink:href="#p0" x="382.36" y="111.52"/>
<use xlink:href="#p0" x="388.6" y="110.36"/>
<use xlink:href="#p0" x="399.19" y="109.2"/>
<use xlink:href="#p0" x="402.78" y="108.04"/>
<use xlink:href="#p0" x="403.68" y="106.88"/>
<use xlink:href="#p0" x="405.46" y="105.72"/>
<use xlink:href="#p0" x="405.6" y="104.56"/>
<use xlink:href="#p0" x="405.61" y="103.4"/>
<use xlink:href="#p0" x="405.83" y="102.24"/>
<use xlink:href="#p0" x="406.66" y="101.08"/>
<use xlink:href="#p0" x="406.98" y="99.92"/>
<use xlink:href="#p0" x="407.13" y="98.76"/>
<use xlink:href="#p0" x="407.28" y="97.6"/>
<use xlink:href="#p0" x="407.61" y="96.44"/>
<use xlink:href="#p0" x="407.77" y="95.27"/>
<use xlink:href="#p0" x="407.97" y="94.11"/>
<use xlink:href="#p0" x="408.18" y="92.95"/>
<use xlink:href="#p0" x="408.49" y="91.79"/>
<use xlink:href="#p0" x="408.85" y="90.63"/>
<use xlink:href="#p0" x="409.78" y="89.47"/>
<use xlink:href="#p0" x="410.57" y="88.31"/>
<use xlink:href="#p0" x="411.42" y="87.15"/>
<use xlink:href="#p0" x="411.67" y="85.99"/>
<use xlink:href="#p0" x="412.37" y="84.83"/>
<use xlink:href="#p0" x="414.1" y="83.67"/>
<use xlink:href="#p0" x="414.38" y="82.51"/>
<use xlink:href="#p0" x="414.87" y="81.35"/>
<use xlink:href="#p0" x="418.1" y="80.19"/>
<use xlink:href="#p0" x="420.08" y="79.03"/>
<use xlink:href="#p0" x="420.15" y="77.87"/>
<use xlink:href="#p0" x="422.86" y="76.71"/>
<use xlink:href="#p0" x="425.3" y="75.55"/>
<use xlink:href="#p0" x="436.53" y="74.39"/>
<use xlink:href="#p0" x="451.69" y="73.23"/>
<use xlink:href="#p0" x="451.85" y="72.07"/>
<use xlink:href="#p0" x="453.89" y="70.91"/>
<use xlink:href="#p0" x="459.52" y="69.75"/>
<use xlink:href="#p0" x="460.35" y="68.58"/>
<use xlink:href="#p0" x="460.38" y="67.42"/>
<use xlink:href="#p0" x="460.39" y="66.26"/>
<use xlink:href="#p0" x="460.66" y="65.1"/>
<use xlink:href="#p0" x="461.12" y="63.94"/>
<use xlink:href="#p0" x="461.68" y="62.78"/>
<use xlink:href="#p0" x="463.76" y="61.62"/>
<use xlink:href="#p0" x="465.06" y="60.46"/>
<use xlink:href="#p0" x="465.42" y="59.3"/>
<use xlink:href="#p0" x="465.96" y="58.14"/>
<use xlink:href="#p0" x="466.04" y="56.98"/>
<use xlink:href="#p0" x="466.65" y="55.82"/>
<use xlink:href="#p0" x="469.27" y="54.66"/>
<use xlink:href="#p0" x="471.1" y="53.5"/>
<use xlink:href="#p0" x="471.47" y="52.34"/>
<use xlink:href="#p0" x="471.56" y="51.18"/>
<use xlink:href="#p0" x="471.85" y="50.02"/>
<use xlink:href="#p0" x="472.77" y="48.86"/>
<use xlink:href="#p0" x="474.34" y="47.7"/>
<use xlink:href="#p0" x="477.59" y="46.54"/>
<use xlink:href="#p0" x="481.21" y="45.38"/>
<use xlink:href="#p0" x="481.83" y="44.22"/>
<use xlink:href="#p0" x="481.87" y="43.06"/>
</g>
</g>
<g clip-path="url(#c0)">
<g fill="none" stroke-linecap="butt" stroke-width="0.62">
<path d="M60.23,471.25l0,-464.17"/>
<path d="M60.23,471.25l3.75,0M60.23,448.05l3.75,0M60.23,424.84l3.75,0M60.23,401.63l3.75,0M60.23,378.42l3.75,0M60.23,355.21l3.75,0M60.23,332l3.75,0M60.23,308.79l3.75,0M60.23,285.59l3.75,0M60.23,262.38l3.75,0M60.23,239.17l3.75,0M60.23,215.96l3.75,0M60.23,192.75l3.75,0M60.23,169.54l3.75,0M60.23,146.33l3.75,0M60.23,123.12l3.75,0M60.23,99.92l3.75,0M60.23,76.71l3.75,0M60.23,53.5l3.75,0M60.23,30.29l3.75,0M60.23,7.08l3.75,0"/>
<path d="M60.23,471.25l7.5,0M60.23,355.21l7.5,0M60.23,239.17l7.5,0M60.23,123.12l7.5,0M60.23,7.08l7.5,0"/>
</g>
<g fill="none" stroke-width="0.1">
<g transform="matrix(0 -1 1 0 16.3 313.18)">
<g stroke="none" fill="#000000" fill-opacity="1" font-family="Serif" font-size="17.500000000000004">
<text x="0" y="0" textLength="148.02">Number of hosts</text>
</g>
</g>
<g stroke="none" fill="#000000" fill-opacity="1" font-family="Serif" font-size="17.500000000000004">
<text x="45" y="477.9" textLength="11.13">0</text>
<text x="22.73" y="361.86" textLength="33.39">100</text>
<text x="22.73" y="245.82" textLength="33.39">200</text>
<text x="22.73" y="129.77" textLength="33.39">300</text>
<text x="22.73" y="17.4" textLength="33.39">400</text>
</g>
</g>
<g fill="none" stroke-linecap="butt" stroke-width="0.62">
<path d="M60.23,471.25l464.17,0"/>
<path d="M60.23,471.25l0,3.75M90.41,471.25l0,3.75M120.59,471.25l0,3.75M150.77,471.25l0,3.75M180.95,471.25l0,3.75M211.13,471.25l0,3.75M241.31,471.25l0,3.75M271.49,471.25l0,3.75M301.67,471.25l0,3.75M331.85,471.25l0,3.75M362.03,471.25l0,3.75M392.21,471.25l0,3.75M422.38,471.25l0,3.75M452.56,471.25l0,3.75M482.74,471.25l0,3.75M512.92,471.25l0,3.75"/>
<path d="M60.23,471.25l0,7.5M120.59,471.25l0,7.5M180.95,471.25l0,7.5M241.31,471.25l0,7.5M301.67,471.25l0,7.5M362.03,471.25l0,7.5M422.38,471.25l0,7.5M482.74,471.25l0,7.5"/>
</g>
<g fill="none" stroke-width="0.1">
<g stroke="none" fill="#000000" fill-opacity="1" font-family="Serif" font-size="17.500000000000004">
<text x="255.25" y="523.65" textLength="74.12">Seconds</text>
<text x="19.5" y="499.15" textLength="81.45">−100000</text>
<text x="115.02" y="499.15" textLength="11.13">0</text>
<text x="147.55" y="499.15" textLength="66.79">100000</text>
<text x="268.27" y="499.15" textLength="66.79">300000</text>
<text x="388.99" y="499.15" textLength="66.79">500000</text>
</g>
</g>
<g fill="none" stroke-linecap="butt" stroke-width="0.62">
<path d="M524.4,471.25l0,-464.17"/>
<path d="M524.4,471.25l-3.75,0M524.4,448.05l-3.75,0M524.4,424.84l-3.75,0M524.4,401.63l-3.75,0M524.4,378.42l-3.75,0M524.4,355.21l-3.75,0M524.4,332l-3.75,0M524.4,308.79l-3.75,0M524.4,285.59l-3.75,0M524.4,262.38l-3.75,0M524.4,239.17l-3.75,0M524.4,215.96l-3.75,0M524.4,192.75l-3.75,0M524.4,169.54l-3.75,0M524.4,146.33l-3.75,0M524.4,123.12l-3.75,0M524.4,99.92l-3.75,0M524.4,76.71l-3.75,0M524.4,53.5l-3.75,0M524.4,30.29l-3.75,0M524.4,7.08l-3.75,0"/>
<path d="M524.4,471.25l-7.5,0M524.4,355.21l-7.5,0M524.4,239.17l-7.5,0M524.4,123.12l-7.5,0M524.4,7.08l-7.5,0"/>
<path d="M60.23,7.08l464.17,0"/>
<path d="M60.23,7.08l0,-3.75M90.41,7.08l0,-3.75M120.59,7.08l0,-3.75M150.77,7.08l0,-3.75M180.95,7.08l0,-3.75M211.13,7.08l0,-3.75M241.31,7.08l0,-3.75M271.49,7.08l0,-3.75M301.67,7.08l0,-3.75M331.85,7.08l0,-3.75M362.03,7.08l0,-3.75M392.21,7.08l0,-3.75M422.38,7.08l0,-3.75M452.56,7.08l0,-3.75M482.74,7.08l0,-3.75M512.92,7.08l0,-3.75"/>
<path d="M60.23,7.08l0,-7.5M120.59,7.08l0,-7.5M180.95,7.08l0,-7.5M241.31,7.08l0,-7.5M301.67,7.08l0,-7.5M362.03,7.08l0,-7.5M422.38,7.08l0,-7.5M482.74,7.08l0,-7.5"/>
</g>
<g fill="none" stroke-width="0.62">
<path d="m243.95,205.86l280.45,0l0,217.59l-280.45,0l0,-217.59"/>
</g>
</g>
<g clip-path="url(#c2)">
<g fill="#377eb8" stroke-linejoin="miter" stroke-width="0.62">
<use xlink:href="#p0" x="435.08" y="422.02"/>
<use xlink:href="#p0" x="483.79" y="420.59"/>
<use xlink:href="#p0" x="517.54" y="419.16"/>
<use xlink:href="#p0" x="441.94" y="417.73"/>
<use xlink:href="#p0" x="475.95" y="416.3"/>
<use xlink:href="#p0" x="501.15" y="414.87"/>
<use xlink:href="#p0" x="469.71" y="413.43"/>
<use xlink:href="#p0" x="473.45" y="412"/>
<use xlink:href="#p0" x="447.99" y="410.57"/>
<use xlink:href="#p0" x="403.48" y="409.14"/>
<use xlink:href="#p0" x="433.99" y="406.27"/>
<use xlink:href="#p0" x="489.41" y="404.84"/>
<use xlink:href="#p0" x="434.42" y="401.98"/>
<use xlink:href="#p0" x="460.91" y="400.55"/>
<use xlink:href="#p0" x="477.44" y="399.12"/>
<use xlink:href="#p0" x="477.59" y="397.68"/>
<use xlink:href="#p0" x="475.14" y="396.25"/>
<use xlink:href="#p0" x="511.58" y="394.82"/>
<use xlink:href="#p0" x="492.63" y="393.39"/>
<use xlink:href="#p0" x="477.02" y="391.96"/>
<use xlink:href="#p0" x="438.25" y="390.52"/>
<use xlink:href="#p0" x="477.31" y="389.09"/>
<use xlink:href="#p0" x="476.03" y="387.66"/>
<use xlink:href="#p0" x="453.05" y="386.23"/>
<use xlink:href="#p0" x="478.51" y="384.8"/>
<use xlink:href="#p0" x="476.33" y="383.37"/>
<use xlink:href="#p0" x="492.69" y="381.93"/>
<use xlink:href="#p0" x="489.54" y="380.5"/>
<use xlink:href="#p0" x="426.14" y="379.07"/>
<use xlink:href="#p0" x="263.79" y="377.64"/>
<use xlink:href="#p0" x="451.87" y="376.21"/>
<use xlink:href="#p0" x="476.96" y="374.78"/>
<use xlink:href="#p0" x="509.96" y="373.34"/>
<use xlink:href="#p0" x="470.37" y="371.91"/>
<use xlink:href="#p0" x="492.13" y="370.48"/>
<use xlink:href="#p0" x="362.79" y="369.05"/>
<use xlink:href="#p0" x="477.09" y="367.62"/>
<use xlink:href="#p0" x="477.11" y="366.18"/>
<use xlink:href="#p0" x="516.16" y="364.75"/>
<use xlink:href="#p0" x="495.28" y="363.32"/>
<use xlink:href="#p0" x="467.92" y="361.89"/>
<use xlink:href="#p0" x="491.5" y="360.46"/>
<use xlink:href="#p0" x="492.69" y="359.03"/>
<use xlink:href="#p0" x="466.49" y="357.59"/>
<use xlink:href="#p0" x="451.44" y="356.16"/>
<use xlink:href="#p0" x="473.41" y="354.73"/>
<use xlink:href="#p0" x="498.24" y="353.3"/>
<use xlink:href="#p0" x="487.6" y="351.87"/>
<use xlink:href="#p0" x="475.64" y="350.44"/>
<use xlink:href="#p0" x="452.35" y="349"/>
<use xlink:href="#p0" x="430.52" y="347.57"/>
<use xlink:href="#p0" x="431.48" y="346.14"/>
<use xlink:href="#p0" x="463.57" y="344.71"/>
<use xlink:href="#p0" x="480.87" y="343.28"/>
<use xlink:href="#p0" x="481.81" y="341.84"/>
<use xlink:href="#p0" x="464.4" y="340.41"/>
<use xlink:href="#p0" x="500.68" y="338.98"/>
<use xlink:href="#p0" x="475.2" y="337.55"/>
<use xlink:href="#p0" x="488.32" y="336.12"/>
<use xlink:href="#p0" x="492.73" y="334.69"/>
<use xlink:href="#p0" x="458.21" y="333.25"/>
<use xlink:href="#p0" x="482.67" y="331.82"/>
<use xlink:href="#p0" x="436.4" y="330.39"/>
<use xlink:href="#p0" x="480.34" y="328.96"/>
<use xlink:href="#p0" x="486.41" y="327.53"/>
<use xlink:href="#p0" x="484.63" y="326.1"/>
<use xlink:href="#p0" x="430.81" y="324.66"/>
<use xlink:href="#p0" x="475.14" y="323.23"/>
<use xlink:href="#p0" x="476.07" y="321.8"/>
<use xlink:href="#p0" x="494.38" y="320.37"/>
<use xlink:href="#p0" x="416.91" y="318.94"/>
<use xlink:href="#p0" x="428.36" y="317.5"/>
<use xlink:href="#p0" x="482.38" y="316.07"/>
<use xlink:href="#p0" x="465.72" y="314.64"/>
<use xlink:href="#p0" x="392.23" y="313.21"/>
<use xlink:href="#p0" x="477.75" y="311.78"/>
<use xlink:href="#p0" x="463.83" y="310.35"/>
<use xlink:href="#p0" x="443.39" y="308.91"/>
<use xlink:href="#p0" x="482.25" y="307.48"/>
<use xlink:href="#p0" x="495.08" y="306.05"/>
<use xlink:href="#p0" x="475.33" y="304.62"/>
<use xlink:href="#p0" x="470.75" y="303.19"/>
<use xlink:href="#p0" x="456.86" y="300.32"/>
<use xlink:href="#p0" x="494.36" y="298.89"/>
<use xlink:href="#p0" x="449.89" y="297.46"/>
<use xlink:href="#p0" x="497.81" y="296.03"/>
<use xlink:href="#p0" x="475.21" y="294.6"/>
<use xlink:href="#p0" x="473.22" y="293.16"/>
<use xlink:href="#p0" x="492.28" y="290.3"/>
<use xlink:href="#p0" x="478.68" y="288.87"/>
<use xlink:href="#p0" x="424.42" y="287.44"/>
<use xlink:href="#p0" x="484.36" y="286.01"/>
<use xlink:href="#p0" x="453.46" y="284.57"/>
<use xlink:href="#p0" x="473.22" y="283.14"/>
<use xlink:href="#p0" x="466.59" y="281.71"/>
<use xlink:href="#p0" x="452.25" y="280.28"/>
<use xlink:href="#p0" x="498.4" y="278.85"/>
<use xlink:href="#p0" x="250.06" y="277.41"/>
<use xlink:href="#p0" x="497.52" y="275.98"/>
<use xlink:href="#p0" x="250.06" y="274.55"/>
<use xlink:href="#p0" x="491.93" y="273.12"/>
<use xlink:href="#p0" x="476.01" y="271.69"/>
<use xlink:href="#p0" x="460.06" y="270.26"/>
<use xlink:href="#p0" x="472.79" y="268.82"/>
<use xlink:href="#p0" x="460.41" y="267.39"/>
<use xlink:href="#p0" x="472.59" y="265.96"/>
<use xlink:href="#p0" x="469.95" y="264.53"/>
<use xlink:href="#p0" x="251.88" y="263.1"/>
<use xlink:href="#p0" x="501.77" y="261.67"/>
<use xlink:href="#p0" x="300.04" y="260.23"/>
<use xlink:href="#p0" x="498.1" y="258.8"/>
<use xlink:href="#p0" x="463.6" y="257.37"/>
<use xlink:href="#p0" x="250.08" y="254.51"/>
<use xlink:href="#p0" x="440.41" y="253.07"/>
<use xlink:href="#p0" x="250.28" y="251.64"/>
<use xlink:href="#p0" x="250.64" y="250.21"/>
<use xlink:href="#p0" x="406.95" y="248.78"/>
<use xlink:href="#p0" x="251.63" y="247.35"/>
</g>
<g fill="none" stroke="#e41a1c" stroke-width="0.62">
<polyline fill="none" points="248.68,422.02 248.68,420.59 248.68,419.16 248.68,417.73 248.68,416.3 248.69,414.87 248.69,413.43 248.69,412 248.69,410.57 248.69,409.14 248.7,407.71 248.7,406.27 248.7,404.84 248.7,403.41 248.7,401.98 248.7,400.55 248.71,399.12 248.71,397.68 248.71,396.25 248.71,394.82 248.71,393.39 248.71,391.96 248.72,390.52 248.72,389.09 248.72,387.66 248.72,386.23 248.72,384.8 248.72,383.37 248.73,381.93 248.73,380.5 248.73,379.07 248.73,377.64 248.73,376.21 248.74,374.78 248.74,373.34 248.74,371.91 248.74,370.48 248.74,369.05 248.74,367.62 248.74,366.18 248.75,364.75 248.75,363.32 248.75,361.89 248.75,360.46 248.75,359.03 248.75,357.59 248.76,356.16 248.76,354.73 248.76,353.3 248.76,351.87 248.76,350.44 248.76,349 248.77,347.57 248.77,346.14 248.77,344.71 248.77,343.28 248.77,341.84 248.77,340.41 248.78,338.98 248.78,337.55 248.78,336.12 248.78,334.69 248.78,333.25 248.78,331.82 248.79,330.39 248.79,328.96 248.79,327.53 248.79,326.1 248.79,324.66 248.8,323.23 248.8,321.8 248.8,320.37 248.8,318.94 248.8,317.5 248.8,316.07 248.8,314.64 248.81,313.21 248.81,311.78 248.81,310.35 248.81,308.91 248.81,307.48 248.82,306.05 248.82,304.62 248.82,303.19 248.82,301.76 248.82,300.32 248.82,298.89 248.83,297.46 248.83,296.03 248.83,294.6 248.83,293.16 248.83,291.73 248.83,290.3 248.84,288.87 248.84,287.44 248.84,286.01 249.76,284.57 249.76,283.14 249.76,281.71 249.76,280.28 249.77,278.85 249.77,277.41 249.77,275.98 249.77,274.55 249.77,273.12 249.78,271.69 249.78,270.26 249.78,268.82 249.78,267.39 249.79,265.96 249.79,264.53 249.79,263.1 249.79,261.67 249.79,260.23 249.8,258.8 249.8,257.37 249.8,255.94 249.8,254.51 249.8,253.07 249.81,251.64 249.81,250.21 249.81,248.78 249.81,247.35 525.03,246.74"/>
</g>
<g fill="#e41a1c" stroke-linejoin="miter" stroke-width="0.62">
<use xlink:href="#p0" x="248.68" y="422.02"/>
<use xlink:href="#p0" x="248.68" y="420.59"/>
<use xlink:href="#p0" x="248.68" y="419.16"/>
<use xlink:href="#p0" x="248.68" y="417.73"/>
<use xlink:href="#p0" x="248.68" y="416.3"/>
<use xlink:href="#p0" x="248.69" y="414.87"/>
<use xlink:href="#p0" x="248.69" y="413.43"/>
<use xlink:href="#p0" x="248.69" y="412"/>
<use xlink:href="#p0" x="248.69" y="410.57"/>
<use xlink:href="#p0" x="248.69" y="409.14"/>
<use xlink:href="#p0" x="248.7" y="407.71"/>
<use xlink:href="#p0" x="248.7" y="406.27"/>
<use xlink:href="#p0" x="248.7" y="404.84"/>
<use xlink:href="#p0" x="248.7" y="403.41"/>
<use xlink:href="#p0" x="248.7" y="401.98"/>
<use xlink:href="#p0" x="248.7" y="400.55"/>
<use xlink:href="#p0" x="248.71" y="399.12"/>
<use xlink:href="#p0" x="248.71" y="397.68"/>
<use xlink:href="#p0" x="248.71" y="396.25"/>
<use xlink:href="#p0" x="248.71" y="394.82"/>
<use xlink:href="#p0" x="248.71" y="393.39"/>
<use xlink:href="#p0" x="248.71" y="391.96"/>
<use xlink:href="#p0" x="248.72" y="390.52"/>
<use xlink:href="#p0" x="248.72" y="389.09"/>
<use xlink:href="#p0" x="248.72" y="387.66"/>
<use xlink:href="#p0" x="248.72" y="386.23"/>
<use xlink:href="#p0" x="248.72" y="384.8"/>
<use xlink:href="#p0" x="248.72" y="383.37"/>
<use xlink:href="#p0" x="248.73" y="381.93"/>
<use xlink:href="#p0" x="248.73" y="380.5"/>
<use xlink:href="#p0" x="248.73" y="379.07"/>
<use xlink:href="#p0" x="248.73" y="377.64"/>
<use xlink:href="#p0" x="248.73" y="376.21"/>
<use xlink:href="#p0" x="248.74" y="374.78"/>
<use xlink:href="#p0" x="248.74" y="373.34"/>
<use xlink:href="#p0" x="248.74" y="371.91"/>
<use xlink:href="#p0" x="248.74" y="370.48"/>
<use xlink:href="#p0" x="248.74" y="369.05"/>
<use xlink:href="#p0" x="248.74" y="367.62"/>
<use xlink:href="#p0" x="248.74" y="366.18"/>
<use xlink:href="#p0" x="248.75" y="364.75"/>
<use xlink:href="#p0" x="248.75" y="363.32"/>
<use xlink:href="#p0" x="248.75" y="361.89"/>
<use xlink:href="#p0" x="248.75" y="360.46"/>
<use xlink:href="#p0" x="248.75" y="359.03"/>
<use xlink:href="#p0" x="248.75" y="357.59"/>
<use xlink:href="#p0" x="248.76" y="356.16"/>
<use xlink:href="#p0" x="248.76" y="354.73"/>
<use xlink:href="#p0" x="248.76" y="353.3"/>
<use xlink:href="#p0" x="248.76" y="351.87"/>
<use xlink:href="#p0" x="248.76" y="350.44"/>
<use xlink:href="#p0" x="248.76" y="349"/>
<use xlink:href="#p0" x="248.77" y="347.57"/>
<use xlink:href="#p0" x="248.77" y="346.14"/>
<use xlink:href="#p0" x="248.77" y="344.71"/>
<use xlink:href="#p0" x="248.77" y="343.28"/>
<use xlink:href="#p0" x="248.77" y="341.84"/>
<use xlink:href="#p0" x="248.77" y="340.41"/>
<use xlink:href="#p0" x="248.78" y="338.98"/>
<use xlink:href="#p0" x="248.78" y="337.55"/>
<use xlink:href="#p0" x="248.78" y="336.12"/>
<use xlink:href="#p0" x="248.78" y="334.69"/>
<use xlink:href="#p0" x="248.78" y="333.25"/>
<use xlink:href="#p0" x="248.78" y="331.82"/>
<use xlink:href="#p0" x="248.79" y="330.39"/>
<use xlink:href="#p0" x="248.79" y="328.96"/>
<use xlink:href="#p0" x="248.79" y="327.53"/>
<use xlink:href="#p0" x="248.79" y="326.1"/>
<use xlink:href="#p0" x="248.79" y="324.66"/>
<use xlink:href="#p0" x="248.8" y="323.23"/>
<use xlink:href="#p0" x="248.8" y="321.8"/>
<use xlink:href="#p0" x="248.8" y="320.37"/>
<use xlink:href="#p0" x="248.8" y="318.94"/>
<use xlink:href="#p0" x="248.8" y="317.5"/>
<use xlink:href="#p0" x="248.8" y="316.07"/>
<use xlink:href="#p0" x="248.8" y="314.64"/>
<use xlink:href="#p0" x="248.81" y="313.21"/>
<use xlink:href="#p0" x="248.81" y="311.78"/>
<use xlink:href="#p0" x="248.81" y="310.35"/>
<use xlink:href="#p0" x="248.81" y="308.91"/>
<use xlink:href="#p0" x="248.81" y="307.48"/>
<use xlink:href="#p0" x="248.82" y="306.05"/>
<use xlink:href="#p0" x="248.82" y="304.62"/>
<use xlink:href="#p0" x="248.82" y="303.19"/>
<use xlink:href="#p0" x="248.82" y="301.76"/>
<use xlink:href="#p0" x="248.82" y="300.32"/>
<use xlink:href="#p0" x="248.82" y="298.89"/>
<use xlink:href="#p0" x="248.83" y="297.46"/>
<use xlink:href="#p0" x="248.83" y="296.03"/>
<use xlink:href="#p0" x="248.83" y="294.6"/>
<use xlink:href="#p0" x="248.83" y="293.16"/>
<use xlink:href="#p0" x="248.83" y="291.73"/>
<use xlink:href="#p0" x="248.83" y="290.3"/>
<use xlink:href="#p0" x="248.84" y="288.87"/>
<use xlink:href="#p0" x="248.84" y="287.44"/>
<use xlink:href="#p0" x="248.84" y="286.01"/>
<use xlink:href="#p0" x="249.76" y="284.57"/>
<use xlink:href="#p0" x="249.76" y="283.14"/>
<use xlink:href="#p0" x="249.76" y="281.71"/>
<use xlink:href="#p0" x="249.76" y="280.28"/>
<use xlink:href="#p0" x="249.77" y="278.85"/>
<use xlink:href="#p0" x="249.77" y="277.41"/>
<use xlink:href="#p0" x="249.77" y="275.98"/>
<use xlink:href="#p0" x="249.77" y="274.55"/>
<use xlink:href="#p0" x="249.77" y="273.12"/>
<use xlink:href="#p0" x="249.78" y="271.69"/>
<use xlink:href="#p0" x="249.78" y="270.26"/>
<use xlink:href="#p0" x="249.78" y="268.82"/>
<use xlink:href="#p0" x="249.78" y="267.39"/>
<use xlink:href="#p0" x="249.79" y="265.96"/>
<use xlink:href="#p0" x="249.79" y="264.53"/>
<use xlink:href="#p0" x="249.79" y="263.1"/>
<use xlink:href="#p0" x="249.79" y="261.67"/>
<use xlink:href="#p0" x="249.79" y="260.23"/>
<use xlink:href="#p0" x="249.8" y="258.8"/>
<use xlink:href="#p0" x="249.8" y="257.37"/>
<use xlink:href="#p0" x="249.8" y="255.94"/>
<use xlink:href="#p0" x="249.8" y="254.51"/>
<use xlink:href="#p0" x="249.8" y="253.07"/>
<use xlink:href="#p0" x="249.81" y="251.64"/>
<use xlink:href="#p0" x="249.81" y="250.21"/>
<use xlink:href="#p0" x="249.81" y="248.78"/>
<use xlink:href="#p0" x="249.81" y="247.35"/>
</g>
</g>
<g clip-path="url(#c0)">
<g fill="none" stroke-linecap="butt" stroke-width="0.62">
<path d="M243.95,423.46l0,-214.76"/>
<path d="M243.95,423.46l3.75,0M243.95,416.3l3.75,0M243.95,409.14l3.75,0M243.95,401.98l3.75,0M243.95,394.82l3.75,0M243.95,387.66l3.75,0M243.95,380.5l3.75,0M243.95,373.34l3.75,0M243.95,366.18l3.75,0M243.95,359.03l3.75,0M243.95,351.87l3.75,0M243.95,344.71l3.75,0M243.95,337.55l3.75,0M243.95,330.39l3.75,0M243.95,323.23l3.75,0M243.95,316.07l3.75,0M243.95,308.91l3.75,0M243.95,301.76l3.75,0M243.95,294.6l3.75,0M243.95,287.44l3.75,0M243.95,280.28l3.75,0M243.95,273.12l3.75,0M243.95,265.96l3.75,0M243.95,258.8l3.75,0M243.95,251.64l3.75,0M243.95,244.48l3.75,0M243.95,237.33l3.75,0M243.95,230.17l3.75,0M243.95,223.01l3.75,0M243.95,215.85l3.75,0M243.95,208.69l3.75,0"/>
<path d="M243.95,423.46l7.5,0M243.95,387.66l7.5,0M243.95,351.87l7.5,0M243.95,316.07l7.5,0M243.95,280.28l7.5,0M243.95,244.48l7.5,0M243.95,208.69l7.5,0"/>
</g>
<g fill="none" stroke-width="0.1">
<g stroke="none" fill="#000000" fill-opacity="1" font-family="Serif" font-size="17.500000000000004">
<text x="228.72" y="430.11" textLength="11.13">0</text>
<text x="217.59" y="394.31" textLength="22.26">25</text>
<text x="217.59" y="358.52" textLength="22.26">50</text>
<text x="217.59" y="322.72" textLength="22.26">75</text>
<text x="206.45" y="286.93" textLength="33.39">100</text>
<text x="206.45" y="251.13" textLength="33.39">125</text>
<text x="206.45" y="215.34" textLength="33.39">150</text>
</g>
</g>
<g fill="none" stroke-linecap="butt" stroke-width="0.62">
<path d="M243.95,423.46l280.45,0"/>
<path d="M248.55,423.46l0,-3.75M271.54,423.46l0,-3.75M294.53,423.46l0,-3.75M317.51,423.46l0,-3.75M340.5,423.46l0,-3.75M363.49,423.46l0,-3.75M386.48,423.46l0,-3.75M409.46,423.46l0,-3.75M432.45,423.46l0,-3.75M455.44,423.46l0,-3.75M478.43,423.46l0,-3.75M501.42,423.46l0,-3.75M524.4,423.46l0,-3.75"/>
<path d="M248.55,423.46l0,-7.5M294.53,423.46l0,-7.5M340.5,423.46l0,-7.5M386.48,423.46l0,-7.5M432.45,423.46l0,-7.5M478.43,423.46l0,-7.5M524.4,423.46l0,-7.5"/>
</g>
<g fill="none" stroke-width="0.1">
<g stroke="none" fill="#000000" fill-opacity="1" font-family="Serif" font-size="17.500000000000004">
<text x="242.98" y="443.86" textLength="11.13">0</text>
<text x="283.39" y="443.86" textLength="22.26">50</text>
<text x="323.8" y="443.86" textLength="33.39">100</text>
<text x="369.78" y="443.86" textLength="33.39">150</text>
<text x="415.75" y="443.86" textLength="33.39">200</text>
<text x="461.73" y="443.86" textLength="33.39">250</text>
<text x="498.09" y="443.86" textLength="33.39">300</text>
</g>
</g>
<g fill="none" stroke-linecap="butt" stroke-width="0.62">
<path d="M524.4,423.46l0,-214.76"/>
<path d="M524.4,423.46l-3.75,0M524.4,416.3l-3.75,0M524.4,409.14l-3.75,0M524.4,401.98l-3.75,0M524.4,394.82l-3.75,0M524.4,387.66l-3.75,0M524.4,380.5l-3.75,0M524.4,373.34l-3.75,0M524.4,366.18l-3.75,0M524.4,359.03l-3.75,0M524.4,351.87l-3.75,0M524.4,344.71l-3.75,0M524.4,337.55l-3.75,0M524.4,330.39l-3.75,0M524.4,323.23l-3.75,0M524.4,316.07l-3.75,0M524.4,308.91l-3.75,0M524.4,301.76l-3.75,0M524.4,294.6l-3.75,0M524.4,287.44l-3.75,0M524.4,280.28l-3.75,0M524.4,273.12l-3.75,0M524.4,265.96l-3.75,0M524.4,258.8l-3.75,0M524.4,251.64l-3.75,0M524.4,244.48l-3.75,0M524.4,237.33l-3.75,0M524.4,230.17l-3.75,0M524.4,223.01l-3.75,0M524.4,215.85l-3.75,0M524.4,208.69l-3.75,0"/>
<path d="M524.4,423.46l-7.5,0M524.4,387.66l-7.5,0M524.4,351.87l-7.5,0M524.4,316.07l-7.5,0M524.4,280.28l-7.5,0M524.4,244.48l-7.5,0M524.4,208.69l-7.5,0"/>
<path d="M243.95,205.86l280.45,0"/>
<path d="M248.55,205.86l0,3.75M271.54,205.86l0,3.75M294.53,205.86l0,3.75M317.51,205.86l0,3.75M340.5,205.86l0,3.75M363.49,205.86l0,3.75M386.48,205.86l0,3.75M409.46,205.86l0,3.75M432.45,205.86l0,3.75M455.44,205.86l0,3.75M478.43,205.86l0,3.75M501.42,205.86l0,3.75M524.4,205.86l0,3.75"/>
<path d="M248.55,205.86l0,7.5M294.53,205.86l0,7.5M340.5,205.86l0,7.5M386.48,205.86l0,7.5M432.45,205.86l0,7.5M478.43,205.86l0,7.5M524.4,205.86l0,7.5"/>
</g>
</g>
</g>
</svg>
