<?xml version="1.0" standalone="no"?>
<!DOCTYPE svg PUBLIC "-//W3C//DTD SVG 1.1//EN"
  "http://www.w3.org/Graphics/SVG/1.1/DTD/svg11.dtd">
<svg width="531.49px" height="531.49px" version="1.1"
    xmlns="http://www.w3.org/2000/svg"
    xmlns:xlink="http://www.w3.org/1999/xlink">
<desc>Veusz output document</desc>
<defs>
<clipPath id="c0">
<path d="m0,0l531.49,0l0,531.49l-531.49,0l0,-531.49"/>
</clipPath>
<clipPath id="c1">
<path d="m60.23,7.08l464.17,0l0,464.17l-464.17,0l0,-464.17"/>
</clipPath>
<clipPath id="c2">
<path d="m243.95,208.69l280.45,0l0,214.76l-280.45,0l0,-214.76"/>
</clipPath>
</defs>
<g stroke-linejoin="bevel" stroke-linecap="square" stroke="#000000" fill-rule="evenodd">
<g clip-path="url(#c0)">
<g fill="#ffffff" stroke-width="0.62">
<path d="m60.23,7.08l464.17,0l0,464.17l-464.17,0l0,-464.17"/>
</g>
<g fill="none" stroke-width="0.1">
<g stroke="none" fill="#000000" fill-opacity="1" font-family="Serif" font-size="25.0">
<text x="109.43" y="40.5" textLength="319.5">Full filesystem Yara Scan</text>
</g>
</g>
</g>
<g clip-path="url(#c1)">
<g fill="#377eb8" stroke-linejoin="miter" stroke-width="0.62">
<g transform="translate(70.9,470.09)">
<path d="m3.75,0c0,2.07,-1.67,3.75,-3.75,3.75c-2.07,0,-3.75,-1.67,-3.75,-3.75c0,-2.07,1.67,-3.75,3.75,-3.75c2.07,0,3.75,1.67,3.75,3.75" id="p0"/>
</g>
<use xlink:href="#p0" x="70.25" y="468.93"/>
<use xlink:href="#p0" x="73.12" y="467.77"/>
<use xlink:href="#p0" x="70.85" y="466.61"/>
<use xlink:href="#p0" x="70.29" y="465.45"/>
<use xlink:href="#p0" x="71.56" y="464.29"/>
<use xlink:href="#p0" x="70.38" y="463.13"/>
<use xlink:href="#p0" x="70.04" y="461.97"/>
<use xlink:href="#p0" x="71.89" y="460.81"/>
<use xlink:href="#p0" x="71.8" y="459.65"/>
<use xlink:href="#p0" x="71.64" y="458.49"/>
<use xlink:href="#p0" x="71.95" y="457.33"/>
<use xlink:href="#p0" x="70.31" y="456.17"/>
<use xlink:href="#p0" x="70.41" y="455.01"/>
<use xlink:href="#p0" x="71.33" y="453.85"/>
<use xlink:href="#p0" x="70.96" y="452.69"/>
<use xlink:href="#p0" x="69.99" y="451.53"/>
<use xlink:href="#p0" x="71.1" y="450.37"/>
<use xlink:href="#p0" x="70.82" y="449.21"/>
<use xlink:href="#p0" x="70.35" y="448.05"/>
<use xlink:href="#p0" x="70.35" y="446.89"/>
<use xlink:href="#p0" x="70.79" y="445.73"/>
<use xlink:href="#p0" x="99.33" y="444.56"/>
<use xlink:href="#p0" x="70.98" y="443.4"/>
<use xlink:href="#p0" x="71.63" y="442.24"/>
<use xlink:href="#p0" x="68.3" y="441.08"/>
<use xlink:href="#p0" x="70.21" y="439.92"/>
<use xlink:href="#p0" x="70.5" y="438.76"/>
<use xlink:href="#p0" x="70.23" y="437.6"/>
<use xlink:href="#p0" x="72.42" y="436.44"/>
<use xlink:href="#p0" x="70.4" y="435.28"/>
<use xlink:href="#p0" x="70.82" y="434.12"/>
<use xlink:href="#p0" x="70.19" y="432.96"/>
<use xlink:href="#p0" x="70.39" y="431.8"/>
<use xlink:href="#p0" x="70.06" y="430.64"/>
<use xlink:href="#p0" x="70.27" y="429.48"/>
<use xlink:href="#p0" x="72.16" y="428.32"/>
<use xlink:href="#p0" x="70.87" y="427.16"/>
<use xlink:href="#p0" x="73.09" y="426"/>
<use xlink:href="#p0" x="70.04" y="424.84"/>
<use xlink:href="#p0" x="71.89" y="423.68"/>
<use xlink:href="#p0" x="70.48" y="422.52"/>
<use xlink:href="#p0" x="70.27" y="421.36"/>
<use xlink:href="#p0" x="72.52" y="420.2"/>
<use xlink:href="#p0" x="70.24" y="419.04"/>
<use xlink:href="#p0" x="73.23" y="417.87"/>
<use xlink:href="#p0" x="71.48" y="416.71"/>
<use xlink:href="#p0" x="71.86" y="415.55"/>
<use xlink:href="#p0" x="70.26" y="414.39"/>
<use xlink:href="#p0" x="70.8" y="413.23"/>
<use xlink:href="#p0" x="70.3" y="412.07"/>
<use xlink:href="#p0" x="71.78" y="410.91"/>
<use xlink:href="#p0" x="70.14" y="409.75"/>
<use xlink:href="#p0" x="70.52" y="408.59"/>
<use xlink:href="#p0" x="70.47" y="407.43"/>
<use xlink:href="#p0" x="70.62" y="406.27"/>
<use xlink:href="#p0" x="72.44" y="405.11"/>
<use xlink:href="#p0" x="70.38" y="403.95"/>
<use xlink:href="#p0" x="70.67" y="402.79"/>
<use xlink:href="#p0" x="70.51" y="401.63"/>
<use xlink:href="#p0" x="70.32" y="400.47"/>
<use xlink:href="#p0" x="70.24" y="399.31"/>
<use xlink:href="#p0" x="71.76" y="398.15"/>
<use xlink:href="#p0" x="70.93" y="396.99"/>
<use xlink:href="#p0" x="71.56" y="395.83"/>
<use xlink:href="#p0" x="69.28" y="394.67"/>
<use xlink:href="#p0" x="70.1" y="393.51"/>
<use xlink:href="#p0" x="67.85" y="392.35"/>
<use xlink:href="#p0" x="86.67" y="391.19"/>
<use xlink:href="#p0" x="70.34" y="390.02"/>
<use xlink:href="#p0" x="68.96" y="388.86"/>
<use xlink:href="#p0" x="70.52" y="387.7"/>
<use xlink:href="#p0" x="71.38" y="386.54"/>
<use xlink:href="#p0" x="71.58" y="385.38"/>
<use xlink:href="#p0" x="70.27" y="384.22"/>
<use xlink:href="#p0" x="71.48" y="383.06"/>
<use xlink:href="#p0" x="70.03" y="381.9"/>
<use xlink:href="#p0" x="71.33" y="380.74"/>
<use xlink:href="#p0" x="70.65" y="379.58"/>
<use xlink:href="#p0" x="70.17" y="378.42"/>
<use xlink:href="#p0" x="72.42" y="377.26"/>
<use xlink:href="#p0" x="70.36" y="376.1"/>
<use xlink:href="#p0" x="70.38" y="374.94"/>
<use xlink:href="#p0" x="70.43" y="373.78"/>
<use xlink:href="#p0" x="70.99" y="372.62"/>
<use xlink:href="#p0" x="71.04" y="371.46"/>
<use xlink:href="#p0" x="70.27" y="370.3"/>
<use xlink:href="#p0" x="72.13" y="369.14"/>
<use xlink:href="#p0" x="70.35" y="367.98"/>
<use xlink:href="#p0" x="80.33" y="366.82"/>
<use xlink:href="#p0" x="70.29" y="365.66"/>
<use xlink:href="#p0" x="70.67" y="364.5"/>
<use xlink:href="#p0" x="71.03" y="363.33"/>
<use xlink:href="#p0" x="70.18" y="362.17"/>
<use xlink:href="#p0" x="70.64" y="361.01"/>
<use xlink:href="#p0" x="72.75" y="359.85"/>
<use xlink:href="#p0" x="68.87" y="358.69"/>
<use xlink:href="#p0" x="70.88" y="357.53"/>
<use xlink:href="#p0" x="72.28" y="356.37"/>
<use xlink:href="#p0" x="70.3" y="355.21"/>
<use xlink:href="#p0" x="71.22" y="354.05"/>
<use xlink:href="#p0" x="67.85" y="352.89"/>
<use xlink:href="#p0" x="71.05" y="351.73"/>
<use xlink:href="#p0" x="70.16" y="350.57"/>
<use xlink:href="#p0" x="70.3" y="349.41"/>
<use xlink:href="#p0" x="70.43" y="348.25"/>
<use xlink:href="#p0" x="72.6" y="347.09"/>
<use xlink:href="#p0" x="70.78" y="345.93"/>
<use xlink:href="#p0" x="69.88" y="344.77"/>
<use xlink:href="#p0" x="71.84" y="343.61"/>
<use xlink:href="#p0" x="73.28" y="342.45"/>
<use xlink:href="#p0" x="72.91" y="341.29"/>
<use xlink:href="#p0" x="70.47" y="340.13"/>
<use xlink:href="#p0" x="67.85" y="338.97"/>
<use xlink:href="#p0" x="70.13" y="337.81"/>
<use xlink:href="#p0" x="70.31" y="336.64"/>
<use xlink:href="#p0" x="70.36" y="335.48"/>
<use xlink:href="#p0" x="67.85" y="334.32"/>
<use xlink:href="#p0" x="67.85" y="333.16"/>
<use xlink:href="#p0" x="77.89" y="332"/>
<use xlink:href="#p0" x="70.13" y="330.84"/>
<use xlink:href="#p0" x="71.25" y="329.68"/>
<use xlink:href="#p0" x="67.85" y="328.52"/>
<use xlink:href="#p0" x="70.73" y="327.36"/>
<use xlink:href="#p0" x="108.54" y="326.2"/>
<use xlink:href="#p0" x="71.68" y="325.04"/>
<use xlink:href="#p0" x="71.45" y="323.88"/>
<use xlink:href="#p0" x="91.04" y="322.72"/>
<use xlink:href="#p0" x="70.42" y="321.56"/>
<use xlink:href="#p0" x="72.61" y="320.4"/>
<use xlink:href="#p0" x="67.85" y="319.24"/>
<use xlink:href="#p0" x="70.38" y="318.08"/>
<use xlink:href="#p0" x="67.85" y="316.92"/>
<use xlink:href="#p0" x="70.52" y="315.76"/>
<use xlink:href="#p0" x="70.46" y="314.6"/>
<use xlink:href="#p0" x="71.4" y="313.44"/>
<use xlink:href="#p0" x="70.93" y="312.28"/>
<use xlink:href="#p0" x="70.18" y="311.12"/>
<use xlink:href="#p0" x="70.91" y="309.95"/>
<use xlink:href="#p0" x="70.25" y="308.79"/>
<use xlink:href="#p0" x="70.41" y="307.63"/>
<use xlink:href="#p0" x="70.45" y="306.47"/>
<use xlink:href="#p0" x="71.78" y="305.31"/>
<use xlink:href="#p0" x="67.85" y="304.15"/>
<use xlink:href="#p0" x="70.63" y="302.99"/>
<use xlink:href="#p0" x="70.43" y="301.83"/>
<use xlink:href="#p0" x="70.02" y="300.67"/>
<use xlink:href="#p0" x="70.34" y="299.51"/>
<use xlink:href="#p0" x="70.22" y="298.35"/>
<use xlink:href="#p0" x="69.92" y="297.19"/>
<use xlink:href="#p0" x="71.81" y="296.03"/>
<use xlink:href="#p0" x="70.37" y="294.87"/>
<use xlink:href="#p0" x="70.23" y="293.71"/>
<use xlink:href="#p0" x="70.5" y="292.55"/>
<use xlink:href="#p0" x="70.26" y="291.39"/>
<use xlink:href="#p0" x="70.44" y="290.23"/>
<use xlink:href="#p0" x="71.25" y="289.07"/>
<use xlink:href="#p0" x="71.74" y="287.91"/>
<use xlink:href="#p0" x="67.85" y="286.75"/>
<use xlink:href="#p0" x="70.25" y="285.59"/>
<use xlink:href="#p0" x="68.98" y="284.43"/>
<use xlink:href="#p0" x="70.38" y="283.26"/>
<use xlink:href="#p0" x="70.62" y="282.1"/>
<use xlink:href="#p0" x="72.33" y="280.94"/>
<use xlink:href="#p0" x="67.85" y="279.78"/>
<use xlink:href="#p0" x="67.85" y="278.62"/>
<use xlink:href="#p0" x="67.85" y="277.46"/>
<use xlink:href="#p0" x="157.01" y="276.3"/>
<use xlink:href="#p0" x="67.85" y="275.14"/>
<use xlink:href="#p0" x="67.85" y="273.98"/>
<use xlink:href="#p0" x="67.86" y="272.82"/>
<use xlink:href="#p0" x="67.86" y="271.66"/>
<use xlink:href="#p0" x="68.27" y="270.5"/>
<use xlink:href="#p0" x="67.9" y="269.34"/>
<use xlink:href="#p0" x="67.9" y="268.18"/>
<use xlink:href="#p0" x="68.39" y="267.02"/>
<use xlink:href="#p0" x="71.16" y="265.86"/>
<use xlink:href="#p0" x="69.58" y="264.7"/>
<use xlink:href="#p0" x="70.1" y="263.54"/>
<use xlink:href="#p0" x="71.22" y="262.38"/>
<use xlink:href="#p0" x="83.86" y="261.22"/>
<use xlink:href="#p0" x="72.76" y="260.06"/>
<use xlink:href="#p0" x="76.22" y="258.9"/>
<use xlink:href="#p0" x="72.65" y="257.74"/>
<use xlink:href="#p0" x="90.4" y="256.57"/>
<use xlink:href="#p0" x="72.96" y="255.41"/>
<use xlink:href="#p0" x="73.49" y="254.25"/>
<use xlink:href="#p0" x="77.97" y="253.09"/>
<use xlink:href="#p0" x="83.14" y="251.93"/>
<use xlink:href="#p0" x="84.4" y="250.77"/>
<use xlink:href="#p0" x="88.73" y="249.61"/>
<use xlink:href="#p0" x="89.54" y="248.45"/>
<use xlink:href="#p0" x="91.39" y="247.29"/>
<use xlink:href="#p0" x="93.63" y="246.13"/>
<use xlink:href="#p0" x="118.07" y="244.97"/>
<use xlink:href="#p0" x="115.56" y="243.81"/>
<use xlink:href="#p0" x="120.97" y="242.65"/>
<use xlink:href="#p0" x="118.72" y="241.49"/>
<use xlink:href="#p0" x="122.38" y="240.33"/>
<use xlink:href="#p0" x="120.61" y="239.17"/>
<use xlink:href="#p0" x="123.64" y="238.01"/>
<use xlink:href="#p0" x="123.27" y="236.85"/>
<use xlink:href="#p0" x="121.4" y="235.69"/>
<use xlink:href="#p0" x="121.42" y="234.53"/>
<use xlink:href="#p0" x="121.42" y="233.37"/>
<use xlink:href="#p0" x="125.14" y="232.21"/>
<use xlink:href="#p0" x="124.38" y="231.05"/>
<use xlink:href="#p0" x="122.42" y="229.88"/>
<use xlink:href="#p0" x="125.64" y="228.72"/>
<use xlink:href="#p0" x="125.58" y="227.56"/>
<use xlink:href="#p0" x="123.64" y="226.4"/>
<use xlink:href="#p0" x="125.16" y="225.24"/>
<use xlink:href="#p0" x="128.82" y="224.08"/>
<use xlink:href="#p0" x="125.43" y="222.92"/>
<use xlink:href="#p0" x="129.79" y="221.76"/>
<use xlink:href="#p0" x="128" y="220.6"/>
<use xlink:href="#p0" x="133.24" y="219.44"/>
<use xlink:href="#p0" x="130.84" y="218.28"/>
<use xlink:href="#p0" x="131.3" y="217.12"/>
<use xlink:href="#p0" x="131.38" y="215.96"/>
<use xlink:href="#p0" x="133.68" y="214.8"/>
<use xlink:href="#p0" x="137.02" y="213.64"/>
<use xlink:href="#p0" x="136.62" y="212.48"/>
<use xlink:href="#p0" x="135.48" y="211.32"/>
<use xlink:href="#p0" x="135.5" y="210.16"/>
<use xlink:href="#p0" x="138" y="209"/>
<use xlink:href="#p0" x="135.99" y="207.84"/>
<use xlink:href="#p0" x="136.18" y="206.68"/>
<use xlink:href="#p0" x="136.46" y="205.52"/>
<use xlink:href="#p0" x="137.74" y="204.36"/>
<use xlink:href="#p0" x="138.64" y="203.19"/>
<use xlink:href="#p0" x="139.39" y="202.03"/>
<use xlink:href="#p0" x="140.05" y="200.87"/>
<use xlink:href="#p0" x="140.81" y="199.71"/>
<use xlink:href="#p0" x="140.82" y="198.55"/>
<use xlink:href="#p0" x="145.11" y="197.39"/>
<use xlink:href="#p0" x="145.76" y="196.23"/>
<use xlink:href="#p0" x="143.42" y="195.07"/>
<use xlink:href="#p0" x="147.21" y="193.91"/>
<use xlink:href="#p0" x="145.51" y="192.75"/>
<use xlink:href="#p0" x="154.86" y="191.59"/>
<use xlink:href="#p0" x="161.33" y="190.43"/>
<use xlink:href="#p0" x="179.26" y="189.27"/>
<use xlink:href="#p0" x="183.38" y="188.11"/>
<use xlink:href="#p0" x="187.87" y="186.95"/>
<use xlink:href="#p0" x="185.81" y="185.79"/>
<use xlink:href="#p0" x="186.76" y="184.63"/>
<use xlink:href="#p0" x="190.06" y="183.47"/>
<use xlink:href="#p0" x="187.85" y="182.31"/>
<use xlink:href="#p0" x="190.88" y="181.15"/>
<use xlink:href="#p0" x="191.14" y="179.99"/>
<use xlink:href="#p0" x="192.01" y="178.83"/>
<use xlink:href="#p0" x="193.02" y="177.67"/>
<use xlink:href="#p0" x="189.28" y="176.5"/>
<use xlink:href="#p0" x="189.58" y="175.34"/>
<use xlink:href="#p0" x="193.12" y="174.18"/>
<use xlink:href="#p0" x="193.55" y="173.02"/>
<use xlink:href="#p0" x="193.49" y="171.86"/>
<use xlink:href="#p0" x="192.18" y="170.7"/>
<use xlink:href="#p0" x="195.74" y="169.54"/>
<use xlink:href="#p0" x="196.39" y="168.38"/>
<use xlink:href="#p0" x="197.05" y="167.22"/>
<use xlink:href="#p0" x="198.3" y="166.06"/>
<use xlink:href="#p0" x="195.59" y="164.9"/>
<use xlink:href="#p0" x="195.59" y="163.74"/>
<use xlink:href="#p0" x="198.59" y="162.58"/>
<use xlink:href="#p0" x="197.24" y="161.42"/>
<use xlink:href="#p0" x="197.25" y="160.26"/>
<use xlink:href="#p0" x="197.29" y="159.1"/>
<use xlink:href="#p0" x="205.7" y="157.94"/>
<use xlink:href="#p0" x="199.46" y="156.78"/>
<use xlink:href="#p0" x="203.59" y="155.62"/>
<use xlink:href="#p0" x="205.14" y="154.46"/>
<use xlink:href="#p0" x="203.16" y="153.3"/>
<use xlink:href="#p0" x="203.71" y="152.14"/>
<use xlink:href="#p0" x="205.72" y="150.98"/>
<use xlink:href="#p0" x="209.19" y="149.81"/>
<use xlink:href="#p0" x="210.37" y="148.65"/>
<use xlink:href="#p0" x="210.68" y="147.49"/>
<use xlink:href="#p0" x="211.99" y="146.33"/>
<use xlink:href="#p0" x="219.44" y="145.17"/>
<use xlink:href="#p0" x="222.54" y="144.01"/>
<use xlink:href="#p0" x="227.46" y="142.85"/>
<use xlink:href="#p0" x="229.23" y="141.69"/>
<use xlink:href="#p0" x="259.19" y="140.53"/>
<use xlink:href="#p0" x="265.56" y="139.37"/>
<use xlink:href="#p0" x="265.9" y="138.21"/>
<use xlink:href="#p0" x="269.84" y="137.05"/>
<use xlink:href="#p0" x="276.18" y="135.89"/>
<use xlink:href="#p0" x="277.33" y="134.73"/>
<use xlink:href="#p0" x="277.76" y="133.57"/>
<use xlink:href="#p0" x="281.6" y="132.41"/>
<use xlink:href="#p0" x="324.12" y="131.25"/>
<use xlink:href="#p0" x="330.12" y="130.09"/>
<use xlink:href="#p0" x="339.48" y="128.93"/>
<use xlink:href="#p0" x="348.79" y="127.77"/>
<use xlink:href="#p0" x="356.45" y="126.61"/>
<use xlink:href="#p0" x="364.63" y="125.45"/>
<use xlink:href="#p0" x="379.16" y="124.29"/>
<use xlink:href="#p0" x="380.09" y="123.12"/>
<use xlink:href="#p0" x="382.94" y="121.96"/>
<use xlink:href="#p0" x="385.88" y="120.8"/>
<use xlink:href="#p0" x="385.67" y="119.64"/>
<use xlink:href="#p0" x="385" y="118.48"/>
<use xlink:href="#p0" x="383.7" y="117.32"/>
<use xlink:href="#p0" x="387.21" y="116.16"/>
<use xlink:href="#p0" x="387.39" y="115"/>
<use xlink:href="#p0" x="387.31" y="113.84"/>
<use xlink:href="#p0" x="385.16" y="112.68"/>
<use xlink:href="#p0" x="386.82" y="111.52"/>
<use xlink:href="#p0" x="388.51" y="110.36"/>
<use xlink:href="#p0" x="388.47" y="109.2"/>
<use xlink:href="#p0" x="389.79" y="108.04"/>
<use xlink:href="#p0" x="389.44" y="106.88"/>
<use xlink:href="#p0" x="387.54" y="105.72"/>
<use xlink:href="#p0" x="391.18" y="104.56"/>
<use xlink:href="#p0" x="392.55" y="103.4"/>
<use xlink:href="#p0" x="394.22" y="102.24"/>
<use xlink:href="#p0" x="390.69" y="101.08"/>
<use xlink:href="#p0" x="392.23" y="99.92"/>
<use xlink:href="#p0" x="393.76" y="98.76"/>
<use xlink:href="#p0" x="394.15" y="97.6"/>
<use xlink:href="#p0" x="395.54" y="96.44"/>
<use xlink:href="#p0" x="399.25" y="95.27"/>
<use xlink:href="#p0" x="401.79" y="94.11"/>
<use xlink:href="#p0" x="401.96" y="92.95"/>
<use xlink:href="#p0" x="404.28" y="91.79"/>
<use xlink:href="#p0" x="407.2" y="90.63"/>
<use xlink:href="#p0" x="410.31" y="89.47"/>
<use xlink:href="#p0" x="418.22" y="88.31"/>
<use xlink:href="#p0" x="425.08" y="87.15"/>
<use xlink:href="#p0" x="443.43" y="85.99"/>
<use xlink:href="#p0" x="441.72" y="84.83"/>
<use xlink:href="#p0" x="446.74" y="83.67"/>
<use xlink:href="#p0" x="453.53" y="82.51"/>
<use xlink:href="#p0" x="454.82" y="81.35"/>
<use xlink:href="#p0" x="454.88" y="80.19"/>
<use xlink:href="#p0" x="454.86" y="79.03"/>
<use xlink:href="#p0" x="460.96" y="77.87"/>
<use xlink:href="#p0" x="456.29" y="76.71"/>
<use xlink:href="#p0" x="457" y="75.55"/>
<use xlink:href="#p0" x="456.53" y="74.39"/>
<use xlink:href="#p0" x="458.09" y="73.23"/>
<use xlink:href="#p0" x="460.98" y="72.07"/>
<use xlink:href="#p0" x="461.75" y="70.91"/>
<use xlink:href="#p0" x="461.49" y="69.75"/>
<use xlink:href="#p0" x="461.72" y="68.58"/>
<use xlink:href="#p0" x="460.1" y="67.42"/>
<use xlink:href="#p0" x="466.23" y="66.26"/>
<use xlink:href="#p0" x="468.11" y="65.1"/>
<use xlink:href="#p0" x="468.73" y="63.94"/>
<use xlink:href="#p0" x="468.55" y="62.78"/>
<use xlink:href="#p0" x="469.49" y="61.62"/>
<use xlink:href="#p0" x="470.4" y="60.46"/>
<use xlink:href="#p0" x="472.38" y="59.3"/>
<use xlink:href="#p0" x="473.91" y="58.14"/>
<use xlink:href="#p0" x="480.88" y="56.98"/>
<use xlink:href="#p0" x="482.21" y="55.82"/>
<use xlink:href="#p0" x="479.96" y="54.66"/>
</g>
<g fill="none" stroke="#e41a1c" stroke-width="0.62">
<polyline fill="none" points="67.85,470.09 67.85,468.93 67.85,467.77 67.85,466.61 67.85,465.45 67.85,464.29 67.85,463.13 67.85,461.97 67.85,460.81 67.85,459.65 67.85,458.49 67.85,457.33 67.85,456.17 67.85,455.01 67.85,453.85 67.85,452.69 67.85,451.53 67.85,450.37 67.85,449.21 67.85,448.05 67.85,446.89 67.85,445.73 67.85,444.56 67.85,443.4 67.85,442.24 67.85,441.08 67.85,439.92 67.85,438.76 67.85,437.6 67.85,436.44 67.85,435.28 67.85,434.12 67.85,432.96 67.85,431.8 67.85,430.64 67.85,429.48 67.85,428.32 67.85,427.16 67.85,426 67.85,424.84 67.85,423.68 67.85,422.52 67.85,421.36 67.85,420.2 67.85,419.04 67.85,417.87 67.85,416.71 67.85,415.55 67.85,414.39 67.85,413.23 67.85,412.07 67.85,410.91 67.85,409.75 67.85,408.59 67.85,407.43 67.85,406.27 67.85,405.11 67.85,403.95 67.85,402.79 67.85,401.63 67.85,400.47 67.85,399.31 67.85,398.15 67.85,396.99 67.85,395.83 67.85,394.67 67.85,393.51 67.85,392.35 67.85,391.19 67.85,390.02 67.85,388.86 67.85,387.7 67.85,386.54 67.85,385.38 67.85,384.22 67.85,383.06 67.85,381.9 67.85,380.74 67.85,379.58 67.85,378.42 67.85,377.26 67.85,376.1 67.85,374.94 67.85,373.78 67.85,372.62 67.85,371.46 67.85,370.3 67.85,369.14 67.85,367.98 67.85,366.82 67.85,365.66 67.85,364.5 67.85,363.33 67.85,362.17 67.85,361.01 67.85,359.85 67.85,358.69 67.85,357.53 67.85,356.37 67.85,355.21 67.85,354.05 67.85,352.89 67.85,351.73 67.85,350.57 67.85,349.41 67.85,348.25 67.85,347.09 67.85,345.93 67.85,344.77 67.85,343.61 67.85,342.45 67.85,341.29 67.85,340.13 67.85,338.97 67.85,337.81 67.85,336.64 67.85,335.48 67.85,334.32 67.85,333.16 67.85,332 67.85,330.84 67.85,329.68 67.85,328.52 67.85,327.36 67.85,326.2 67.85,325.04 67.85,323.88 67.85,322.72 67.85,321.56 67.85,320.4 67.85,319.24 67.85,318.08 67.85,316.92 67.85,315.76 67.85,314.6 67.85,313.44 67.85,312.28 67.85,311.12 67.85,309.95 67.85,308.79 67.85,307.63 67.85,306.47 67.85,305.31 67.85,304.15 67.85,302.99 67.85,301.83 67.85,300.67 67.85,299.51 67.85,298.35 67.85,297.19 67.85,296.03 67.85,294.87 67.85,293.71 67.85,292.55 67.85,291.39 67.85,290.23 67.85,289.07 67.85,287.91 67.85,286.75 67.85,285.59 67.85,284.43 67.85,283.26 67.85,282.1 67.85,280.94 67.85,279.78 67.85,278.62 67.85,277.46 67.85,276.3 67.85,275.14 67.85,273.98 67.85,272.82 67.86,271.66 67.86,270.5 67.9,269.34 67.9,268.18 68.39,267.02 68.65,265.86 69.58,264.7 70.1,263.54 71.22,262.38 72.14,261.22 72.39,260.06 72.58,258.9 72.64,257.74 72.83,256.57 72.95,255.41 73.35,254.25 77.95,253.09 80.8,251.93 83.94,250.77 88.5,249.61 89.54,248.45 91.09,247.29 93.26,246.13 115.55,244.97 115.55,243.81 118.17,242.65 118.71,241.49 119.93,240.33 120.61,239.17 120.86,238.01 120.95,236.85 121.4,235.69 121.42,234.53 121.42,233.37 121.67,232.21 122.04,231.05 122.41,229.88 122.86,228.72 123.18,227.56 123.63,226.4 124.55,225.24 125.3,224.08 125.42,222.92 127.31,221.76 127.7,220.6 130.38,219.44 130.62,218.28 131.29,217.12 131.38,215.96 133.68,214.8 133.97,213.64 134.14,212.48 135.46,211.32 135.49,210.16 135.5,209 135.98,207.84 136.18,206.68 136.46,205.52 137.68,204.36 138.63,203.19 139.38,202.03 140.04,200.87 140.81,199.71 140.82,198.55 142.13,197.39 142.2,196.23 143.41,195.07 143.43,193.91 145.51,192.75 154.8,191.59 161.32,190.43 179.21,189.27 183.3,188.11 185.57,186.95 185.8,185.79 186.67,184.63 186.88,183.47 187.85,182.31 188.5,181.15 188.72,179.99 188.73,178.83 188.78,177.67 189.28,176.5 189.58,175.34 190.67,174.18 191.09,173.02 191.12,171.86 192.18,170.7 193.34,169.54 193.78,168.38 194.41,167.22 195.36,166.06 195.59,164.9 195.59,163.74 195.96,162.58 197.24,161.42 197.24,160.26 197.24,159.1 197.29,157.94 199.36,156.78 201.21,155.62 202.53,154.46 203.16,153.3 203.71,152.14 205.72,150.98 208.5,149.81 210.37,148.65 210.68,147.49 210.86,146.33 219.08,145.17 222.54,144.01 222.54,142.85 229.2,141.69 259.19,140.53 265.56,139.37 265.86,138.21 267.14,137.05 276.18,135.89 277.33,134.73 277.75,133.57 277.77,132.41 324.12,131.25 330.1,130.09 339.45,128.93 344.73,127.77 353.7,126.61 361.57,125.45 374.94,124.29 379.48,123.12 380.61,121.96 382.85,120.8 383.03,119.64 383.05,118.48 383.33,117.32 384.37,116.16 384.77,115 384.97,113.84 385.16,112.68 385.58,111.52 385.77,110.36 386.03,109.2 386.29,108.04 386.68,106.88 387.13,105.72 388.31,104.56 389.31,103.4 390.38,102.24 390.69,101.08 391.58,99.92 393.76,98.76 394.12,97.6 394.73,96.44 396.61,95.27 398.81,94.11 401.31,92.95 401.39,91.79 404.82,90.63 407.9,89.47 414.93,88.31 422.07,87.15 441.2,85.99 441.41,84.83 443.98,83.67 451.09,82.51 452.14,81.35 452.18,80.19 452.18,79.03 452.53,77.87 453.11,76.71 453.82,75.55 456.45,74.39 458.09,73.23 458.54,72.07 459.12,70.91 459.22,69.75 459.32,68.58 460.1,67.42 463.4,66.26 465.71,65.1 466.17,63.94 466.28,62.78 466.65,61.62 467.81,60.46 469.8,59.3 473.9,58.14 478.47,56.98 479.24,55.82 479.3,54.66"/>
</g>
<g fill="#e41a1c" stroke-linejoin="miter" stroke-width="0.62">
<use xlink:href="#p0" x="67.85" y="470.09"/>
<use xlink:href="#p0" x="67.85" y="468.93"/>
<use xlink:href="#p0" x="67.85" y="467.77"/>
<use xlink:href="#p0" x="67.85" y="466.61"/>
<use xlink:href="#p0" x="67.85" y="465.45"/>
<use xlink:href="#p0" x="67.85" y="464.29"/>
<use xlink:href="#p0" x="67.85" y="463.13"/>
<use xlink:href="#p0" x="67.85" y="461.97"/>
<use xlink:href="#p0" x="67.85" y="460.81"/>
<use xlink:href="#p0" x="67.85" y="459.65"/>
<use xlink:href="#p0" x="67.85" y="458.49"/>
<use xlink:href="#p0" x="67.85" y="457.33"/>
<use xlink:href="#p0" x="67.85" y="456.17"/>
<use xlink:href="#p0" x="67.85" y="455.01"/>
<use xlink:href="#p0" x="67.85" y="453.85"/>
<use xlink:href="#p0" x="67.85" y="452.69"/>
<use xlink:href="#p0" x="67.85" y="451.53"/>
<use xlink:href="#p0" x="67.85" y="450.37"/>
<use xlink:href="#p0" x="67.85" y="449.21"/>
<use xlink:href="#p0" x="67.85" y="448.05"/>
<use xlink:href="#p0" x="67.85" y="446.89"/>
<use xlink:href="#p0" x="67.85" y="445.73"/>
<use xlink:href="#p0" x="67.85" y="444.56"/>
<use xlink:href="#p0" x="67.85" y="443.4"/>
<use xlink:href="#p0" x="67.85" y="442.24"/>
<use xlink:href="#p0" x="67.85" y="441.08"/>
<use xlink:href="#p0" x="67.85" y="439.92"/>
<use xlink:href="#p0" x="67.85" y="438.76"/>
<use xlink:href="#p0" x="67.85" y="437.6"/>
<use xlink:href="#p0" x="67.85" y="436.44"/>
<use xlink:href="#p0" x="67.85" y="435.28"/>
<use xlink:href="#p0" x="67.85" y="434.12"/>
<use xlink:href="#p0" x="67.85" y="432.96"/>
<use xlink:href="#p0" x="67.85" y="431.8"/>
<use xlink:href="#p0" x="67.85" y="430.64"/>
<use xlink:href="#p0" x="67.85" y="429.48"/>
<use xlink:href="#p0" x="67.85" y="428.32"/>
<use xlink:href="#p0" x="67.85" y="427.16"/>
<use xlink:href="#p0" x="67.85" y="426"/>
<use xlink:href="#p0" x="67.85" y="424.84"/>
<use xlink:href="#p0" x="67.85" y="423.68"/>
<use xlink:href="#p0" x="67.85" y="422.52"/>
<use xlink:href="#p0" x="67.85" y="421.36"/>
<use xlink:href="#p0" x="67.85" y="420.2"/>
<use xlink:href="#p0" x="67.85" y="419.04"/>
<use xlink:href="#p0" x="67.85" y="417.87"/>
<use xlink:href="#p0" x="67.85" y="416.71"/>
<use xlink:href="#p0" x="67.85" y="415.55"/>
<use xlink:href="#p0" x="67.85" y="414.39"/>
<use xlink:href="#p0" x="67.85" y="413.23"/>
<use xlink:href="#p0" x="67.85" y="412.07"/>
<use xlink:href="#p0" x="67.85" y="410.91"/>
<use xlink:href="#p0" x="67.85" y="409.75"/>
<use xlink:href="#p0" x="67.85" y="408.59"/>
<use xlink:href="#p0" x="67.85" y="407.43"/>
<use xlink:href="#p0" x="67.85" y="406.27"/>
<use xlink:href="#p0" x="67.85" y="405.11"/>
<use xlink:href="#p0" x="67.85" y="403.95"/>
<use xlink:href="#p0" x="67.85" y="402.79"/>
<use xlink:href="#p0" x="67.85" y="401.63"/>
<use xlink:href="#p0" x="67.85" y="400.47"/>
<use xlink:href="#p0" x="67.85" y="399.31"/>
<use xlink:href="#p0" x="67.85" y="398.15"/>
<use xlink:href="#p0" x="67.85" y="396.99"/>
<use xlink:href="#p0" x="67.85" y="395.83"/>
<use xlink:href="#p0" x="67.85" y="394.67"/>
<use xlink:href="#p0" x="67.85" y="393.51"/>
<use xlink:href="#p0" x="67.85" y="392.35"/>
<use xlink:href="#p0" x="67.85" y="391.19"/>
<use xlink:href="#p0" x="67.85" y="390.02"/>
<use xlink:href="#p0" x="67.85" y="388.86"/>
<use xlink:href="#p0" x="67.85" y="387.7"/>
<use xlink:href="#p0" x="67.85" y="386.54"/>
<use xlink:href="#p0" x="67.85" y="385.38"/>
<use xlink:href="#p0" x="67.85" y="384.22"/>
<use xlink:href="#p0" x="67.85" y="383.06"/>
<use xlink:href="#p0" x="67.85" y="381.9"/>
<use xlink:href="#p0" x="67.85" y="380.74"/>
<use xlink:href="#p0" x="67.85" y="379.58"/>
<use xlink:href="#p0" x="67.85" y="378.42"/>
<use xlink:href="#p0" x="67.85" y="377.26"/>
<use xlink:href="#p0" x="67.85" y="376.1"/>
<use xlink:href="#p0" x="67.85" y="374.94"/>
<use xlink:href="#p0" x="67.85" y="373.78"/>
<use xlink:href="#p0" x="67.85" y="372.62"/>
<use xlink:href="#p0" x="67.85" y="371.46"/>
<use xlink:href="#p0" x="67.85" y="370.3"/>
<use xlink:href="#p0" x="67.85" y="369.14"/>
<use xlink:href="#p0" x="67.85" y="367.98"/>
<use xlink:href="#p0" x="67.85" y="366.82"/>
<use xlink:href="#p0" x="67.85" y="365.66"/>
<use xlink:href="#p0" x="67.85" y="364.5"/>
<use xlink:href="#p0" x="67.85" y="363.33"/>
<use xlink:href="#p0" x="67.85" y="362.17"/>
<use xlink:href="#p0" x="67.85" y="361.01"/>
<use xlink:href="#p0" x="67.85" y="359.85"/>
<use xlink:href="#p0" x="67.85" y="358.69"/>
<use xlink:href="#p0" x="67.85" y="357.53"/>
<use xlink:href="#p0" x="67.85" y="356.37"/>
<use xlink:href="#p0" x="67.85" y="355.21"/>
<use xlink:href="#p0" x="67.85" y="354.05"/>
<use xlink:href="#p0" x="67.85" y="352.89"/>
<use xlink:href="#p0" x="67.85" y="351.73"/>
<use xlink:href="#p0" x="67.85" y="350.57"/>
<use xlink:href="#p0" x="67.85" y="349.41"/>
<use xlink:href="#p0" x="67.85" y="348.25"/>
<use xlink:href="#p0" x="67.85" y="347.09"/>
<use xlink:href="#p0" x="67.85" y="345.93"/>
<use xlink:href="#p0" x="67.85" y="344.77"/>
<use xlink:href="#p0" x="67.85" y="343.61"/>
<use xlink:href="#p0" x="67.85" y="342.45"/>
<use xlink:href="#p0" x="67.85" y="341.29"/>
<use xlink:href="#p0" x="67.85" y="340.13"/>
<use xlink:href="#p0" x="67.85" y="338.97"/>
<use xlink:href="#p0" x="67.85" y="337.81"/>
<use xlink:href="#p0" x="67.85" y="336.64"/>
<use xlink:href="#p0" x="67.85" y="335.48"/>
<use xlink:href="#p0" x="67.85" y="334.32"/>
<use xlink:href="#p0" x="67.85" y="333.16"/>
<use xlink:href="#p0" x="67.85" y="332"/>
<use xlink:href="#p0" x="67.85" y="330.84"/>
<use xlink:href="#p0" x="67.85" y="329.68"/>
<use xlink:href="#p0" x="67.85" y="328.52"/>
<use xlink:href="#p0" x="67.85" y="327.36"/>
<use xlink:href="#p0" x="67.85" y="326.2"/>
<use xlink:href="#p0" x="67.85" y="325.04"/>
<use xlink:href="#p0" x="67.85" y="323.88"/>
<use xlink:href="#p0" x="67.85" y="322.72"/>
<use xlink:href="#p0" x="67.85" y="321.56"/>
<use xlink:href="#p0" x="67.85" y="320.4"/>
<use xlink:href="#p0" x="67.85" y="319.24"/>
<use xlink:href="#p0" x="67.85" y="318.08"/>
<use xlink:href="#p0" x="67.85" y="316.92"/>
<use xlink:href="#p0" x="67.85" y="315.76"/>
<use xlink:href="#p0" x="67.85" y="314.6"/>
<use xlink:href="#p0" x="67.85" y="313.44"/>
<use xlink:href="#p0" x="67.85" y="312.28"/>
<use xlink:href="#p0" x="67.85" y="311.12"/>
<use xlink:href="#p0" x="67.85" y="309.95"/>
<use xlink:href="#p0" x="67.85" y="308.79"/>
<use xlink:href="#p0" x="67.85" y="307.63"/>
<use xlink:href="#p0" x="67.85" y="306.47"/>
<use xlink:href="#p0" x="67.85" y="305.31"/>
<use xlink:href="#p0" x="67.85" y="304.15"/>
<use xlink:href="#p0" x="67.85" y="302.99"/>
<use xlink:href="#p0" x="67.85" y="301.83"/>
<use xlink:href="#p0" x="67.85" y="300.67"/>
<use xlink:href="#p0" x="67.85" y="299.51"/>
<use xlink:href="#p0" x="67.85" y="298.35"/>
<use xlink:href="#p0" x="67.85" y="297.19"/>
<use xlink:href="#p0" x="67.85" y="296.03"/>
<use xlink:href="#p0" x="67.85" y="294.87"/>
<use xlink:href="#p0" x="67.85" y="293.71"/>
<use xlink:href="#p0" x="67.85" y="292.55"/>
<use xlink:href="#p0" x="67.85" y="291.39"/>
<use xlink:href="#p0" x="67.85" y="290.23"/>
<use xlink:href="#p0" x="67.85" y="289.07"/>
<use xlink:href="#p0" x="67.85" y="287.91"/>
<use xlink:href="#p0" x="67.85" y="286.75"/>
<use xlink:href="#p0" x="67.85" y="285.59"/>
<use xlink:href="#p0" x="67.85" y="284.43"/>
<use xlink:href="#p0" x="67.85" y="283.26"/>
<use xlink:href="#p0" x="67.85" y="282.1"/>
<use xlink:href="#p0" x="67.85" y="280.94"/>
<use xlink:href="#p0" x="67.85" y="279.78"/>
<use xlink:href="#p0" x="67.85" y="278.62"/>
<use xlink:href="#p0" x="67.85" y="277.46"/>
<use xlink:href="#p0" x="67.85" y="276.3"/>
<use xlink:href="#p0" x="67.85" y="275.14"/>
<use xlink:href="#p0" x="67.85" y="273.98"/>
<use xlink:href="#p0" x="67.85" y="272.82"/>
<use xlink:href="#p0" x="67.86" y="271.66"/>
<use xlink:href="#p0" x="67.86" y="270.5"/>
<use xlink:href="#p0" x="67.9" y="269.34"/>
<use xlink:href="#p0" x="67.9" y="268.18"/>
<use xlink:href="#p0" x="68.39" y="267.02"/>
<use xlink:href="#p0" x="68.65" y="265.86"/>
<use xlink:href="#p0" x="69.58" y="264.7"/>
<use xlink:href="#p0" x="70.1" y="263.54"/>
<use xlink:href="#p0" x="71.22" y="262.38"/>
<use xlink:href="#p0" x="72.14" y="261.22"/>
<use xlink:href="#p0" x="72.39" y="260.06"/>
<use xlink:href="#p0" x="72.58" y="258.9"/>
<use xlink:href="#p0" x="72.64" y="257.74"/>
<use xlink:href="#p0" x="72.83" y="256.57"/>
<use xlink:href="#p0" x="72.95" y="255.41"/>
<use xlink:href="#p0" x="73.35" y="254.25"/>
<use xlink:href="#p0" x="77.95" y="253.09"/>
<use xlink:href="#p0" x="80.8" y="251.93"/>
<use xlink:href="#p0" x="83.94" y="250.77"/>
<use xlink:href="#p0" x="88.5" y="249.61"/>
<use xlink:href="#p0" x="89.54" y="248.45"/>
<use xlink:href="#p0" x="91.09" y="247.29"/>
<use xlink:href="#p0" x="93.26" y="246.13"/>
<use xlink:href="#p0" x="115.55" y="244.97"/>
<use xlink:href="#p0" x="115.55" y="243.81"/>
<use xlink:href="#p0" x="118.17" y="242.65"/>
<use xlink:href="#p0" x="118.71" y="241.49"/>
<use xlink:href="#p0" x="119.93" y="240.33"/>
<use xlink:href="#p0" x="120.61" y="239.17"/>
<use xlink:href="#p0" x="120.86" y="238.01"/>
<use xlink:href="#p0" x="120.95" y="236.85"/>
<use xlink:href="#p0" x="121.4" y="235.69"/>
<use xlink:href="#p0" x="121.42" y="234.53"/>
<use xlink:href="#p0" x="121.42" y="233.37"/>
<use xlink:href="#p0" x="121.67" y="232.21"/>
<use xlink:href="#p0" x="122.04" y="231.05"/>
<use xlink:href="#p0" x="122.41" y="229.88"/>
<use xlink:href="#p0" x="122.86" y="228.72"/>
<use xlink:href="#p0" x="123.18" y="227.56"/>
<use xlink:href="#p0" x="123.63" y="226.4"/>
<use xlink:href="#p0" x="124.55" y="225.24"/>
<use xlink:href="#p0" x="125.3" y="224.08"/>
<use xlink:href="#p0" x="125.42" y="222.92"/>
<use xlink:href="#p0" x="127.31" y="221.76"/>
<use xlink:href="#p0" x="127.7" y="220.6"/>
<use xlink:href="#p0" x="130.38" y="219.44"/>
<use xlink:href="#p0" x="130.62" y="218.28"/>
<use xlink:href="#p0" x="131.29" y="217.12"/>
<use xlink:href="#p0" x="131.38" y="215.96"/>
<use xlink:href="#p0" x="133.68" y="214.8"/>
<use xlink:href="#p0" x="133.97" y="213.64"/>
<use xlink:href="#p0" x="134.14" y="212.48"/>
<use xlink:href="#p0" x="135.46" y="211.32"/>
<use xlink:href="#p0" x="135.49" y="210.16"/>
<use xlink:href="#p0" x="135.5" y="209"/>
<use xlink:href="#p0" x="135.98" y="207.84"/>
<use xlink:href="#p0" x="136.18" y="206.68"/>
<use xlink:href="#p0" x="136.46" y="205.52"/>
<use xlink:href="#p0" x="137.68" y="204.36"/>
<use xlink:href="#p0" x="138.63" y="203.19"/>
<use xlink:href="#p0" x="139.38" y="202.03"/>
<use xlink:href="#p0" x="140.04" y="200.87"/>
<use xlink:href="#p0" x="140.81" y="199.71"/>
<use xlink:href="#p0" x="140.82" y="198.55"/>
<use xlink:href="#p0" x="142.13" y="197.39"/>
<use xlink:href="#p0" x="142.2" y="196.23"/>
<use xlink:href="#p0" x="143.41" y="195.07"/>
<use xlink:href="#p0" x="143.43" y="193.91"/>
<use xlink:href="#p0" x="145.51" y="192.75"/>
<use xlink:href="#p0" x="154.8" y="191.59"/>
<use xlink:href="#p0" x="161.32" y="190.43"/>
<use xlink:href="#p0" x="179.21" y="189.27"/>
<use xlink:href="#p0" x="183.3" y="188.11"/>
<use xlink:href="#p0" x="185.57" y="186.95"/>
<use xlink:href="#p0" x="185.8" y="185.79"/>
<use xlink:href="#p0" x="186.67" y="184.63"/>
<use xlink:href="#p0" x="186.88" y="183.47"/>
<use xlink:href="#p0" x="187.85" y="182.31"/>
<use xlink:href="#p0" x="188.5" y="181.15"/>
<use xlink:href="#p0" x="188.72" y="179.99"/>
<use xlink:href="#p0" x="188.73" y="178.83"/>
<use xlink:href="#p0" x="188.78" y="177.67"/>
<use xlink:href="#p0" x="189.28" y="176.5"/>
<use xlink:href="#p0" x="189.58" y="175.34"/>
<use xlink:href="#p0" x="190.67" y="174.18"/>
<use xlink:href="#p0" x="191.09" y="173.02"/>
<use xlink:href="#p0" x="191.12" y="171.86"/>
<use xlink:href="#p0" x="192.18" y="170.7"/>
<use xlink:href="#p0" x="193.34" y="169.54"/>
<use xlink:href="#p0" x="193.78" y="168.38"/>
<use xlink:href="#p0" x="194.41" y="167.22"/>
<use xlink:href="#p0" x="195.36" y="166.06"/>
<use xlink:href="#p0" x="195.59" y="164.9"/>
<use xlink:href="#p0" x="195.59" y="163.74"/>
<use xlink:href="#p0" x="195.96" y="162.58"/>
<use xlink:href="#p0" x="197.24" y="161.42"/>
<use xlink:href="#p0" x="197.24" y="160.26"/>
<use xlink:href="#p0" x="197.24" y="159.1"/>
<use xlink:href="#p0" x="197.29" y="157.94"/>
<use xlink:href="#p0" x="199.36" y="156.78"/>
<use xlink:href="#p0" x="201.21" y="155.62"/>
<use xlink:href="#p0" x="202.53" y="154.46"/>
<use xlink:href="#p0" x="203.16" y="153.3"/>
<use xlink:href="#p0" x="203.71" y="152.14"/>
<use xlink:href="#p0" x="205.72" y="150.98"/>
<use xlink:href="#p0" x="208.5" y="149.81"/>
<use xlink:href="#p0" x="210.37" y="148.65"/>
<use xlink:href="#p0" x="210.68" y="147.49"/>
<use xlink:href="#p0" x="210.86" y="146.33"/>
<use xlink:href="#p0" x="219.08" y="145.17"/>
<use xlink:href="#p0" x="222.54" y="144.01"/>
<use xlink:href="#p0" x="222.54" y="142.85"/>
<use xlink:href="#p0" x="229.2" y="141.69"/>
<use xlink:href="#p0" x="259.19" y="140.53"/>
<use xlink:href="#p0" x="265.56" y="139.37"/>
<use xlink:href="#p0" x="265.86" y="138.21"/>
<use xlink:href="#p0" x="267.14" y="137.05"/>
<use xlink:href="#p0" x="276.18" y="135.89"/>
<use xlink:href="#p0" x="277.33" y="134.73"/>
<use xlink:href="#p0" x="277.75" y="133.57"/>
<use xlink:href="#p0" x="277.77" y="132.41"/>
<use xlink:href="#p0" x="324.12" y="131.25"/>
<use xlink:href="#p0" x="330.1" y="130.09"/>
<use xlink:href="#p0" x="339.45" y="128.93"/>
<use xlink:href="#p0" x="344.73" y="127.77"/>
<use xlink:href="#p0" x="353.7" y="126.61"/>
<use xlink:href="#p0" x="361.57" y="125.45"/>
<use xlink:href="#p0" x="374.94" y="124.29"/>
<use xlink:href="#p0" x="379.48" y="123.12"/>
<use xlink:href="#p0" x="380.61" y="121.96"/>
<use xlink:href="#p0" x="382.85" y="120.8"/>
<use xlink:href="#p0" x="383.03" y="119.64"/>
<use xlink:href="#p0" x="383.05" y="118.48"/>
<use xlink:href="#p0" x="383.33" y="117.32"/>
<use xlink:href="#p0" x="384.37" y="116.16"/>
<use xlink:href="#p0" x="384.77" y="115"/>
<use xlink:href="#p0" x="384.97" y="113.84"/>
<use xlink:href="#p0" x="385.16" y="112.68"/>
<use xlink:href="#p0" x="385.58" y="111.52"/>
<use xlink:href="#p0" x="385.77" y="110.36"/>
<use xlink:href="#p0" x="386.03" y="109.2"/>
<use xlink:href="#p0" x="386.29" y="108.04"/>
<use xlink:href="#p0" x="386.68" y="106.88"/>
<use xlink:href="#p0" x="387.13" y="105.72"/>
<use xlink:href="#p0" x="388.31" y="104.56"/>
<use xlink:href="#p0" x="389.31" y="103.4"/>
<use xlink:href="#p0" x="390.38" y="102.24"/>
<use xlink:href="#p0" x="390.69" y="101.08"/>
<use xlink:href="#p0" x="391.58" y="99.92"/>
<use xlink:href="#p0" x="393.76" y="98.76"/>
<use xlink:href="#p0" x="394.12" y="97.6"/>
<use xlink:href="#p0" x="394.73" y="96.44"/>
<use xlink:href="#p0" x="396.61" y="95.27"/>
<use xlink:href="#p0" x="398.81" y="94.11"/>
<use xlink:href="#p0" x="401.31" y="92.95"/>
<use xlink:href="#p0" x="401.39" y="91.79"/>
<use xlink:href="#p0" x="404.82" y="90.63"/>
<use xlink:href="#p0" x="407.9" y="89.47"/>
<use xlink:href="#p0" x="414.93" y="88.31"/>
<use xlink:href="#p0" x="422.07" y="87.15"/>
<use xlink:href="#p0" x="441.2" y="85.99"/>
<use xlink:href="#p0" x="441.41" y="84.83"/>
<use xlink:href="#p0" x="443.98" y="83.67"/>
<use xlink:href="#p0" x="451.09" y="82.51"/>
<use xlink:href="#p0" x="452.14" y="81.35"/>
<use xlink:href="#p0" x="452.18" y="80.19"/>
<use xlink:href="#p0" x="452.18" y="79.03"/>
<use xlink:href="#p0" x="452.53" y="77.87"/>
<use xlink:href="#p0" x="453.11" y="76.71"/>
<use xlink:href="#p0" x="453.82" y="75.55"/>
<use xlink:href="#p0" x="456.45" y="74.39"/>
<use xlink:href="#p0" x="458.09" y="73.23"/>
<use xlink:href="#p0" x="458.54" y="72.07"/>
<use xlink:href="#p0" x="459.12" y="70.91"/>
<use xlink:href="#p0" x="459.22" y="69.75"/>
<use xlink:href="#p0" x="459.32" y="68.58"/>
<use xlink:href="#p0" x="460.1" y="67.42"/>
<use xlink:href="#p0" x="463.4" y="66.26"/>
<use xlink:href="#p0" x="465.71" y="65.1"/>
<use xlink:href="#p0" x="466.17" y="63.94"/>
<use xlink:href="#p0" x="466.28" y="62.78"/>
<use xlink:href="#p0" x="466.65" y="61.62"/>
<use xlink:href="#p0" x="467.81" y="60.46"/>
<use xlink:href="#p0" x="469.8" y="59.3"/>
<use xlink:href="#p0" x="473.9" y="58.14"/>
<use xlink:href="#p0" x="478.47" y="56.98"/>
<use xlink:href="#p0" x="479.24" y="55.82"/>
<use xlink:href="#p0" x="479.3" y="54.66"/>
</g>
</g>
<g clip-path="url(#c0)">
<g fill="none" stroke-linecap="butt" stroke-width="0.62">
<path d="M60.23,471.25l0,-464.17"/>
<path d="M60.23,471.25l3.75,0M60.23,448.05l3.75,0M60.23,424.84l3.75,0M60.23,401.63l3.75,0M60.23,378.42l3.75,0M60.23,355.21l3.75,0M60.23,332l3.75,0M60.23,308.79l3.75,0M60.23,285.59l3.75,0M60.23,262.38l3.75,0M60.23,239.17l3.75,0M60.23,215.96l3.75,0M60.23,192.75l3.75,0M60.23,169.54l3.75,0M60.23,146.33l3.75,0M60.23,123.12l3.75,0M60.23,99.92l3.75,0M60.23,76.71l3.75,0M60.23,53.5l3.75,0M60.23,30.29l3.75,0M60.23,7.08l3.75,0"/>
<path d="M60.23,471.25l7.5,0M60.23,355.21l7.5,0M60.23,239.17l7.5,0M60.23,123.12l7.5,0M60.23,7.08l7.5,0"/>
</g>
<g fill="none" stroke-width="0.1">
<g transform="matrix(0 -1 1 0 16.3 313.18)">
<g stroke="none" fill="#000000" fill-opacity="1" font-family="Serif" font-size="17.500000000000004">
<text x="0" y="0" textLength="148.02">Number of hosts</text>
</g>
</g>
<g stroke="none" fill="#000000" fill-opacity="1" font-family="Serif" font-size="17.500000000000004">
<text x="45" y="477.9" textLength="11.13">0</text>
<text x="22.73" y="361.86" textLength="33.39">100</text>
<text x="22.73" y="245.82" textLength="33.39">200</text>
<text x="22.73" y="129.77" textLength="33.39">300</text>
<text x="22.73" y="17.4" textLength="33.39">400</text>
</g>
</g>
<g fill="none" stroke-linecap="butt" stroke-width="0.62">
<path d="M60.23,471.25l464.17,0"/>
<path d="M67.85,471.25l0,3.75M105.94,471.25l0,3.75M144.03,471.25l0,3.75M182.13,471.25l0,3.75M220.22,471.25l0,3.75M258.31,471.25l0,3.75M296.4,471.25l0,3.75M334.5,471.25l0,3.75M372.59,471.25l0,3.75M410.68,471.25l0,3.75M448.77,471.25l0,3.75M486.87,471.25l0,3.75"/>
<path d="M67.85,471.25l0,7.5M144.03,471.25l0,7.5M220.22,471.25l0,7.5M296.4,471.25l0,7.5M372.59,471.25l0,7.5M448.77,471.25l0,7.5"/>
</g>
<g fill="none" stroke-width="0.1">
<g stroke="none" fill="#000000" fill-opacity="1" font-family="Serif" font-size="17.500000000000004">
<text x="255.25" y="523.65" textLength="74.12">Seconds</text>
<text x="62.28" y="499.15" textLength="11.13">0</text>
<text x="110.64" y="499.15" textLength="66.79">100000</text>
<text x="186.82" y="499.15" textLength="66.79">200000</text>
<text x="263.01" y="499.15" textLength="66.79">300000</text>
<text x="339.19" y="499.15" textLength="66.79">400000</text>
<text x="415.37" y="499.15" textLength="66.79">500000</text>
</g>
</g>
<g fill="none" stroke-linecap="butt" stroke-width="0.62">
<path d="M524.4,471.25l0,-464.17"/>
<path d="M524.4,471.25l-3.75,0M524.4,448.05l-3.75,0M524.4,424.84l-3.75,0M524.4,401.63l-3.75,0M524.4,378.42l-3.75,0M524.4,355.21l-3.75,0M524.4,332l-3.75,0M524.4,308.79l-3.75,0M524.4,285.59l-3.75,0M524.4,262.38l-3.75,0M524.4,239.17l-3.75,0M524.4,215.96l-3.75,0M524.4,192.75l-3.75,0M524.4,169.54l-3.75,0M524.4,146.33l-3.75,0M524.4,123.12l-3.75,0M524.4,99.92l-3.75,0M524.4,76.71l-3.75,0M524.4,53.5l-3.75,0M524.4,30.29l-3.75,0M524.4,7.08l-3.75,0"/>
<path d="M524.4,471.25l-7.5,0M524.4,355.21l-7.5,0M524.4,239.17l-7.5,0M524.4,123.12l-7.5,0M524.4,7.08l-7.5,0"/>
<path d="M60.23,7.08l464.17,0"/>
<path d="M67.85,7.08l0,-3.75M105.94,7.08l0,-3.75M144.03,7.08l0,-3.75M182.13,7.08l0,-3.75M220.22,7.08l0,-3.75M258.31,7.08l0,-3.75M296.4,7.08l0,-3.75M334.5,7.08l0,-3.75M372.59,7.08l0,-3.75M410.68,7.08l0,-3.75M448.77,7.08l0,-3.75M486.87,7.08l0,-3.75"/>
<path d="M67.85,7.08l0,-7.5M144.03,7.08l0,-7.5M220.22,7.08l0,-7.5M296.4,7.08l0,-7.5M372.59,7.08l0,-7.5M448.77,7.08l0,-7.5"/>
</g>
<g fill="none" stroke-width="0.62">
<path d="m243.95,205.86l280.45,0l0,217.59l-280.45,0l0,-217.59"/>
</g>
</g>
<g clip-path="url(#c2)">
<g fill="#377eb8" stroke-linejoin="miter" stroke-width="0.62">
<use xlink:href="#p0" x="468.44" y="422.02"/>
<use xlink:href="#p0" x="420.89" y="420.59"/>
<use xlink:href="#p0" x="465.26" y="417.73"/>
<use xlink:href="#p0" x="423.4" y="416.3"/>
<use xlink:href="#p0" x="516.78" y="414.87"/>
<use xlink:href="#p0" x="430.62" y="413.43"/>
<use xlink:href="#p0" x="405.38" y="412"/>
<use xlink:href="#p0" x="523.2" y="407.71"/>
<use xlink:href="#p0" x="425.46" y="404.84"/>
<use xlink:href="#p0" x="432.78" y="403.41"/>
<use xlink:href="#p0" x="500.19" y="401.98"/>
<use xlink:href="#p0" x="473.04" y="400.55"/>
<use xlink:href="#p0" x="401.99" y="399.12"/>
<use xlink:href="#p0" x="483.24" y="397.68"/>
<use xlink:href="#p0" x="462.81" y="396.25"/>
<use xlink:href="#p0" x="427.85" y="394.82"/>
<use xlink:href="#p0" x="428.22" y="393.39"/>
<use xlink:href="#p0" x="460.74" y="391.96"/>
<use xlink:href="#p0" x="474.72" y="389.09"/>
<use xlink:href="#p0" x="522.57" y="387.66"/>
<use xlink:href="#p0" x="277.48" y="386.23"/>
<use xlink:href="#p0" x="417.6" y="384.8"/>
<use xlink:href="#p0" x="438.89" y="383.37"/>
<use xlink:href="#p0" x="419" y="381.93"/>
<use xlink:href="#p0" x="431.53" y="379.07"/>
<use xlink:href="#p0" x="462.94" y="377.64"/>
<use xlink:href="#p0" x="416.65" y="376.21"/>
<use xlink:href="#p0" x="431.05" y="374.78"/>
<use xlink:href="#p0" x="406.92" y="373.34"/>
<use xlink:href="#p0" x="422.51" y="371.91"/>
<use xlink:href="#p0" x="466.54" y="369.05"/>
<use xlink:href="#p0" x="405.52" y="366.18"/>
<use xlink:href="#p0" x="437.49" y="363.32"/>
<use xlink:href="#p0" x="422" y="361.89"/>
<use xlink:href="#p0" x="419.82" y="359.03"/>
<use xlink:href="#p0" x="511.48" y="356.16"/>
<use xlink:href="#p0" x="421.56" y="353.3"/>
<use xlink:href="#p0" x="461.34" y="351.87"/>
<use xlink:href="#p0" x="424.68" y="350.44"/>
<use xlink:href="#p0" x="412.64" y="347.57"/>
<use xlink:href="#p0" x="440.89" y="346.14"/>
<use xlink:href="#p0" x="436.84" y="344.71"/>
<use xlink:href="#p0" x="447.69" y="343.28"/>
<use xlink:href="#p0" x="430.07" y="340.41"/>
<use xlink:href="#p0" x="451.76" y="338.98"/>
<use xlink:href="#p0" x="439.55" y="337.55"/>
<use xlink:href="#p0" x="426.06" y="336.12"/>
<use xlink:href="#p0" x="420.03" y="334.69"/>
<use xlink:href="#p0" x="470.63" y="331.82"/>
<use xlink:href="#p0" x="517.14" y="330.39"/>
<use xlink:href="#p0" x="349.48" y="328.96"/>
<use xlink:href="#p0" x="409.96" y="327.53"/>
<use xlink:href="#p0" x="244.3" y="326.1"/>
<use xlink:href="#p0" x="427.06" y="323.23"/>
<use xlink:href="#p0" x="325.85" y="321.8"/>
<use xlink:href="#p0" x="440.44" y="320.37"/>
<use xlink:href="#p0" x="503.92" y="318.94"/>
<use xlink:href="#p0" x="518.8" y="317.5"/>
<use xlink:href="#p0" x="422.35" y="316.07"/>
<use xlink:href="#p0" x="511.25" y="314.64"/>
<use xlink:href="#p0" x="404.81" y="313.21"/>
<use xlink:href="#p0" x="499.98" y="311.78"/>
<use xlink:href="#p0" x="450.46" y="310.35"/>
<use xlink:href="#p0" x="414.91" y="308.91"/>
<use xlink:href="#p0" x="429.1" y="306.05"/>
<use xlink:href="#p0" x="430.63" y="304.62"/>
<use xlink:href="#p0" x="434.18" y="303.19"/>
<use xlink:href="#p0" x="474.99" y="301.76"/>
<use xlink:href="#p0" x="478.94" y="300.32"/>
<use xlink:href="#p0" x="421.97" y="298.89"/>
<use xlink:href="#p0" x="428.01" y="296.03"/>
<use xlink:href="#p0" x="423.82" y="293.16"/>
<use xlink:href="#p0" x="451.56" y="291.73"/>
<use xlink:href="#p0" x="477.83" y="290.3"/>
<use xlink:href="#p0" x="415.52" y="288.87"/>
<use xlink:href="#p0" x="449.14" y="287.44"/>
<use xlink:href="#p0" x="319.09" y="284.57"/>
<use xlink:href="#p0" x="467.27" y="283.14"/>
<use xlink:href="#p0" x="424.33" y="280.28"/>
<use xlink:href="#p0" x="492.17" y="278.85"/>
<use xlink:href="#p0" x="244.3" y="277.41"/>
<use xlink:href="#p0" x="479.35" y="275.98"/>
<use xlink:href="#p0" x="414.37" y="274.55"/>
<use xlink:href="#p0" x="424.8" y="273.12"/>
<use xlink:href="#p0" x="433.86" y="271.69"/>
<use xlink:href="#p0" x="459.44" y="268.82"/>
<use xlink:href="#p0" x="393.37" y="267.39"/>
<use xlink:href="#p0" x="436.8" y="261.67"/>
<use xlink:href="#p0" x="244.31" y="260.23"/>
<use xlink:href="#p0" x="411.71" y="258.8"/>
<use xlink:href="#p0" x="425.07" y="257.37"/>
<use xlink:href="#p0" x="429.08" y="255.94"/>
<use xlink:href="#p0" x="244.31" y="254.51"/>
<use xlink:href="#p0" x="244.25" y="253.07"/>
<use xlink:href="#p0" x="412.17" y="250.21"/>
<use xlink:href="#p0" x="494.31" y="248.78"/>
<use xlink:href="#p0" x="244.31" y="247.35"/>
<use xlink:href="#p0" x="456.07" y="245.92"/>
<use xlink:href="#p0" x="525.99" y="243.05"/>
<use xlink:href="#p0" x="508.67" y="241.62"/>
<use xlink:href="#p0" x="433.19" y="238.76"/>
<use xlink:href="#p0" x="244.32" y="235.89"/>
<use xlink:href="#p0" x="430.45" y="234.46"/>
<use xlink:href="#p0" x="244.32" y="233.03"/>
<use xlink:href="#p0" x="440.82" y="231.6"/>
<use xlink:href="#p0" x="435.9" y="230.17"/>
<use xlink:href="#p0" x="505.31" y="228.73"/>
<use xlink:href="#p0" x="471.04" y="227.3"/>
<use xlink:href="#p0" x="415.86" y="225.87"/>
<use xlink:href="#p0" x="469.68" y="224.44"/>
<use xlink:href="#p0" x="420.5" y="223.01"/>
<use xlink:href="#p0" x="432.31" y="221.58"/>
<use xlink:href="#p0" x="435.14" y="220.14"/>
<use xlink:href="#p0" x="244.31" y="217.28"/>
<use xlink:href="#p0" x="448.97" y="215.85"/>
<use xlink:href="#p0" x="434.32" y="214.42"/>
<use xlink:href="#p0" x="403.56" y="212.99"/>
<use xlink:href="#p0" x="427.13" y="211.55"/>
<use xlink:href="#p0" x="418.6" y="210.12"/>
<use xlink:href="#p0" x="396.36" y="208.69"/>
<use xlink:href="#p0" x="429.28" y="205.83"/>
</g>
<g fill="none" stroke="#e41a1c" stroke-width="0.62">
<polyline fill="none" points="244.24,422.02 244.24,420.59 244.24,419.16 244.24,417.73 244.24,416.3 244.24,414.87 244.24,413.43 244.24,412 244.24,410.57 244.24,409.14 244.24,407.71 244.24,406.27 244.24,404.84 244.24,403.41 244.24,401.98 244.24,400.55 244.24,399.12 244.24,397.68 244.24,396.25 244.24,394.82 244.24,393.39 244.24,391.96 244.24,390.52 244.24,389.09 244.24,387.66 244.24,386.23 244.24,384.8 244.24,383.37 244.24,381.93 244.24,380.5 244.24,379.07 244.24,377.64 244.24,376.21 244.24,374.78 244.24,373.34 244.25,371.91 244.25,370.48 244.25,369.05 244.25,367.62 244.25,366.18 244.25,364.75 244.25,363.32 244.25,361.89 244.25,360.46 244.25,359.03 244.25,357.59 244.25,356.16 244.25,354.73 244.25,353.3 244.25,351.87 244.25,350.44 244.25,349 244.25,347.57 244.25,346.14 244.25,344.71 244.25,343.28 244.25,341.84 244.25,340.41 244.25,338.98 244.25,337.55 244.25,336.12 244.25,334.69 244.25,333.25 244.25,331.82 244.25,330.39 244.25,328.96 244.25,327.53 244.25,326.1 244.25,324.66 244.25,323.23 244.25,321.8 244.25,320.37 244.25,318.94 244.25,317.5 244.25,316.07 244.25,314.64 244.25,313.21 244.25,311.78 244.25,310.35 244.25,308.91 244.25,307.48 244.25,306.05 244.25,304.62 244.25,303.19 244.25,301.76 244.25,300.32 244.25,298.89 244.25,297.46 244.25,296.03 244.25,294.6 244.25,293.16 244.25,291.73 244.25,290.3 244.25,288.87 244.25,287.44 244.25,286.01 244.25,284.57 244.25,283.14 244.25,281.71 244.25,280.28 244.25,278.85 244.25,277.41 244.25,275.98 244.25,274.55 244.25,273.12 244.25,271.69 244.25,270.26 244.25,268.82 244.25,267.39 244.25,265.96 244.25,264.53 244.25,263.1 244.25,261.67 244.25,260.23 244.25,258.8 244.25,257.37 244.25,255.94 244.25,254.51 244.25,253.07 244.25,251.64 244.25,250.21 244.25,248.78 244.25,247.35 244.25,245.92 244.25,244.48 244.25,243.05 244.25,241.62 244.25,240.19 244.25,238.76 244.25,237.33 244.25,235.89 244.25,234.46 244.25,233.03 244.25,231.6 244.25,230.17 244.26,228.73 244.26,227.3 244.26,225.87 244.26,224.44 244.26,223.01 244.26,221.58 244.26,220.14 244.26,218.71 244.26,217.28 244.26,215.85 244.26,214.42 244.26,212.99 244.26,211.55 244.31,210.12 244.31,208.69 244.31,208.06"/>
</g>
<g fill="#e41a1c" stroke-linejoin="miter" stroke-width="0.62">
<use xlink:href="#p0" x="244.24" y="422.02"/>
<use xlink:href="#p0" x="244.24" y="420.59"/>
<use xlink:href="#p0" x="244.24" y="419.16"/>
<use xlink:href="#p0" x="244.24" y="417.73"/>
<use xlink:href="#p0" x="244.24" y="416.3"/>
<use xlink:href="#p0" x="244.24" y="414.87"/>
<use xlink:href="#p0" x="244.24" y="413.43"/>
<use xlink:href="#p0" x="244.24" y="412"/>
<use xlink:href="#p0" x="244.24" y="410.57"/>
<use xlink:href="#p0" x="244.24" y="409.14"/>
<use xlink:href="#p0" x="244.24" y="407.71"/>
<use xlink:href="#p0" x="244.24" y="406.27"/>
<use xlink:href="#p0" x="244.24" y="404.84"/>
<use xlink:href="#p0" x="244.24" y="403.41"/>
<use xlink:href="#p0" x="244.24" y="401.98"/>
<use xlink:href="#p0" x="244.24" y="400.55"/>
<use xlink:href="#p0" x="244.24" y="399.12"/>
<use xlink:href="#p0" x="244.24" y="397.68"/>
<use xlink:href="#p0" x="244.24" y="396.25"/>
<use xlink:href="#p0" x="244.24" y="394.82"/>
<use xlink:href="#p0" x="244.24" y="393.39"/>
<use xlink:href="#p0" x="244.24" y="391.96"/>
<use xlink:href="#p0" x="244.24" y="390.52"/>
<use xlink:href="#p0" x="244.24" y="389.09"/>
<use xlink:href="#p0" x="244.24" y="387.66"/>
<use xlink:href="#p0" x="244.24" y="386.23"/>
<use xlink:href="#p0" x="244.24" y="384.8"/>
<use xlink:href="#p0" x="244.24" y="383.37"/>
<use xlink:href="#p0" x="244.24" y="381.93"/>
<use xlink:href="#p0" x="244.24" y="380.5"/>
<use xlink:href="#p0" x="244.24" y="379.07"/>
<use xlink:href="#p0" x="244.24" y="377.64"/>
<use xlink:href="#p0" x="244.24" y="376.21"/>
<use xlink:href="#p0" x="244.24" y="374.78"/>
<use xlink:href="#p0" x="244.24" y="373.34"/>
<use xlink:href="#p0" x="244.25" y="371.91"/>
<use xlink:href="#p0" x="244.25" y="370.48"/>
<use xlink:href="#p0" x="244.25" y="369.05"/>
<use xlink:href="#p0" x="244.25" y="367.62"/>
<use xlink:href="#p0" x="244.25" y="366.18"/>
<use xlink:href="#p0" x="244.25" y="364.75"/>
<use xlink:href="#p0" x="244.25" y="363.32"/>
<use xlink:href="#p0" x="244.25" y="361.89"/>
<use xlink:href="#p0" x="244.25" y="360.46"/>
<use xlink:href="#p0" x="244.25" y="359.03"/>
<use xlink:href="#p0" x="244.25" y="357.59"/>
<use xlink:href="#p0" x="244.25" y="356.16"/>
<use xlink:href="#p0" x="244.25" y="354.73"/>
<use xlink:href="#p0" x="244.25" y="353.3"/>
<use xlink:href="#p0" x="244.25" y="351.87"/>
<use xlink:href="#p0" x="244.25" y="350.44"/>
<use xlink:href="#p0" x="244.25" y="349"/>
<use xlink:href="#p0" x="244.25" y="347.57"/>
<use xlink:href="#p0" x="244.25" y="346.14"/>
<use xlink:href="#p0" x="244.25" y="344.71"/>
<use xlink:href="#p0" x="244.25" y="343.28"/>
<use xlink:href="#p0" x="244.25" y="341.84"/>
<use xlink:href="#p0" x="244.25" y="340.41"/>
<use xlink:href="#p0" x="244.25" y="338.98"/>
<use xlink:href="#p0" x="244.25" y="337.55"/>
<use xlink:href="#p0" x="244.25" y="336.12"/>
<use xlink:href="#p0" x="244.25" y="334.69"/>
<use xlink:href="#p0" x="244.25" y="333.25"/>
<use xlink:href="#p0" x="244.25" y="331.82"/>
<use xlink:href="#p0" x="244.25" y="330.39"/>
<use xlink:href="#p0" x="244.25" y="328.96"/>
<use xlink:href="#p0" x="244.25" y="327.53"/>
<use xlink:href="#p0" x="244.25" y="326.1"/>
<use xlink:href="#p0" x="244.25" y="324.66"/>
<use xlink:href="#p0" x="244.25" y="323.23"/>
<use xlink:href="#p0" x="244.25" y="321.8"/>
<use xlink:href="#p0" x="244.25" y="320.37"/>
<use xlink:href="#p0" x="244.25" y="318.94"/>
<use xlink:href="#p0" x="244.25" y="317.5"/>
<use xlink:href="#p0" x="244.25" y="316.07"/>
<use xlink:href="#p0" x="244.25" y="314.64"/>
<use xlink:href="#p0" x="244.25" y="313.21"/>
<use xlink:href="#p0" x="244.25" y="311.78"/>
<use xlink:href="#p0" x="244.25" y="310.35"/>
<use xlink:href="#p0" x="244.25" y="308.91"/>
<use xlink:href="#p0" x="244.25" y="307.48"/>
<use xlink:href="#p0" x="244.25" y="306.05"/>
<use xlink:href="#p0" x="244.25" y="304.62"/>
<use xlink:href="#p0" x="244.25" y="303.19"/>
<use xlink:href="#p0" x="244.25" y="301.76"/>
<use xlink:href="#p0" x="244.25" y="300.32"/>
<use xlink:href="#p0" x="244.25" y="298.89"/>
<use xlink:href="#p0" x="244.25" y="297.46"/>
<use xlink:href="#p0" x="244.25" y="296.03"/>
<use xlink:href="#p0" x="244.25" y="294.6"/>
<use xlink:href="#p0" x="244.25" y="293.16"/>
<use xlink:href="#p0" x="244.25" y="291.73"/>
<use xlink:href="#p0" x="244.25" y="290.3"/>
<use xlink:href="#p0" x="244.25" y="288.87"/>
<use xlink:href="#p0" x="244.25" y="287.44"/>
<use xlink:href="#p0" x="244.25" y="286.01"/>
<use xlink:href="#p0" x="244.25" y="284.57"/>
<use xlink:href="#p0" x="244.25" y="283.14"/>
<use xlink:href="#p0" x="244.25" y="281.71"/>
<use xlink:href="#p0" x="244.25" y="280.28"/>
<use xlink:href="#p0" x="244.25" y="278.85"/>
<use xlink:href="#p0" x="244.25" y="277.41"/>
<use xlink:href="#p0" x="244.25" y="275.98"/>
<use xlink:href="#p0" x="244.25" y="274.55"/>
<use xlink:href="#p0" x="244.25" y="273.12"/>
<use xlink:href="#p0" x="244.25" y="271.69"/>
<use xlink:href="#p0" x="244.25" y="270.26"/>
<use xlink:href="#p0" x="244.25" y="268.82"/>
<use xlink:href="#p0" x="244.25" y="267.39"/>
<use xlink:href="#p0" x="244.25" y="265.96"/>
<use xlink:href="#p0" x="244.25" y="264.53"/>
<use xlink:href="#p0" x="244.25" y="263.1"/>
<use xlink:href="#p0" x="244.25" y="261.67"/>
<use xlink:href="#p0" x="244.25" y="260.23"/>
<use xlink:href="#p0" x="244.25" y="258.8"/>
<use xlink:href="#p0" x="244.25" y="257.37"/>
<use xlink:href="#p0" x="244.25" y="255.94"/>
<use xlink:href="#p0" x="244.25" y="254.51"/>
<use xlink:href="#p0" x="244.25" y="253.07"/>
<use xlink:href="#p0" x="244.25" y="251.64"/>
<use xlink:href="#p0" x="244.25" y="250.21"/>
<use xlink:href="#p0" x="244.25" y="248.78"/>
<use xlink:href="#p0" x="244.25" y="247.35"/>
<use xlink:href="#p0" x="244.25" y="245.92"/>
<use xlink:href="#p0" x="244.25" y="244.48"/>
<use xlink:href="#p0" x="244.25" y="243.05"/>
<use xlink:href="#p0" x="244.25" y="241.62"/>
<use xlink:href="#p0" x="244.25" y="240.19"/>
<use xlink:href="#p0" x="244.25" y="238.76"/>
<use xlink:href="#p0" x="244.25" y="237.33"/>
<use xlink:href="#p0" x="244.25" y="235.89"/>
<use xlink:href="#p0" x="244.25" y="234.46"/>
<use xlink:href="#p0" x="244.25" y="233.03"/>
<use xlink:href="#p0" x="244.25" y="231.6"/>
<use xlink:href="#p0" x="244.25" y="230.17"/>
<use xlink:href="#p0" x="244.26" y="228.73"/>
<use xlink:href="#p0" x="244.26" y="227.3"/>
<use xlink:href="#p0" x="244.26" y="225.87"/>
<use xlink:href="#p0" x="244.26" y="224.44"/>
<use xlink:href="#p0" x="244.26" y="223.01"/>
<use xlink:href="#p0" x="244.26" y="221.58"/>
<use xlink:href="#p0" x="244.26" y="220.14"/>
<use xlink:href="#p0" x="244.26" y="218.71"/>
<use xlink:href="#p0" x="244.26" y="217.28"/>
<use xlink:href="#p0" x="244.26" y="215.85"/>
<use xlink:href="#p0" x="244.26" y="214.42"/>
<use xlink:href="#p0" x="244.26" y="212.99"/>
<use xlink:href="#p0" x="244.26" y="211.55"/>
<use xlink:href="#p0" x="244.31" y="210.12"/>
<use xlink:href="#p0" x="244.31" y="208.69"/>
<use xlink:href="#p0" x="244.31" y="207.26"/>
<use xlink:href="#p0" x="244.31" y="205.83"/>
</g>
</g>
<g clip-path="url(#c0)">
<g fill="none" stroke-linecap="butt" stroke-width="0.62">
<path d="M243.95,423.46l0,-214.76"/>
<path d="M243.95,423.46l3.75,0M243.95,416.3l3.75,0M243.95,409.14l3.75,0M243.95,401.98l3.75,0M243.95,394.82l3.75,0M243.95,387.66l3.75,0M243.95,380.5l3.75,0M243.95,373.34l3.75,0M243.95,366.18l3.75,0M243.95,359.03l3.75,0M243.95,351.87l3.75,0M243.95,344.71l3.75,0M243.95,337.55l3.75,0M243.95,330.39l3.75,0M243.95,323.23l3.75,0M243.95,316.07l3.75,0M243.95,308.91l3.75,0M243.95,301.76l3.75,0M243.95,294.6l3.75,0M243.95,287.44l3.75,0M243.95,280.28l3.75,0M243.95,273.12l3.75,0M243.95,265.96l3.75,0M243.95,258.8l3.75,0M243.95,251.64l3.75,0M243.95,244.48l3.75,0M243.95,237.33l3.75,0M243.95,230.17l3.75,0M243.95,223.01l3.75,0M243.95,215.85l3.75,0M243.95,208.69l3.75,0"/>
<path d="M243.95,423.46l7.5,0M243.95,387.66l7.5,0M243.95,351.87l7.5,0M243.95,316.07l7.5,0M243.95,280.28l7.5,0M243.95,244.48l7.5,0M243.95,208.69l7.5,0"/>
</g>
<g fill="none" stroke-width="0.1">
<g stroke="none" fill="#000000" fill-opacity="1" font-family="Serif" font-size="17.500000000000004">
<text x="228.72" y="430.11" textLength="11.13">0</text>
<text x="217.59" y="394.31" textLength="22.26">25</text>
<text x="217.59" y="358.52" textLength="22.26">50</text>
<text x="217.59" y="322.72" textLength="22.26">75</text>
<text x="206.45" y="286.93" textLength="33.39">100</text>
<text x="206.45" y="251.13" textLength="33.39">125</text>
<text x="206.45" y="215.34" textLength="33.39">150</text>
</g>
</g>
<g fill="none" stroke-linecap="butt" stroke-width="0.62">
<path d="M243.95,423.46l280.45,0"/>
<path d="M244.23,423.46l0,-3.75M255.44,423.46l0,-3.75M266.65,423.46l0,-3.75M277.85,423.46l0,-3.75M289.06,423.46l0,-3.75M300.27,423.46l0,-3.75M311.47,423.46l0,-3.75M322.68,423.46l0,-3.75M333.89,423.46l0,-3.75M345.09,423.46l0,-3.75M356.3,423.46l0,-3.75M367.51,423.46l0,-3.75M378.71,423.46l0,-3.75M389.92,423.46l0,-3.75M401.13,423.46l0,-3.75M412.34,423.46l0,-3.75M423.54,423.46l0,-3.75M434.75,423.46l0,-3.75M445.96,423.46l0,-3.75M457.16,423.46l0,-3.75M468.37,423.46l0,-3.75M479.58,423.46l0,-3.75M490.78,423.46l0,-3.75M501.99,423.46l0,-3.75M513.2,423.46l0,-3.75M524.4,423.46l0,-3.75"/>
<path d="M244.23,423.46l0,-7.5M300.27,423.46l0,-7.5M356.3,423.46l0,-7.5M412.34,423.46l0,-7.5M468.37,423.46l0,-7.5M524.4,423.46l0,-7.5"/>
</g>
<g fill="none" stroke-width="0.1">
<g stroke="none" fill="#000000" fill-opacity="1" font-family="Serif" font-size="17.500000000000004">
<text x="238.67" y="443.86" textLength="11.13">0</text>
<text x="278" y="443.86" textLength="44.53">1000</text>
<text x="334.03" y="443.86" textLength="44.53">2000</text>
<text x="390.07" y="443.86" textLength="44.53">3000</text>
<text x="446.1" y="443.86" textLength="44.53">4000</text>
</g>
</g>
<g fill="none" stroke-linecap="butt" stroke-width="0.62">
<path d="M524.4,423.46l0,-214.76"/>
<path d="M524.4,423.46l-3.75,0M524.4,416.3l-3.75,0M524.4,409.14l-3.75,0M524.4,401.98l-3.75,0M524.4,394.82l-3.75,0M524.4,387.66l-3.75,0M524.4,380.5l-3.75,0M524.4,373.34l-3.75,0M524.4,366.18l-3.75,0M524.4,359.03l-3.75,0M524.4,351.87l-3.75,0M524.4,344.71l-3.75,0M524.4,337.55l-3.75,0M524.4,330.39l-3.75,0M524.4,323.23l-3.75,0M524.4,316.07l-3.75,0M524.4,308.91l-3.75,0M524.4,301.76l-3.75,0M524.4,294.6l-3.75,0M524.4,287.44l-3.75,0M524.4,280.28l-3.75,0M524.4,273.12l-3.75,0M524.4,265.96l-3.75,0M524.4,258.8l-3.75,0M524.4,251.64l-3.75,0M524.4,244.48l-3.75,0M524.4,237.33l-3.75,0M524.4,230.17l-3.75,0M524.4,223.01l-3.75,0M524.4,215.85l-3.75,0M524.4,208.69l-3.75,0"/>
<path d="M524.4,423.46l-7.5,0M524.4,387.66l-7.5,0M524.4,351.87l-7.5,0M524.4,316.07l-7.5,0M524.4,280.28l-7.5,0M524.4,244.48l-7.5,0M524.4,208.69l-7.5,0"/>
<path d="M243.95,205.86l280.45,0"/>
<path d="M244.23,205.86l0,3.75M255.44,205.86l0,3.75M266.65,205.86l0,3.75M277.85,205.86l0,3.75M289.06,205.86l0,3.75M300.27,205.86l0,3.75M311.47,205.86l0,3.75M322.68,205.86l0,3.75M333.89,205.86l0,3.75M345.09,205.86l0,3.75M356.3,205.86l0,3.75M367.51,205.86l0,3.75M378.71,205.86l0,3.75M389.92,205.86l0,3.75M401.13,205.86l0,3.75M412.34,205.86l0,3.75M423.54,205.86l0,3.75M434.75,205.86l0,3.75M445.96,205.86l0,3.75M457.16,205.86l0,3.75M468.37,205.86l0,3.75M479.58,205.86l0,3.75M490.78,205.86l0,3.75M501.99,205.86l0,3.75M513.2,205.86l0,3.75M524.4,205.86l0,3.75"/>
<path d="M244.23,205.86l0,7.5M300.27,205.86l0,7.5M356.3,205.86l0,7.5M412.34,205.86l0,7.5M468.37,205.86l0,7.5M524.4,205.86l0,7.5"/>
</g>
</g>
</g>
</svg>
