<svg version="1.1" xmlns="http://www.w3.org/2000/svg" viewBox="0 0 999.0372380070637 436.0129980661152" width="999.0372380070637" height="436.0129980661152">
  <!-- svg-source:excalidraw -->
  
  <defs>
    <style class="style-fonts">
  @font-face {
    font-family: Excalifont;
    src: url("https://docs.velociraptor.app/fonts/playpen-sans-v13-latin-500.woff2");
  }
  @font-face {
    font-family: Nunito;
    src: url("https://docs.velociraptor.app/fonts/playpen-sans-v13-latin-800.woff2");
  }
  @font-face {
    font-family: Comic Shanns;
    src: url("https://docs.velociraptor.app/fonts/SVBasicManual.woff2");
  }
</style>

    
  </defs>
  <rect x="0" y="0" width="999.0372380070637" height="436.0129980661152" fill="#ffffff"></rect><g stroke-linecap="round"><g transform="translate(445.44945576138207 151.81990170003084) rotate(0 116.965791436112 -5.927996766634777)"><path d="M-1.14 -0.57 C21.82 -1.66, 98.25 -5.36, 137.57 -7.11 C176.89 -8.85, 218.79 -10.42, 234.79 -11.02 M0.46 1.75 C23.28 0.84, 97.65 -3.57, 136.65 -6.01 C175.66 -8.46, 218.31 -11.82, 234.47 -12.92" stroke="#1e1e1e" stroke-width="4" fill="none"></path></g><g transform="translate(445.44945576138207 151.81990170003084) rotate(0 116.965791436112 -5.927996766634777)"><path d="M21.92 -10.23 C14.37 -7.6, 7.34 -3.53, -1.14 -0.57 M21.92 -10.23 C13.99 -6.86, 5.22 -2.04, -1.14 -0.57" stroke="#1e1e1e" stroke-width="4" fill="none"></path></g><g transform="translate(445.44945576138207 151.81990170003084) rotate(0 116.965791436112 -5.927996766634777)"><path d="M22.73 6.85 C15.03 4.62, 7.78 3.84, -1.14 -0.57 M22.73 6.85 C14.56 3.91, 5.48 2.41, -1.14 -0.57" stroke="#1e1e1e" stroke-width="4" fill="none"></path></g><g transform="translate(445.44945576138207 151.81990170003084) rotate(0 116.965791436112 -5.927996766634777)"><path d="M211.66 -2.69 C217.25 -5.28, 223.26 -6.86, 234.47 -12.92 M211.66 -2.69 C220.77 -7.13, 228.95 -9.67, 234.47 -12.92" stroke="#1e1e1e" stroke-width="4" fill="none"></path></g><g transform="translate(445.44945576138207 151.81990170003084) rotate(0 116.965791436112 -5.927996766634777)"><path d="M210.42 -19.75 C216.28 -17.47, 222.64 -14.21, 234.47 -12.92 M210.42 -19.75 C219.93 -17.89, 228.58 -14.12, 234.47 -12.92" stroke="#1e1e1e" stroke-width="4" fill="none"></path></g></g><mask></mask><g stroke-linecap="round" transform="translate(609.9429951493275 53.45509655671117) rotate(0 141.13614093094156 186.27895071400013)"><path d="M32 0 C105.66 2, 182.01 -0.98, 250.27 0 M32 0 C78.16 2.12, 123.53 1.34, 250.27 0 M250.27 0 C269.66 -1.04, 283.16 8.75, 282.27 32 M250.27 0 C271.87 -0.5, 280.53 10.87, 282.27 32 M282.27 32 C283.44 150.6, 283.25 266.1, 282.27 340.56 M282.27 32 C284.81 102.44, 284.17 171.49, 282.27 340.56 M282.27 340.56 C283.24 362.76, 270.08 371.05, 250.27 372.56 M282.27 340.56 C281.58 362.13, 270.24 374.49, 250.27 372.56 M250.27 372.56 C170.51 369.33, 92.36 370.58, 32 372.56 M250.27 372.56 C190.23 374.12, 131.23 372.99, 32 372.56 M32 372.56 C11.96 373.82, 0.71 361.02, 0 340.56 M32 372.56 C11.99 374.05, -1.11 361.5, 0 340.56 M0 340.56 C-0.36 278.65, -1.87 215.01, 0 32 M0 340.56 C1.57 266.38, 1.11 191.88, 0 32 M0 32 C-0.24 12.01, 11.36 -0.15, 32 0 M0 32 C2.19 11.17, 12.63 0.73, 32 0" stroke="#1e1e1e" stroke-width="1" fill="none"></path></g><g stroke-linecap="round"><g transform="translate(729.07383952334 79.43886204818179) rotate(88.92478712645732 14.070427860823315 17.524078335752506)" fill-rule="evenodd"><path d="M0 0 C0.68 0.38, 2.73 2.05, 4.09 2.3 C5.46 2.56, 7.38 2.56, 8.19 1.53 C9 0.51, 7.63 -2.81, 8.95 -3.84 C10.28 -4.86, 14.67 -5.37, 16.12 -4.6 C17.57 -3.84, 16.76 -0.34, 17.65 0.77 C18.55 1.88, 20.25 2.22, 21.49 2.05 C22.73 1.88, 23.75 -0.47, 25.07 -0.26 C26.39 -0.04, 29.12 1.96, 29.42 3.33 C29.72 4.69, 26.86 6.44, 26.86 7.93 C26.86 9.42, 28.06 11.34, 29.42 12.28 C30.78 13.22, 33.98 12.41, 35.05 13.56 C36.11 14.71, 36.33 17.95, 35.82 19.19 C35.3 20.42, 33 20.21, 31.98 20.98 C30.95 21.75, 29.68 22.34, 29.68 23.79 C29.68 25.24, 32.23 27.97, 31.98 29.68 C31.72 31.38, 29.55 33.73, 28.14 34.02 C26.73 34.32, 24.94 31.64, 23.54 31.47 C22.13 31.3, 20.51 31.85, 19.7 33 C18.89 34.15, 19.83 37.27, 18.68 38.37 C17.52 39.48, 14.16 40.25, 12.79 39.65 C11.43 39.06, 11.55 35.9, 10.49 34.79 C9.42 33.68, 7.89 32.83, 6.4 33 C4.9 33.17, 3.16 36.11, 1.53 35.82 C-0.09 35.52, -2.9 32.7, -3.33 31.21 C-3.75 29.72, -1.19 28.18, -1.02 26.86 C-0.85 25.54, -1.28 24.13, -2.3 23.28 C-3.33 22.43, -6.27 23.02, -7.16 21.75 C-8.06 20.47, -8.23 16.93, -7.67 15.61 C-7.12 14.28, -4.69 14.58, -3.84 13.81 C-2.98 13.05, -2.47 12.24, -2.56 11 C-2.64 9.76, -4.78 8.23, -4.35 6.4 C-3.92 4.56, -0.72 1.07, 0 0" stroke="none" stroke-width="0" fill="#ced4da" fill-rule="evenodd"></path><path d="M0 0 C0.68 0.38, 2.73 2.05, 4.09 2.3 C5.46 2.56, 7.38 2.56, 8.19 1.53 C9 0.51, 7.63 -2.81, 8.95 -3.84 C10.28 -4.86, 14.67 -5.37, 16.12 -4.6 C17.57 -3.84, 16.76 -0.34, 17.65 0.77 C18.55 1.88, 20.25 2.22, 21.49 2.05 C22.73 1.88, 23.75 -0.47, 25.07 -0.26 C26.39 -0.04, 29.12 1.96, 29.42 3.33 C29.72 4.69, 26.86 6.44, 26.86 7.93 C26.86 9.42, 28.06 11.34, 29.42 12.28 C30.78 13.22, 33.98 12.41, 35.05 13.56 C36.11 14.71, 36.33 17.95, 35.82 19.19 C35.3 20.42, 33 20.21, 31.98 20.98 C30.95 21.75, 29.68 22.34, 29.68 23.79 C29.68 25.24, 32.23 27.97, 31.98 29.68 C31.72 31.38, 29.55 33.73, 28.14 34.02 C26.73 34.32, 24.94 31.64, 23.54 31.47 C22.13 31.3, 20.51 31.85, 19.7 33 C18.89 34.15, 19.83 37.27, 18.68 38.37 C17.52 39.48, 14.16 40.25, 12.79 39.65 C11.43 39.06, 11.55 35.9, 10.49 34.79 C9.42 33.68, 7.89 32.83, 6.4 33 C4.9 33.17, 3.16 36.11, 1.53 35.82 C-0.09 35.52, -2.9 32.7, -3.33 31.21 C-3.75 29.72, -1.19 28.18, -1.02 26.86 C-0.85 25.54, -1.28 24.13, -2.3 23.28 C-3.33 22.43, -6.27 23.02, -7.16 21.75 C-8.06 20.47, -8.23 16.93, -7.67 15.61 C-7.12 14.28, -4.69 14.58, -3.84 13.81 C-2.98 13.05, -2.47 12.24, -2.56 11 C-2.64 9.76, -4.78 8.23, -4.35 6.4 C-3.92 4.56, -0.72 1.07, 0 0 M0 0 C0.68 0.38, 2.73 2.05, 4.09 2.3 C5.46 2.56, 7.38 2.56, 8.19 1.53 C9 0.51, 7.63 -2.81, 8.95 -3.84 C10.28 -4.86, 14.67 -5.37, 16.12 -4.6 C17.57 -3.84, 16.76 -0.34, 17.65 0.77 C18.55 1.88, 20.25 2.22, 21.49 2.05 C22.73 1.88, 23.75 -0.47, 25.07 -0.26 C26.39 -0.04, 29.12 1.96, 29.42 3.33 C29.72 4.69, 26.86 6.44, 26.86 7.93 C26.86 9.42, 28.06 11.34, 29.42 12.28 C30.78 13.22, 33.98 12.41, 35.05 13.56 C36.11 14.71, 36.33 17.95, 35.82 19.19 C35.3 20.42, 33 20.21, 31.98 20.98 C30.95 21.75, 29.68 22.34, 29.68 23.79 C29.68 25.24, 32.23 27.97, 31.98 29.68 C31.72 31.38, 29.55 33.73, 28.14 34.02 C26.73 34.32, 24.94 31.64, 23.54 31.47 C22.13 31.3, 20.51 31.85, 19.7 33 C18.89 34.15, 19.83 37.27, 18.68 38.37 C17.52 39.48, 14.16 40.25, 12.79 39.65 C11.43 39.06, 11.55 35.9, 10.49 34.79 C9.42 33.68, 7.89 32.83, 6.4 33 C4.9 33.17, 3.16 36.11, 1.53 35.82 C-0.09 35.52, -2.9 32.7, -3.33 31.21 C-3.75 29.72, -1.19 28.18, -1.02 26.86 C-0.85 25.54, -1.28 24.13, -2.3 23.28 C-3.33 22.43, -6.27 23.02, -7.16 21.75 C-8.06 20.47, -8.23 16.93, -7.67 15.61 C-7.12 14.28, -4.69 14.58, -3.84 13.81 C-2.98 13.05, -2.47 12.24, -2.56 11 C-2.64 9.76, -4.78 8.23, -4.35 6.4 C-3.92 4.56, -0.72 1.07, 0 0" stroke="#1e1e1e" stroke-width="4" fill="none"></path></g></g><mask></mask><g stroke-linecap="round" transform="translate(733.2991672413266 86.39033038562738) rotate(88.92478712645732 9.977212483129051 9.59347354147036)"><path d="M19.95 9.59 C19.95 10.15, 19.9 10.71, 19.8 11.26 C19.7 11.81, 19.55 12.35, 19.35 12.87 C19.16 13.4, 18.91 13.91, 18.62 14.39 C18.33 14.87, 17.99 15.33, 17.62 15.76 C17.25 16.19, 16.83 16.59, 16.39 16.94 C15.95 17.3, 15.47 17.62, 14.97 17.9 C14.47 18.18, 13.93 18.42, 13.39 18.61 C12.85 18.8, 12.28 18.94, 11.71 19.04 C11.14 19.14, 10.55 19.19, 9.98 19.19 C9.4 19.19, 8.81 19.14, 8.24 19.04 C7.68 18.94, 7.11 18.8, 6.56 18.61 C6.02 18.42, 5.49 18.18, 4.99 17.9 C4.49 17.62, 4.01 17.3, 3.56 16.94 C3.12 16.59, 2.71 16.19, 2.33 15.76 C1.96 15.33, 1.63 14.87, 1.34 14.39 C1.05 13.91, 0.8 13.4, 0.6 12.87 C0.4 12.35, 0.25 11.81, 0.15 11.26 C0.05 10.71, 0 10.15, 0 9.59 C0 9.04, 0.05 8.47, 0.15 7.93 C0.25 7.38, 0.4 6.83, 0.6 6.31 C0.8 5.79, 1.05 5.28, 1.34 4.8 C1.63 4.32, 1.96 3.85, 2.33 3.43 C2.71 3, 3.12 2.6, 3.56 2.24 C4.01 1.89, 4.49 1.56, 4.99 1.29 C5.49 1.01, 6.02 0.77, 6.56 0.58 C7.11 0.39, 7.68 0.24, 8.24 0.15 C8.81 0.05, 9.4 0, 9.98 0 C10.55 0, 11.14 0.05, 11.71 0.15 C12.28 0.24, 12.85 0.39, 13.39 0.58 C13.93 0.77, 14.47 1.01, 14.97 1.29 C15.47 1.56, 15.95 1.89, 16.39 2.24 C16.83 2.6, 17.25 3, 17.62 3.43 C17.99 3.85, 18.33 4.32, 18.62 4.8 C18.91 5.28, 19.16 5.79, 19.35 6.31 C19.55 6.83, 19.7 7.38, 19.8 7.93 C19.9 8.47, 19.93 9.32, 19.95 9.59 C19.98 9.87, 19.98 9.32, 19.95 9.59" stroke="none" stroke-width="0" fill="#fff"></path><path d="M19.95 9.59 C19.95 10.15, 19.9 10.71, 19.8 11.26 C19.7 11.81, 19.55 12.35, 19.35 12.87 C19.16 13.4, 18.91 13.91, 18.62 14.39 C18.33 14.87, 17.99 15.33, 17.62 15.76 C17.25 16.19, 16.83 16.59, 16.39 16.94 C15.95 17.3, 15.47 17.62, 14.97 17.9 C14.47 18.18, 13.93 18.42, 13.39 18.61 C12.85 18.8, 12.28 18.94, 11.71 19.04 C11.14 19.14, 10.55 19.19, 9.98 19.19 C9.4 19.19, 8.81 19.14, 8.24 19.04 C7.68 18.94, 7.11 18.8, 6.56 18.61 C6.02 18.42, 5.49 18.18, 4.99 17.9 C4.49 17.62, 4.01 17.3, 3.56 16.94 C3.12 16.59, 2.71 16.19, 2.33 15.76 C1.96 15.33, 1.63 14.87, 1.34 14.39 C1.05 13.91, 0.8 13.4, 0.6 12.87 C0.4 12.35, 0.25 11.81, 0.15 11.26 C0.05 10.71, 0 10.15, 0 9.59 C0 9.04, 0.05 8.47, 0.15 7.93 C0.25 7.38, 0.4 6.83, 0.6 6.31 C0.8 5.79, 1.05 5.28, 1.34 4.8 C1.63 4.32, 1.96 3.85, 2.33 3.43 C2.71 3, 3.12 2.6, 3.56 2.24 C4.01 1.89, 4.49 1.56, 4.99 1.29 C5.49 1.01, 6.02 0.77, 6.56 0.58 C7.11 0.39, 7.68 0.24, 8.24 0.15 C8.81 0.05, 9.4 0, 9.98 0 C10.55 0, 11.14 0.05, 11.71 0.15 C12.28 0.24, 12.85 0.39, 13.39 0.58 C13.93 0.77, 14.47 1.01, 14.97 1.29 C15.47 1.56, 15.95 1.89, 16.39 2.24 C16.83 2.6, 17.25 3, 17.62 3.43 C17.99 3.85, 18.33 4.32, 18.62 4.8 C18.91 5.28, 19.16 5.79, 19.35 6.31 C19.55 6.83, 19.7 7.38, 19.8 7.93 C19.9 8.47, 19.93 9.32, 19.95 9.59 C19.98 9.87, 19.98 9.32, 19.95 9.59" stroke="#1e1e1e" stroke-width="4" fill="none"></path></g><g stroke-linecap="round"><g transform="translate(738.0775472413688 131.50144868152424) rotate(88.92478712645732 -16.628687471881904 17.779904296858376)" fill-rule="evenodd"><path d="M0 0 C-0.85 0.47, -3.54 2.69, -5.12 2.81 C-6.69 2.94, -8.7 2, -9.47 0.77 C-10.23 -0.47, -8.44 -3.62, -9.72 -4.6 C-11 -5.59, -15.61 -5.8, -17.14 -5.12 C-18.68 -4.43, -17.91 -1.49, -18.93 -0.51 C-19.95 0.47, -21.87 1.07, -23.28 0.77 C-24.69 0.47, -25.67 -2.09, -27.37 -2.3 C-29.08 -2.52, -32.75 -2, -33.51 -0.51 C-34.28 0.98, -31.85 4.86, -31.98 6.65 C-32.11 8.44, -32.92 9.68, -34.28 10.23 C-35.65 10.79, -39.18 8.44, -40.16 9.98 C-41.15 11.51, -40.85 18.04, -40.16 19.44 C-39.48 20.85, -37.27 17.78, -36.07 18.42 C-34.88 19.06, -32.75 21.66, -33 23.28 C-33.26 24.9, -37.39 26.14, -37.61 28.14 C-37.82 30.14, -35.73 34.62, -34.28 35.3 C-32.83 35.99, -30.57 32.4, -28.91 32.23 C-27.25 32.06, -25.11 32.96, -24.3 34.28 C-23.49 35.6, -25.28 39.1, -24.05 40.16 C-22.81 41.23, -18.33 41.4, -16.88 40.68 C-15.43 39.95, -16.5 36.8, -15.35 35.82 C-14.2 34.83, -11.68 34.28, -9.98 34.79 C-8.27 35.3, -6.69 38.8, -5.12 38.89 C-3.54 38.97, -1.02 36.75, -0.51 35.3 C0 33.85, -2.13 31.72, -2.05 30.19 C-1.96 28.65, -1.49 26.73, 0 26.09 C1.49 25.45, 5.76 27.71, 6.91 26.35 C8.06 24.99, 7.85 19.53, 6.91 17.91 C5.97 16.29, 2.35 17.69, 1.28 16.63 C0.21 15.56, 0 13.22, 0.51 11.51 C1.02 9.81, 4.43 8.31, 4.35 6.4 C4.26 4.48, 0.72 1.07, 0 0" stroke="none" stroke-width="0" fill="#ced4da" fill-rule="evenodd"></path><path d="M0 0 C-0.85 0.47, -3.54 2.69, -5.12 2.81 C-6.69 2.94, -8.7 2, -9.47 0.77 C-10.23 -0.47, -8.44 -3.62, -9.72 -4.6 C-11 -5.59, -15.61 -5.8, -17.14 -5.12 C-18.68 -4.43, -17.91 -1.49, -18.93 -0.51 C-19.95 0.47, -21.87 1.07, -23.28 0.77 C-24.69 0.47, -25.67 -2.09, -27.37 -2.3 C-29.08 -2.52, -32.75 -2, -33.51 -0.51 C-34.28 0.98, -31.85 4.86, -31.98 6.65 C-32.11 8.44, -32.92 9.68, -34.28 10.23 C-35.65 10.79, -39.18 8.44, -40.16 9.98 C-41.15 11.51, -40.85 18.04, -40.16 19.44 C-39.48 20.85, -37.27 17.78, -36.07 18.42 C-34.88 19.06, -32.75 21.66, -33 23.28 C-33.26 24.9, -37.39 26.14, -37.61 28.14 C-37.82 30.14, -35.73 34.62, -34.28 35.3 C-32.83 35.99, -30.57 32.4, -28.91 32.23 C-27.25 32.06, -25.11 32.96, -24.3 34.28 C-23.49 35.6, -25.28 39.1, -24.05 40.16 C-22.81 41.23, -18.33 41.4, -16.88 40.68 C-15.43 39.95, -16.5 36.8, -15.35 35.82 C-14.2 34.83, -11.68 34.28, -9.98 34.79 C-8.27 35.3, -6.69 38.8, -5.12 38.89 C-3.54 38.97, -1.02 36.75, -0.51 35.3 C0 33.85, -2.13 31.72, -2.05 30.19 C-1.96 28.65, -1.49 26.73, 0 26.09 C1.49 25.45, 5.76 27.71, 6.91 26.35 C8.06 24.99, 7.85 19.53, 6.91 17.91 C5.97 16.29, 2.35 17.69, 1.28 16.63 C0.21 15.56, 0 13.22, 0.51 11.51 C1.02 9.81, 4.43 8.31, 4.35 6.4 C4.26 4.48, 0.72 1.07, 0 0 M0 0 C-0.85 0.47, -3.54 2.69, -5.12 2.81 C-6.69 2.94, -8.7 2, -9.47 0.77 C-10.23 -0.47, -8.44 -3.62, -9.72 -4.6 C-11 -5.59, -15.61 -5.8, -17.14 -5.12 C-18.68 -4.43, -17.91 -1.49, -18.93 -0.51 C-19.95 0.47, -21.87 1.07, -23.28 0.77 C-24.69 0.47, -25.67 -2.09, -27.37 -2.3 C-29.08 -2.52, -32.75 -2, -33.51 -0.51 C-34.28 0.98, -31.85 4.86, -31.98 6.65 C-32.11 8.44, -32.92 9.68, -34.28 10.23 C-35.65 10.79, -39.18 8.44, -40.16 9.98 C-41.15 11.51, -40.85 18.04, -40.16 19.44 C-39.48 20.85, -37.27 17.78, -36.07 18.42 C-34.88 19.06, -32.75 21.66, -33 23.28 C-33.26 24.9, -37.39 26.14, -37.61 28.14 C-37.82 30.14, -35.73 34.62, -34.28 35.3 C-32.83 35.99, -30.57 32.4, -28.91 32.23 C-27.25 32.06, -25.11 32.96, -24.3 34.28 C-23.49 35.6, -25.28 39.1, -24.05 40.16 C-22.81 41.23, -18.33 41.4, -16.88 40.68 C-15.43 39.95, -16.5 36.8, -15.35 35.82 C-14.2 34.83, -11.68 34.28, -9.98 34.79 C-8.27 35.3, -6.69 38.8, -5.12 38.89 C-3.54 38.97, -1.02 36.75, -0.51 35.3 C0 33.85, -2.13 31.72, -2.05 30.19 C-1.96 28.65, -1.49 26.73, 0 26.09 C1.49 25.45, 5.76 27.71, 6.91 26.35 C8.06 24.99, 7.85 19.53, 6.91 17.91 C5.97 16.29, 2.35 17.69, 1.28 16.63 C0.21 15.56, 0 13.22, 0.51 11.51 C1.02 9.81, 4.43 8.31, 4.35 6.4 C4.26 4.48, 0.72 1.07, 0 0" stroke="#1e1e1e" stroke-width="4" fill="none"></path></g></g><mask></mask><g stroke-linecap="round" transform="translate(711.3249248612058 137.26577909281465) rotate(88.92478712645732 10.744690366446775 11.12842930810561)"><path d="M21.49 11.13 C21.49 11.77, 21.43 12.43, 21.33 13.06 C21.22 13.7, 21.05 14.33, 20.84 14.93 C20.63 15.54, 20.36 16.13, 20.05 16.69 C19.74 17.25, 19.38 17.79, 18.98 18.28 C18.58 18.78, 18.13 19.24, 17.65 19.65 C17.17 20.07, 16.66 20.44, 16.12 20.77 C15.58 21.09, 15 21.37, 14.42 21.59 C13.84 21.81, 13.22 21.98, 12.61 22.09 C12 22.2, 11.37 22.26, 10.74 22.26 C10.12 22.26, 9.49 22.2, 8.88 22.09 C8.27 21.98, 7.65 21.81, 7.07 21.59 C6.49 21.37, 5.91 21.09, 5.37 20.77 C4.83 20.44, 4.31 20.07, 3.84 19.65 C3.36 19.24, 2.91 18.78, 2.51 18.28 C2.11 17.79, 1.75 17.25, 1.44 16.69 C1.13 16.13, 0.86 15.54, 0.65 14.93 C0.44 14.33, 0.27 13.7, 0.16 13.06 C0.06 12.43, 0 11.77, 0 11.13 C0 10.48, 0.06 9.83, 0.16 9.2 C0.27 8.56, 0.44 7.93, 0.65 7.32 C0.86 6.72, 1.13 6.12, 1.44 5.56 C1.75 5.01, 2.11 4.47, 2.51 3.98 C2.91 3.48, 3.36 3.02, 3.84 2.6 C4.31 2.19, 4.83 1.81, 5.37 1.49 C5.91 1.17, 6.49 0.89, 7.07 0.67 C7.65 0.45, 8.27 0.28, 8.88 0.17 C9.49 0.06, 10.12 0, 10.74 0 C11.37 0, 12 0.06, 12.61 0.17 C13.22 0.28, 13.84 0.45, 14.42 0.67 C15 0.89, 15.58 1.17, 16.12 1.49 C16.66 1.81, 17.17 2.19, 17.65 2.6 C18.13 3.02, 18.58 3.48, 18.98 3.98 C19.38 4.47, 19.74 5.01, 20.05 5.56 C20.36 6.12, 20.63 6.72, 20.84 7.32 C21.05 7.93, 21.22 8.56, 21.33 9.2 C21.43 9.83, 21.46 10.81, 21.49 11.13 C21.52 11.45, 21.52 10.81, 21.49 11.13" stroke="none" stroke-width="0" fill="#fff"></path><path d="M21.49 11.13 C21.49 11.77, 21.43 12.43, 21.33 13.06 C21.22 13.7, 21.05 14.33, 20.84 14.93 C20.63 15.54, 20.36 16.13, 20.05 16.69 C19.74 17.25, 19.38 17.79, 18.98 18.28 C18.58 18.78, 18.13 19.24, 17.65 19.65 C17.17 20.07, 16.66 20.44, 16.12 20.77 C15.58 21.09, 15 21.37, 14.42 21.59 C13.84 21.81, 13.22 21.98, 12.61 22.09 C12 22.2, 11.37 22.26, 10.74 22.26 C10.12 22.26, 9.49 22.2, 8.88 22.09 C8.27 21.98, 7.65 21.81, 7.07 21.59 C6.49 21.37, 5.91 21.09, 5.37 20.77 C4.83 20.44, 4.31 20.07, 3.84 19.65 C3.36 19.24, 2.91 18.78, 2.51 18.28 C2.11 17.79, 1.75 17.25, 1.44 16.69 C1.13 16.13, 0.86 15.54, 0.65 14.93 C0.44 14.33, 0.27 13.7, 0.16 13.06 C0.06 12.43, 0 11.77, 0 11.13 C0 10.48, 0.06 9.83, 0.16 9.2 C0.27 8.56, 0.44 7.93, 0.65 7.32 C0.86 6.72, 1.13 6.12, 1.44 5.56 C1.75 5.01, 2.11 4.47, 2.51 3.98 C2.91 3.48, 3.36 3.02, 3.84 2.6 C4.31 2.19, 4.83 1.81, 5.37 1.49 C5.91 1.17, 6.49 0.89, 7.07 0.67 C7.65 0.45, 8.27 0.28, 8.88 0.17 C9.49 0.06, 10.12 0, 10.74 0 C11.37 0, 12 0.06, 12.61 0.17 C13.22 0.28, 13.84 0.45, 14.42 0.67 C15 0.89, 15.58 1.17, 16.12 1.49 C16.66 1.81, 17.17 2.19, 17.65 2.6 C18.13 3.02, 18.58 3.48, 18.98 3.98 C19.38 4.47, 19.74 5.01, 20.05 5.56 C20.36 6.12, 20.63 6.72, 20.84 7.32 C21.05 7.93, 21.22 8.56, 21.33 9.2 C21.43 9.83, 21.46 10.81, 21.49 11.13 C21.52 11.45, 21.52 10.81, 21.49 11.13" stroke="#1e1e1e" stroke-width="4" fill="none"></path></g><g stroke-linecap="round"><g transform="translate(783.1843792556101 149.28836170507222) rotate(88.92478712645732 -11.895907191423248 -8.058517774835053)" fill-rule="evenodd"><path d="M0 0 C0.47 0.13, 1.96 1.28, 2.81 0.77 C3.67 0.26, 5.12 -2, 5.12 -3.07 C5.12 -4.14, 3.24 -4.31, 2.81 -5.63 C2.39 -6.95, 2.05 -9.85, 2.56 -11 C3.07 -12.15, 5.63 -11.47, 5.88 -12.54 C6.14 -13.6, 5.03 -16.59, 4.09 -17.4 C3.16 -18.21, 1.28 -17.1, 0.26 -17.4 C-0.77 -17.69, -1.58 -18.04, -2.05 -19.19 C-2.52 -20.34, -1.58 -23.28, -2.56 -24.3 C-3.54 -25.33, -6.74 -25.75, -7.93 -25.33 C-9.12 -24.9, -8.87 -22.3, -9.72 -21.75 C-10.57 -21.19, -11.9 -21.36, -13.05 -22 C-14.2 -22.64, -15.31 -25.28, -16.63 -25.58 C-17.95 -25.88, -20.25 -24.6, -20.98 -23.79 C-21.7 -22.98, -20.68 -21.83, -20.98 -20.72 C-21.28 -19.61, -21.66 -17.52, -22.77 -17.14 C-23.88 -16.76, -26.48 -19.23, -27.63 -18.42 C-28.78 -17.61, -29.93 -13.77, -29.68 -12.28 C-29.42 -10.79, -26.78 -10.4, -26.09 -9.47 C-25.41 -8.53, -24.99 -7.63, -25.58 -6.65 C-26.18 -5.67, -29.25 -4.99, -29.68 -3.58 C-30.1 -2.17, -29.21 1.02, -28.14 1.79 C-27.07 2.56, -24.56 0.94, -23.28 1.02 C-22 1.11, -20.85 1.24, -20.47 2.3 C-20.08 3.37, -21.66 6.27, -20.98 7.42 C-20.3 8.57, -17.78 9.47, -16.37 9.21 C-14.97 8.95, -13.64 6.44, -12.54 5.88 C-11.43 5.33, -10.57 5.29, -9.72 5.88 C-8.87 6.48, -8.7 9.12, -7.42 9.47 C-6.14 9.81, -2.73 8.87, -2.05 7.93 C-1.36 6.99, -3.67 5.16, -3.33 3.84 C-2.98 2.52, -0.55 0.64, 0 0" stroke="none" stroke-width="0" fill="#ced4da" fill-rule="evenodd"></path><path d="M0 0 C0.47 0.13, 1.96 1.28, 2.81 0.77 C3.67 0.26, 5.12 -2, 5.12 -3.07 C5.12 -4.14, 3.24 -4.31, 2.81 -5.63 C2.39 -6.95, 2.05 -9.85, 2.56 -11 C3.07 -12.15, 5.63 -11.47, 5.88 -12.54 C6.14 -13.6, 5.03 -16.59, 4.09 -17.4 C3.16 -18.21, 1.28 -17.1, 0.26 -17.4 C-0.77 -17.69, -1.58 -18.04, -2.05 -19.19 C-2.52 -20.34, -1.58 -23.28, -2.56 -24.3 C-3.54 -25.33, -6.74 -25.75, -7.93 -25.33 C-9.12 -24.9, -8.87 -22.3, -9.72 -21.75 C-10.57 -21.19, -11.9 -21.36, -13.05 -22 C-14.2 -22.64, -15.31 -25.28, -16.63 -25.58 C-17.95 -25.88, -20.25 -24.6, -20.98 -23.79 C-21.7 -22.98, -20.68 -21.83, -20.98 -20.72 C-21.28 -19.61, -21.66 -17.52, -22.77 -17.14 C-23.88 -16.76, -26.48 -19.23, -27.63 -18.42 C-28.78 -17.61, -29.93 -13.77, -29.68 -12.28 C-29.42 -10.79, -26.78 -10.4, -26.09 -9.47 C-25.41 -8.53, -24.99 -7.63, -25.58 -6.65 C-26.18 -5.67, -29.25 -4.99, -29.68 -3.58 C-30.1 -2.17, -29.21 1.02, -28.14 1.79 C-27.07 2.56, -24.56 0.94, -23.28 1.02 C-22 1.11, -20.85 1.24, -20.47 2.3 C-20.08 3.37, -21.66 6.27, -20.98 7.42 C-20.3 8.57, -17.78 9.47, -16.37 9.21 C-14.97 8.95, -13.64 6.44, -12.54 5.88 C-11.43 5.33, -10.57 5.29, -9.72 5.88 C-8.87 6.48, -8.7 9.12, -7.42 9.47 C-6.14 9.81, -2.73 8.87, -2.05 7.93 C-1.36 6.99, -3.67 5.16, -3.33 3.84 C-2.98 2.52, -0.55 0.64, 0 0 M0 0 C0.47 0.13, 1.96 1.28, 2.81 0.77 C3.67 0.26, 5.12 -2, 5.12 -3.07 C5.12 -4.14, 3.24 -4.31, 2.81 -5.63 C2.39 -6.95, 2.05 -9.85, 2.56 -11 C3.07 -12.15, 5.63 -11.47, 5.88 -12.54 C6.14 -13.6, 5.03 -16.59, 4.09 -17.4 C3.16 -18.21, 1.28 -17.1, 0.26 -17.4 C-0.77 -17.69, -1.58 -18.04, -2.05 -19.19 C-2.52 -20.34, -1.58 -23.28, -2.56 -24.3 C-3.54 -25.33, -6.74 -25.75, -7.93 -25.33 C-9.12 -24.9, -8.87 -22.3, -9.72 -21.75 C-10.57 -21.19, -11.9 -21.36, -13.05 -22 C-14.2 -22.64, -15.31 -25.28, -16.63 -25.58 C-17.95 -25.88, -20.25 -24.6, -20.98 -23.79 C-21.7 -22.98, -20.68 -21.83, -20.98 -20.72 C-21.28 -19.61, -21.66 -17.52, -22.77 -17.14 C-23.88 -16.76, -26.48 -19.23, -27.63 -18.42 C-28.78 -17.61, -29.93 -13.77, -29.68 -12.28 C-29.42 -10.79, -26.78 -10.4, -26.09 -9.47 C-25.41 -8.53, -24.99 -7.63, -25.58 -6.65 C-26.18 -5.67, -29.25 -4.99, -29.68 -3.58 C-30.1 -2.17, -29.21 1.02, -28.14 1.79 C-27.07 2.56, -24.56 0.94, -23.28 1.02 C-22 1.11, -20.85 1.24, -20.47 2.3 C-20.08 3.37, -21.66 6.27, -20.98 7.42 C-20.3 8.57, -17.78 9.47, -16.37 9.21 C-14.97 8.95, -13.64 6.44, -12.54 5.88 C-11.43 5.33, -10.57 5.29, -9.72 5.88 C-8.87 6.48, -8.7 9.12, -7.42 9.47 C-6.14 9.81, -2.73 8.87, -2.05 7.93 C-1.36 6.99, -3.67 5.16, -3.33 3.84 C-2.98 2.52, -0.55 0.64, 0 0" stroke="#1e1e1e" stroke-width="4" fill="none"></path></g></g><mask></mask><g stroke-linecap="round" transform="translate(763.0492486297662 131.65019295213048) rotate(88.92478712645732 8.698082677599814 9.33764758036449)"><path d="M17.4 9.34 C17.4 9.88, 17.35 10.43, 17.26 10.96 C17.18 11.49, 17.04 12.02, 16.87 12.53 C16.7 13.04, 16.48 13.54, 16.23 14.01 C15.98 14.47, 15.68 14.93, 15.36 15.34 C15.04 15.75, 14.67 16.14, 14.29 16.49 C13.9 16.84, 13.48 17.15, 13.05 17.42 C12.61 17.69, 12.15 17.93, 11.67 18.11 C11.2 18.3, 10.7 18.44, 10.21 18.53 C9.71 18.63, 9.2 18.68, 8.7 18.68 C8.19 18.68, 7.68 18.63, 7.19 18.53 C6.69 18.44, 6.2 18.3, 5.72 18.11 C5.25 17.93, 4.79 17.69, 4.35 17.42 C3.91 17.15, 3.49 16.84, 3.11 16.49 C2.72 16.14, 2.36 15.75, 2.03 15.34 C1.71 14.93, 1.42 14.47, 1.17 14.01 C0.91 13.54, 0.7 13.04, 0.52 12.53 C0.35 12.02, 0.22 11.49, 0.13 10.96 C0.04 10.43, 0 9.88, 0 9.34 C0 8.8, 0.04 8.25, 0.13 7.72 C0.22 7.18, 0.35 6.65, 0.52 6.14 C0.7 5.64, 0.91 5.14, 1.17 4.67 C1.42 4.2, 1.71 3.75, 2.03 3.34 C2.36 2.92, 2.72 2.53, 3.11 2.18 C3.49 1.84, 3.91 1.52, 4.35 1.25 C4.79 0.98, 5.25 0.75, 5.72 0.56 C6.2 0.38, 6.69 0.24, 7.19 0.14 C7.68 0.05, 8.19 0, 8.7 0 C9.2 0, 9.71 0.05, 10.21 0.14 C10.7 0.24, 11.2 0.38, 11.67 0.56 C12.15 0.75, 12.61 0.98, 13.05 1.25 C13.48 1.52, 13.9 1.84, 14.29 2.18 C14.67 2.53, 15.04 2.92, 15.36 3.34 C15.68 3.75, 15.98 4.2, 16.23 4.67 C16.48 5.14, 16.7 5.64, 16.87 6.14 C17.04 6.65, 17.18 7.18, 17.26 7.72 C17.35 8.25, 17.37 9.07, 17.4 9.34 C17.42 9.61, 17.42 9.07, 17.4 9.34" stroke="none" stroke-width="0" fill="#ffffff"></path><path d="M17.4 9.34 C17.4 9.88, 17.35 10.43, 17.26 10.96 C17.18 11.49, 17.04 12.02, 16.87 12.53 C16.7 13.04, 16.48 13.54, 16.23 14.01 C15.98 14.47, 15.68 14.93, 15.36 15.34 C15.04 15.75, 14.67 16.14, 14.29 16.49 C13.9 16.84, 13.48 17.15, 13.05 17.42 C12.61 17.69, 12.15 17.93, 11.67 18.11 C11.2 18.3, 10.7 18.44, 10.21 18.53 C9.71 18.63, 9.2 18.68, 8.7 18.68 C8.19 18.68, 7.68 18.63, 7.19 18.53 C6.69 18.44, 6.2 18.3, 5.72 18.11 C5.25 17.93, 4.79 17.69, 4.35 17.42 C3.91 17.15, 3.49 16.84, 3.11 16.49 C2.72 16.14, 2.36 15.75, 2.03 15.34 C1.71 14.93, 1.42 14.47, 1.17 14.01 C0.91 13.54, 0.7 13.04, 0.52 12.53 C0.35 12.02, 0.22 11.49, 0.13 10.96 C0.04 10.43, 0 9.88, 0 9.34 C0 8.8, 0.04 8.25, 0.13 7.72 C0.22 7.18, 0.35 6.65, 0.52 6.14 C0.7 5.64, 0.91 5.14, 1.17 4.67 C1.42 4.2, 1.71 3.75, 2.03 3.34 C2.36 2.92, 2.72 2.53, 3.11 2.18 C3.49 1.84, 3.91 1.52, 4.35 1.25 C4.79 0.98, 5.25 0.75, 5.72 0.56 C6.2 0.38, 6.69 0.24, 7.19 0.14 C7.68 0.05, 8.19 0, 8.7 0 C9.2 0, 9.71 0.05, 10.21 0.14 C10.7 0.24, 11.2 0.38, 11.67 0.56 C12.15 0.75, 12.61 0.98, 13.05 1.25 C13.48 1.52, 13.9 1.84, 14.29 2.18 C14.67 2.53, 15.04 2.92, 15.36 3.34 C15.68 3.75, 15.98 4.2, 16.23 4.67 C16.48 5.14, 16.7 5.64, 16.87 6.14 C17.04 6.65, 17.18 7.18, 17.26 7.72 C17.35 8.25, 17.37 9.07, 17.4 9.34 C17.42 9.61, 17.42 9.07, 17.4 9.34" stroke="#1e1e1e" stroke-width="4" fill="none"></path></g><g stroke-linecap="round" transform="translate(718.2541776579603 107.97412392585838) rotate(0 29.16796875 15)"><path d="M-0.09 0.03 L59.06 -1.79 L58.58 28.53 L-1.86 31.54" stroke="none" stroke-width="0" fill="#fff"></path><path d="M0 0 C17.15 0.56, 32.74 1.29, 58.34 0 M0 0 C14.94 0.43, 29.4 -0.2, 58.34 0 M58.34 0 C60.54 6.56, 59.98 11.9, 58.34 30 M58.34 0 C58.06 9.93, 58.02 19.15, 58.34 30 M58.34 30 C44 29.86, 32.87 30.68, 0 30 M58.34 30 C45.9 30.69, 34.93 31.01, 0 30 M0 30 C-0.61 17.25, -1.49 7.88, 0 0 M0 30 C-0.83 23.35, -0.47 16.59, 0 0" stroke="#000000" stroke-width="4" fill="none"></path></g><g transform="translate(726.8621717375502 112.97412392585838) rotate(0 20.559974670410156 12.5)"><text x="0" y="17.619999999999997" font-family="Excalifont, Xiaolai, Segoe UI Emoji" font-size="20px" fill="#000000" text-anchor="start" style="white-space: pre;" direction="ltr" dominant-baseline="alphabetic">VQL</text></g><g stroke-linecap="round"><g transform="translate(715.9688694616559 278.57628932684463) rotate(0 38.45741983035805 41.766686977106644)" fill-rule="evenodd"><path d="M-1.82 1.6 C-1.58 14.32, 0.03 61.8, 0.29 75.27 C0.56 88.74, -0.95 80.19, -0.24 82.43 C0.47 84.67, 1.63 87.54, 4.54 88.69 C7.45 89.84, 10.76 88.75, 17.23 89.34 C23.7 89.93, 35.72 92.51, 43.36 92.24 C51 91.98, 57.43 89.04, 63.07 87.75 C68.71 86.45, 74.86 85.17, 77.21 84.47 C79.56 83.77, 76.98 84.95, 77.17 83.56 C77.36 82.17, 78.69 88.85, 78.36 76.11 C78.03 63.38, 75.29 20.11, 75.17 7.15 C75.06 -5.81, 78.66 -0.06, 77.67 -1.64 C76.69 -3.23, 72.37 -1.36, 69.25 -2.35 C66.13 -3.34, 64.26 -6.62, 58.97 -7.59 C53.68 -8.55, 43.98 -8.31, 37.51 -8.14 C31.05 -7.97, 25.95 -7.56, 20.17 -6.58 C14.38 -5.59, 6.33 -3.51, 2.79 -2.24 C-0.75 -0.97, -0.86 0.67, -1.07 1.06 C-1.28 1.46, 1.49 0.35, 1.54 0.13" stroke="none" stroke-width="0" fill="#ced4da" fill-rule="evenodd"></path><path d="M0.57 -0.01 C0.65 12.81, 1.13 61.86, 1.21 75.83 C1.3 89.79, 0.75 81.75, 1.06 83.78 C1.38 85.82, 0.31 86.98, 3.11 88.05 C5.91 89.11, 11.72 89.65, 17.86 90.18 C23.99 90.71, 32.38 91.23, 39.92 91.24 C47.45 91.26, 57.21 90.95, 63.09 90.26 C68.97 89.57, 72.98 88.35, 75.21 87.1 C77.45 85.84, 76.34 84.66, 76.48 82.71 C76.62 80.77, 76.1 88.07, 76.03 75.45 C75.96 62.83, 75.99 19.75, 76.06 7 C76.14 -5.76, 77.25 0.76, 76.5 -1.07 C75.75 -2.89, 74.27 -3.08, 71.58 -3.96 C68.88 -4.84, 66.17 -5.63, 60.31 -6.33 C54.46 -7.03, 43.32 -7.99, 36.45 -8.15 C29.58 -8.32, 24.57 -8.2, 19.08 -7.32 C13.6 -6.45, 6.63 -3.92, 3.52 -2.89 C0.41 -1.86, 1 -1.7, 0.4 -1.15 C-0.21 -0.6, -0.01 0.18, -0.11 0.42 M-0.59 -1.06 C-0.65 11.52, 0.53 59.71, 0.77 74.08 C1.01 88.45, 0.49 83.2, 0.85 85.17 C1.2 87.13, 0.3 84.98, 2.9 85.85 C5.5 86.73, 10.14 89.7, 16.45 90.41 C22.76 91.12, 32.89 90.31, 40.75 90.09 C48.62 89.87, 58.06 89.58, 63.65 89.1 C69.24 88.62, 71.82 87.95, 74.27 87.24 C76.72 86.52, 78 86.92, 78.34 84.82 C78.68 82.71, 76.71 87.98, 76.32 74.62 C75.93 61.27, 76.2 17.44, 76.01 4.68 C75.82 -8.07, 75.85 -0.32, 75.16 -1.9 C74.47 -3.47, 74.54 -3.98, 71.89 -4.77 C69.24 -5.56, 65.17 -5.96, 59.24 -6.63 C53.32 -7.31, 43.41 -8.88, 36.35 -8.83 C29.29 -8.78, 22.56 -7.47, 16.89 -6.32 C11.23 -5.18, 5.31 -2.8, 2.38 -1.97 C-0.54 -1.15, 0 -1.84, -0.66 -1.36 C-1.32 -0.88, -1.69 0.89, -1.56 0.9" stroke="#000000" stroke-width="2" fill="none"></path></g></g><mask></mask><g stroke-linecap="round" transform="translate(715.4752017197159 269.80536270321033) rotate(0 38.252112724462336 7.736202016062123)"><path d="M43.89 0.35 C51.62 0.46, 61.01 1.02, 66.5 2.14 C71.99 3.26, 76.57 5.34, 76.82 7.08 C77.07 8.82, 73.14 11.13, 68.01 12.57 C62.88 14.01, 53.99 15.39, 46.02 15.7 C38.06 16.01, 27.41 15.33, 20.23 14.45 C13.05 13.57, 5.95 11.87, 2.93 10.4 C-0.08 8.93, -0.39 7.2, 2.14 5.63 C4.67 4.07, 10.91 1.93, 18.13 1 C25.34 0.08, 40.57 0.28, 45.42 0.1 C50.27 -0.08, 47.31 -0.2, 47.24 -0.07 M42.94 -0.59 C50.7 -0.55, 60.62 1.4, 66.12 2.79 C71.63 4.19, 75.52 6.08, 75.97 7.78 C76.43 9.49, 73.77 11.69, 68.85 13.02 C63.93 14.35, 54.56 15.41, 46.46 15.74 C38.35 16.07, 27.36 15.72, 20.22 14.99 C13.08 14.26, 6.63 12.86, 3.63 11.34 C0.63 9.82, -0.06 7.53, 2.2 5.88 C4.47 4.24, 10.49 2.33, 17.23 1.45 C23.97 0.57, 38.46 0.84, 42.65 0.6 C46.85 0.35, 42.26 0.06, 42.38 -0.02" stroke="none" stroke-width="0" fill="#fff"></path><path d="M46.85 0.24 C54.53 0.47, 63.57 1.28, 68.49 2.58 C73.41 3.87, 76.7 6.27, 76.38 8.02 C76.06 9.76, 72.05 11.82, 66.58 13.03 C61.12 14.25, 51.77 15.17, 43.59 15.31 C35.42 15.45, 24.55 14.8, 17.53 13.87 C10.51 12.95, 3.85 11.27, 1.46 9.76 C-0.92 8.25, 0.07 6.3, 3.21 4.83 C6.35 3.36, 12.64 1.74, 20.3 0.94 C27.95 0.14, 43.97 0.14, 49.13 0.03 C54.29 -0.08, 51.47 0.06, 51.27 0.29 M34.75 -0.65 C42.42 -0.9, 53.06 0.53, 59.76 1.61 C66.46 2.69, 72.77 4.33, 74.93 5.83 C77.1 7.33, 76.2 9.04, 72.75 10.6 C69.3 12.17, 61.58 14.42, 54.26 15.2 C46.93 15.98, 36.65 15.84, 28.79 15.28 C20.93 14.73, 11.85 13.16, 7.09 11.87 C2.34 10.58, -0.32 9.21, 0.29 7.56 C0.89 5.91, 4.92 3.19, 10.74 1.98 C16.56 0.77, 31.24 0.69, 35.2 0.28 C39.16 -0.13, 34.45 -0.47, 34.5 -0.47" stroke="#000000" stroke-width="2" fill="none"></path></g><g transform="translate(734.4777800813547 304.4923188780616) rotate(0 8.5 18)"><text x="0" y="25.30485859161977" font-family="Comic Shanns, Segoe UI Emoji" font-size="29.219434366479078px" fill="#495057" text-anchor="start" style="white-space: pre;" direction="ltr" dominant-baseline="alphabetic">{</text></g><g transform="translate(756.4886534271002 304.96902884998065) rotate(0 8.47259989586712 17.972181597293968)"><text x="0" y="25.318310576437007" font-family="Comic Shanns, Segoe UI Emoji" font-size="29.384515916572173px" fill="#495057" text-anchor="start" style="white-space: pre;" direction="ltr" dominant-baseline="alphabetic">}</text></g><g transform="translate(711.0168580503394 370.59437436578753) rotate(0 43.175575256347656 12.933095528747288)"><text x="43.175575256347656" y="17.58297925904312" font-family="Excalifont, Xiaolai, Segoe UI Emoji" font-size="18.16360832146819px" fill="#000000" text-anchor="middle" style="white-space: pre;" direction="ltr" dominant-baseline="alphabetic">datastore</text></g><g stroke-linecap="round"><g transform="translate(746.8471546392486 179.03926472998862) rotate(0 3.07730843959871 37.652947391657506)"><path d="M-0.41 0.77 C-0.21 8.16, 1.01 30.82, 2.01 43.16 C3.01 55.51, 4.93 69.32, 5.58 74.84 M1.57 0.13 C1.63 7.27, 1.04 28.74, 1.53 41.37 C2.02 54, 3.76 70.43, 4.51 75.91" stroke="#1e1e1e" stroke-width="4" fill="none"></path></g><g transform="translate(746.8471546392486 179.03926472998862) rotate(0 3.07730843959871 37.652947391657506)"><path d="M7.88 20.37 C6.34 14.71, 3.09 5.15, -0.41 0.77 M7.88 20.37 C5.49 15.15, 3.67 10.16, -0.41 0.77" stroke="#1e1e1e" stroke-width="4" fill="none"></path></g><g transform="translate(746.8471546392486 179.03926472998862) rotate(0 3.07730843959871 37.652947391657506)"><path d="M-6.65 21.11 C-2.9 15.23, -0.88 5.4, -0.41 0.77 M-6.65 21.11 C-5.25 15.58, -3.28 10.4, -0.41 0.77" stroke="#1e1e1e" stroke-width="4" fill="none"></path></g><g transform="translate(746.8471546392486 179.03926472998862) rotate(0 3.07730843959871 37.652947391657506)"><path d="M-2.94 61.1 C0.69 67.74, 3.2 71.09, 4.51 75.91 M-2.94 61.1 C-1.24 64.76, 0.98 68.73, 4.51 75.91" stroke="#1e1e1e" stroke-width="4" fill="none"></path></g><g transform="translate(746.8471546392486 179.03926472998862) rotate(0 3.07730843959871 37.652947391657506)"><path d="M8.32 59.77 C7.85 66.85, 6.27 70.69, 4.51 75.91 M8.32 59.77 C7.08 63.87, 6.36 68.18, 4.51 75.91" stroke="#1e1e1e" stroke-width="4" fill="none"></path></g></g><mask></mask><g transform="translate(622.9127942814168 10.000000066115149) rotate(0 123.51986694335938 11.5)"><text x="123.51986694335938" y="18.08" font-family="Nunito, Segoe UI Emoji" font-size="20px" fill="#1e1e1e" text-anchor="middle" style="white-space: pre;" direction="ltr" dominant-baseline="alphabetic">VELOCIRAPTOR SERVER</text></g><g stroke-linecap="round"><g transform="translate(815.9067373507646 133.7774608900929) rotate(0 85.75317248146064 -0.48324508856970283)"><path d="M0.28 -0.24 C28.77 -0.69, 142.72 -1.8, 171.13 -1.74 M-1.04 -1.41 C27.25 -1.81, 140.94 -0.57, 169.99 -0.6" stroke="#868e96" stroke-width="4" fill="none"></path></g><g transform="translate(815.9067373507646 133.7774608900929) rotate(0 85.75317248146064 -0.48324508856970283)"><path d="M23.68 -9.03 C16 -6.84, 7.77 -4.72, 0.28 -0.24 M23.68 -9.03 C13.63 -6.29, 4.89 -2.87, 0.28 -0.24" stroke="#868e96" stroke-width="4" fill="none"></path></g><g transform="translate(815.9067373507646 133.7774608900929) rotate(0 85.75317248146064 -0.48324508856970283)"><path d="M23.85 8.07 C15.98 4.89, 7.7 1.65, 0.28 -0.24 M23.85 8.07 C13.66 4.08, 4.85 0.77, 0.28 -0.24" stroke="#868e96" stroke-width="4" fill="none"></path></g><g transform="translate(815.9067373507646 133.7774608900929) rotate(0 85.75317248146064 -0.48324508856970283)"><path d="M146.45 7.82 C153.37 4.5, 159.88 1.22, 169.99 -0.6 M146.45 7.82 C154.8 4.23, 164.53 0.88, 169.99 -0.6" stroke="#868e96" stroke-width="4" fill="none"></path></g><g transform="translate(815.9067373507646 133.7774608900929) rotate(0 85.75317248146064 -0.48324508856970283)"><path d="M146.54 -9.28 C153.56 -7.24, 160.04 -5.14, 169.99 -0.6 M146.54 -9.28 C154.92 -6.14, 164.63 -2.77, 169.99 -0.6" stroke="#868e96" stroke-width="4" fill="none"></path></g></g><mask></mask><g transform="translate(901.9773320012043 143.56735168880036) rotate(0 43.52995300292969 11.5)"><text x="43.52995300292969" y="18.08" font-family="Nunito, Segoe UI Emoji" font-size="20px" fill="#868e96" text-anchor="middle" style="white-space: pre;" direction="ltr" dominant-baseline="alphabetic">CLIENTS</text></g><g transform="translate(593.7138154897659 108.27390601234518) rotate(358.01574655137296 27.499969482421875 12.5)"><text x="27.499969482421875" y="17.619999999999997" font-family="Excalifont, Xiaolai, Segoe UI Emoji" font-size="20px" fill="#1e1e1e" text-anchor="middle" style="white-space: pre;" direction="ltr" dominant-baseline="alphabetic">query</text></g><g stroke-linecap="round" transform="translate(27.543212023555725 313.1334034055244) rotate(0 252.5 41.66358083029536)"><path d="M20.83 0 C146.9 -2.51, 269.6 -3.23, 484.17 0 C497.58 -1.88, 502.8 4.51, 505 20.83 C505.55 28.13, 504.17 38.66, 505 62.5 C504.78 75.68, 497.41 83.66, 484.17 83.33 C354.28 83.71, 224.04 81.94, 20.83 83.33 C7.7 83.76, -3.48 76.43, 0 62.5 C3.09 51.15, -2.66 35.96, 0 20.83 C-3.09 9.74, 7.56 2.38, 20.83 0" stroke="none" stroke-width="0" fill="#1e1e1e"></path><path d="M20.83 0 C179.28 -0.58, 336.64 0.75, 484.17 0 M20.83 0 C169.83 -0.66, 319.41 -0.48, 484.17 0 M484.17 0 C497.6 -1.54, 505.19 5.76, 505 20.83 M484.17 0 C497.41 -1.35, 505.25 7.78, 505 20.83 M505 20.83 C506.47 29.91, 504.9 39.91, 505 62.5 M505 20.83 C505.86 30.78, 505.96 39.47, 505 62.5 M505 62.5 C505.77 75.11, 499.92 82.94, 484.17 83.33 M505 62.5 C504.84 76.81, 497.78 81.81, 484.17 83.33 M484.17 83.33 C321.5 83.72, 159.28 82.3, 20.83 83.33 M484.17 83.33 C335.89 84.28, 186.61 83.58, 20.83 83.33 M20.83 83.33 C5.83 85.12, 1.29 77.6, 0 62.5 M20.83 83.33 C5.61 81.75, 0.5 74.48, 0 62.5 M0 62.5 C-1.96 46.63, -0.65 33.2, 0 20.83 M0 62.5 C-0.15 49.34, -0.48 33.71, 0 20.83 M0 20.83 C-0.58 7.14, 8.03 -1.62, 20.83 0 M0 20.83 C-2.29 6.52, 5.57 0.11, 20.83 0" stroke="#1e1e1e" stroke-width="2" fill="none"></path></g><g transform="translate(43.543212023555725 323.1334034055244) rotate(0 237.61012268066406 24)"><text x="0" y="17" font-family="Comic Shanns, Segoe UI Emoji" font-size="20px" fill="#ffffff" text-anchor="start" style="white-space: pre;" direction="ltr" dominant-baseline="alphabetic">$ velociraptor --api_config api.config.yaml \</text><text x="0" y="41" font-family="Comic Shanns, Segoe UI Emoji" font-size="20px" fill="#ffffff" text-anchor="start" style="white-space: pre;" direction="ltr" dominant-baseline="alphabetic">        query "SELECT * FROM hunt_results(...)"</text></g><g transform="translate(99.78244064015814 239.7442890888016) rotate(0 74.39994812011719 12.5)"><text x="0" y="17.619999999999997" font-family="Excalifont, Xiaolai, Segoe UI Emoji" font-size="20px" fill="#000" text-anchor="start" style="white-space: pre;" direction="ltr" dominant-baseline="alphabetic">api.config.yaml</text></g><g stroke-linecap="round" transform="translate(123.02475568060242 104.73606953068875) rotate(0 43.92912551591962 59.866575996830676)"><path d="M-1.66 -1.48 L87.98 -1.09 L88.04 120.29 L1.91 121.64" stroke="none" stroke-width="0" fill="#ffec99"></path><path d="M0 0 C29.72 -1.31, 63.59 -0.44, 87.86 0 M0 0 C34.26 1.17, 66.92 0.58, 87.86 0 M87.86 0 C90.72 34.94, 88.93 71.84, 87.86 119.73 M87.86 0 C87.73 34.02, 88.52 67.77, 87.86 119.73 M87.86 119.73 C62.56 120.44, 38.61 119.75, 0 119.73 M87.86 119.73 C69.93 119.43, 52.8 119.91, 0 119.73 M0 119.73 C0.55 78.7, -0.33 34.98, 0 0 M0 119.73 C-0.95 83.56, 0.19 47.45, 0 0" stroke="#000000" stroke-width="4" fill="none"></path></g><g stroke-linecap="round" transform="translate(153.72065292654213 119.21859274707995) rotate(0 33.4896771324843 15)"><path d="M0.12 -1.09 L67.16 0.56 L68.88 31.91 L-1.12 28.79" stroke="none" stroke-width="0" fill="#fff"></path><path d="M0 0 C20.09 -0.16, 38.17 1.29, 66.98 0 M0 0 C14.32 -0.44, 29.22 0.47, 66.98 0 M66.98 0 C67.42 7.77, 66.93 13.86, 66.98 30 M66.98 0 C67.23 7.42, 66.57 15.72, 66.98 30 M66.98 30 C51.16 31.28, 36.53 30.22, 0 30 M66.98 30 C47.52 29.95, 27.16 29.27, 0 30 M0 30 C-0.94 20.51, 0.12 10.33, 0 0 M0 30 C0.8 19.65, -0.68 6.87, 0 0" stroke="#000000" stroke-width="4" fill="none"></path></g><g transform="translate(159.35433207696065 123.64054466044914) rotate(0 27.959976196289062 12.5)"><text x="0" y="17.619999999999997" font-family="Excalifont, Xiaolai, Segoe UI Emoji" font-size="20px" fill="#000000" text-anchor="start" style="white-space: pre;" direction="ltr" dominant-baseline="alphabetic">YAML</text></g><g stroke-linecap="round"><g transform="translate(158.0365059846131 168.6473972106784) rotate(0 16.913915542904476 0)"><path d="M0.21 -0.45 C5.94 -0.48, 28.61 0.19, 34.18 0.25 M-0.34 0.51 C5.36 0.27, 28.34 -0.58, 33.93 -0.59" stroke="#000" stroke-width="4" fill="none"></path></g></g><mask></mask><g stroke-linecap="round"><g transform="translate(141.3895606518371 179.12689903530818) rotate(0 25.1625462582233 0)"><path d="M0.77 0.54 C9.02 0.68, 41.7 -0.22, 49.95 -0.16 M-0.28 -0.22 C7.73 0.2, 40.51 1.41, 48.8 1.29" stroke="#000" stroke-width="4" fill="none"></path></g></g><mask></mask><g stroke-linecap="round"><g transform="translate(153.38235849578382 190.61630140475748) rotate(0 19.01010459228786 0)"><path d="M-0.17 -0.07 C6.1 -0.04, 31.7 0.32, 38 0.42 M0.74 -0.59 C6.91 -0.73, 31.23 -0.38, 37.55 -0.32" stroke="#000" stroke-width="4" fill="none"></path></g></g><mask></mask><g stroke-linecap="round"><g transform="translate(154.04723670847375 201.29558666003405) rotate(0 18.38790958176844 0)"><path d="M-0.02 0.42 C6.06 0.53, 30.24 0.6, 36.35 0.53 M-0.7 0.17 C5.57 0.13, 31.21 -0.24, 37.37 -0.16" stroke="#000" stroke-width="4" fill="none"></path></g></g><mask></mask><g transform="translate(139.4199160292959 156.06695954131183) rotate(0 6.089996337890625 12.5)"><text x="0" y="17.619999999999997" font-family="Excalifont, Xiaolai, Segoe UI Emoji" font-size="20px" fill="#1e1e1e" text-anchor="start" style="white-space: pre;" direction="ltr" dominant-baseline="alphabetic">#</text></g><g transform="translate(368.73868926866044 236.67762697842497) rotate(0 58.8199462890625 25)"><text x="58.8199462890625" y="17.619999999999997" font-family="Excalifont, Xiaolai, Segoe UI Emoji" font-size="20px" fill="#000" text-anchor="middle" style="white-space: pre;" direction="ltr" dominant-baseline="alphabetic">velociraptor</text><text x="58.8199462890625" y="42.62" font-family="Excalifont, Xiaolai, Segoe UI Emoji" font-size="20px" fill="#000" text-anchor="middle" style="white-space: pre;" direction="ltr" dominant-baseline="alphabetic">binary</text></g><g stroke-linecap="round" transform="translate(339.7003840418033 104.7360695306887) rotate(0 43.92912551591962 59.866575996830676)"><path d="M-0.64 1.83 L87.78 -0.06 L88.92 118.66 L-0.7 118.49" stroke="none" stroke-width="0" fill="#c5bcdd"></path><path d="M0 0 C21.96 -0.55, 45.83 1.01, 87.86 0 M0 0 C20.97 0.54, 43.78 0.25, 87.86 0 M87.86 0 C87.58 30.37, 86.6 62.91, 87.86 119.73 M87.86 0 C88.79 28.64, 88.34 57.78, 87.86 119.73 M87.86 119.73 C63.76 118.12, 38.75 120.95, 0 119.73 M87.86 119.73 C58.66 121.42, 29.34 120.39, 0 119.73 M0 119.73 C0.91 75.81, 2.76 32.47, 0 0 M0 119.73 C1.89 81.82, 0.09 45.67, 0 0" stroke="#000000" stroke-width="4" fill="none"></path></g><g stroke-linecap="round" transform="translate(354.46154080772294 119.2185927470799) rotate(0 29.16796875 15)"><path d="M-0.08 -0.06 L59.4 -1.07 L57.63 28.76 L-1.24 30.09" stroke="none" stroke-width="0" fill="#fff"></path><path d="M0 0 C18.7 1.17, 34 1.55, 58.34 0 M0 0 C18.82 -0.03, 35.95 0.2, 58.34 0 M58.34 0 C56.24 12.44, 57.05 23.69, 58.34 30 M58.34 0 C57.69 9.63, 58.07 20.96, 58.34 30 M58.34 30 C41.48 30.92, 25.82 29.42, 0 30 M58.34 30 C35.6 30.32, 12.95 29.52, 0 30 M0 30 C1.63 23.3, 0.21 10.97, 0 0 M0 30 C-1.21 18.76, -0.58 8.75, 0 0" stroke="#000000" stroke-width="4" fill="none"></path></g><g transform="translate(363.62950955772294 123.64054466044908) rotate(0 20 12.5)"><text x="0" y="17.619999999999997" font-family="Excalifont, Xiaolai, Segoe UI Emoji" font-size="20px" fill="#000000" text-anchor="start" style="white-space: pre;" direction="ltr" dominant-baseline="alphabetic">EXE</text></g><g stroke-linecap="round" transform="translate(368.41697298209147 173.67517978789405) rotate(0 15.149722994480271 15.1497229944803)"><path d="M30.3 15.15 C30.3 16.03, 30.22 16.92, 30.07 17.78 C29.92 18.64, 29.69 19.51, 29.39 20.33 C29.09 21.16, 28.71 21.97, 28.27 22.72 C27.83 23.48, 27.32 24.22, 26.76 24.89 C26.19 25.56, 25.56 26.19, 24.89 26.76 C24.22 27.32, 23.48 27.83, 22.72 28.27 C21.97 28.71, 21.16 29.09, 20.33 29.39 C19.51 29.69, 18.64 29.92, 17.78 30.07 C16.92 30.22, 16.03 30.3, 15.15 30.3 C14.27 30.3, 13.38 30.22, 12.52 30.07 C11.66 29.92, 10.79 29.69, 9.97 29.39 C9.14 29.09, 8.33 28.71, 7.57 28.27 C6.82 27.83, 6.08 27.32, 5.41 26.76 C4.74 26.19, 4.11 25.56, 3.54 24.89 C2.98 24.22, 2.47 23.48, 2.03 22.72 C1.59 21.97, 1.21 21.16, 0.91 20.33 C0.61 19.51, 0.38 18.64, 0.23 17.78 C0.08 16.92, 0 16.03, 0 15.15 C0 14.27, 0.08 13.38, 0.23 12.52 C0.38 11.66, 0.61 10.79, 0.91 9.97 C1.21 9.14, 1.59 8.33, 2.03 7.57 C2.47 6.82, 2.98 6.08, 3.54 5.41 C4.11 4.74, 4.74 4.11, 5.41 3.54 C6.08 2.98, 6.82 2.47, 7.57 2.03 C8.33 1.59, 9.14 1.21, 9.97 0.91 C10.79 0.61, 11.66 0.38, 12.52 0.23 C13.38 0.08, 14.27 0, 15.15 0 C16.03 0, 16.92 0.08, 17.78 0.23 C18.64 0.38, 19.51 0.61, 20.33 0.91 C21.16 1.21, 21.97 1.59, 22.72 2.03 C23.48 2.47, 24.22 2.98, 24.89 3.54 C25.56 4.11, 26.19 4.74, 26.76 5.41 C27.32 6.08, 27.83 6.82, 28.27 7.57 C28.71 8.33, 29.09 9.14, 29.39 9.97 C29.69 10.79, 29.92 11.66, 30.07 12.52 C30.22 13.38, 30.26 14.71, 30.3 15.15 C30.34 15.59, 30.34 14.71, 30.3 15.15" stroke="none" stroke-width="0" fill="#e6f6fd"></path><path d="M30.3 15.15 C30.3 16.03, 30.22 16.92, 30.07 17.78 C29.92 18.64, 29.69 19.51, 29.39 20.33 C29.09 21.16, 28.71 21.97, 28.27 22.72 C27.83 23.48, 27.32 24.22, 26.76 24.89 C26.19 25.56, 25.56 26.19, 24.89 26.76 C24.22 27.32, 23.48 27.83, 22.72 28.27 C21.97 28.71, 21.16 29.09, 20.33 29.39 C19.51 29.69, 18.64 29.92, 17.78 30.07 C16.92 30.22, 16.03 30.3, 15.15 30.3 C14.27 30.3, 13.38 30.22, 12.52 30.07 C11.66 29.92, 10.79 29.69, 9.97 29.39 C9.14 29.09, 8.33 28.71, 7.57 28.27 C6.82 27.83, 6.08 27.32, 5.41 26.76 C4.74 26.19, 4.11 25.56, 3.54 24.89 C2.98 24.22, 2.47 23.48, 2.03 22.72 C1.59 21.97, 1.21 21.16, 0.91 20.33 C0.61 19.51, 0.38 18.64, 0.23 17.78 C0.08 16.92, 0 16.03, 0 15.15 C0 14.27, 0.08 13.38, 0.23 12.52 C0.38 11.66, 0.61 10.79, 0.91 9.97 C1.21 9.14, 1.59 8.33, 2.03 7.57 C2.47 6.82, 2.98 6.08, 3.54 5.41 C4.11 4.74, 4.74 4.11, 5.41 3.54 C6.08 2.98, 6.82 2.47, 7.57 2.03 C8.33 1.59, 9.14 1.21, 9.97 0.91 C10.79 0.61, 11.66 0.38, 12.52 0.23 C13.38 0.08, 14.27 0, 15.15 0 C16.03 0, 16.92 0.08, 17.78 0.23 C18.64 0.38, 19.51 0.61, 20.33 0.91 C21.16 1.21, 21.97 1.59, 22.72 2.03 C23.48 2.47, 24.22 2.98, 24.89 3.54 C25.56 4.11, 26.19 4.74, 26.76 5.41 C27.32 6.08, 27.83 6.82, 28.27 7.57 C28.71 8.33, 29.09 9.14, 29.39 9.97 C29.69 10.79, 29.92 11.66, 30.07 12.52 C30.22 13.38, 30.26 14.71, 30.3 15.15 C30.34 15.59, 30.34 14.71, 30.3 15.15" stroke="#000" stroke-width="4" fill="none"></path></g><g stroke-linecap="round" transform="translate(375.76016929129787 180.7329073484635) rotate(0 7.724442379476443 8.079909343523667)"><path d="M15.45 8.08 C15.45 8.55, 15.41 9.02, 15.33 9.48 C15.25 9.94, 15.14 10.4, 14.98 10.84 C14.83 11.28, 14.64 11.71, 14.41 12.12 C14.19 12.52, 13.93 12.92, 13.64 13.27 C13.35 13.63, 13.03 13.97, 12.69 14.27 C12.35 14.57, 11.97 14.84, 11.59 15.08 C11.2 15.31, 10.79 15.51, 10.37 15.67 C9.95 15.83, 9.51 15.96, 9.07 16.04 C8.63 16.12, 8.17 16.16, 7.72 16.16 C7.28 16.16, 6.82 16.12, 6.38 16.04 C5.94 15.96, 5.5 15.83, 5.08 15.67 C4.66 15.51, 4.25 15.31, 3.86 15.08 C3.48 14.84, 3.1 14.57, 2.76 14.27 C2.42 13.97, 2.09 13.63, 1.81 13.27 C1.52 12.92, 1.26 12.52, 1.03 12.12 C0.81 11.71, 0.62 11.28, 0.47 10.84 C0.31 10.4, 0.19 9.94, 0.12 9.48 C0.04 9.02, 0 8.55, 0 8.08 C0 7.61, 0.04 7.14, 0.12 6.68 C0.19 6.22, 0.31 5.76, 0.47 5.32 C0.62 4.88, 0.81 4.44, 1.03 4.04 C1.26 3.63, 1.52 3.24, 1.81 2.89 C2.09 2.53, 2.42 2.19, 2.76 1.89 C3.1 1.59, 3.48 1.32, 3.86 1.08 C4.25 0.85, 4.66 0.65, 5.08 0.49 C5.5 0.33, 5.94 0.2, 6.38 0.12 C6.82 0.04, 7.28 0, 7.72 0 C8.17 0, 8.63 0.04, 9.07 0.12 C9.51 0.2, 9.95 0.33, 10.37 0.49 C10.79 0.65, 11.2 0.85, 11.59 1.08 C11.97 1.32, 12.35 1.59, 12.69 1.89 C13.03 2.19, 13.35 2.53, 13.64 2.89 C13.93 3.24, 14.19 3.63, 14.41 4.04 C14.64 4.44, 14.83 4.88, 14.98 5.32 C15.14 5.76, 15.25 6.22, 15.33 6.68 C15.41 7.14, 15.43 7.85, 15.45 8.08 C15.47 8.31, 15.47 7.85, 15.45 8.08" stroke="none" stroke-width="0" fill="#e6f6fd"></path><path d="M15.45 8.08 C15.45 8.55, 15.41 9.02, 15.33 9.48 C15.25 9.94, 15.14 10.4, 14.98 10.84 C14.83 11.28, 14.64 11.71, 14.41 12.12 C14.19 12.52, 13.93 12.92, 13.64 13.27 C13.35 13.63, 13.03 13.97, 12.69 14.27 C12.35 14.57, 11.97 14.84, 11.59 15.08 C11.2 15.31, 10.79 15.51, 10.37 15.67 C9.95 15.83, 9.51 15.96, 9.07 16.04 C8.63 16.12, 8.17 16.16, 7.72 16.16 C7.28 16.16, 6.82 16.12, 6.38 16.04 C5.94 15.96, 5.5 15.83, 5.08 15.67 C4.66 15.51, 4.25 15.31, 3.86 15.08 C3.48 14.84, 3.1 14.57, 2.76 14.27 C2.42 13.97, 2.09 13.63, 1.81 13.27 C1.52 12.92, 1.26 12.52, 1.03 12.12 C0.81 11.71, 0.62 11.28, 0.47 10.84 C0.31 10.4, 0.19 9.94, 0.12 9.48 C0.04 9.02, 0 8.55, 0 8.08 C0 7.61, 0.04 7.14, 0.12 6.68 C0.19 6.22, 0.31 5.76, 0.47 5.32 C0.62 4.88, 0.81 4.44, 1.03 4.04 C1.26 3.63, 1.52 3.24, 1.81 2.89 C2.09 2.53, 2.42 2.19, 2.76 1.89 C3.1 1.59, 3.48 1.32, 3.86 1.08 C4.25 0.85, 4.66 0.65, 5.08 0.49 C5.5 0.33, 5.94 0.2, 6.38 0.12 C6.82 0.04, 7.28 0, 7.72 0 C8.17 0, 8.63 0.04, 9.07 0.12 C9.51 0.2, 9.95 0.33, 10.37 0.49 C10.79 0.65, 11.2 0.85, 11.59 1.08 C11.97 1.32, 12.35 1.59, 12.69 1.89 C13.03 2.19, 13.35 2.53, 13.64 2.89 C13.93 3.24, 14.19 3.63, 14.41 4.04 C14.64 4.44, 14.83 4.88, 14.98 5.32 C15.14 5.76, 15.25 6.22, 15.33 6.68 C15.41 7.14, 15.43 7.85, 15.45 8.08 C15.47 8.31, 15.47 7.85, 15.45 8.08" stroke="#000" stroke-width="4" fill="none"></path></g><g stroke-linecap="round" transform="translate(380.84893629332896 167.22196467177682) rotate(0 2.8685361933513605 3.1347169408307707)"><path d="M0 0 L5.74 0 L5.74 6.27 L0 6.27" stroke="none" stroke-width="0" fill="#000"></path><path d="M0 0 C1.37 0, 2.74 0, 5.74 0 M0 0 C1.44 0, 2.89 0, 5.74 0 M5.74 0 C5.74 1.79, 5.74 3.58, 5.74 6.27 M5.74 0 C5.74 1.98, 5.74 3.97, 5.74 6.27 M5.74 6.27 C3.89 6.27, 2.04 6.27, 0 6.27 M5.74 6.27 C4.09 6.27, 2.44 6.27, 0 6.27 M0 6.27 C0 3.86, 0 1.44, 0 0 M0 6.27 C0 4.41, 0 2.54, 0 0" stroke="#000" stroke-width="4" fill="none"></path></g><g stroke-linecap="round" transform="translate(394.1113618361578 172.88055474659322) rotate(51.407766671525806 2.8685361933513605 3.162048597993703)"><path d="M0 0 L5.74 0 L5.74 6.32 L0 6.32" stroke="none" stroke-width="0" fill="#000"></path><path d="M0 0 C2.08 0, 4.17 0, 5.74 0 M0 0 C1.16 0, 2.32 0, 5.74 0 M5.74 0 C5.74 1.52, 5.74 3.04, 5.74 6.32 M5.74 0 C5.74 1.82, 5.74 3.64, 5.74 6.32 M5.74 6.32 C3.83 6.32, 1.93 6.32, 0 6.32 M5.74 6.32 C3.56 6.32, 1.38 6.32, 0 6.32 M0 6.32 C0 5.03, 0 3.74, 0 0 M0 6.32 C0 4.77, 0 3.21, 0 0" stroke="#000" stroke-width="4" fill="none"></path></g><g stroke-linecap="round" transform="translate(381.3068110299496 204.27063026430764) rotate(178.80478702547435 2.8685361933513605 2.946013732783797)"><path d="M0 0 L5.74 0 L5.74 5.89 L0 5.89" stroke="none" stroke-width="0" fill="#000"></path><path d="M0 0 C1.47 0, 2.94 0, 5.74 0 M0 0 C1.4 0, 2.79 0, 5.74 0 M5.74 0 C5.74 1.64, 5.74 3.28, 5.74 5.89 M5.74 0 C5.74 1.97, 5.74 3.95, 5.74 5.89 M5.74 5.89 C3.6 5.89, 1.46 5.89, 0 5.89 M5.74 5.89 C3.97 5.89, 2.2 5.89, 0 5.89 M0 5.89 C0 4.31, 0 2.74, 0 0 M0 5.89 C0 4.49, 0 3.09, 0 0" stroke="#000" stroke-width="4" fill="none"></path></g><g stroke-linecap="round" transform="translate(399.08266846921856 185.38239164301612) rotate(87.69336937834997 2.8685361933513605 3.021150851598094)"><path d="M0 0 L5.74 0 L5.74 6.04 L0 6.04" stroke="none" stroke-width="0" fill="#000"></path><path d="M0 0 C2.09 0, 4.19 0, 5.74 0 M0 0 C1.93 0, 3.85 0, 5.74 0 M5.74 0 C5.74 1.72, 5.74 3.44, 5.74 6.04 M5.74 0 C5.74 2.39, 5.74 4.78, 5.74 6.04 M5.74 6.04 C4.08 6.04, 2.43 6.04, 0 6.04 M5.74 6.04 C3.62 6.04, 1.5 6.04, 0 6.04 M0 6.04 C0 4.25, 0 2.47, 0 0 M0 6.04 C0 4.2, 0 2.36, 0 0" stroke="#000" stroke-width="4" fill="none"></path></g><g stroke-linecap="round" transform="translate(362.4472126115211 186.0568688025954) rotate(268.8912000252161 2.8685361933513605 3.08715750812965)"><path d="M0 0 L5.74 0 L5.74 6.17 L0 6.17" stroke="none" stroke-width="0" fill="#000"></path><path d="M0 0 C1.62 0, 3.25 0, 5.74 0 M0 0 C1.45 0, 2.89 0, 5.74 0 M5.74 0 C5.74 1.4, 5.74 2.79, 5.74 6.17 M5.74 0 C5.74 2.38, 5.74 4.76, 5.74 6.17 M5.74 6.17 C3.82 6.17, 1.9 6.17, 0 6.17 M5.74 6.17 C4.56 6.17, 3.39 6.17, 0 6.17 M0 6.17 C0 3.99, 0 1.82, 0 0 M0 6.17 C0 3.72, 0 1.27, 0 0" stroke="#000" stroke-width="4" fill="none"></path></g><g stroke-linecap="round" transform="translate(394.78650376276664 197.48719376463222) rotate(123.77907128246466 2.8685361933513605 3.0002113996199853)"><path d="M0 0 L5.74 0 L5.74 6 L0 6" stroke="none" stroke-width="0" fill="#000"></path><path d="M0 0 C2.15 0, 4.3 0, 5.74 0 M0 0 C1.46 0, 2.93 0, 5.74 0 M5.74 0 C5.74 2.2, 5.74 4.41, 5.74 6 M5.74 0 C5.74 1.69, 5.74 3.38, 5.74 6 M5.74 6 C3.46 6, 1.18 6, 0 6 M5.74 6 C4.1 6, 2.47 6, 0 6 M0 6 C0 4.41, 0 2.82, 0 0 M0 6 C0 4.43, 0 2.86, 0 0" stroke="#000" stroke-width="4" fill="none"></path></g><g stroke-linecap="round" transform="translate(368.460337954788 199.52001534921996) rotate(218.26713057767037 2.8685361933513605 3.132495938407857)"><path d="M0 0 L5.74 0 L5.74 6.26 L0 6.26" stroke="none" stroke-width="0" fill="#000"></path><path d="M0 0 C2.24 0, 4.48 0, 5.74 0 M0 0 C2.18 0, 4.36 0, 5.74 0 M5.74 0 C5.74 1.83, 5.74 3.67, 5.74 6.26 M5.74 0 C5.74 1.27, 5.74 2.54, 5.74 6.26 M5.74 6.26 C4.52 6.26, 3.29 6.26, 0 6.26 M5.74 6.26 C3.49 6.26, 1.24 6.26, 0 6.26 M0 6.26 C0 4.77, 0 3.28, 0 0 M0 6.26 C0 4.23, 0 2.2, 0 0" stroke="#000" stroke-width="4" fill="none"></path></g><g stroke-linecap="round" transform="translate(367.55756372423366 172.7413412550196) rotate(316.8881339661219 2.8685361933513605 2.980542201591078)"><path d="M0 0 L5.74 0 L5.74 5.96 L0 5.96" stroke="none" stroke-width="0" fill="#000"></path><path d="M0 0 C1.64 0, 3.27 0, 5.74 0 M0 0 C1.81 0, 3.63 0, 5.74 0 M5.74 0 C5.74 1.92, 5.74 3.84, 5.74 5.96 M5.74 0 C5.74 1.71, 5.74 3.42, 5.74 5.96 M5.74 5.96 C3.53 5.96, 1.32 5.96, 0 5.96 M5.74 5.96 C4.03 5.96, 2.33 5.96, 0 5.96 M0 5.96 C0 4.3, 0 2.63, 0 0 M0 5.96 C0 3.74, 0 1.53, 0 0" stroke="#000" stroke-width="4" fill="none"></path></g><g stroke-linecap="round"><g transform="translate(231.40061250725466 173.29465387936077) rotate(0 44.43631271447737 -5.865281283982256)"><path d="M-0.34 -0.48 C14.8 -2.09, 74.87 -8.73, 89.65 -10.76 M1.68 -1.78 C16.84 -3.61, 74.85 -10.7, 89.12 -12.38" stroke="#1e1e1e" stroke-width="4" fill="none"></path></g><g transform="translate(231.40061250725466 173.29465387936077) rotate(0 44.43631271447737 -5.865281283982256)"><path d="M66.81 -1.08 C70.61 -1.99, 77.51 -6.45, 89.12 -12.38 M66.81 -1.08 C71.43 -4.48, 77.08 -6.57, 89.12 -12.38" stroke="#1e1e1e" stroke-width="4" fill="none"></path></g><g transform="translate(231.40061250725466 173.29465387936077) rotate(0 44.43631271447737 -5.865281283982256)"><path d="M64.77 -18.06 C68.82 -15.55, 76.13 -16.58, 89.12 -12.38 M64.77 -18.06 C69.91 -17.69, 76.02 -16.01, 89.12 -12.38" stroke="#1e1e1e" stroke-width="4" fill="none"></path></g></g><mask></mask><g stroke-linecap="round" transform="translate(10 52.0000002198104) rotate(0 273.4512730536993 187.00649892315238)"><path d="M32 0 C218.32 -0.37, 406.18 -0.68, 514.9 0 M32 0 C130.05 1.44, 227.58 1.2, 514.9 0 M514.9 0 C534.98 1.91, 545.97 12.08, 546.9 32 M514.9 0 C538.06 -0.22, 547.96 9.33, 546.9 32 M546.9 32 C548.12 121.8, 546.79 213.35, 546.9 342.01 M546.9 32 C549.78 142.12, 549.62 252.19, 546.9 342.01 M546.9 342.01 C545.29 364.68, 535.83 374.8, 514.9 374.01 M546.9 342.01 C545.51 362.23, 534.13 373.79, 514.9 374.01 M514.9 374.01 C322.06 372.11, 128.98 371.99, 32 374.01 M514.9 374.01 C362.63 374.27, 210.88 374.68, 32 374.01 M32 374.01 C10.72 375.28, 1.5 365.31, 0 342.01 M32 374.01 C9.62 371.93, -0.9 364.55, 0 342.01 M0 342.01 C1.19 245.82, 3.1 150.96, 0 32 M0 342.01 C-0.07 269.64, 0.15 197.9, 0 32 M0 32 C1.35 11.25, 9.33 0.61, 32 0 M0 32 C-0.54 11.64, 9.65 1.31, 32 0" stroke="#1e1e1e" stroke-width="1" fill="none"></path></g><g transform="translate(220.8557055951669 10) rotate(0 58.60993957519531 11.5)"><text x="58.60993957519531" y="18.08" font-family="Nunito, Segoe UI Emoji" font-size="20px" fill="#1e1e1e" text-anchor="middle" style="white-space: pre;" direction="ltr" dominant-baseline="alphabetic">API CLIENT</text></g><g stroke-linecap="round"><g transform="translate(320.066962157012 304.5087456099052) rotate(0 19.038292276202753 -31.945028000000036)"><path d="M-0.56 0.51 C5.93 -10.08, 32.44 -52.35, 38.75 -62.93 M1.35 -0.27 C7.76 -11.23, 31.74 -53.79, 38.16 -64.54" stroke="#1e1e1e" stroke-width="4" fill="none"></path></g><g transform="translate(320.066962157012 304.5087456099052) rotate(0 19.038292276202753 -31.945028000000036)"><path d="M4.58 -23.96 C4.09 -15.86, 3.37 -11.24, -0.56 0.51 M4.58 -23.96 C2.56 -14.61, 1.36 -5.18, -0.56 0.51" stroke="#1e1e1e" stroke-width="4" fill="none"></path></g><g transform="translate(320.066962157012 304.5087456099052) rotate(0 19.038292276202753 -31.945028000000036)"><path d="M19.11 -14.93 C14.41 -9.48, 9.54 -7.44, -0.56 0.51 M19.11 -14.93 C11.56 -9.14, 4.86 -3.12, -0.56 0.51" stroke="#1e1e1e" stroke-width="4" fill="none"></path></g><g transform="translate(320.066962157012 304.5087456099052) rotate(0 19.038292276202753 -31.945028000000036)"><path d="M33.8 -39.92 C35.77 -45.82, 37.77 -55.24, 38.16 -64.54 M33.8 -39.92 C35.27 -49.09, 37.67 -58.25, 38.16 -64.54" stroke="#1e1e1e" stroke-width="4" fill="none"></path></g><g transform="translate(320.066962157012 304.5087456099052) rotate(0 19.038292276202753 -31.945028000000036)"><path d="M19 -48.48 C25.25 -51.87, 31.48 -58.84, 38.16 -64.54 M19 -48.48 C26.09 -54.27, 34.1 -60.19, 38.16 -64.54" stroke="#1e1e1e" stroke-width="4" fill="none"></path></g></g><mask></mask><g transform="translate(485.47934006465084 158.70287660990525) rotate(356.20728833722734 33.059967041015625 12.5)"><text x="33.059967041015625" y="17.619999999999997" font-family="Excalifont, Xiaolai, Segoe UI Emoji" font-size="20px" fill="#1e1e1e" text-anchor="middle" style="white-space: pre;" direction="ltr" dominant-baseline="alphabetic">results</text></g></svg>