<?xml version="1.0" encoding="UTF-8" standalone="no"?>
<svg
   xmlns:dc="http://purl.org/dc/elements/1.1/"
   xmlns:cc="http://creativecommons.org/ns#"
   xmlns:rdf="http://www.w3.org/1999/02/22-rdf-syntax-ns#"
   xmlns:svg="http://www.w3.org/2000/svg"
   xmlns="http://www.w3.org/2000/svg"
   xmlns:sodipodi="http://sodipodi.sourceforge.net/DTD/sodipodi-0.dtd"
   xmlns:inkscape="http://www.inkscape.org/namespaces/inkscape"
   version="1.1"
   width="205.19655"
   height="166.44128"
   id="svg35"
   viewBox="0 0 205.19655 166.44128"
   sodipodi:docname="velo_black_full.svg"
   inkscape:version="0.92.4 (5da689c313, 2019-01-14)">
  <metadata
     id="metadata39">
    <rdf:RDF>
      <cc:Work
         rdf:about="">
        <dc:format>image/svg+xml</dc:format>
        <dc:type
           rdf:resource="http://purl.org/dc/dcmitype/StillImage" />
        <dc:title></dc:title>
      </cc:Work>
    </rdf:RDF>
  </metadata>
  <sodipodi:namedview
     pagecolor="#ffffff"
     bordercolor="#666666"
     borderopacity="1"
     objecttolerance="10"
     gridtolerance="10"
     guidetolerance="10"
     inkscape:pageopacity="0"
     inkscape:pageshadow="2"
     inkscape:window-width="1920"
     inkscape:window-height="1026"
     id="namedview37"
     showgrid="false"
     inkscape:snap-bbox="true"
     inkscape:snap-global="false"
     inkscape:zoom="3.2435385"
     inkscape:cx="113.10261"
     inkscape:cy="49.792037"
     inkscape:window-x="0"
     inkscape:window-y="25"
     inkscape:window-maximized="1"
     inkscape:current-layer="svg35"
     fit-margin-top="0"
     fit-margin-left="0"
     fit-margin-right="0"
     fit-margin-bottom="0" />
  <defs
     id="defs9">
    <radialGradient
       id="grad1"
       cx="0.50999999"
       cy="0.50999999"
       r="1">
      <stop
         offset="0%"
         stop-color="#000000"
         stop-opacity="1.0000"
         id="stop4" />
      <stop
         offset="100%"
         stop-color="#000000"
         stop-opacity="1.0000"
         id="stop6" />
    </radialGradient>
  </defs>
  <g
     inkscape:groupmode="layer"
     id="layer4"
     inkscape:label="Layer 2"
     transform="translate(-202.8331,-380.39082)">
    <path
       inkscape:connector-curvature="0"
       id="path19-2"
       style="fill:#ffffff;fill-rule:evenodd;stroke-width:0.9004038"
       d="m 305.78538,435.31366 c -2.66466,1.64473 -12.38168,7.30312 -22.99665,9.31352 0.94258,5.98854 4.74275,29.66193 6.27717,32.08845 1.09201,1.72683 6.02637,7.32781 10.48055,11.64647 2.90186,2.81362 5.4691,5.02916 6.26226,5.02916 v 0.005 h 0.0205 v -0.005 c 0.79317,0 3.36049,-2.21554 6.26227,-5.02916 4.45416,-4.31866 9.38862,-9.91964 10.48054,-11.64647 1.5345,-2.42652 5.33467,-26.09991 6.27726,-32.08845 -10.61506,-2.0104 -20.332,-7.66851 -22.99675,-9.31352 l -0.0335,0.0226 z"
       sodipodi:nodetypes="cccccccccccccc" />
    <ellipse
       style="opacity:1;fill:#ffffff;fill-opacity:1;stroke:#ffffff;stroke-width:2.17940807;stroke-linecap:round;stroke-linejoin:round;stroke-miterlimit:0;stroke-dasharray:none;stroke-dashoffset:0;stroke-opacity:1;paint-order:fill markers stroke"
       id="path7831"
       cx="294.62421"
       cy="407.13394"
       rx="4.8441763"
       ry="5.0561366" />
  </g>
  <path
     inkscape:connector-curvature="0"
     id="path13"
     style="fill:#00ab00;fill-opacity:1;fill-rule:evenodd"
     d="m 27.2962,128.30028 c -1.6642,4.3378 -3.2057,8.3075 -4.6244,11.9089 -0.6001,1.5551 -1.2073,3.0965 -1.821,4.6241 -0.614,1.5279 -1.1869,2.9466 -1.719,4.2562 -0.532,1.3097 -1.0094,2.4486 -1.4323,3.4172 -0.4229,0.9683 -0.7435,1.6574 -0.9618,2.0665 -0.4637,0.873 -1.0094,1.4734 -1.6367,1.8008 -0.6276,0.3274 -1.2141,0.5182 -1.7598,0.5729 -0.6823,0.0819 -1.3507,0.0136 -2.0055,-0.2047 L 0,128.30028 c 0.6548,-0.1092 1.3164,-0.1571 1.9848,-0.1432 0.6684,0.0136 1.2892,0.1227 1.8621,0.3274 0.5729,0.2044 1.0981,0.5182 1.5755,0.9411 0.4773,0.4229 0.8662,0.989 1.1664,1.6982 0.0272,0.1092 0.1568,0.4573 0.3887,1.0438 0.2318,0.5865 0.5184,1.3232 0.8594,2.2099 0.341,0.8866 0.716,1.8756 1.1254,2.967 0.4093,1.091 0.8322,2.196 1.2685,3.3148 1.0097,2.6464 2.1554,5.6064 3.4378,8.8804 1.2549,-3.274 2.3871,-6.234 3.3965,-8.8804 0.4365,-1.1188 0.8595,-2.2238 1.2688,-3.3148 0.409,-1.0914 0.7843,-2.0804 1.1253,-2.967 0.3411,-0.8867 0.6276,-1.6234 0.8595,-2.2099 0.2319,-0.5865 0.375,-0.9346 0.4297,-1.0438 0.2999,-0.7092 0.6889,-1.2753 1.1662,-1.6982 0.4774,-0.4229 1.0026,-0.7367 1.5755,-0.9411 0.5732,-0.2047 1.1869,-0.3138 1.8417,-0.3274 0.6548,-0.0139 1.3096,0.034 1.9644,0.1432 z m 12.6862,24.4723 c 0.3274,0.1911 0.6412,0.5185 0.9414,0.9822 l 0.1227,0.1227 -0.1227,0.1228 c -0.9003,0.9822 -1.9713,1.7529 -3.2126,2.3122 -1.2412,0.5593 -2.5849,0.8391 -4.0311,0.8391 -1.2549,0 -2.435,-0.2526 -3.5399,-0.7572 -1.105,-0.5048 -2.0801,-1.2072 -2.9259,-2.1075 -0.8184,-0.8731 -1.4664,-1.9029 -1.944,-3.0898 -0.4774,-1.1869 -0.7161,-2.4622 -0.7161,-3.8265 0,-1.364 0.2115,-2.6396 0.6344,-3.8262 0.423,-1.1869 1.0299,-2.2303 1.821,-3.1309 0.7912,-0.873 1.753,-1.5686 2.8851,-2.0868 1.1322,-0.5185 2.3942,-0.7778 3.7854,-0.7778 0.7639,0 1.603,0.1162 2.5169,0.348 0.9139,0.2319 1.7665,0.6001 2.5577,1.105 0.7911,0.5046 1.4459,1.1662 1.9644,1.9848 0.5184,0.8184 0.7775,1.8006 0.7775,2.9463 0,1.1186 -0.2863,2.026 -0.8594,2.7216 -0.5729,0.6956 -1.2549,1.2413 -2.0461,1.637 -0.7911,0.3954 -1.6302,0.6684 -2.5169,0.8184 -0.8866,0.1499 -1.6574,0.225 -2.3122,0.225 -1.0094,0 -1.8893,-0.0615 -2.6396,-0.1842 -0.7501,-0.1228 -1.2617,-0.2115 -1.5347,-0.2659 0.1092,0.9822 0.3274,1.7801 0.6548,2.3941 0.3274,0.6137 0.6959,1.0982 1.105,1.4528 0.4093,0.3546 0.8186,0.5933 1.2277,0.716 0.4093,0.1228 0.7775,0.1843 1.1049,0.1843 0.5732,0 1.1188,-0.0547 1.637,-0.1639 0.5185,-0.1091 0.9822,-0.2319 1.3915,-0.3682 0.4094,-0.1363 0.798,-0.2727 1.1662,-0.4093 0.3685,-0.1364 0.7299,-0.2044 1.0845,-0.2044 0.3822,0 0.7232,0.0952 1.0231,0.2863 z m -6.3023,-11.7451 c -0.2999,0.0272 -0.6545,0.1024 -1.0638,0.2251 -0.4094,0.1227 -0.8116,0.3478 -1.2073,0.6752 -0.3957,0.3274 -0.7572,0.7912 -1.0846,1.3915 -0.3274,0.6001 -0.5592,1.3641 -0.6956,2.2916 0.4366,0.1366 1.0571,0.2661 1.8621,0.3889 0.8048,0.1227 1.6095,0.1431 2.4143,0.0612 0.805,-0.0816 1.5142,-0.3135 2.1282,-0.6956 0.6137,-0.3818 0.9479,-1.023 1.0026,-1.9233 0.0545,-0.682 -0.2114,-1.2688 -0.7979,-1.7598 -0.5868,-0.4912 -1.4392,-0.7095 -2.558,-0.6548 z m 19.275,12.0317 c 0.0547,0.7092 0,1.3504 -0.1635,1.9233 -0.1364,0.4912 -0.4094,0.9618 -0.8187,1.4119 -0.409,0.4502 -1.0502,0.7025 -1.9233,0.7572 -0.8458,0.0816 -1.5823,-0.007 -2.2099,-0.2662 -0.6276,-0.2591 -1.1525,-0.6205 -1.5755,-1.0845 -0.4229,-0.4638 -0.7367,-1.0095 -0.9414,-1.6368 -0.2046,-0.6276 -0.307,-1.2824 -0.307,-1.9644 v -19.9298 c -0.0272,-0.8187 -0.0476,-1.4803 -0.0612,-1.9848 -0.0136,-0.5049 -0.034,-0.9071 -0.0615,-1.2073 -0.0272,-0.3274 -0.0544,-0.5865 -0.0816,-0.7775 1.6914,0 2.9874,0.3546 3.8877,1.0638 0.9003,0.7095 1.3504,1.8689 1.3504,3.4787 v 18.8657 c 0,0.6548 0.1227,1.1256 0.3682,1.4119 0.2458,0.2866 0.5321,0.457 0.8595,0.5117 0.3274,0.0544 0.6548,0.0204 0.9822,-0.1024 0.3274,-0.1227 0.5593,-0.2797 0.6956,-0.4705 z m 18.2931,-12.6046 c 0.8459,0.8731 1.5075,1.9029 1.9848,3.0898 0.4774,1.1866 0.7161,2.4622 0.7161,3.8262 0,1.3643 -0.2183,2.6396 -0.6548,3.8265 -0.4366,1.1869 -1.0503,2.2167 -1.8414,3.0898 -0.7912,0.9003 -1.753,1.6095 -2.8851,2.1279 -1.1325,0.5185 -2.3942,0.7776 -3.7857,0.7776 -1.2549,0 -2.4349,-0.2591 -3.5399,-0.7776 -1.1049,-0.5184 -2.0801,-1.2276 -2.9259,-2.1279 -0.8184,-0.8731 -1.4664,-1.9029 -1.944,-3.0898 -0.4774,-1.1869 -0.716,-2.4622 -0.716,-3.8265 0,-1.364 0.2114,-2.6396 0.6343,-3.8262 0.423,-1.1869 1.0299,-2.2167 1.821,-3.0898 0.7912,-0.9002 1.753,-1.6097 2.8851,-2.1279 1.1322,-0.5185 2.3942,-0.7778 3.7854,-0.7778 1.2824,0 2.4761,0.2593 3.581,0.7778 1.105,0.5182 2.0668,1.2277 2.8851,2.1279 z m -6.4661,13.2183 c 0.3549,0 0.7708,-0.0817 1.2484,-0.2455 0.4773,-0.1636 0.9343,-0.4773 1.3708,-0.9411 0.4366,-0.464 0.8048,-1.1049 1.105,-1.9236 0.3002,-0.8184 0.4501,-1.8825 0.4501,-3.1921 0,-1.3096 -0.1499,-2.3802 -0.4501,-3.2125 -0.3002,-0.832 -0.6684,-1.4732 -1.105,-1.9233 -0.4365,-0.4501 -0.8935,-0.7571 -1.3708,-0.9207 -0.4776,-0.1638 -0.8935,-0.2458 -1.2484,-0.2458 -0.3546,0 -0.7707,0.082 -1.2481,0.2458 -0.4773,0.1636 -0.9343,0.4706 -1.3708,0.9207 -0.4366,0.4501 -0.8048,1.0913 -1.105,1.9233 -0.3002,0.8323 -0.4501,1.9029 -0.4501,3.2125 0,1.3096 0.1499,2.3737 0.4501,3.1921 0.3002,0.8187 0.6684,1.4596 1.105,1.9236 0.4365,0.4638 0.8935,0.7775 1.3708,0.9411 0.4774,0.1638 0.8935,0.2455 1.2481,0.2455 z m 21.1575,-12.6454 c -0.3546,0 -0.7707,0.082 -1.2481,0.2455 -0.4773,0.1639 -0.9343,0.4706 -1.3708,0.9207 -0.4365,0.4504 -0.8048,1.0913 -1.1049,1.9236 -0.3002,0.832 -0.4502,1.9029 -0.4502,3.2125 0,1.3096 0.15,2.3803 0.4502,3.2125 0.3001,0.832 0.6684,1.4732 1.1049,1.9233 0.4365,0.4502 0.8935,0.7571 1.3708,0.921 0.4774,0.1635 0.8935,0.2455 1.2481,0.2455 0.5732,0 1.1189,-0.0547 1.637,-0.1639 0.5185,-0.1091 0.9822,-0.2319 1.3916,-0.3682 0.4093,-0.1636 0.7979,-0.307 1.1661,-0.4297 0.3685,-0.1228 0.73,-0.184 1.0846,-0.184 0.3546,0 0.7095,0.0952 1.0641,0.2863 0.3002,0.1911 0.6137,0.5049 0.9411,0.9414 l 0.0819,0.1635 -0.1227,0.1228 c -0.9003,0.9822 -1.9712,1.7529 -3.2125,2.3122 -1.2413,0.5593 -2.5713,0.8391 -3.9901,0.8391 -1.2824,0 -2.476,-0.2594 -3.581,-0.7776 -1.1049,-0.5184 -2.08,-1.2141 -2.9259,-2.0871 -0.8184,-0.8731 -1.4664,-1.9029 -1.944,-3.0898 -0.4774,-1.1869 -0.716,-2.4622 -0.716,-3.8265 0,-1.364 0.2182,-2.6396 0.6548,-3.8262 0.4365,-1.1869 1.0502,-2.2303 1.8416,-3.1309 0.7912,-0.873 1.7459,-1.5686 2.8644,-2.0868 1.1189,-0.5185 2.3738,-0.7778 3.765,-0.7778 1.4463,0 2.7899,0.2797 4.0312,0.839 1.2413,0.5593 2.3122,1.33 3.2125,2.3122 l 0.1227,0.1228 -0.1227,0.1638 c -0.3002,0.491 -0.614,0.8048 -0.9414,0.9411 -0.3546,0.2183 -0.6956,0.3138 -1.023,0.2866 -0.3546,0 -0.7161,-0.0615 -1.0846,-0.1843 -0.3682,-0.1227 -0.7568,-0.2522 -1.1661,-0.3889 -0.4094,-0.1635 -0.8731,-0.3067 -1.3916,-0.4294 -0.5181,-0.123 -1.0638,-0.1843 -1.637,-0.1843 z m 15.3057,-9.085 c -0.5732,0.9547 -1.3643,1.4323 -2.3737,1.4323 -0.4366,0 -0.8456,-0.0955 -1.2277,-0.2865 -0.4093,-0.2455 -0.7229,-0.5661 -0.9411,-0.9618 -0.2183,-0.3955 -0.3274,-0.8252 -0.3274,-1.289 0,-0.5184 0.1227,-0.9822 0.3682,-1.3915 0.2455,-0.4637 0.5865,-0.8251 1.023,-1.0845 0.4366,-0.2591 0.8867,-0.3886 1.3504,-0.3886 0.4094,0 0.8051,0.1091 1.1869,0.3274 0.4365,0.2182 0.7639,0.532 0.9822,0.9411 0.2183,0.4093 0.3274,0.8458 0.3274,1.3096 0,0.4912 -0.1227,0.955 -0.3682,1.3915 z m 3.1921,21.1167 c -0.1366,0.1908 -0.3685,0.3478 -0.6959,0.4705 -0.3274,0.1228 -0.6548,0.1568 -0.9822,0.1024 -0.3274,-0.0547 -0.6137,-0.2251 -0.8592,-0.5117 -0.2458,-0.2863 -0.3685,-0.7571 -0.3685,-1.4119 v -9.7807 c 0,-0.8183 0.007,-1.48 0.0204,-1.9848 0.0139,-0.5046 0.0343,-0.9071 0.0615,-1.2073 0.0272,-0.3274 0.0547,-0.5865 0.0819,-0.7775 -1.6917,0 -2.9738,0.3546 -3.8469,1.0641 -0.873,0.7092 -1.3096,1.8825 -1.3096,3.5195 l -0.0408,9.6579 c 0,0.682 0.1023,1.3368 0.307,1.9644 0.2044,0.6273 0.5182,1.173 0.9411,1.6368 0.4229,0.464 0.9482,0.8254 1.5755,1.0845 0.6276,0.2594 1.3643,0.3478 2.2099,0.2662 0.8731,-0.0547 1.5143,-0.307 1.9236,-0.7572 0.409,-0.4501 0.682,-0.9207 0.8183,-1.4119 0.1639,-0.5729 0.2183,-1.2141 0.1639,-1.9233 z m 2.0871,-6.1795 c 0,-1.8281 0.2659,-3.3217 0.798,-4.4813 0.5321,-1.1594 1.2209,-2.0665 2.0667,-2.7213 0.8456,-0.6548 1.7938,-1.0981 2.844,-1.33 1.0506,-0.2319 2.094,-0.3478 3.1309,-0.3478 h 2.0052 c 0.1364,0.5729 0.1636,1.1049 0.0819,1.5959 -0.0547,0.4093 -0.2389,0.8047 -0.5524,1.1869 -0.3138,0.3818 -0.8255,0.6137 -1.5347,0.6956 -0.4638,0.0544 -0.921,0.1567 -1.3711,0.307 -0.4502,0.1499 -0.8524,0.409 -1.2073,0.7775 -0.3546,0.3682 -0.6477,0.8935 -0.8799,1.5755 -0.2318,0.682 -0.3478,1.5959 -0.3478,2.742 v 5.9337 c 0,0.8187 0.007,1.4803 0.0204,1.9848 0.0139,0.5049 0.0343,0.9074 0.0615,1.2073 0.0273,0.3274 0.0547,0.5732 0.082,0.7367 -1.6643,0 -2.9467,-0.3478 -3.8469,-1.0434 -0.9003,-0.6959 -1.3505,-1.8621 -1.3505,-3.4991 z m 15.2646,-0.5729 c 0.7364,-0.4641 1.5687,-0.8119 2.4962,-1.0437 0.9278,-0.2319 1.8961,-0.3479 2.9058,-0.3479 1.4184,0 2.7692,0.2047 4.0513,0.614 -0.0817,-0.8458 -0.2591,-1.5962 -0.5321,-2.251 -0.3546,-0.8455 -0.8867,-1.4595 -1.5959,-1.8413 -0.2727,-0.1367 -0.5661,-0.239 -0.8799,-0.307 -0.3138,-0.0684 -0.6752,-0.1024 -1.0845,-0.1024 h -0.4502 c -0.3818,0.0272 -0.7639,0.0888 -1.1457,0.1843 -0.3821,0.0952 -0.764,0.2112 -1.1461,0.3478 -0.3818,0.1363 -0.7636,0.2523 -1.1457,0.3478 -0.3819,0.0955 -0.7504,0.1432 -1.105,0.1432 -0.3818,0 -0.7503,-0.082 -1.1049,-0.2455 -0.3274,-0.1911 -0.6137,-0.5049 -0.8595,-0.9414 l -0.0816,-0.1636 0.0816,-0.1227 c 0.8187,-0.8731 1.7802,-1.5755 2.8851,-2.1076 1.105,-0.532 2.3122,-0.839 3.6218,-0.9209 0.1364,-0.0273 0.2523,-0.0409 0.3479,-0.0409 0.0955,0 0.2114,0 0.3478,0 1.2551,0 2.4009,0.2251 3.4378,0.6752 1.0367,0.4502 1.9369,1.071 2.7009,1.8621 1.5551,1.6915 2.3598,3.915 2.4145,6.6705 v 0.3274 c 0,2.8375 -0.7231,5.1429 -2.169,6.9163 -0.7093,0.873 -1.5619,1.5823 -2.5577,2.1279 -0.9959,0.5457 -2.1076,0.8867 -3.3353,1.0231 -0.1638,0.0275 -0.3274,0.0411 -0.4912,0.0411 -0.1636,0 -0.341,0 -0.5318,0 -0.5732,0 -1.1733,-0.0479 -1.8009,-0.1435 -0.6273,-0.0952 -1.2413,-0.2795 -1.8413,-0.5524 -0.6276,-0.2455 -1.2005,-0.5661 -1.719,-0.9616 -0.5182,-0.3957 -0.9547,-0.907 -1.3096,-1.5346 -0.5182,-0.7912 -0.7911,-1.7598 -0.8183,-2.9055 v -0.2458 c 0,-1.0639 0.2182,-1.9505 0.6548,-2.66 0.3818,-0.7093 0.9686,-1.3233 1.7597,-1.8414 z m 8.4711,1.9641 c -0.3547,-0.0544 -0.7569,-0.1091 -1.2073,-0.1636 -0.4502,-0.0547 -0.9071,-0.0819 -1.3709,-0.0819 -0.3818,0 -0.7503,0.0204 -1.1049,0.0615 -0.3546,0.0409 -0.682,0.116 -0.9822,0.2251 -0.682,0.2183 -1.2005,0.5593 -1.5551,1.023 -0.1363,0.1639 -0.2455,0.3478 -0.3274,0.5525 -0.0819,0.2047 -0.1363,0.4297 -0.1635,0.6752 -0.0275,0.0819 -0.0411,0.2047 -0.0411,0.3682 0,0.273 0.0411,0.5664 0.1227,0.8799 0.0819,0.3138 0.2458,0.6072 0.4912,0.8799 0.2183,0.273 0.5389,0.5048 0.9618,0.6959 0.4227,0.1908 0.989,0.2863 1.6983,0.2863 0.2182,0 0.3818,-0.0136 0.4909,-0.0408 0.764,-0.0272 1.4324,-0.2455 2.0053,-0.6548 0.2729,-0.1639 0.5048,-0.3615 0.6959,-0.5933 0.191,-0.2322 0.3546,-0.4845 0.4909,-0.7572 0.3002,-0.5184 0.5049,-1.0505 0.614,-1.5962 0.1091,-0.5456 0.1636,-1.0502 0.1636,-1.5139 -0.0272,0 -0.0477,-0.007 -0.0613,-0.0207 -0.0136,-0.0136 -0.0343,-0.0204 -0.0615,-0.0204 -0.1091,-0.0273 -0.2318,-0.0545 -0.3682,-0.0817 -0.1363,-0.0275 -0.3002,-0.0683 -0.4912,-0.123 z m 8.0212,-0.9003 c 0,-1.364 0.2386,-2.6396 0.716,-3.8262 0.4776,-1.1869 1.1253,-2.2167 1.944,-3.0898 0.8184,-0.9002 1.7801,-1.6097 2.8851,-2.1279 1.1049,-0.5185 2.2986,-0.7778 3.5807,-0.7778 1.3915,0 2.6532,0.2593 3.7857,0.7778 1.1321,0.5182 2.0937,1.2277 2.8851,2.1279 0.7911,0.8731 1.4048,1.9029 1.8414,3.0898 0.4365,1.1866 0.6548,2.4622 0.6548,3.8262 0,1.3643 -0.2387,2.6396 -0.7161,3.8265 -0.4776,1.1869 -1.1392,2.2167 -1.9848,3.0898 -0.8186,0.9003 -1.7801,1.6095 -2.8851,2.1279 -1.1049,0.5185 -2.2986,0.7776 -3.581,0.7776 -1.5551,0 -2.9327,-0.3138 -4.1332,-0.9411 l 0.0408,6.2203 c 0,0.8184 0.007,1.4868 0.0204,2.0053 0.0139,0.5184 0.0343,0.9274 0.0616,1.2276 0.0272,0.3274 0.0547,0.5729 0.0819,0.7368 -1.6917,0 -2.9807,-0.3549 -3.8673,-1.0642 -0.8867,-0.7092 -1.33,-1.8825 -1.33,-3.5195 z m 9.1258,6.3023 c 0.3549,0 0.7708,-0.0817 1.2484,-0.2455 0.4773,-0.1636 0.9343,-0.4705 1.3708,-0.9207 0.4366,-0.4501 0.8048,-1.0913 1.105,-1.9236 0.3002,-0.8319 0.4501,-1.9029 0.4501,-3.2125 0,-1.3096 -0.1499,-2.3734 -0.4501,-3.1921 -0.3002,-0.8183 -0.6684,-1.4527 -1.105,-1.9029 -0.4365,-0.4501 -0.8935,-0.7571 -1.3708,-0.9207 -0.4776,-0.1638 -0.8935,-0.2454 -1.2484,-0.2454 -0.3546,0 -0.7707,0.0816 -1.2481,0.2454 -0.4773,0.1636 -0.9343,0.4706 -1.3708,0.9207 -0.4365,0.4502 -0.8051,1.0846 -1.105,1.9029 -0.3001,0.8187 -0.4501,1.8825 -0.4501,3.1921 0,1.3096 0.15,2.3806 0.4501,3.2125 0.2999,0.8323 0.6685,1.4735 1.105,1.9236 0.4365,0.4502 0.8935,0.7571 1.3708,0.9207 0.4774,0.1638 0.8935,0.2455 1.2481,0.2455 z m 23.4904,-0.5321 c 0,0.0819 0.0136,0.1775 0.0409,0.2866 0.0544,0.2183 0.0819,0.4229 0.0819,0.614 0,0.4909 -0.1092,0.9343 -0.3274,1.33 -0.2183,0.3954 -0.5185,0.7296 -0.9003,1.0026 -0.7639,0.5457 -1.6917,0.8184 -2.7831,0.8184 -0.9002,0 -1.7869,-0.2047 -2.66,-0.6137 -0.8731,-0.4093 -1.6642,-1.0233 -2.3734,-1.8417 -0.7096,-0.8186 -1.2756,-1.8349 -1.6983,-3.0489 -0.4229,-1.2141 -0.6344,-2.6397 -0.6344,-4.2764 l 0.0408,-11.827 c 0,-1.637 0.4366,-2.8102 1.3097,-3.5195 0.873,-0.7095 2.1415,-1.0641 3.8058,-1.0641 -0.0273,0.1911 -0.0545,0.4501 -0.0817,0.7775 -0.0275,0.3002 -0.0479,0.7028 -0.0615,1.2073 -0.0136,0.5049 -0.0204,1.1665 -0.0204,1.9848 l 0.0408,2.5782 h 5.4839 c 0,1.2279 -0.341,2.2098 -1.023,2.9466 -0.6823,0.7367 -1.6506,1.1049 -2.9058,1.1049 h -1.5551 l -0.0408,5.8113 c 0,1.1458 0.1023,2.1076 0.307,2.8851 0.2046,0.7776 0.4841,1.4117 0.8388,1.9029 0.7367,0.9275 1.6917,1.3915 2.8646,1.3915 0.4913,0 0.9823,-0.0683 1.4735,-0.2046 0.2727,-0.0819 0.5318,-0.1639 0.7775,-0.2458 z m 17.5561,-12.6862 c 0.8459,0.8731 1.5075,1.9029 1.9849,3.0898 0.4773,1.1866 0.716,2.4622 0.716,3.8262 0,1.3643 -0.2183,2.6396 -0.6548,3.8265 -0.4366,1.1869 -1.0503,2.2167 -1.8414,3.0898 -0.7912,0.9003 -1.7529,1.6095 -2.8851,2.1279 -1.1324,0.5185 -2.3941,0.7776 -3.7857,0.7776 -1.2549,0 -2.4349,-0.2591 -3.5399,-0.7776 -1.1049,-0.5184 -2.08,-1.2276 -2.9259,-2.1279 -0.8184,-0.8731 -1.4664,-1.9029 -1.944,-3.0898 -0.4774,-1.1869 -0.716,-2.4622 -0.716,-3.8265 0,-1.364 0.2114,-2.6396 0.6344,-3.8262 0.4229,-1.1869 1.0298,-2.2167 1.8209,-3.0898 0.7912,-0.9002 1.753,-1.6097 2.8851,-2.1279 1.1322,-0.5185 2.3942,-0.7778 3.7854,-0.7778 1.2824,0 2.4761,0.2593 3.581,0.7778 1.105,0.5182 2.0668,1.2277 2.8851,2.1279 z m -6.4661,13.2183 c 0.3549,0 0.7708,-0.0817 1.2484,-0.2455 0.4774,-0.1636 0.9343,-0.4773 1.3708,-0.9411 0.4366,-0.464 0.8048,-1.1049 1.105,-1.9236 0.3002,-0.8184 0.4501,-1.8825 0.4501,-3.1921 0,-1.3096 -0.1499,-2.3802 -0.4501,-3.2125 -0.3002,-0.832 -0.6684,-1.4732 -1.105,-1.9233 -0.4365,-0.4501 -0.8934,-0.7571 -1.3708,-0.9207 -0.4776,-0.1638 -0.8935,-0.2458 -1.2484,-0.2458 -0.3546,0 -0.7707,0.082 -1.2481,0.2458 -0.4773,0.1636 -0.9343,0.4706 -1.3708,0.9207 -0.4365,0.4501 -0.8048,1.0913 -1.1049,1.9233 -0.3002,0.8323 -0.4502,1.9029 -0.4502,3.2125 0,1.3096 0.15,2.3737 0.4502,3.1921 0.3001,0.8187 0.6684,1.4596 1.1049,1.9236 0.4365,0.4638 0.8935,0.7775 1.3708,0.9411 0.4774,0.1638 0.8935,0.2455 1.2481,0.2455 z m 12.2363,-6.7932 c 0,-1.8281 0.2659,-3.3217 0.798,-4.4813 0.5321,-1.1594 1.2209,-2.0665 2.0667,-2.7213 0.8456,-0.6548 1.7938,-1.0981 2.844,-1.33 1.0506,-0.2319 2.094,-0.3478 3.1309,-0.3478 h 2.0052 c 0.1364,0.5729 0.1636,1.1049 0.0819,1.5959 -0.0547,0.4093 -0.2389,0.8047 -0.5524,1.1869 -0.3138,0.3818 -0.8255,0.6137 -1.5347,0.6956 -0.4637,0.0544 -0.921,0.1567 -1.3711,0.307 -0.4502,0.1499 -0.8524,0.409 -1.2073,0.7775 -0.3546,0.3682 -0.6477,0.8935 -0.8799,1.5755 -0.2318,0.682 -0.3478,1.5959 -0.3478,2.742 v 5.9337 c 0,0.8187 0.007,1.4803 0.0204,1.9848 0.0139,0.5049 0.0343,0.9074 0.0615,1.2073 0.0273,0.3274 0.0547,0.5732 0.082,0.7367 -1.6643,0 -2.9467,-0.3478 -3.8469,-1.0434 -0.9003,-0.6959 -1.3505,-1.8621 -1.3505,-3.4991 z" />
  <path
     inkscape:connector-curvature="0"
     id="path15"
     style="fill:#00aa00;fill-opacity:1;fill-rule:evenodd"
     d="m 74.6325,68.99628 c -0.642,-0.5079 -1.3371,-1.2883 -1.853,-2.4346 -3.3528,-7.4492 -4.0445,-9.6367 -0.1933,-10.0333 2.9012,-0.2987 7.2388,-0.1689 10.0873,0.9154 l 0.1046,0.0272 c -2.6379,0.7897 -5.4096,1.4524 -8.2216,1.8756 l -1.51,0.2271 0.2435,1.5069 c 0.005,0.03 0.5383,3.3069 1.3425,7.9157 z m -2.3363,-41.0487 c 0.8668,-0.54 1.4936,0.117 1.4346,0.9978 -0.0315,0.4691 -0.5652,2.131 -2.1838,2.5602 0,0 1.5449,-0.839 1.4757,-2.4466 -0.017,-0.3951 -0.3512,-0.7832 -0.7265,-1.1114 z m 19.5171,-8.8674 c 3.7599,0 6.895,2.6722 7.6105,6.2212 -1.3275,-3.0183 -4.2359,-5.1131 -7.6105,-5.1131 -3.3747,0 -6.2827,2.0948 -7.6105,5.1131 0.7155,-3.549 3.8509,-6.2212 7.6105,-6.2212 z m 0,1.9452 c 3.2136,0 5.8187,2.605 5.8187,5.8186 0,3.2134 -2.6051,5.8184 -5.8187,5.8184 -3.2134,0 -5.8184,-2.605 -5.8184,-5.8184 0,-3.2136 2.605,-5.8186 5.8184,-5.8186 z m -2.6819,34.2323 c 0.1078,-0.9479 0.108,-1.9503 -0.008,-3.4447 -0.1947,-2.5109 -1.5123,-1.3629 -6.0664,-2.8908 -3.8044,-1.277 -12.695,-5.447 -15.3037,-8.3454 -0.5148,-0.5729 -0.8127,-0.9017 -1.2833,-1.501 -0.4368,-0.5559 -0.7248,-0.7217 -1.0167,-1.1565 0.5978,-0.0661 1.1871,-0.1029 1.7671,-0.1145 0.2276,-0.005 0.4535,-0.005 0.678,-0.003 l 1.5381,2.1971 0.5661,-2.0673 c 2.1628,0.2364 4.1445,0.7626 5.8677,1.3278 0.8527,0.2798 1.7322,0.5879 2.6305,0.9014 l -0.3699,2.0472 2.6796,-1.2546 c 1.3884,0.4614 2.8046,0.8937 4.2214,1.2214 l 0.1981,1.9803 2.0112,-1.5644 c 1.559,0.2191 3.1025,0.2624 4.5944,0.0283 l 0.396,2.0004 2.2875,-2.77 c 1.3179,-0.5715 2.5722,-1.4375 3.7333,-2.6816 -7.9937,5.5953 -18.377,-0.6582 -26.3223,-1.9394 -4.9036,-0.7909 -7.0973,-0.3172 -8.0779,0.2344 -2.1977,-1.226 4.0972,-11.0948 5.6073,-12.9901 2.9355,-3.6842 13.1485,-2.6861 17.0013,-5.8501 4.0238,-3.3075 10.8148,0.6389 13.921,3.4362 2.6538,2.3898 3.4662,6.1401 4.1414,9.5082 0.3679,1.8352 0.7546,3.6876 0.9638,5.5596 0.7282,6.5239 -1.1192,8.7162 -2.6961,11.3374 l -0.007,-0.005 -0.004,0.003 -0.004,-0.003 -0.2775,0.176 -0.523,0.3223 c -0.0241,0.0148 -5.3373,3.331 -12.8438,6.2995 z m 22.6446,56.5514 c -0.2707,0.8912 -0.5326,2.151 -0.726,4.2843 -0.1102,1.2158 5.8003,0.097 10.2116,0.3322 0.3095,0.0168 18.6106,1.0353 14.1775,-0.5349 -0.5922,-0.2097 -7.8302,-3.5135 -9.7558,-4.026 -3.6995,-0.985 -6.3348,-0.0448 -6.5055,-1.1642 -0.2772,-1.815 0.5874,-4.4716 1.8907,-8.2409 -2.4868,2.7386 -5.9051,6.2348 -9.0878,9.1619 z m -17.318,0.6095 c 0.2064,0.8447 0.3991,1.9862 0.5499,3.6748 0.1086,1.2158 -5.7143,0.097 -10.0607,0.3322 -0.3047,0.0168 -18.335,1.0353 -13.9674,-0.5349 0.5836,-0.2097 7.7142,-3.5135 9.6114,-4.026 3.6445,-0.985 6.2408,-0.0448 6.4091,-1.1642 0.2455,-1.631 -0.4172,-3.9416 -1.4862,-7.1286 2.3559,2.5328 5.2994,5.5061 8.0652,8.0496 0.2942,0.2704 0.5876,0.5363 0.8787,0.7971 z M 105.6308,0.80377998 C 131.3297,8.74058 133.1042,34.91088 129.5691,59.10938 c -2.0574,-0.3691 -4.0839,-0.8575 -6.0429,-1.4205 l 0.004,-0.028 c 3.1822,-20.8783 2.3446,-43.1119 -13.2936,-53.096 -0.7963,-0.5083 -6.0055,-3.301 -8.2758,-4.22280002 -0.7554,-0.3067 -0.4059,-0.7594 3.6698,0.4617 z" />
  <path
     inkscape:connector-curvature="0"
     id="path17"
     style="fill:#000000;fill-rule:evenodd"
     d="m 89.9183,23.82318 c 0.9182,-0.002 1.6665,1.5463 1.6713,3.4594 0.005,1.9128 -0.7353,3.4653 -1.6534,3.4676 -0.9182,0.002 -1.6665,-1.5463 -1.6713,-3.4591 -0.005,-1.9129 0.7353,-3.4654 1.6534,-3.4679 z m -0.1709,1.3413 c 0.2273,-6e-4 0.4127,0.383 0.4139,0.8569 0.001,0.4737 -0.1823,0.8584 -0.4096,0.8589 -0.2274,6e-4 -0.4128,-0.3829 -0.4139,-0.8569 -0.001,-0.4737 0.182,-0.8583 0.4096,-0.8589 z" />
  <path
     inkscape:connector-curvature="0"
     id="path19"
     style="fill:#ab0000;fill-opacity:1;fill-rule:evenodd"
     d="m 102.7417,52.01738 c -3.0387,1.779 -14.1197,7.8993 -26.2247,10.0738 1.0749,6.4774 5.4085,32.0833 7.1583,34.7079 1.2453,1.8678 6.8723,7.926 11.9517,12.5972 3.3092,3.0433 6.2368,5.4397 7.1413,5.4397 v 0.005 h 0.0233 v -0.005 c 0.9045,0 3.8322,-2.3964 7.1413,-5.4397 5.0794,-4.6712 10.7065,-10.7294 11.9517,-12.5972 1.7499,-2.6246 6.0835,-28.2305 7.1584,-34.7079 -12.1051,-2.1745 -23.186,-8.2945 -26.2248,-10.0738 l -0.0382,0.0244 z m 0.0383,54.9003 -0.0117,5e-4 c -1.2908,0 -3.6941,-1.9321 -6.163,-4.386 -3.2831,-3.263 -6.9755,-7.5844 -7.8256,-8.962 -1.539,-2.4945 -4.9729,-25.3318 -4.9828,-25.3973 l -0.2253,-1.4754 1.4799,-0.2407 c 8.72,-1.4182 16.8475,-6.9015 16.8707,-6.9171 l 0.8498,-0.5735 0.008,0.005 0.008,-0.005 0.8501,0.5735 c 0.0233,0.0156 8.1508,5.4989 16.8707,6.9171 l 1.48,0.2407 -0.2254,1.4754 c -0.01,0.0655 -3.4438,22.9028 -4.9827,25.3973 -0.8501,1.3776 -4.5425,5.699 -7.8256,8.962 -2.469,2.4539 -4.8719,4.386 -6.1631,4.386 z" />
  <path
     inkscape:connector-curvature="0"
     id="path21"
     style="fill:#000000;fill-rule:evenodd;stroke:#000000;stroke-width:1.00010002;stroke-linecap:butt;stroke-linejoin:miter;stroke-dasharray:none"
     d="m 115.5243,70.73968 c -1.554,4.0507 -2.9934,7.7572 -4.3181,11.1203 -0.5607,1.4519 -1.1273,2.8913 -1.7005,4.318 -0.5731,1.4267 -1.1083,2.7513 -1.6049,3.9742 -0.497,1.2228 -0.9428,2.2864 -1.3377,3.1906 -0.3949,0.9046 -0.6942,1.5478 -0.898,1.9299 -0.4329,0.8152 -0.9425,1.3756 -1.5285,1.6815 -0.5859,0.3056 -1.1335,0.4839 -1.6432,0.5349 -0.6367,0.0765 -1.2609,0.0127 -1.8723,-0.1911 L 90.036,70.73968 c 0.6114,-0.1018 1.2291,-0.1463 1.8533,-0.1336 0.6242,0.0128 1.2038,0.1146 1.7387,0.3056 0.5349,0.1911 1.0253,0.4842 1.4712,0.879 0.4459,0.3949 0.8087,0.9236 1.0891,1.5857 0.0255,0.1021 0.1465,0.4269 0.3631,0.9746 0.2166,0.5476 0.4839,1.2356 0.8025,2.0633 0.3183,0.828 0.6687,1.7516 1.0508,2.7706 0.3821,1.0191 0.777,2.0509 1.1846,3.0952 0.9425,2.4712 2.0126,5.2353 3.2099,8.2924 1.1719,-3.0571 2.2292,-5.8212 3.1717,-8.2924 0.4077,-1.0443 0.8025,-2.0761 1.1846,-3.0952 0.3821,-1.019 0.7325,-1.9426 1.0508,-2.7706 0.3186,-0.8277 0.586,-1.5157 0.8025,-2.0633 0.2166,-0.5477 0.3504,-0.8725 0.4014,-0.9746 0.2801,-0.6621 0.6432,-1.1908 1.0891,-1.5857 0.4456,-0.3948 0.936,-0.6879 1.4712,-0.879 0.5349,-0.191 1.108,-0.2928 1.7195,-0.3056 0.6114,-0.0127 1.2228,0.0318 1.8343,0.1336 z" />
</svg>
