<?xml version="1.0" encoding="UTF-8" standalone="no"?>
<!-- Created with Inkscape (http://www.inkscape.org/) -->

<svg
   version="1.1"
   id="svg1"
   width="1350"
   height="1350"
   viewBox="0 0 1349.9999 1350"
   xmlns="http://www.w3.org/2000/svg"
   xmlns:svg="http://www.w3.org/2000/svg">
  <defs
     id="defs1">
    <clipPath
       clipPathUnits="userSpaceOnUse"
       id="clipPath4">
      <path
         d="M 580.18762,3447.4866 H 4691.1559 V 4506.8242 H 580.18762 Z"
         transform="matrix(0.08684086,0,0,0.0868467,-50.38399,-299.40286)"
         clip-rule="evenodd"
         id="path4" />
    </clipPath>
    <clipPath
       clipPathUnits="userSpaceOnUse"
       id="clipPath6">
      <path
         d="M 580.18762,3447.4866 H 4691.1559 V 4506.8242 H 580.18762 Z"
         transform="matrix(0.08684086,0,0,0.0868467,-50.38399,-299.40286)"
         clip-rule="evenodd"
         id="path6" />
    </clipPath>
    <clipPath
       clipPathUnits="userSpaceOnUse"
       id="clipPath8">
      <path
         d="M 580.18762,3447.4866 H 4691.1559 V 4506.8242 H 580.18762 Z"
         transform="matrix(0.08684086,0,0,0.0868467,-50.38399,-299.40286)"
         clip-rule="evenodd"
         id="path8" />
    </clipPath>
    <clipPath
       clipPathUnits="userSpaceOnUse"
       id="clipPath10">
      <path
         d="M 580.18762,3447.4866 H 4691.1559 V 4506.8242 H 580.18762 Z"
         transform="matrix(0.08684086,0,0,0.0868467,-50.38399,-299.40286)"
         clip-rule="evenodd"
         id="path10" />
    </clipPath>
    <clipPath
       clipPathUnits="userSpaceOnUse"
       id="clipPath12">
      <path
         d="M 580.18762,3447.4866 H 4691.1559 V 4506.8242 H 580.18762 Z"
         transform="matrix(0.08684086,0,0,0.0868467,-50.38399,-299.40286)"
         clip-rule="evenodd"
         id="path12" />
    </clipPath>
    <clipPath
       clipPathUnits="userSpaceOnUse"
       id="clipPath14">
      <path
         d="M 580.18762,3447.4866 H 4691.1559 V 4506.8242 H 580.18762 Z"
         transform="matrix(0.08684086,0,0,0.0868467,-50.38399,-299.40286)"
         clip-rule="evenodd"
         id="path14" />
    </clipPath>
    <clipPath
       clipPathUnits="userSpaceOnUse"
       id="clipPath16">
      <path
         d="M 580.18762,3447.4866 H 4691.1559 V 4506.8242 H 580.18762 Z"
         transform="matrix(0.08684086,0,0,0.0868467,-50.38399,-299.40286)"
         clip-rule="evenodd"
         id="path16" />
    </clipPath>
    <clipPath
       clipPathUnits="userSpaceOnUse"
       id="clipPath18">
      <path
         d="M 2755.5313,583.24182 H 4691.1641 V 3685.3482 H 2755.5313 Z"
         transform="matrix(0.03763828,0,0,0.03764081,162.454,358.43704)"
         clip-rule="evenodd"
         id="path18" />
    </clipPath>
    <clipPath
       clipPathUnits="userSpaceOnUse"
       id="clipPath20">
      <path
         d="M 2755.5313,583.24182 H 4691.1641 V 3685.3482 H 2755.5313 Z"
         transform="matrix(0.03763828,0,0,0.03764081,162.454,358.43704)"
         clip-rule="evenodd"
         id="path20" />
    </clipPath>
    <clipPath
       clipPathUnits="userSpaceOnUse"
       id="clipPath22">
      <path
         d="M 2755.5313,583.24182 H 4691.1641 V 3685.3482 H 2755.5313 Z"
         transform="matrix(0.03763828,0,0,0.03764081,-103.77046,-21.953692)"
         clip-rule="evenodd"
         id="path22" />
    </clipPath>
    <clipPath
       clipPathUnits="userSpaceOnUse"
       id="clipPath24">
      <path
         d="M 2755.5313,583.24182 H 4691.1641 V 3685.3482 H 2755.5313 Z"
         transform="matrix(0.03763828,0,0,0.03764081,-103.77046,-21.953692)"
         clip-rule="evenodd"
         id="path24" />
    </clipPath>
    <clipPath
       clipPathUnits="userSpaceOnUse"
       id="clipPath26">
      <path
         d="M 2755.5313,583.24182 H 4691.1641 V 3685.3482 H 2755.5313 Z"
         transform="matrix(0.03763828,0,0,0.03764081,-103.77046,-21.953692)"
         clip-rule="evenodd"
         id="path26" />
    </clipPath>
    <clipPath
       clipPathUnits="userSpaceOnUse"
       id="clipPath28">
      <path
         d="M 2755.5313,583.24182 H 4691.1641 V 3685.3482 H 2755.5313 Z"
         transform="matrix(0.03763828,0,0,0.03764081,-103.77046,-21.953692)"
         clip-rule="evenodd"
         id="path28" />
    </clipPath>
  </defs>
  <g
     id="g29"
     transform="translate(-172.51523,-122.63739)"
     style="display:inline">
    <path
       id="path3"
       d="M 11.1905,32.919998 23.183001,69.190002 H 23.6555 l 11.97,-36.27 h 9.18 L 28.560499,79 H 18.255501 L 2.03297,32.919998 Z m 49.0744,46.755005 c -3.465,0 -6.4575,-0.720001 -8.977501,-2.160004 C 48.782398,76.059998 46.8549,74.004997 45.504898,71.349998 44.1549,68.68 43.4799,65.537498 43.4799,61.922501 c 0,-3.555001 0.675,-6.675 2.025002,-9.360001 1.365002,-2.700001 3.27,-4.799999 5.715,-6.299999 2.445,-1.515 5.317501,-2.272499 8.6175,-2.272499 2.130001,0 4.14,0.345001 6.029999,1.035 1.904999,0.674999 3.584999,1.724998 5.040001,3.149997 1.470001,1.424999 2.625,3.240002 3.464996,5.445 0.840004,2.190002 1.260003,4.799999 1.260003,7.830002 v 2.497501 h -28.3275 v -5.489998 h 20.520004 c -0.01501,-1.560005 -0.352508,-2.947506 -1.012504,-4.162506 -0.660004,-1.229999 -1.582504,-2.197498 -2.767502,-2.902496 -1.169998,-0.705002 -2.535,-1.057503 -4.094997,-1.057503 -1.665001,0 -3.127503,0.405003 -4.387501,1.215 -1.260002,0.795002 -2.2425,1.845001 -2.947502,3.150002 -0.689999,1.290001 -1.0425,2.7075 -1.057499,4.252498 v 4.7925 c 0,2.009998 0.3675,3.734997 1.102501,5.174999 0.735,1.425003 1.7625,2.520004 3.0825,3.285004 1.32,0.75 2.864998,1.125 4.634998,1.125 1.185002,0 2.2575,-0.165001 3.217499,-0.495003 0.960003,-0.345001 1.7925,-0.847496 2.497502,-1.5075 0.705001,-0.660003 1.237503,-1.477501 1.597503,-2.452499 l 7.604996,0.855003 c -0.479996,2.009995 -1.394997,3.765 -2.745003,5.265 -1.334999,1.485 -3.044998,2.639999 -5.129997,3.464996 -2.084999,0.809998 -4.469997,1.215004 -7.154999,1.215004 z M 88.830597,32.919998 V 79 H 80.6856 V 32.919998 Z M 110.444,79.675003 c -3.375,0 -6.3,-0.7425 -8.775,-2.227501 -2.475198,-1.485 -4.395204,-3.5625 -5.760202,-6.232498 C 94.5588,68.544998 93.883797,65.425003 93.883797,61.855 c 0,-3.570004 0.675003,-6.697499 2.025001,-9.3825 1.364998,-2.685002 3.285004,-4.770001 5.760202,-6.255001 2.475,-1.485001 5.4,-2.227497 8.775,-2.227497 3.375,0 6.3,0.742496 8.775,2.227497 2.475,1.485 4.387,3.569999 5.737,6.255001 1.365,2.685001 2.048,5.8125 2.048,9.3825 0,3.570003 -0.683,6.689998 -2.048,9.359996 -1.35,2.670006 -3.262,4.747506 -5.737,6.232506 -2.475,1.485001 -5.4,2.227501 -8.775,2.227501 z m 0.045,-6.525001 c 1.83,0 3.36,-0.502503 4.59,-1.5075 1.23,-1.020004 2.145,-2.385002 2.745,-4.095001 0.615,-1.709999 0.922,-3.615002 0.922,-5.715001 0,-2.115001 -0.307,-4.0275 -0.922,-5.737499 -0.6,-1.725002 -1.515,-3.0975 -2.745,-4.1175 -1.23,-1.020001 -2.76,-1.530003 -4.59,-1.530003 -1.875,0 -3.435,0.510002 -4.68,1.530003 -1.23,1.02 -2.153,2.392498 -2.768,4.1175 -0.6,1.709999 -0.9,3.622498 -0.9,5.737499 0,2.099999 0.3,4.005002 0.9,5.715001 0.615,1.709999 1.538,3.074997 2.768,4.095001 1.245,1.004997 2.805,1.5075 4.68,1.5075 z m 36.66501,6.525001 c -3.45002,0 -6.41201,-0.7575 -8.88701,-2.272507 -2.45999,-1.514999 -4.358,-3.607498 -5.693,-6.277496 -1.32,-2.684998 -1.98001,-5.775002 -1.98001,-9.27 0,-3.509999 0.67501,-6.607499 2.02501,-9.2925 1.35001,-2.700001 3.25501,-4.799999 5.715,-6.299999 2.47501,-1.515 5.39999,-2.272499 8.77499,-2.272499 2.80501,0 5.28801,0.517498 7.44802,1.552498 2.17498,1.02 3.90699,2.467498 5.19699,4.342498 1.29001,1.860001 2.02501,4.035 2.205,6.525002 h -7.785 c -0.31501,-1.665001 -1.06501,-3.052502 -2.25,-4.162499 -1.17,-1.125 -2.737,-1.6875 -4.702,-1.6875 -1.66499,0 -3.12801,0.449997 -4.388,1.349999 -1.26,0.884998 -2.24201,2.16 -2.94701,3.825001 -0.68998,1.665001 -1.03498,3.659999 -1.03498,5.985 0,2.355004 0.345,4.379997 1.035,6.074997 0.68999,1.68 1.657,2.977501 2.90199,3.892502 1.26,0.900002 2.73799,1.349998 4.433,1.349998 1.2,0 2.272,-0.224998 3.21699,-0.674995 0.96001,-0.465004 1.76301,-1.1325 2.40801,-2.002502 0.645,-0.870003 1.08701,-1.927498 1.327,-3.172501 h 7.785 c -0.19499,2.445 -0.91499,4.612503 -2.16,6.502502 -1.245,1.875 -2.94001,3.345002 -5.085,4.409996 -2.145,1.050004 -4.665,1.575005 -7.55999,1.575005 z M 166.81,79 V 44.439999 h 8.145 V 79 Z m 4.095,-39.465 c -1.28999,0 -2.4,-0.427502 -3.33,-1.282501 C 166.645,37.3825 166.17999,36.34 166.17999,35.125 c 0,-1.23 0.46501,-2.272499 1.39501,-3.127501 0.93,-0.869998 2.04001,-1.305 3.33,-1.305 1.30501,0 2.41501,0.435002 3.33,1.305 0.92999,0.855002 1.395,1.897501 1.395,3.127501 0,1.215 -0.46501,2.2575 -1.395,3.127499 -0.91499,0.854999 -2.02499,1.282501 -3.33,1.282501 z M 181.493,79 V 44.439999 h 7.89799 v 5.760002 h 0.36002 C 190.381,48.205002 191.461,46.6675 192.991,45.587502 194.536,44.4925 196.298,43.945 198.278,43.945 c 0.45,0 0.953,0.0225 1.508,0.0675 0.57,0.03 1.042,0.0825 1.417,0.157497 v 7.4925 C 200.858,51.5425 200.311,51.4375 199.561,51.3475 c -0.735,-0.105 -1.44799,-0.157501 -2.138,-0.157501 -1.485,0 -2.82,0.322502 -4.005,0.967502 -1.17,0.629997 -2.092,1.5075 -2.767,2.6325 -0.675,1.125 -1.013,2.422501 -1.013,3.892498 V 79 Z m 32.61,0.697502 c -2.19001,0 -4.16201,-0.389999 -5.917,-1.170006 -1.74,-0.794998 -3.12001,-1.964996 -4.13999,-3.509994 -1.00501,-1.544998 -1.50802,-3.450005 -1.50802,-5.715004 0,-1.949997 0.36,-3.5625 1.08001,-4.837502 0.72,-1.274997 1.703,-2.294998 2.94799,-3.059997 1.245,-0.765 2.64701,-1.342499 4.207,-1.732498 1.57502,-0.404999 3.20301,-0.697503 4.88302,-0.877503 2.02499,-0.209999 3.66699,-0.397499 4.92698,-0.5625 1.26001,-0.179996 2.17501,-0.449997 2.74501,-0.809997 0.58499,-0.375 0.87799,-0.9525 0.87799,-1.732502 V 55.555 c 0,-1.694999 -0.50299,-3.007499 -1.50799,-3.9375 -1.00501,-0.93 -2.452,-1.395 -4.342,-1.395 -1.99501,0 -3.578,0.435001 -4.748,1.305 -1.155,0.869999 -1.935,1.897499 -2.33999,3.082501 l -7.60502,-1.080002 c 0.60001,-2.099999 1.59002,-3.855 2.97001,-5.265 1.38,-1.424999 3.068,-2.489997 5.063,-3.194999 1.99499,-0.720002 4.2,-1.079998 6.615,-1.079998 1.665,0 3.322,0.194999 4.972,0.584999 1.65,0.389999 3.15799,1.035 4.523,1.934997 1.36501,0.885002 2.46001,2.092503 3.285,3.622502 0.84,1.529998 1.26,3.442501 1.26,5.737499 V 79 h -7.83 v -4.747498 h -0.26999 c -0.49501,0.96 -1.19301,1.860001 -2.09301,2.699997 -0.88501,0.824997 -2.00199,1.492501 -3.352,2.002503 -1.33501,0.494995 -2.903,0.7425 -4.703,0.7425 z m 2.115,-5.985 c 1.635,0 3.053,-0.322503 4.25299,-0.967499 1.20002,-0.660004 2.12201,-1.530007 2.76702,-2.610001 0.65998,-1.080002 0.98999,-2.2575 0.98999,-3.532501 v -4.072502 c -0.25499,0.210003 -0.69001,0.405002 -1.305,0.585003 -0.6,0.179996 -1.27501,0.337497 -2.02501,0.4725 -0.75,0.135002 -1.49198,0.254997 -2.22698,0.359996 -0.73501,0.105 -1.37301,0.195004 -1.91301,0.270001 -1.215,0.165001 -2.30201,0.434997 -3.262,0.809997 -0.96,0.375 -1.718,0.900002 -2.27299,1.575005 -0.55501,0.659996 -0.832,1.514999 -0.832,2.565002 0,1.5 0.54699,2.6325 1.64199,3.397499 1.09501,0.765 2.48999,1.1475 4.185,1.1475 z m 22.485,18.247497 v -47.52 h 8.01 v 5.715 h 0.473 c 0.42,-0.84 1.012,-1.732498 1.777,-2.677498 0.765,-0.959999 1.8,-1.7775 3.10499,-2.452499 1.30501,-0.690003 2.97,-1.035 4.995,-1.035 2.67001,0 5.078,0.682499 7.22302,2.047496 2.16,1.350003 3.87,3.352501 5.12998,6.0075 1.27502,2.640003 1.91201,5.880001 1.91201,9.720001 0,3.794999 -0.62201,7.020005 -1.867,9.675003 -1.245,2.654999 -2.94,4.680001 -5.08499,6.074997 -2.14502,1.395005 -4.57502,2.092499 -7.29001,2.092499 -1.98,0 -3.623,-0.330002 -4.928,-0.989998 -1.305,-0.660003 -2.35501,-1.455002 -3.15,-2.385002 -0.78,-0.945 -1.387,-1.837501 -1.822,-2.677498 h -0.33799 v 18.404999 z m 7.98801,-30.239998 c -2e-5,2.235001 0.31499,4.192497 0.94499,5.872498 0.64501,1.68 1.567,2.9925 2.767,3.9375 1.215,0.93 2.685,1.395004 4.41,1.395004 1.80001,0 3.308,-0.480003 4.523,-1.440002 1.21499,-0.974999 2.13,-2.302498 2.74499,-3.982499 0.63001,-1.694999 0.94501,-3.622501 0.94501,-5.782501 0,-2.145 -0.30801,-4.050003 -0.923,-5.715 -0.61499,-1.664997 -1.53,-2.970001 -2.745,-3.915001 -1.21499,-0.945 -2.73001,-1.417499 -4.545,-1.417499 -1.74,0 -3.21701,0.4575 -4.432,1.372497 -1.215,0.914997 -2.138,2.197502 -2.76799,3.847504 -0.61501,1.649998 -0.92202,3.592499 -0.92202,5.827499 z M 293.724,44.440002 v 6.3 h -19.86801 v -6.3 z m -14.96301,-8.279998 h 8.14502 v 32.444999 c 0,1.094994 0.165,1.934998 0.49499,2.519997 0.345,0.57 0.79501,0.959999 1.35001,1.169998 0.55499,0.209999 1.16998,0.315003 1.845,0.315003 0.50998,0 0.975,-0.0375 1.39499,-0.112503 0.43499,-0.075 0.76501,-0.142495 0.98999,-0.2025 l 1.37301,6.3675 c -0.43499,0.150002 -1.05801,0.315003 -1.86801,0.495003 -0.79498,0.180001 -1.76999,0.284996 -2.92499,0.315003 -2.04,0.06 -3.87701,-0.247506 -5.51199,-0.922501 -1.63501,-0.690002 -2.93301,-1.755005 -3.893,-3.195 -0.94501,-1.440002 -1.41001,-3.240005 -1.39502,-5.400001 V 36.16 Z m 34.64099,43.514999 c -3.37497,0 -6.29999,-0.7425 -8.77497,-2.227501 -2.475,-1.485 -4.39502,-3.5625 -5.76001,-6.232506 -1.35,-2.669998 -2.02499,-5.789993 -2.02499,-9.359996 0,-3.570004 0.67499,-6.697499 2.02499,-9.3825 1.36499,-2.685002 3.28501,-4.770001 5.76001,-6.255001 2.47498,-1.485001 5.4,-2.227497 8.775,-2.227497 3.375,0 6.29999,0.742496 8.77499,2.227497 2.47501,1.485 4.387,3.569999 5.737,6.255001 1.36499,2.685001 2.04801,5.8125 2.04801,9.3825 0,3.570003 -0.68302,6.689998 -2.04801,9.359996 -1.35,2.670006 -3.26199,4.747506 -5.737,6.232506 -2.475,1.485001 -5.39999,2.227501 -8.77499,2.227501 z m 0.045,-6.525001 c 1.83002,0 3.36002,-0.502503 4.59,-1.5075 1.23001,-1.020004 2.14502,-2.385002 2.74502,-4.095001 0.61499,-1.709999 0.922,-3.615002 0.922,-5.715001 0,-2.115001 -0.30701,-4.0275 -0.922,-5.737499 -0.6,-1.725002 -1.51501,-3.0975 -2.74502,-4.1175 -1.22998,-1.020001 -2.75998,-1.530003 -4.59,-1.530003 -1.875,0 -3.435,0.510002 -4.67999,1.530003 -1.23001,1.02 -2.15299,2.392498 -2.76801,4.1175 -0.6,1.709999 -0.89999,3.622498 -0.89999,5.737499 0,2.099999 0.29999,4.005002 0.89999,5.715001 0.61502,1.709999 1.538,3.074997 2.76801,4.095001 1.24499,1.004997 2.80499,1.5075 4.67999,1.5075 z M 335.03698,79 V 44.439999 h 7.89801 v 5.760002 h 0.36001 c 0.62998,-1.994999 1.70999,-3.532501 3.23999,-4.612499 1.54499,-1.095002 3.30701,-1.642502 5.28699,-1.642502 0.45001,0 0.953,0.0225 1.508,0.0675 0.57,0.03 1.04202,0.0825 1.41702,0.157497 v 7.4925 c -0.345,-0.119998 -0.892,-0.224998 -1.642,-0.314998 -0.73501,-0.105 -1.448,-0.157501 -2.138,-0.157501 -1.48502,0 -2.82001,0.322502 -4.005,0.967502 -1.17002,0.629997 -2.09201,1.5075 -2.767,2.6325 -0.67499,1.125 -1.013,2.422501 -1.013,3.892498 v 20.317501 z"
       style="fill:#ffffff;fill-opacity:1;fill-rule:nonzero;stroke:none"
       transform="matrix(3.6849013,0,0,3.6846532,185.66003,1103.1957)"
       clip-path="url(#clipPath4)" />
    <path
       id="path5"
       d="m 22.4396,5.5760999 c 0,-3.21453 -2.5609,-5.57414677 -7.026199,-5.57414677 H 6.3203702 L 1.86035,19.658001 h 5.0706898 l 1.53197,-6.7531 H 11.4334 l 2.9404,6.7531 h 5.061899 l -3.1469,-7.075399 C 20.058701,12.0103 22.4361,9.0801897 22.4361,5.5778198 Z m -8.124,3.2162394 H 9.3966703 L 10.4592,4.1110301 h 4.5518 c 1.5002,0 2.3791,0.7859597 2.3791,1.93044 0,1.5012602 -1.1331,2.7508702 -3.0745,2.7508692 z"
       style="fill:#ffffff;fill-opacity:1;fill-rule:nonzero;stroke:none"
       transform="matrix(3.6849013,0,0,3.6846532,185.66003,1103.1957)"
       clip-path="url(#clipPath6)" />
    <path
       id="path7"
       d="M 33.625301,0.00183105 21.8496,19.657801 h 5.0601 l 1.9697,-3.259301 9.375399,0.0052 0.737701,3.254101 h 5.0584 L 39.615501,0.00183105 Z M 31.337999,12.2963 l 4.3417,-7.2443 1.6432,7.2443 z"
       style="fill:#ffffff;fill-opacity:1;fill-rule:nonzero;stroke:none"
       transform="matrix(3.6849013,0,0,3.6846532,185.66003,1103.1957)"
       clip-path="url(#clipPath8)" />
    <path
       id="path9"
       d="M 59.4814,0.00172361 H 50.9161 L 46.4561,19.6577 h 5.0565 l 1.547901,-6.760001 5.651299,0.0052 c 4.8307,0 7.757003,-3.5385497 7.757003,-7.2563698 C 66.468803,2.32342 63.798401,0 59.479599,0 Z M 58.494701,8.7921104 H 53.9977 l 1.055401,-4.6813106 h 3.918201 c 1.537201,0 2.488602,0.7153001 2.488602,1.9304399 0,1.5012598 -1.172001,2.7508698 -2.963402,2.7508698 h -0.0018 v 9e-7 z"
       style="fill:#ffffff;fill-opacity:1;fill-rule:nonzero;stroke:none"
       transform="matrix(3.6849013,0,0,3.6846532,185.66003,1103.1957)"
       clip-path="url(#clipPath10)" />
    <path
       id="path11"
       d="M 75.998497,0.00183105 H 70.927803 L 66.467796,19.657801 h 5.072403 z"
       style="fill:#ffffff;fill-opacity:1;fill-rule:nonzero;stroke:none"
       transform="matrix(3.6849013,0,0,3.6846532,185.66003,1103.1957)"
       clip-path="url(#clipPath12)" />
    <path
       id="path13"
       d="M 112.547,0.00183105 H 96.563698 c 0.2435,0.23958096 0.480003,0.48605696 0.7024,0.74632103 C 99.057503,2.8492301 100.005,5.4949598 100.005,8.40096 c 0,4.48314 -1.951701,8.528441 -5.079203,11.256839 H 104.714 L 109.36,8.4543896 h -5.827 L 104.509,4.10918 h 11.557 l -6.069,15.548621 h 2.374 c 5.548,0.0345 9.297,-4.426201 9.297,-9.8452114 0,-5.4190101 -3.572,-9.81075855 -9.121,-9.81075855 z"
       style="fill:#e85e26;fill-opacity:1;fill-rule:nonzero;stroke:none"
       transform="matrix(3.6849013,0,0,3.6846532,185.66003,1103.1957)"
       clip-path="url(#clipPath14)" />
    <path
       id="path15"
       d="M 94.475304,3.20614 C 92.726196,1.15505 89.8582,0.00195312 86.471199,0.00195312 H 79.972702 L 75.512703,19.658001 h 8.175201 c 3.169899,0 5.619599,-0.6826 7.479897,-1.7754 3.789299,-2.225101 5.134201,-6.151501 5.134201,-9.4815209 0,-2.0803899 -0.6689,-3.83502 -1.828499,-5.1949401 z M 84.312698,15.5523 H 81.515297 L 84.109703,4.1127501 h 2.638603 c 2.903397,-0.00172 4.532395,2.1062498 4.532395,4.7399196 0,3.5472303 -2.608605,6.6979303 -6.968003,6.6979303 z"
       style="fill:#ffffff;fill-opacity:1;fill-rule:nonzero;stroke:none"
       transform="matrix(3.6849013,0,0,3.6846532,185.66003,1103.1957)"
       clip-path="url(#clipPath16)" />
  </g>
  <g
     id="g28"
     transform="translate(-172.51523,-122.63739)"
     style="display:inline">
    <path
       id="path17"
       d="m 305.78537,435.31366 c -2.66467,1.64474 -12.38168,7.30313 -22.99664,9.31351 0.94256,5.98852 4.74273,29.66192 6.27716,32.08844 1.09201,1.72683 6.02636,7.32782 10.48056,11.64648 2.90185,2.81363 5.46908,5.02918 6.26227,5.02918 v 0.005 h 0.0205 v -0.005 c 0.79319,0 3.36051,-2.21555 6.26227,-5.02918 4.45416,-4.31866 9.38861,-9.91965 10.48053,-11.64648 1.53449,-2.42652 5.33466,-26.09992 6.27725,-32.08844 -10.61505,-2.01041 -20.332,-7.66852 -22.99673,-9.31351 l -0.0335,0.0226 -0.0337,-0.0226 z"
       style="fill:#ffffff;fill-opacity:1;fill-rule:evenodd;stroke:none"
       transform="matrix(8.5019833,0,0,8.5014115,-1381.1812,-3047.2208)"
       clip-path="url(#clipPath18)" />
    <path
       id="path19"
       d="m 299.46838,407.13397 c 3e-5,0.16562 -0.008,0.33081 -0.0233,0.49561 -0.0156,0.16479 -0.0388,0.3284 -0.0698,0.49078 -0.0309,0.16242 -0.0695,0.32285 -0.1155,0.48132 -0.0461,0.15848 -0.0994,0.31418 -0.16016,0.46717 -0.0607,0.15298 -0.12845,0.30252 -0.20322,0.44855 -0.0748,0.14602 -0.15625,0.2879 -0.24441,0.42559 -0.0881,0.1377 -0.18253,0.27054 -0.28318,0.39856 -0.10064,0.12799 -0.20706,0.25052 -0.31927,0.36762 -0.11218,0.11709 -0.22958,0.22818 -0.35223,0.33322 -0.12265,0.10504 -0.24991,0.20355 -0.38184,0.29553 -0.13193,0.092 -0.26782,0.17706 -0.40771,0.25513 -0.13993,0.078 -0.28321,0.14874 -0.42978,0.2121 -0.14658,0.0634 -0.29578,0.11914 -0.44761,0.1672 -0.15179,0.0481 -0.30551,0.0882 -0.46112,0.12051 -0.15557,0.0323 -0.31231,0.0566 -0.47018,0.0729 -0.1579,0.0162 -0.31619,0.0243 -0.47485,0.0243 -0.15866,0 -0.31693,-0.008 -0.47483,-0.0243 -0.15789,-0.0162 -0.31463,-0.0405 -0.47024,-0.0728 -0.15561,-0.0323 -0.3093,-0.0725 -0.46112,-0.12055 -0.15183,-0.0481 -0.30103,-0.10382 -0.44763,-0.1672 -0.14658,-0.0634 -0.28983,-0.13407 -0.42975,-0.21213 -0.1399,-0.078 -0.27582,-0.16309 -0.40775,-0.2551 -0.1319,-0.092 -0.25915,-0.19049 -0.3818,-0.29556 -0.12265,-0.10504 -0.24005,-0.21613 -0.35224,-0.33322 -0.11218,-0.1171 -0.21859,-0.23963 -0.31924,-0.36765 -0.10068,-0.12802 -0.19507,-0.26086 -0.28324,-0.39859 -0.0881,-0.13766 -0.16961,-0.27951 -0.24441,-0.42554 -0.0747,-0.14605 -0.14249,-0.29559 -0.20322,-0.44857 -0.0607,-0.15296 -0.11407,-0.30866 -0.16012,-0.46714 -0.0461,-0.15847 -0.0846,-0.3189 -0.11551,-0.48129 -0.031,-0.16238 -0.0542,-0.32599 -0.0698,-0.49078 -0.0155,-0.1648 -0.0233,-0.32999 -0.0233,-0.49561 0,-0.16559 0.008,-0.33078 0.0233,-0.49557 0.0156,-0.16483 0.0388,-0.32843 0.0698,-0.49085 0.0309,-0.16241 0.0695,-0.32287 0.11551,-0.48135 0.046,-0.15848 0.0994,-0.31421 0.16012,-0.46719 0.0607,-0.15299 0.12848,-0.3025 0.20322,-0.44855 0.0748,-0.14603 0.15628,-0.28787 0.24441,-0.42557 0.0882,-0.13766 0.18256,-0.27051 0.28324,-0.3985 0.10065,-0.12799 0.20706,-0.25055 0.31924,-0.36767 0.11219,-0.1171 0.22959,-0.22815 0.35224,-0.33323 0.12265,-0.10507 0.2499,-0.20361 0.3818,-0.29562 0.13193,-0.092 0.26785,-0.177 0.40775,-0.25503 0.13992,-0.0781 0.28317,-0.14878 0.42975,-0.21216 0.1466,-0.0634 0.2958,-0.11905 0.44763,-0.16712 0.15182,-0.0481 0.30551,-0.0883 0.46112,-0.12057 0.15561,-0.0323 0.31235,-0.0566 0.47024,-0.0728 0.1579,-0.0162 0.31617,-0.0244 0.47483,-0.0244 0.15866,0 0.31695,0.008 0.47482,0.0244 0.1579,0.0162 0.31464,0.0405 0.47021,0.0728 0.15561,0.0323 0.30933,0.0725 0.46112,0.12057 0.15183,0.0481 0.30103,0.10379 0.44761,0.16712 0.14657,0.0634 0.28985,0.13412 0.42978,0.21219 0.13989,0.0781 0.27578,0.16308 0.40771,0.25506 0.13193,0.092 0.25922,0.19055 0.38187,0.29562 0.12262,0.10505 0.24002,0.2161 0.3522,0.3332 0.11221,0.11712 0.21863,0.23968 0.31927,0.36764 0.10065,0.12802 0.19504,0.26083 0.28318,0.3985 0.0882,0.13773 0.16961,0.27957 0.24441,0.4256 0.0748,0.14605 0.14252,0.29559 0.20322,0.44858 0.0607,0.15298 0.1141,0.30874 0.16016,0.46722 0.046,0.15845 0.0846,0.31888 0.1155,0.48129 0.031,0.16242 0.0542,0.32602 0.0698,0.49082 0.0156,0.16482 0.0233,0.33001 0.0233,0.4956 z"
       style="fill:#ffffff;fill-opacity:1;fill-rule:nonzero;stroke:#ffffff;stroke-width:2.17941;stroke-linecap:butt;stroke-linejoin:miter;stroke-miterlimit:10;stroke-dasharray:none;stroke-opacity:1"
       transform="matrix(8.5019833,0,0,8.5014115,-1381.1812,-3047.2208)"
       clip-path="url(#clipPath20)" />
    <path
       id="path21"
       d="m 11.241129,68.996277 c -0.642,-0.507897 -1.3371001,-1.2883 -1.8529998,-2.434601 -3.3528003,-7.4492 -4.0444998,-9.6367 -0.1933002,-10.033302 2.9012,-0.298699 7.238799,-0.1689 10.0873,0.915401 l 0.104601,0.0272 c -2.637899,0.7897 -5.4096,1.4524 -8.221599,1.875599 l -1.5100006,0.2271 0.2434997,1.506901 c 0.005,0.03 0.5382999,3.3069 1.3424999,7.915703 z m -2.3363,-41.048699 c 0.8668003,-0.54 1.4936,0.117001 1.4346,0.997801 -0.0315,0.469099 -0.5652,2.131001 -2.1837998,2.5602 0,0 1.5448999,-0.839001 1.4757003,-2.4466 -0.017,-0.3951 -0.3512001,-0.783199 -0.7265005,-1.111401 z m 19.517099,-8.867401 c 3.7599,0 6.895001,2.6722 7.610501,6.221199 -1.3275,-3.018299 -4.235901,-5.1131 -7.610501,-5.1131 -3.3747,0 -6.282699,2.094801 -7.6105,5.1131 0.7155,-3.548999 3.850901,-6.221199 7.6105,-6.221199 z m 0,1.9452 c 3.213601,0 5.818699,2.605 5.818699,5.8186 0,3.2134 -2.6051,5.818399 -5.818699,5.818399 -3.213399,0 -5.818399,-2.604999 -5.818399,-5.818399 0,-3.2136 2.605,-5.8186 5.818399,-5.8186 z m -2.6819,34.232298 c 0.1078,-0.947899 0.108,-1.950298 -0.008,-3.444698 -0.1947,-2.510899 -1.512301,-1.3629 -6.066401,-2.890801 -3.804399,-1.277 -12.6949993,-5.446998 -15.3037,-8.345401 -0.5148001,-0.572899 -0.8127,-0.901699 -1.2832999,-1.501 -0.4368,-0.5559 -0.7248001,-0.721699 -1.0167001,-1.156502 0.5978001,-0.0661 1.1871002,-0.102901 1.7671001,-0.114498 0.2276001,-0.005 0.4534998,-0.005 0.678,-0.003 L 6.0451279,39.998878 6.611228,37.93158 c 2.1627998,0.2364 4.1445,0.7626 5.8677,1.3278 0.8527,0.279801 1.732199,0.587899 2.6305,0.901402 l -0.3699,2.047199 2.6796,-1.2546 c 1.388401,0.461399 2.8046,0.893699 4.2214,1.221401 l 0.198099,1.980301 2.0112,-1.5644 c 1.559,0.219101 3.102501,0.262402 4.5944,0.0283 l 0.396,2.000401 2.287501,-2.770001 c 1.317901,-0.571499 2.5722,-1.4375 3.733299,-2.681598 -7.9937,5.595298 -18.377001,-0.6582 -26.3223002,-1.9394 C 3.6351266,36.437485 1.4414267,36.911186 0.46082687,37.462788 -1.7368731,36.236786 4.5580268,26.367989 6.0681267,24.472687 c 2.9355001,-3.684201 13.1485003,-2.6861 17.0013003,-5.8501 4.0238,-3.3075 10.814801,0.638901 13.920998,3.436201 2.653801,2.389801 3.466202,6.140101 4.141399,9.5082 0.367901,1.835199 0.754601,3.687601 0.963799,5.559599 0.728199,6.523899 -1.119202,8.716202 -2.696098,11.337402 l -0.007,-0.005 -0.004,0.003 -0.004,-0.003 -0.2775,0.175999 -0.522998,0.3223 c -0.0241,0.0148 -5.3373,3.331001 -12.8438,6.299499 l -1.95e-4,8.89e-4 z m 22.6446,56.551395 c -0.270698,0.8912 -0.5326,2.15101 -0.726001,4.28431 -0.110199,1.21579 5.8003,0.097 10.211601,0.33219 0.309501,0.0168 18.610599,1.03531 14.177501,-0.53489 -0.592201,-0.2097 -7.8302,-3.5135 -9.755798,-4.026 -3.699501,-0.985 -6.334801,-0.0448 -6.505501,-1.1642 -0.277198,-1.81501 0.587399,-4.47161 1.890702,-8.2409 -2.486801,2.7386 -5.905098,6.2348 -9.087799,9.16189 z m -17.318,0.6095 c 0.206399,0.84471 0.399099,1.9862 0.5499,3.6748 0.1086,1.2158 -5.714301,0.097 -10.0607,0.3322 -0.304701,0.0168 -18.334999,1.0353 -13.9673995,-0.5349 0.5836,-0.2097 7.7142005,-3.5135 9.6114005,-4.026 3.644501,-0.985 6.240799,-0.0448 6.4091,-1.1642 0.2455,-1.631 -0.4172,-3.9416 -1.486201,-7.1286 2.3559,2.5328 5.299401,5.5061 8.065199,8.0496 0.294201,0.2704 0.587601,0.5363 0.878701,0.79709 z M 42.239429,0.80377996 C 67.938332,8.7405796 69.71283,34.910881 66.177727,59.109379 64.120323,58.74028 62.093826,58.251877 60.134827,57.688877 l 0.004,-0.028 C 63.32103,36.782578 62.483429,14.548977 46.84523,4.5648766 46.048931,4.0565767 40.839729,1.2638764 38.569431,0.3420763 37.81403,0.03537628 38.163532,-0.41732371 42.239231,0.80377626 Z"
       style="fill:#00aa00;fill-opacity:1;fill-rule:evenodd;stroke:none"
       transform="matrix(8.5019833,0,0,8.5014115,882.25472,186.63737)"
       clip-path="url(#clipPath22)" />
    <path
       id="path25"
       d="m 39.35033,52.01738 c -3.0387,1.778999 -14.119701,7.899299 -26.224701,10.073799 1.0749,6.477402 5.408501,32.083305 7.158301,34.707901 1.2453,1.867798 6.872301,7.926 11.9517,12.5972 3.3092,3.0433 6.236801,5.4397 7.1413,5.4397 v 0.005 h 0.0233 v -0.005 c 0.904499,0 3.8322,-2.3964 7.141301,-5.4397 5.079399,-4.6712 10.706501,-10.729402 11.951702,-12.5972 1.749901,-2.624603 6.083503,-28.230499 7.158401,-34.707901 -12.105099,-2.1745 -23.186001,-8.294502 -26.2248,-10.073799 l -0.0382,0.0244 -0.0383,-0.0244 z m 0.0383,54.9003 -0.0117,5e-4 c -1.290802,0 -3.694099,-1.9321 -6.163002,-4.386 -3.2831,-3.263 -6.9755,-7.584396 -7.825599,-8.961997 -1.539,-2.494499 -4.972901,-25.331803 -4.9828,-25.397301 l -0.2253,-1.475403 1.479901,-0.2407 c 8.720001,-1.418197 16.847499,-6.9015 16.8707,-6.917099 l 0.8498,-0.573501 0.008,0.005 0.008,-0.005 0.850102,0.573501 c 0.0233,0.0156 8.150799,5.498902 16.870701,6.917099 l 1.479999,0.2407 -0.225399,1.475403 c -0.01,0.0655 -3.443802,22.902802 -4.9827,25.397301 -0.850102,1.377601 -4.5425,5.698997 -7.8256,8.961997 -2.469002,2.4539 -4.871899,4.386 -6.163101,4.386 l -0.012,-5e-4 z"
       style="fill:#ab0000;fill-opacity:1;fill-rule:evenodd;stroke:none"
       transform="matrix(8.5019833,0,0,8.5014115,882.25472,186.63737)"
       clip-path="url(#clipPath26)" />
    <path
       id="path23"
       d="m 26.52693,23.823179 c 0.918199,-0.002 1.6665,1.546301 1.671301,3.4594 0.005,1.9128 -0.7353,3.4653 -1.653401,3.4676 -0.918199,0.002 -1.6665,-1.546299 -1.671299,-3.4591 -0.005,-1.912901 0.7353,-3.465401 1.653401,-3.4679 z m -0.1709,1.341299 c 0.2273,-6.01e-4 0.4127,0.383 0.4139,0.8569 9.99e-4,0.473699 -0.182301,0.8584 -0.409599,0.8589 -0.2274,6e-4 -0.4128,-0.382901 -0.413901,-0.8569 -9.99e-4,-0.473699 0.181999,-0.858299 0.4096,-0.8589 z"
       style="fill:#000000;fill-opacity:1;fill-rule:evenodd;stroke:none"
       transform="matrix(8.5019833,0,0,8.5014115,882.25472,186.63737)"
       clip-path="url(#clipPath24)" />
    <path
       id="path27"
       d="m 52.132931,70.739677 c -1.554001,4.050698 -2.993401,7.757203 -4.3181,11.120301 -0.5607,1.451896 -1.1273,2.891296 -1.700501,4.318001 -0.573101,1.426696 -1.108299,2.751297 -1.6049,3.974197 -0.497002,1.222801 -0.942799,2.2864 -1.3377,3.190597 -0.394901,0.904602 -0.694199,1.547799 -0.897999,1.929902 -0.432899,0.8152 -0.942501,1.375602 -1.528499,1.681503 -0.5859,0.305603 -1.1335,0.483902 -1.6432,0.534897 -0.6367,0.0765 -1.260899,0.0127 -1.872299,-0.191101 L 26.644632,70.73967 c 0.611401,-0.101799 1.2291,-0.146301 1.8533,-0.133599 0.624201,0.0128 1.203801,0.114602 1.738701,0.305603 0.534901,0.191102 1.025299,0.4842 1.471199,0.878998 0.4459,0.394898 0.808701,0.9236 1.0891,1.585701 0.0255,0.102097 0.1465,0.426903 0.363098,0.974602 0.216599,0.5476 0.483899,1.235603 0.802502,2.063301 0.318298,0.828003 0.668701,1.751602 1.0508,2.770599 0.3821,1.019097 0.777001,2.050904 1.184601,3.0952 0.942501,2.471199 2.0126,5.235298 3.2099,8.292404 1.171902,-3.057098 2.229199,-5.821197 3.1717,-8.292404 0.407699,-1.044296 0.802501,-2.076103 1.1846,-3.0952 0.3821,-1.018997 0.732499,-1.942596 1.050801,-2.770599 0.318599,-0.827698 0.585998,-1.515701 0.802501,-2.063301 0.216599,-0.547699 0.350399,-0.872498 0.401402,-0.974602 0.280102,-0.662101 0.6432,-1.190803 1.0891,-1.585701 0.445598,-0.394798 0.936001,-0.687896 1.471199,-0.878998 0.534901,-0.191001 1.108002,-0.2928 1.719501,-0.305603 0.611401,-0.0127 1.222802,0.0318 1.834301,0.133599 z"
       style="fill:#000000;fill-opacity:1;fill-rule:evenodd;stroke:#000000;stroke-width:1.0001;stroke-linecap:butt;stroke-linejoin:miter;stroke-miterlimit:10;stroke-dasharray:none;stroke-opacity:1"
       transform="matrix(8.5019833,0,0,8.5014115,882.25472,186.63737)"
       clip-path="url(#clipPath28)" />
  </g>
</svg>
