<?xml version="1.0" encoding="UTF-8" standalone="no"?>
<!-- Created with Inkscape (http://www.inkscape.org/) -->

<svg
   xmlns:dc="http://purl.org/dc/elements/1.1/"
   xmlns:cc="http://creativecommons.org/ns#"
   xmlns:rdf="http://www.w3.org/1999/02/22-rdf-syntax-ns#"
   xmlns:svg="http://www.w3.org/2000/svg"
   xmlns="http://www.w3.org/2000/svg"
   xmlns:sodipodi="http://sodipodi.sourceforge.net/DTD/sodipodi-0.dtd"
   xmlns:inkscape="http://www.inkscape.org/namespaces/inkscape"
   width="30.987652mm"
   height="36.669807mm"
   viewBox="0 0 30.987652 36.669807"
   version="1.1"
   id="svg4577"
   inkscape:version="0.92.4 (5da689c313, 2019-01-14)"
   sodipodi:docname="velo_small.svg">
  <defs
     id="defs4571" />
  <sodipodi:namedview
     id="base"
     pagecolor="#ffffff"
     bordercolor="#666666"
     borderopacity="1.0"
     inkscape:pageopacity="0.0"
     inkscape:pageshadow="2"
     inkscape:zoom="2.8"
     inkscape:cx="67.102531"
     inkscape:cy="42.047614"
     inkscape:document-units="mm"
     inkscape:current-layer="layer1"
     showgrid="false"
     fit-margin-top="0"
     fit-margin-left="0"
     fit-margin-right="0"
     fit-margin-bottom="0"
     inkscape:window-width="1920"
     inkscape:window-height="1026"
     inkscape:window-x="0"
     inkscape:window-y="25"
     inkscape:window-maximized="1" />
  <metadata
     id="metadata4574">
    <rdf:RDF>
      <cc:Work
         rdf:about="">
        <dc:format>image/svg+xml</dc:format>
        <dc:type
           rdf:resource="http://purl.org/dc/dcmitype/StillImage" />
        <dc:title />
      </cc:Work>
    </rdf:RDF>
  </metadata>
  <g
     inkscape:label="Layer 1"
     inkscape:groupmode="layer"
     id="layer1"
     transform="translate(2.2824789,-23.19583)">
    <rect
       y="26.839235"
       x="1.3609265"
       height="29.382998"
       width="23.700842"
       id="rect5303"
       style="opacity:1;fill:#ffffff;fill-opacity:1;stroke:#ffffff;stroke-width:7.28681087;stroke-linecap:round;stroke-linejoin:round;stroke-miterlimit:0;stroke-dasharray:none;stroke-dashoffset:0;stroke-opacity:1;paint-order:fill markers stroke" />
    <path
       inkscape:connector-curvature="0"
       id="path26"
       style="fill:#00aa00;fill-opacity:1;fill-rule:evenodd;stroke-width:0.26458332"
       d="M 7.0005595,43.926156 C 6.830697,43.791748 6.6467851,43.585267 6.5102865,43.281975 c -0.887095,-1.970934 -1.0701072,-2.54971 -0.051144,-2.654618 0.7676092,-0.07906 1.9152657,-0.04471 2.6689311,0.242174 l 0.02768,0.0072 C 8.4578089,41.085673 7.724464,41.261012 6.9804557,41.37301 l -0.3995209,0.06006 0.064426,0.3987 c 0.00132,0.008 0.1424252,0.874951 0.3552032,2.094389 z M 6.3824134,33.065328 c 0.2293409,-0.142875 0.3951817,0.03096 0.3795713,0.264001 -0.00833,0.124116 -0.1495425,0.563853 -0.5777971,0.677386 0,0 0.4087548,-0.221985 0.3904456,-0.647329 -0.0045,-0.104537 -0.092922,-0.207222 -0.1922198,-0.294058 z m 5.1638986,-2.346167 c 0.994806,0 1.824302,0.707046 2.013611,1.646026 -0.351234,-0.798592 -1.120749,-1.352841 -2.013611,-1.352841 -0.89289,0 -1.6622977,0.554249 -2.0136117,1.352841 0.189309,-0.93898 1.0188837,-1.646026 2.0136117,-1.646026 z m 0,0.514668 c 0.850265,0 1.539531,0.68924 1.539531,1.539505 0,0.850212 -0.689266,1.539451 -1.539531,1.539451 -0.850213,0 -1.539452,-0.689239 -1.539452,-1.539451 0,-0.850265 0.689239,-1.539505 1.539452,-1.539505 z m -0.709586,9.057296 c 0.02852,-0.250799 0.02858,-0.516017 -0.0021,-0.91141 -0.05151,-0.664343 -0.40013,-0.360601 -1.6050684,-0.764831 -1.0065804,-0.3379 -3.3588846,-1.441212 -4.0491031,-2.20808 -0.1362075,-0.15158 -0.2150269,-0.238575 -0.3395398,-0.39714 -0.11557,-0.147055 -0.19177,-0.19095 -0.2690019,-0.305991 0.158168,-0.01749 0.3140869,-0.02723 0.4675453,-0.03029 0.060219,-0.0013 0.1199885,-0.0013 0.1793875,-7.94e-4 l 0.4069356,0.581342 0.1497806,-0.546999 c 0.5722408,0.06257 1.0965656,0.201771 1.5524956,0.351313 0.2256102,0.07403 0.4583113,0.155549 0.6959868,0.238496 l -0.09787,0.541655 0.7089767,-0.331946 c 0.3673477,0.122105 0.7420507,0.236458 1.1169114,0.323162 l 0.05241,0.523954 0.5321297,-0.413914 c 0.412486,0.05797 0.82087,0.06945 1.215602,0.0075 l 0.104775,0.529272 0.605234,-0.732896 c 0.348695,-0.151209 0.680561,-0.380312 0.987769,-0.709506 -2.115,1.480423 -4.8622468,-0.174149 -6.9644404,-0.513133 C 4.9881307,35.31163 4.4077143,35.436959 4.1482639,35.582909 3.5667891,35.25853 5.2323147,32.64741 5.631862,32.145945 c 0.7766844,-0.974751 3.4788736,-0.710697 4.498259,-1.547839 1.064631,-0.875109 2.861416,0.169042 3.683265,0.909161 0.702151,0.632328 0.917099,1.624568 1.095745,2.515712 0.09734,0.485563 0.199655,0.975677 0.255006,1.470977 0.192669,1.726115 -0.296122,2.306188 -0.713343,2.999714 l -0.0019,-0.0013 -0.0011,7.93e-4 -0.0011,-7.93e-4 -0.07342,0.04659 -0.138377,0.08528 c -0.0064,0.0039 -1.412161,0.881301 -3.398256,1.666716 z m 5.991384,14.962558 c -0.07162,0.235824 -0.140918,0.569119 -0.192088,1.133555 -0.02916,0.32168 1.534663,0.02566 2.701819,0.08792 0.08189,0.0044 4.924055,0.273897 3.75113,-0.141526 -0.156686,-0.05551 -2.07174,-0.92964 -2.581222,-1.065239 -0.978826,-0.260614 -1.676082,-0.01185 -1.721247,-0.308028 -0.07334,-0.480218 0.155417,-1.18311 0.500248,-2.180404 -0.657966,0.724587 -1.562391,1.649624 -2.40448,2.424086 z m -4.582055,0.161264 c 0.05461,0.223494 0.105595,0.525515 0.145494,0.972291 0.02873,0.32168 -1.511908,0.02566 -2.6618927,0.08792 -0.08062,0.0044 -4.8511345,0.273897 -3.6955404,-0.141526 0.1544109,-0.05551 2.0410483,-0.92964 2.543016,-1.065239 0.9642734,-0.260614 1.6512111,-0.01185 1.6957401,-0.308028 0.06495,-0.431535 -0.110384,-1.042881 -0.3932237,-1.886082 0.6233317,0.67011 1.4021327,1.456796 2.1339177,2.129764 0.07784,0.07154 0.155469,0.141896 0.232489,0.2109 z m 2.956137,-29.53139 c 6.799501,2.099919 7.269004,9.024144 6.333675,15.426664 -0.544354,-0.09766 -1.080532,-0.226881 -1.59885,-0.375815 l 0.0011,-0.0074 c 0.841915,-5.524085 0.6203,-11.406698 -3.517307,-14.048351 -0.210688,-0.134488 -1.588956,-0.87339 -2.189639,-1.117283 -0.199866,-0.08115 -0.107394,-0.200924 0.970968,0.122185 z" />
    <path
       inkscape:connector-curvature="0"
       id="path28"
       style="fill:#000000;fill-rule:evenodd;stroke-width:0.26458332"
       d="m 11.044926,31.97408 c 0.242941,-6.08e-4 0.440928,0.409125 0.442198,0.9153 0.0013,0.506095 -0.194548,0.91686 -0.437462,0.917469 -0.24294,6.08e-4 -0.440928,-0.409125 -0.442198,-0.91522 -0.0013,-0.506095 0.194548,-0.916887 0.437462,-0.917549 z m -0.04522,0.354886 c 0.06014,-1.32e-4 0.109194,0.101335 0.109511,0.226721 2.65e-4,0.125333 -0.04823,0.227119 -0.108373,0.227251 -0.06017,1.59e-4 -0.10922,-0.101309 -0.109511,-0.226722 -2.65e-4,-0.125333 0.04815,-0.227091 0.108373,-0.22725 z" />
    <path
       inkscape:connector-curvature="0"
       id="path30"
       style="fill:#aa0000;fill-rule:evenodd;stroke-width:0.26458332"
       d="m 14.437784,39.433796 c -0.803989,0.470693 -3.735837,2.090023 -6.9386172,2.665359 0.2844006,1.713812 1.4309981,8.488707 1.8939658,9.183132 0.3294857,0.494189 1.8182954,2.097088 3.1622204,3.33301 0.875559,0.805206 1.650153,1.439254 1.889469,1.439254 v 0.0013 h 0.0062 v -0.0013 c 0.239316,0 1.013936,-0.634048 1.889469,-1.439254 1.343925,-1.235922 2.832761,-2.838821 3.162221,-3.33301 0.462994,-0.694425 1.609592,-7.46932 1.893993,-9.183132 -3.202803,-0.575336 -6.134624,-2.194586 -6.93864,-2.665359 l -0.01011,0.0065 z m 0.01013,14.525705 -0.0031,1.58e-4 c -0.341524,0 -0.977397,-0.511201 -1.630627,-1.160489 -0.86865,-0.863336 -1.845597,-2.006706 -2.070519,-2.371196 -0.407194,-0.660003 -1.3157464,-6.702372 -1.3183654,-6.719702 l -0.05961,-0.390367 0.3915567,-0.06368 c 2.3071657,-0.375232 4.4575667,-1.826022 4.4637057,-1.830149 l 0.224843,-0.151712 0.0021,0.0013 0.0021,-0.0013 0.224922,0.151712 c 0.0062,0.0041 2.156566,1.454917 4.463706,1.830149 l 0.391583,0.06368 -0.05964,0.390367 c -0.0026,0.01733 -0.911172,6.059699 -1.318339,6.719702 -0.224923,0.36449 -1.20187,1.50786 -2.070524,2.371196 -0.653256,0.649288 -1.289023,1.160489 -1.630653,1.160489 z" />
    <path
       inkscape:connector-curvature="0"
       id="path32"
       style="fill:#000000;fill-rule:evenodd;stroke:#000000;stroke-width:0.26460978;stroke-linecap:butt;stroke-linejoin:miter;stroke-dasharray:none"
       d="m 17.819847,44.387404 c -0.411162,1.071748 -0.792004,2.052452 -1.142497,2.942246 -0.148352,0.384149 -0.298265,0.76499 -0.449924,1.142471 -0.151633,0.377481 -0.293238,0.727948 -0.42463,1.051507 -0.131498,0.323533 -0.249449,0.604943 -0.353933,0.84418 -0.104484,0.239342 -0.183674,0.409522 -0.237596,0.510619 -0.114538,0.215688 -0.24937,0.363961 -0.404416,0.444897 -0.155019,0.08086 -0.299905,0.128032 -0.434763,0.141526 -0.16846,0.02024 -0.333613,0.0034 -0.495379,-0.05056 l -2.800641,-7.026884 c 0.161766,-0.02693 0.325199,-0.03871 0.490352,-0.03532 0.165153,0.0034 0.318505,0.03029 0.460031,0.08083 0.141526,0.05056 0.271277,0.128112 0.389255,0.232596 0.117978,0.104457 0.213968,0.244342 0.288158,0.419549 0.0068,0.02699 0.03876,0.112951 0.09607,0.257837 0.05731,0.144912 0.128032,0.326919 0.212328,0.545915 0.08422,0.219075 0.176927,0.463444 0.278024,0.733054 0.101097,0.269637 0.205581,0.542634 0.313425,0.818939 0.24937,0.653838 0.532501,1.385173 0.849286,2.194057 0.310066,-0.808884 0.58981,-1.540219 0.839179,-2.194057 0.107871,-0.276305 0.212328,-0.549302 0.313426,-0.818939 0.101097,-0.26961 0.193807,-0.513979 0.278024,-0.733054 0.0843,-0.218996 0.155046,-0.401003 0.212328,-0.545915 0.05731,-0.144886 0.09271,-0.230849 0.106204,-0.257837 0.07411,-0.175207 0.17018,-0.315092 0.288158,-0.419549 0.117898,-0.104484 0.24765,-0.182034 0.389255,-0.232596 0.141526,-0.05054 0.293158,-0.07747 0.454951,-0.08083 0.161766,-0.0034 0.323533,0.0084 0.485325,0.03532 z" />
  </g>
  <g
     inkscape:groupmode="layer"
     id="layer2"
     inkscape:label="Layer 2"
     transform="translate(55.408983,-9.4110419)" />
</svg>
